<svg width="351" height="159" viewBox="0 0 351 159" fill="none" xmlns="http://www.w3.org/2000/svg">
    <path d="M77.7225 19V1.54545H84.6089C85.9327 1.54545 87.0606 1.7983 87.9924 2.30398C88.9242 2.80398 89.6344 3.5 90.1231 4.39204C90.6174 5.27841 90.8646 6.30114 90.8646 7.46023C90.8646 8.61932 90.6146 9.64205 90.1146 10.5284C89.6146 11.4148 88.8901 12.1051 87.9413 12.5994C86.9981 13.0937 85.856 13.3409 84.5151 13.3409H80.1259V10.3835H83.9185C84.6288 10.3835 85.214 10.2614 85.6742 10.017C86.1401 9.76705 86.4867 9.4233 86.714 8.9858C86.9469 8.54261 87.0634 8.03409 87.0634 7.46023C87.0634 6.88068 86.9469 6.375 86.714 5.94318C86.4867 5.50568 86.1401 5.16761 85.6742 4.92898C85.2083 4.68466 84.6174 4.5625 83.9015 4.5625H81.4129V19H77.7225ZM92.7134 19V5.90909H96.2333V8.19318H96.3696C96.6083 7.38068 97.0088 6.76705 97.5713 6.35227C98.1338 5.93182 98.7816 5.72159 99.5145 5.72159C99.6963 5.72159 99.8924 5.73295 100.103 5.75568C100.313 5.77841 100.497 5.80966 100.657 5.84943V9.07102C100.486 9.01989 100.25 8.97443 99.9492 8.93466C99.648 8.89489 99.3725 8.875 99.1225 8.875C98.5884 8.875 98.1111 8.99148 97.6907 9.22443C97.2759 9.4517 96.9463 9.76989 96.702 10.179C96.4634 10.5881 96.3441 11.0597 96.3441 11.5938V19H92.7134ZM102.054 19V5.90909H105.684V19H102.054ZM103.878 4.22159C103.338 4.22159 102.875 4.04261 102.488 3.68466C102.108 3.32102 101.917 2.88636 101.917 2.38068C101.917 1.88068 102.108 1.4517 102.488 1.09375C102.875 0.730113 103.338 0.548295 103.878 0.548295C104.417 0.548295 104.878 0.730113 105.258 1.09375C105.645 1.4517 105.838 1.88068 105.838 2.38068C105.838 2.88636 105.645 3.32102 105.258 3.68466C104.878 4.04261 104.417 4.22159 103.878 4.22159ZM108.113 19V5.90909H111.573V8.21875H111.726C111.999 7.4517 112.454 6.84659 113.09 6.40341C113.726 5.96023 114.488 5.73864 115.374 5.73864C116.272 5.73864 117.036 5.96307 117.667 6.41193C118.297 6.85511 118.718 7.45739 118.928 8.21875H119.064C119.332 7.46875 119.814 6.86932 120.513 6.42045C121.218 5.96591 122.05 5.73864 123.011 5.73864C124.232 5.73864 125.224 6.12784 125.985 6.90625C126.752 7.67898 127.136 8.77557 127.136 10.196V19H123.513V10.9119C123.513 10.1847 123.32 9.6392 122.934 9.27557C122.547 8.91193 122.064 8.73011 121.485 8.73011C120.826 8.73011 120.312 8.94034 119.942 9.3608C119.573 9.77557 119.388 10.3239 119.388 11.0057V19H115.868V10.8352C115.868 10.1932 115.684 9.68182 115.314 9.30114C114.951 8.92045 114.471 8.73011 113.874 8.73011C113.471 8.73011 113.107 8.83239 112.783 9.03693C112.465 9.2358 112.212 9.51705 112.025 9.88068C111.837 10.2386 111.743 10.6591 111.743 11.142V19H108.113ZM135.489 19.2557C134.143 19.2557 132.984 18.983 132.012 18.4375C131.046 17.8864 130.302 17.108 129.779 16.1023C129.256 15.0909 128.995 13.8949 128.995 12.5142C128.995 11.1676 129.256 9.9858 129.779 8.96875C130.302 7.9517 131.038 7.15909 131.986 6.59091C132.941 6.02273 134.06 5.73864 135.344 5.73864C136.208 5.73864 137.012 5.87784 137.756 6.15625C138.506 6.42898 139.16 6.84091 139.717 7.39205C140.279 7.94318 140.717 8.63636 141.029 9.47159C141.342 10.3011 141.498 11.2727 141.498 12.3864V13.3835H130.444V11.1335H138.08C138.08 10.6108 137.967 10.1477 137.739 9.74432C137.512 9.34091 137.197 9.02557 136.793 8.7983C136.396 8.56534 135.932 8.44886 135.404 8.44886C134.853 8.44886 134.364 8.5767 133.938 8.83239C133.518 9.08239 133.188 9.42045 132.95 9.84659C132.711 10.267 132.589 10.7358 132.583 11.2528V13.392C132.583 14.0398 132.702 14.5994 132.941 15.071C133.185 15.5426 133.529 15.9062 133.972 16.1619C134.415 16.4176 134.941 16.5455 135.549 16.5455C135.952 16.5455 136.322 16.4886 136.657 16.375C136.992 16.2614 137.279 16.0909 137.518 15.8636C137.756 15.6364 137.938 15.358 138.063 15.0284L141.421 15.25C141.251 16.0568 140.901 16.7614 140.373 17.3636C139.85 17.9602 139.174 18.4261 138.344 18.7614C137.521 19.0909 136.569 19.2557 135.489 19.2557ZM149.643 19H143.455V1.54545H149.694C151.45 1.54545 152.961 1.89489 154.228 2.59375C155.495 3.28693 156.47 4.28409 157.151 5.58523C157.839 6.88636 158.183 8.44318 158.183 10.2557C158.183 12.0739 157.839 13.6364 157.151 14.9432C156.47 16.25 155.489 17.2528 154.211 17.9517C152.938 18.6506 151.416 19 149.643 19ZM147.146 15.8381H149.489C150.58 15.8381 151.498 15.6449 152.242 15.2585C152.992 14.8665 153.555 14.2614 153.93 13.4432C154.31 12.6193 154.501 11.5568 154.501 10.2557C154.501 8.96591 154.31 7.91193 153.93 7.09375C153.555 6.27557 152.995 5.6733 152.251 5.28693C151.506 4.90057 150.589 4.70739 149.498 4.70739H147.146V15.8381ZM164.101 19.2472C163.266 19.2472 162.521 19.1023 161.868 18.8125C161.215 18.517 160.698 18.0824 160.317 17.5085C159.942 16.929 159.754 16.2074 159.754 15.3438C159.754 14.6165 159.888 14.0057 160.155 13.5114C160.422 13.017 160.786 12.6193 161.246 12.3182C161.706 12.017 162.229 11.7898 162.814 11.6364C163.405 11.483 164.024 11.375 164.672 11.3125C165.433 11.233 166.047 11.1591 166.513 11.0909C166.979 11.017 167.317 10.9091 167.527 10.767C167.737 10.625 167.843 10.4148 167.843 10.1364V10.0852C167.843 9.54545 167.672 9.12784 167.331 8.83239C166.996 8.53693 166.519 8.3892 165.899 8.3892C165.246 8.3892 164.726 8.53409 164.34 8.82386C163.953 9.10795 163.698 9.46591 163.573 9.89773L160.215 9.625C160.385 8.82955 160.72 8.14205 161.22 7.5625C161.72 6.97727 162.365 6.52841 163.155 6.21591C163.95 5.89773 164.871 5.73864 165.916 5.73864C166.644 5.73864 167.34 5.82386 168.004 5.99432C168.675 6.16477 169.269 6.42898 169.786 6.78693C170.308 7.14489 170.72 7.60511 171.021 8.16761C171.323 8.72443 171.473 9.39205 171.473 10.1705V19H168.03V17.1847H167.928C167.718 17.5938 167.436 17.9545 167.084 18.267C166.732 18.5739 166.308 18.8153 165.814 18.9915C165.32 19.1619 164.749 19.2472 164.101 19.2472ZM165.141 16.7415C165.675 16.7415 166.146 16.6364 166.556 16.4261C166.965 16.2102 167.286 15.9205 167.519 15.5568C167.752 15.1932 167.868 14.7812 167.868 14.321V12.9318C167.754 13.0057 167.598 13.0739 167.399 13.1364C167.206 13.1932 166.987 13.2472 166.743 13.2983C166.499 13.3437 166.254 13.3864 166.01 13.4261C165.766 13.4602 165.544 13.4915 165.345 13.5199C164.919 13.5824 164.547 13.6818 164.229 13.8182C163.911 13.9545 163.664 14.1392 163.487 14.3722C163.311 14.5994 163.223 14.8835 163.223 15.2244C163.223 15.7188 163.402 16.0966 163.76 16.358C164.124 16.6136 164.584 16.7415 165.141 16.7415ZM180.773 5.90909V8.63636H172.889V5.90909H180.773ZM174.679 2.77273H178.31V14.9773C178.31 15.3125 178.361 15.5739 178.463 15.7614C178.566 15.9432 178.708 16.071 178.889 16.1449C179.077 16.2187 179.293 16.2557 179.537 16.2557C179.708 16.2557 179.878 16.2415 180.049 16.2131C180.219 16.179 180.35 16.1534 180.441 16.1364L181.012 18.8381C180.83 18.8949 180.574 18.9602 180.245 19.0341C179.915 19.1136 179.514 19.1619 179.043 19.179C178.168 19.2131 177.401 19.0966 176.742 18.8295C176.088 18.5625 175.58 18.1477 175.216 17.5852C174.853 17.0227 174.674 16.3125 174.679 15.4545V2.77273ZM186.391 19.2472C185.556 19.2472 184.812 19.1023 184.158 18.8125C183.505 18.517 182.988 18.0824 182.607 17.5085C182.232 16.929 182.044 16.2074 182.044 15.3438C182.044 14.6165 182.178 14.0057 182.445 13.5114C182.712 13.017 183.076 12.6193 183.536 12.3182C183.996 12.017 184.519 11.7898 185.104 11.6364C185.695 11.483 186.314 11.375 186.962 11.3125C187.723 11.233 188.337 11.1591 188.803 11.0909C189.269 11.017 189.607 10.9091 189.817 10.767C190.027 10.625 190.133 10.4148 190.133 10.1364V10.0852C190.133 9.54545 189.962 9.12784 189.621 8.83239C189.286 8.53693 188.809 8.3892 188.189 8.3892C187.536 8.3892 187.016 8.53409 186.63 8.82386C186.243 9.10795 185.988 9.46591 185.863 9.89773L182.505 9.625C182.675 8.82955 183.01 8.14205 183.51 7.5625C184.01 6.97727 184.655 6.52841 185.445 6.21591C186.24 5.89773 187.161 5.73864 188.206 5.73864C188.934 5.73864 189.63 5.82386 190.294 5.99432C190.965 6.16477 191.559 6.42898 192.076 6.78693C192.598 7.14489 193.01 7.60511 193.312 8.16761C193.613 8.72443 193.763 9.39205 193.763 10.1705V19H190.32V17.1847H190.218C190.008 17.5938 189.726 17.9545 189.374 18.267C189.022 18.5739 188.598 18.8153 188.104 18.9915C187.61 19.1619 187.039 19.2472 186.391 19.2472ZM187.431 16.7415C187.965 16.7415 188.437 16.6364 188.846 16.4261C189.255 16.2102 189.576 15.9205 189.809 15.5568C190.042 15.1932 190.158 14.7812 190.158 14.321V12.9318C190.044 13.0057 189.888 13.0739 189.689 13.1364C189.496 13.1932 189.277 13.2472 189.033 13.2983C188.789 13.3437 188.544 13.3864 188.3 13.4261C188.056 13.4602 187.834 13.4915 187.635 13.5199C187.209 13.5824 186.837 13.6818 186.519 13.8182C186.201 13.9545 185.954 14.1392 185.777 14.3722C185.601 14.5994 185.513 14.8835 185.513 15.2244C185.513 15.7188 185.692 16.0966 186.05 16.358C186.414 16.6136 186.874 16.7415 187.431 16.7415ZM216.643 7.65625H212.91C212.842 7.1733 212.703 6.74432 212.493 6.36932C212.283 5.98864 212.013 5.66477 211.683 5.39773C211.354 5.13068 210.973 4.92614 210.541 4.78409C210.115 4.64205 209.652 4.57102 209.152 4.57102C208.248 4.57102 207.462 4.79545 206.791 5.24432C206.121 5.6875 205.601 6.33523 205.231 7.1875C204.862 8.03409 204.677 9.0625 204.677 10.2727C204.677 11.517 204.862 12.5625 205.231 13.4091C205.606 14.2557 206.129 14.8949 206.8 15.3267C207.47 15.7585 208.246 15.9744 209.126 15.9744C209.621 15.9744 210.078 15.9091 210.498 15.7784C210.925 15.6477 211.302 15.4574 211.632 15.2074C211.962 14.9517 212.234 14.642 212.45 14.2784C212.672 13.9148 212.825 13.5 212.91 13.0341L216.643 13.0511C216.547 13.8523 216.305 14.625 215.919 15.3693C215.538 16.108 215.024 16.7699 214.376 17.3551C213.734 17.9347 212.967 18.3949 212.075 18.7358C211.189 19.071 210.186 19.2386 209.067 19.2386C207.51 19.2386 206.118 18.8864 204.891 18.1818C203.669 17.4773 202.703 16.4574 201.993 15.1222C201.288 13.7869 200.936 12.1705 200.936 10.2727C200.936 8.36932 201.294 6.75 202.01 5.41477C202.726 4.07955 203.697 3.0625 204.925 2.36364C206.152 1.65909 207.533 1.30682 209.067 1.30682C210.078 1.30682 211.016 1.44886 211.879 1.73295C212.748 2.01705 213.518 2.43182 214.189 2.97727C214.859 3.51704 215.405 4.17898 215.825 4.96307C216.251 5.74716 216.524 6.64489 216.643 7.65625ZM224.997 19H218.81V1.54545H225.048C226.804 1.54545 228.315 1.89489 229.582 2.59375C230.849 3.28693 231.824 4.28409 232.506 5.58523C233.193 6.88636 233.537 8.44318 233.537 10.2557C233.537 12.0739 233.193 13.6364 232.506 14.9432C231.824 16.25 230.844 17.2528 229.565 17.9517C228.293 18.6506 226.77 19 224.997 19ZM222.5 15.8381H224.844C225.935 15.8381 226.852 15.6449 227.597 15.2585C228.347 14.8665 228.909 14.2614 229.284 13.4432C229.665 12.6193 229.855 11.5568 229.855 10.2557C229.855 8.96591 229.665 7.91193 229.284 7.09375C228.909 6.27557 228.349 5.6733 227.605 5.28693C226.861 4.90057 225.943 4.70739 224.852 4.70739H222.5V15.8381ZM235.791 19V1.54545H242.677C244.001 1.54545 245.129 1.7983 246.061 2.30398C246.992 2.80398 247.703 3.5 248.191 4.39204C248.686 5.27841 248.933 6.30114 248.933 7.46023C248.933 8.61932 248.683 9.64205 248.183 10.5284C247.683 11.4148 246.958 12.1051 246.009 12.5994C245.066 13.0937 243.924 13.3409 242.583 13.3409H238.194V10.3835H241.987C242.697 10.3835 243.282 10.2614 243.742 10.017C244.208 9.76705 244.555 9.4233 244.782 8.9858C245.015 8.54261 245.132 8.03409 245.132 7.46023C245.132 6.88068 245.015 6.375 244.782 5.94318C244.555 5.50568 244.208 5.16761 243.742 4.92898C243.276 4.68466 242.686 4.5625 241.97 4.5625H239.481V19H235.791ZM261.038 16.3409V4.27273H264.089V16.3409H261.038ZM256.53 11.8324V8.78125H268.598V11.8324H256.53ZM50.9803 39.1875C50.861 38.7727 50.6934 38.4062 50.4774 38.0881C50.2615 37.7642 49.9973 37.4915 49.6848 37.2699C49.378 37.0426 49.0257 36.8693 48.628 36.75C48.236 36.6307 47.8013 36.571 47.324 36.571C46.432 36.571 45.6479 36.7926 44.9718 37.2358C44.3013 37.679 43.7786 38.3239 43.4036 39.1705C43.0286 40.0114 42.8411 41.0398 42.8411 42.2557C42.8411 43.4716 43.0257 44.5057 43.3951 45.358C43.7644 46.2102 44.2871 46.8608 44.9632 47.3097C45.6394 47.7528 46.4377 47.9744 47.3581 47.9744C48.1934 47.9744 48.9064 47.8267 49.4973 47.5312C50.0939 47.2301 50.5485 46.8068 50.861 46.2614C51.1791 45.7159 51.3382 45.071 51.3382 44.3267L52.0882 44.4375H47.5882V41.6591H54.8922V43.858C54.8922 45.392 54.5684 46.7102 53.9206 47.8125C53.2729 48.9091 52.3809 49.7557 51.2445 50.3523C50.1081 50.9432 48.807 51.2386 47.3411 51.2386C45.7047 51.2386 44.2672 50.8778 43.0286 50.1562C41.7899 49.429 40.824 48.3977 40.1309 47.0625C39.4434 45.7216 39.0996 44.1307 39.0996 42.2898C39.0996 40.875 39.3041 39.6136 39.7132 38.5057C40.128 37.392 40.7076 36.4489 41.4519 35.6761C42.1962 34.9034 43.0627 34.3153 44.0513 33.9119C45.0399 33.5085 46.111 33.3068 47.2644 33.3068C48.253 33.3068 49.1735 33.4517 50.0257 33.7415C50.878 34.0256 51.6337 34.429 52.2928 34.9517C52.9576 35.4744 53.5002 36.0966 53.9206 36.8182C54.3411 37.5341 54.611 38.3239 54.7303 39.1875H50.9803ZM60.7467 33.5455V51H57.1161V33.5455H60.7467ZM69.0899 51.2557C67.766 51.2557 66.6211 50.9744 65.6552 50.4119C64.695 49.8437 63.9535 49.054 63.4308 48.0426C62.9081 47.0256 62.6467 45.8466 62.6467 44.5057C62.6467 43.1534 62.9081 41.9716 63.4308 40.9602C63.9535 39.9432 64.695 39.1534 65.6552 38.5909C66.6211 38.0227 67.766 37.7386 69.0899 37.7386C70.4137 37.7386 71.5558 38.0227 72.516 38.5909C73.4819 39.1534 74.2262 39.9432 74.749 40.9602C75.2717 41.9716 75.5331 43.1534 75.5331 44.5057C75.5331 45.8466 75.2717 47.0256 74.749 48.0426C74.2262 49.054 73.4819 49.8437 72.516 50.4119C71.5558 50.9744 70.4137 51.2557 69.0899 51.2557ZM69.1069 48.4432C69.7092 48.4432 70.212 48.2727 70.6155 47.9318C71.0189 47.5852 71.3228 47.1136 71.5274 46.517C71.7376 45.9205 71.8427 45.2415 71.8427 44.4801C71.8427 43.7188 71.7376 43.0398 71.5274 42.4432C71.3228 41.8466 71.0189 41.375 70.6155 41.0284C70.212 40.6818 69.7092 40.5085 69.1069 40.5085C68.499 40.5085 67.9876 40.6818 67.5728 41.0284C67.1637 41.375 66.8541 41.8466 66.6439 42.4432C66.4393 43.0398 66.337 43.7188 66.337 44.4801C66.337 45.2415 66.4393 45.9205 66.6439 46.517C66.8541 47.1136 67.1637 47.5852 67.5728 47.9318C67.9876 48.2727 68.499 48.4432 69.1069 48.4432ZM77.482 51V33.5455H81.1127V40.108H81.2235C81.3826 39.7557 81.6127 39.3977 81.9139 39.0341C82.2207 38.6648 82.6184 38.358 83.107 38.1136C83.6014 37.8636 84.215 37.7386 84.948 37.7386C85.9025 37.7386 86.7832 37.9886 87.59 38.4886C88.3968 38.983 89.0417 39.7301 89.5247 40.7301C90.0076 41.7244 90.2491 42.9716 90.2491 44.4716C90.2491 45.9318 90.0133 47.1648 89.5417 48.1705C89.0758 49.1705 88.4394 49.929 87.6326 50.446C86.8315 50.9574 85.9337 51.2131 84.9394 51.2131C84.2349 51.2131 83.6355 51.0966 83.1411 50.8636C82.6525 50.6307 82.2519 50.3381 81.9394 49.9858C81.6269 49.6278 81.3883 49.267 81.2235 48.9034H81.0616V51H77.482ZM81.036 44.4545C81.036 45.233 81.144 45.9119 81.3599 46.4915C81.5758 47.071 81.8883 47.5227 82.2974 47.8466C82.7065 48.1648 83.2036 48.3239 83.7889 48.3239C84.3798 48.3239 84.8798 48.1619 85.2889 47.8381C85.698 47.5085 86.0076 47.054 86.2178 46.4744C86.4337 45.8892 86.5417 45.2159 86.5417 44.4545C86.5417 43.6989 86.4366 43.0341 86.2264 42.4602C86.0161 41.8864 85.7065 41.4375 85.2974 41.1136C84.8883 40.7898 84.3855 40.6278 83.7889 40.6278C83.198 40.6278 82.698 40.7841 82.2889 41.0966C81.8855 41.4091 81.5758 41.8523 81.3599 42.4261C81.144 43 81.036 43.6761 81.036 44.4545ZM95.9246 51.2472C95.0894 51.2472 94.3451 51.1023 93.6917 50.8125C93.0383 50.517 92.5212 50.0824 92.1405 49.5085C91.7655 48.929 91.578 48.2074 91.578 47.3438C91.578 46.6165 91.7116 46.0057 91.9786 45.5114C92.2457 45.017 92.6093 44.6193 93.0695 44.3182C93.5297 44.017 94.0525 43.7898 94.6377 43.6364C95.2286 43.483 95.8479 43.375 96.4957 43.3125C97.257 43.233 97.8707 43.1591 98.3366 43.0909C98.8025 43.017 99.1405 42.9091 99.3508 42.767C99.561 42.625 99.6661 42.4148 99.6661 42.1364V42.0852C99.6661 41.5455 99.4957 41.1278 99.1547 40.8324C98.8195 40.5369 98.3422 40.3892 97.7229 40.3892C97.0695 40.3892 96.5496 40.5341 96.1633 40.8239C95.7769 41.108 95.5212 41.4659 95.3962 41.8977L92.0383 41.625C92.2087 40.8295 92.5439 40.142 93.0439 39.5625C93.5439 38.9773 94.1888 38.5284 94.9786 38.2159C95.7741 37.8977 96.6945 37.7386 97.74 37.7386C98.4672 37.7386 99.1633 37.8239 99.828 37.9943C100.498 38.1648 101.092 38.429 101.609 38.7869C102.132 39.1449 102.544 39.6051 102.845 40.1676C103.146 40.7244 103.297 41.392 103.297 42.1705V51H99.8536V49.1847H99.7513C99.5411 49.5938 99.2599 49.9545 98.9076 50.267C98.5553 50.5739 98.132 50.8153 97.6377 50.9915C97.1434 51.1619 96.5724 51.2472 95.9246 51.2472ZM96.9644 48.7415C97.4985 48.7415 97.9701 48.6364 98.3792 48.4261C98.7883 48.2102 99.1093 47.9205 99.3422 47.5568C99.5752 47.1932 99.6917 46.7812 99.6917 46.321V44.9318C99.578 45.0057 99.4218 45.0739 99.2229 45.1364C99.0297 45.1932 98.811 45.2472 98.5667 45.2983C98.3224 45.3437 98.078 45.3864 97.8337 45.4261C97.5894 45.4602 97.3678 45.4915 97.1689 45.5199C96.7428 45.5824 96.3707 45.6818 96.0525 45.8182C95.7343 45.9545 95.4871 46.1392 95.311 46.3722C95.1349 46.5994 95.0468 46.8835 95.0468 47.2244C95.0468 47.7188 95.2258 48.0966 95.5837 48.358C95.9474 48.6136 96.4076 48.7415 96.9644 48.7415ZM109.264 33.5455V51H105.634V33.5455H109.264ZM116.835 33.5455H121.387L126.193 45.2727H126.398L131.205 33.5455H135.756V51H132.176V39.6392H132.032L127.514 50.9148H125.077L120.56 39.5966H120.415V51H116.835V33.5455ZM141.981 51.2472C141.146 51.2472 140.402 51.1023 139.748 50.8125C139.095 50.517 138.578 50.0824 138.197 49.5085C137.822 48.929 137.635 48.2074 137.635 47.3438C137.635 46.6165 137.768 46.0057 138.035 45.5114C138.302 45.017 138.666 44.6193 139.126 44.3182C139.586 44.017 140.109 43.7898 140.694 43.6364C141.285 43.483 141.904 43.375 142.552 43.3125C143.314 43.233 143.927 43.1591 144.393 43.0909C144.859 43.017 145.197 42.9091 145.407 42.767C145.618 42.625 145.723 42.4148 145.723 42.1364V42.0852C145.723 41.5455 145.552 41.1278 145.211 40.8324C144.876 40.5369 144.399 40.3892 143.779 40.3892C143.126 40.3892 142.606 40.5341 142.22 40.8239C141.833 41.108 141.578 41.4659 141.453 41.8977L138.095 41.625C138.265 40.8295 138.601 40.142 139.101 39.5625C139.601 38.9773 140.245 38.5284 141.035 38.2159C141.831 37.8977 142.751 37.7386 143.797 37.7386C144.524 37.7386 145.22 37.8239 145.885 37.9943C146.555 38.1648 147.149 38.429 147.666 38.7869C148.189 39.1449 148.601 39.6051 148.902 40.1676C149.203 40.7244 149.353 41.392 149.353 42.1705V51H145.91V49.1847H145.808C145.598 49.5938 145.316 49.9545 144.964 50.267C144.612 50.5739 144.189 50.8153 143.694 50.9915C143.2 51.1619 142.629 51.2472 141.981 51.2472ZM143.021 48.7415C143.555 48.7415 144.027 48.6364 144.436 48.4261C144.845 48.2102 145.166 47.9205 145.399 47.5568C145.632 47.1932 145.748 46.7812 145.748 46.321V44.9318C145.635 45.0057 145.478 45.0739 145.279 45.1364C145.086 45.1932 144.868 45.2472 144.623 45.2983C144.379 45.3437 144.135 45.3864 143.89 45.4261C143.646 45.4602 143.424 45.4915 143.226 45.5199C142.799 45.5824 142.427 45.6818 142.109 45.8182C141.791 45.9545 141.544 46.1392 141.368 46.3722C141.191 46.5994 141.103 46.8835 141.103 47.2244C141.103 47.7188 141.282 48.0966 141.64 48.358C142.004 48.6136 142.464 48.7415 143.021 48.7415ZM151.69 51V37.9091H155.21V40.1932H155.346C155.585 39.3807 155.986 38.767 156.548 38.3523C157.111 37.9318 157.758 37.7216 158.491 37.7216C158.673 37.7216 158.869 37.733 159.079 37.7557C159.29 37.7784 159.474 37.8097 159.633 37.8494V41.071C159.463 41.0199 159.227 40.9744 158.926 40.9347C158.625 40.8949 158.349 40.875 158.099 40.875C157.565 40.875 157.088 40.9915 156.667 41.2244C156.253 41.4517 155.923 41.7699 155.679 42.179C155.44 42.5881 155.321 43.0597 155.321 43.5938V51H151.69ZM168.65 37.9091V40.6364H160.766V37.9091H168.65ZM162.556 34.7727H166.187V46.9773C166.187 47.3125 166.238 47.5739 166.34 47.7614C166.442 47.9432 166.584 48.071 166.766 48.1449C166.954 48.2187 167.17 48.2557 167.414 48.2557C167.584 48.2557 167.755 48.2415 167.925 48.2131C168.096 48.179 168.226 48.1534 168.317 48.1364L168.888 50.8381C168.707 50.8949 168.451 50.9602 168.121 51.0341C167.792 51.1136 167.391 51.1619 166.92 51.179C166.045 51.2131 165.278 51.0966 164.618 50.8295C163.965 50.5625 163.457 50.1477 163.093 49.5852C162.729 49.0227 162.55 48.3125 162.556 47.4545V34.7727ZM176.36 51.2557C175.013 51.2557 173.854 50.983 172.883 50.4375C171.917 49.8864 171.173 49.108 170.65 48.1023C170.127 47.0909 169.866 45.8949 169.866 44.5142C169.866 43.1676 170.127 41.9858 170.65 40.9688C171.173 39.9517 171.908 39.1591 172.857 38.5909C173.812 38.0227 174.931 37.7386 176.215 37.7386C177.079 37.7386 177.883 37.8778 178.627 38.1562C179.377 38.429 180.031 38.8409 180.587 39.392C181.15 39.9432 181.587 40.6364 181.9 41.4716C182.212 42.3011 182.369 43.2727 182.369 44.3864V45.3835H171.315V43.1335H178.951C178.951 42.6108 178.837 42.1477 178.61 41.7443C178.383 41.3409 178.067 41.0256 177.664 40.7983C177.266 40.5653 176.803 40.4489 176.275 40.4489C175.724 40.4489 175.235 40.5767 174.809 40.8324C174.388 41.0824 174.059 41.4205 173.82 41.8466C173.582 42.267 173.46 42.7358 173.454 43.2528V45.392C173.454 46.0398 173.573 46.5994 173.812 47.071C174.056 47.5426 174.4 47.9062 174.843 48.1619C175.286 48.4176 175.812 48.5455 176.42 48.5455C176.823 48.5455 177.192 48.4886 177.528 48.375C177.863 48.2614 178.15 48.0909 178.388 47.8636C178.627 47.6364 178.809 47.358 178.934 47.0284L182.292 47.25C182.121 48.0568 181.772 48.7614 181.244 49.3636C180.721 49.9602 180.045 50.4261 179.215 50.7614C178.391 51.0909 177.44 51.2557 176.36 51.2557ZM190.173 51.2557C188.832 51.2557 187.678 50.9716 186.712 50.4034C185.752 49.8295 185.014 49.0341 184.497 48.017C183.985 47 183.73 45.8295 183.73 44.5057C183.73 43.1648 183.988 41.9886 184.505 40.9773C185.028 39.9602 185.769 39.1676 186.73 38.5994C187.69 38.0256 188.832 37.7386 190.156 37.7386C191.298 37.7386 192.298 37.946 193.156 38.3608C194.014 38.7756 194.693 39.358 195.193 40.108C195.693 40.858 195.968 41.7386 196.019 42.75H192.593C192.497 42.0966 192.241 41.571 191.826 41.1733C191.417 40.7699 190.88 40.5682 190.215 40.5682C189.653 40.5682 189.161 40.7216 188.741 41.0284C188.326 41.3295 188.002 41.7699 187.769 42.3494C187.536 42.929 187.42 43.6307 187.42 44.4545C187.42 45.2898 187.533 46 187.761 46.5852C187.994 47.1705 188.32 47.6165 188.741 47.9233C189.161 48.2301 189.653 48.3835 190.215 48.3835C190.63 48.3835 191.002 48.2983 191.332 48.1278C191.667 47.9574 191.943 47.7102 192.158 47.3864C192.38 47.0568 192.525 46.6619 192.593 46.2017H196.019C195.962 47.2017 195.69 48.0824 195.201 48.8438C194.718 49.5994 194.051 50.1903 193.198 50.6165C192.346 51.0426 191.337 51.2557 190.173 51.2557ZM201.495 43.4318V51H197.864V33.5455H201.392V40.2188H201.546C201.841 39.446 202.318 38.8409 202.977 38.4034C203.637 37.9602 204.463 37.7386 205.458 37.7386C206.367 37.7386 207.159 37.9375 207.835 38.3352C208.517 38.7273 209.046 39.2926 209.421 40.0312C209.801 40.7642 209.989 41.642 209.983 42.6648V51H206.352V43.3125C206.358 42.5057 206.154 41.8778 205.739 41.429C205.33 40.9801 204.756 40.7557 204.017 40.7557C203.523 40.7557 203.085 40.8608 202.705 41.071C202.33 41.2812 202.034 41.5881 201.818 41.9915C201.608 42.3892 201.5 42.8693 201.495 43.4318ZM217.503 51V33.5455H224.39C225.714 33.5455 226.841 33.7983 227.773 34.304C228.705 34.804 229.415 35.5 229.904 36.392C230.398 37.2784 230.645 38.3011 230.645 39.4602C230.645 40.6193 230.395 41.642 229.895 42.5284C229.395 43.4148 228.671 44.1051 227.722 44.5994C226.779 45.0937 225.637 45.3409 224.296 45.3409H219.907V42.3835H223.699C224.41 42.3835 224.995 42.2614 225.455 42.017C225.921 41.767 226.268 41.4233 226.495 40.9858C226.728 40.5426 226.844 40.0341 226.844 39.4602C226.844 38.8807 226.728 38.375 226.495 37.9432C226.268 37.5057 225.921 37.1676 225.455 36.929C224.989 36.6847 224.398 36.5625 223.682 36.5625H221.194V51H217.503ZM235.876 51.2472C235.04 51.2472 234.296 51.1023 233.643 50.8125C232.989 50.517 232.472 50.0824 232.091 49.5085C231.716 48.929 231.529 48.2074 231.529 47.3438C231.529 46.6165 231.663 46.0057 231.93 45.5114C232.197 45.017 232.56 44.6193 233.02 44.3182C233.481 44.017 234.003 43.7898 234.589 43.6364C235.18 43.483 235.799 43.375 236.447 43.3125C237.208 43.233 237.822 43.1591 238.288 43.0909C238.753 43.017 239.091 42.9091 239.302 42.767C239.512 42.625 239.617 42.4148 239.617 42.1364V42.0852C239.617 41.5455 239.447 41.1278 239.106 40.8324C238.77 40.5369 238.293 40.3892 237.674 40.3892C237.02 40.3892 236.501 40.5341 236.114 40.8239C235.728 41.108 235.472 41.4659 235.347 41.8977L231.989 41.625C232.16 40.8295 232.495 40.142 232.995 39.5625C233.495 38.9773 234.14 38.5284 234.93 38.2159C235.725 37.8977 236.645 37.7386 237.691 37.7386C238.418 37.7386 239.114 37.8239 239.779 37.9943C240.449 38.1648 241.043 38.429 241.56 38.7869C242.083 39.1449 242.495 39.6051 242.796 40.1676C243.097 40.7244 243.248 41.392 243.248 42.1705V51H239.805V49.1847H239.702C239.492 49.5938 239.211 49.9545 238.859 50.267C238.506 50.5739 238.083 50.8153 237.589 50.9915C237.094 51.1619 236.523 51.2472 235.876 51.2472ZM236.915 48.7415C237.449 48.7415 237.921 48.6364 238.33 48.4261C238.739 48.2102 239.06 47.9205 239.293 47.5568C239.526 47.1932 239.643 46.7812 239.643 46.321V44.9318C239.529 45.0057 239.373 45.0739 239.174 45.1364C238.981 45.1932 238.762 45.2472 238.518 45.2983C238.273 45.3437 238.029 45.3864 237.785 45.4261C237.54 45.4602 237.319 45.4915 237.12 45.5199C236.694 45.5824 236.322 45.6818 236.003 45.8182C235.685 45.9545 235.438 46.1392 235.262 46.3722C235.086 46.5994 234.998 46.8835 234.998 47.2244C234.998 47.7188 235.177 48.0966 235.535 48.358C235.898 48.6136 236.359 48.7415 236.915 48.7415ZM245.584 51V37.9091H249.104V40.1932H249.241C249.479 39.3807 249.88 38.767 250.442 38.3523C251.005 37.9318 251.653 37.7216 252.386 37.7216C252.567 37.7216 252.763 37.733 252.974 37.7557C253.184 37.7784 253.369 37.8097 253.528 37.8494V41.071C253.357 41.0199 253.121 40.9744 252.82 40.9347C252.519 40.8949 252.244 40.875 251.994 40.875C251.459 40.875 250.982 40.9915 250.562 41.2244C250.147 41.4517 249.817 41.7699 249.573 42.179C249.334 42.5881 249.215 43.0597 249.215 43.5938V51H245.584ZM262.544 37.9091V40.6364H254.661V37.9091H262.544ZM256.45 34.7727H260.081V46.9773C260.081 47.3125 260.132 47.5739 260.234 47.7614C260.337 47.9432 260.479 48.071 260.661 48.1449C260.848 48.2187 261.064 48.2557 261.308 48.2557C261.479 48.2557 261.649 48.2415 261.82 48.2131C261.99 48.179 262.121 48.1534 262.212 48.1364L262.783 50.8381C262.601 50.8949 262.345 50.9602 262.016 51.0341C261.686 51.1136 261.286 51.1619 260.814 51.179C259.939 51.2131 259.172 51.0966 258.513 50.8295C257.859 50.5625 257.351 50.1477 256.987 49.5852C256.624 49.0227 256.445 48.3125 256.45 47.4545V34.7727ZM268.06 43.4318V51H264.429V37.9091H267.889V40.2188H268.043C268.333 39.4574 268.818 38.8551 269.5 38.4119C270.182 37.9631 271.009 37.7386 271.98 37.7386C272.889 37.7386 273.682 37.9375 274.358 38.3352C275.034 38.733 275.56 39.3011 275.935 40.0398C276.31 40.7727 276.497 41.6477 276.497 42.6648V51H272.867V43.3125C272.872 42.5114 272.668 41.8864 272.253 41.4375C271.838 40.983 271.267 40.7557 270.54 40.7557C270.051 40.7557 269.62 40.8608 269.245 41.071C268.875 41.2812 268.585 41.5881 268.375 41.9915C268.171 42.3892 268.066 42.8693 268.06 43.4318ZM284.845 51.2557C283.498 51.2557 282.339 50.983 281.367 50.4375C280.402 49.8864 279.657 49.108 279.135 48.1023C278.612 47.0909 278.35 45.8949 278.35 44.5142C278.35 43.1676 278.612 41.9858 279.135 40.9688C279.657 39.9517 280.393 39.1591 281.342 38.5909C282.296 38.0227 283.416 37.7386 284.7 37.7386C285.564 37.7386 286.367 37.8778 287.112 38.1562C287.862 38.429 288.515 38.8409 289.072 39.392C289.635 39.9432 290.072 40.6364 290.385 41.4716C290.697 42.3011 290.853 43.2727 290.853 44.3864V45.3835H279.799V43.1335H287.436C287.436 42.6108 287.322 42.1477 287.095 41.7443C286.867 41.3409 286.552 41.0256 286.149 40.7983C285.751 40.5653 285.288 40.4489 284.76 40.4489C284.208 40.4489 283.72 40.5767 283.294 40.8324C282.873 41.0824 282.544 41.4205 282.305 41.8466C282.066 42.267 281.944 42.7358 281.939 43.2528V45.392C281.939 46.0398 282.058 46.5994 282.296 47.071C282.541 47.5426 282.885 47.9062 283.328 48.1619C283.771 48.4176 284.296 48.5455 284.904 48.5455C285.308 48.5455 285.677 48.4886 286.012 48.375C286.348 48.2614 286.635 48.0909 286.873 47.8636C287.112 47.6364 287.294 47.358 287.419 47.0284L290.777 47.25C290.606 48.0568 290.257 48.7614 289.728 49.3636C289.206 49.9602 288.529 50.4261 287.7 50.7614C286.876 51.0909 285.924 51.2557 284.845 51.2557ZM292.743 51V37.9091H296.263V40.1932H296.399C296.638 39.3807 297.038 38.767 297.601 38.3523C298.163 37.9318 298.811 37.7216 299.544 37.7216C299.726 37.7216 299.922 37.733 300.132 37.7557C300.342 37.7784 300.527 37.8097 300.686 37.8494V41.071C300.515 41.0199 300.28 40.9744 299.978 40.9347C299.677 40.8949 299.402 40.875 299.152 40.875C298.618 40.875 298.14 40.9915 297.72 41.2244C297.305 41.4517 296.976 41.7699 296.731 42.179C296.493 42.5881 296.373 43.0597 296.373 43.5938V51H292.743ZM312.975 41.642L309.651 41.8466C309.594 41.5625 309.472 41.3068 309.285 41.0795C309.097 40.8466 308.85 40.6619 308.543 40.5256C308.242 40.3835 307.881 40.3125 307.461 40.3125C306.898 40.3125 306.424 40.4318 306.037 40.6705C305.651 40.9034 305.458 41.2159 305.458 41.608C305.458 41.9205 305.583 42.1847 305.833 42.4006C306.083 42.6165 306.512 42.7898 307.12 42.9205L309.489 43.3977C310.762 43.6591 311.711 44.0795 312.336 44.6591C312.961 45.2386 313.273 46 313.273 46.9432C313.273 47.8011 313.02 48.554 312.515 49.2017C312.015 49.8494 311.327 50.3551 310.452 50.7188C309.583 51.0767 308.58 51.2557 307.444 51.2557C305.711 51.2557 304.33 50.8949 303.302 50.1733C302.279 49.446 301.68 48.4574 301.503 47.2074L305.074 47.0199C305.182 47.5483 305.444 47.9517 305.858 48.2301C306.273 48.5028 306.805 48.6392 307.452 48.6392C308.089 48.6392 308.6 48.517 308.986 48.2727C309.378 48.0227 309.577 47.7017 309.583 47.3097C309.577 46.9801 309.438 46.7102 309.165 46.5C308.893 46.2841 308.472 46.1193 307.904 46.0057L305.637 45.554C304.358 45.2983 303.407 44.8551 302.782 44.2244C302.162 43.5937 301.853 42.7898 301.853 41.8125C301.853 40.9716 302.08 40.2472 302.535 39.6392C302.995 39.0312 303.64 38.5625 304.469 38.233C305.305 37.9034 306.282 37.7386 307.401 37.7386C309.055 37.7386 310.356 38.0881 311.305 38.7869C312.259 39.4858 312.816 40.4375 312.975 41.642Z" fill="#069356"/>
    <path d="M2.79226 91H0.48544L4.00036 80.8182H6.7745L10.2844 91H7.97763L5.4272 83.1449H5.34766L2.79226 91ZM2.64808 86.9979H8.09695V88.6783H2.64808V86.9979ZM14.7104 91V83.3636H16.7637V84.696H16.8432C16.9824 84.2221 17.2161 83.8641 17.5442 83.6222C17.8723 83.3769 18.2502 83.2543 18.6777 83.2543C18.7838 83.2543 18.8981 83.2609 19.0208 83.2741C19.1434 83.2874 19.2511 83.3056 19.3439 83.3288V85.2081C19.2445 85.1783 19.1069 85.1518 18.9313 85.1286C18.7556 85.1054 18.5949 85.0938 18.449 85.0938C18.1375 85.0938 17.8591 85.1617 17.6138 85.2976C17.3719 85.4302 17.1796 85.6158 17.0371 85.8544C16.8979 86.093 16.8283 86.3681 16.8283 86.6797V91H14.7104ZM23.5337 91.1491C22.7615 91.1491 22.0936 90.9851 21.5302 90.657C20.9701 90.3255 20.5375 89.8648 20.2326 89.2749C19.9277 88.6816 19.7752 87.9938 19.7752 87.2116C19.7752 86.4228 19.9277 85.7334 20.2326 85.1435C20.5375 84.5502 20.9701 84.0895 21.5302 83.7614C22.0936 83.4299 22.7615 83.2642 23.5337 83.2642C24.306 83.2642 24.9722 83.4299 25.5323 83.7614C26.0958 84.0895 26.5299 84.5502 26.8349 85.1435C27.1398 85.7334 27.2923 86.4228 27.2923 87.2116C27.2923 87.9938 27.1398 88.6816 26.8349 89.2749C26.5299 89.8648 26.0958 90.3255 25.5323 90.657C24.9722 90.9851 24.306 91.1491 23.5337 91.1491ZM23.5437 89.5085C23.895 89.5085 24.1883 89.4091 24.4237 89.2102C24.659 89.008 24.8363 88.733 24.9556 88.3849C25.0782 88.0369 25.1396 87.6409 25.1396 87.1967C25.1396 86.7526 25.0782 86.3565 24.9556 86.0085C24.8363 85.6605 24.659 85.3854 24.4237 85.1832C24.1883 84.9811 23.895 84.88 23.5437 84.88C23.189 84.88 22.8907 84.9811 22.6488 85.1832C22.4102 85.3854 22.2295 85.6605 22.1069 86.0085C21.9876 86.3565 21.9279 86.7526 21.9279 87.1967C21.9279 87.6409 21.9876 88.0369 22.1069 88.3849C22.2295 88.733 22.4102 89.008 22.6488 89.2102C22.8907 89.4091 23.189 89.5085 23.5437 89.5085ZM28.7092 91V80.8182H30.8271V84.6463H30.8917C30.9845 84.4408 31.1187 84.232 31.2944 84.0199C31.4734 83.8045 31.7054 83.6255 31.9904 83.483C32.2788 83.3371 32.6367 83.2642 33.0643 83.2642C33.6211 83.2642 34.1348 83.41 34.6055 83.7017C35.0761 83.9901 35.4523 84.4259 35.734 85.0092C36.0157 85.5893 36.1566 86.3168 36.1566 87.1918C36.1566 88.0436 36.0191 88.7628 35.744 89.3494C35.4722 89.9328 35.101 90.3752 34.6303 90.6768C34.163 90.9751 33.6393 91.1243 33.0593 91.1243C32.6483 91.1243 32.2987 91.0563 32.0103 90.9205C31.7253 90.7846 31.4916 90.6139 31.3093 90.4084C31.127 90.1996 30.9878 89.9891 30.8917 89.777H30.7972V91H28.7092ZM30.7823 87.1818C30.7823 87.6359 30.8453 88.032 30.9712 88.37C31.0972 88.7081 31.2795 88.9716 31.5181 89.1605C31.7567 89.3461 32.0468 89.4389 32.3881 89.4389C32.7328 89.4389 33.0245 89.3445 33.2631 89.1555C33.5018 88.9633 33.6824 88.6982 33.805 88.3601C33.931 88.0187 33.994 87.6259 33.994 87.1818C33.994 86.741 33.9326 86.3532 33.81 86.0185C33.6874 85.6837 33.5067 85.4219 33.2681 85.233C33.0295 85.044 32.7362 84.9496 32.3881 84.9496C32.0434 84.9496 31.7518 85.0407 31.5131 85.223C31.2778 85.4053 31.0972 85.6638 30.9712 85.9986C30.8453 86.3333 30.7823 86.7277 30.7823 87.1818ZM42.4668 87.7486V83.3636H44.5847V91H42.5513V89.6129H42.4718C42.2994 90.0604 42.0127 90.42 41.6117 90.6918C41.214 90.9635 40.7284 91.0994 40.155 91.0994C39.6446 91.0994 39.1955 90.9834 38.8077 90.7514C38.4199 90.5194 38.1167 90.1896 37.8979 89.7621C37.6825 89.3345 37.5731 88.8224 37.5698 88.2259V83.3636H39.6877V87.848C39.691 88.2988 39.812 88.6551 40.0506 88.9169C40.2892 89.1787 40.6091 89.3097 41.0101 89.3097C41.2653 89.3097 41.504 89.2517 41.726 89.1357C41.9481 89.0163 42.1271 88.8407 42.263 88.6087C42.4022 88.3767 42.4701 88.09 42.4668 87.7486ZM52.6325 85.5412L50.6935 85.6605C50.6604 85.4948 50.5891 85.3456 50.4798 85.2131C50.3704 85.0772 50.2262 84.9695 50.0472 84.8899C49.8716 84.8071 49.6611 84.7656 49.4158 84.7656C49.0877 84.7656 48.811 84.8352 48.5856 84.9744C48.3602 85.1103 48.2475 85.2926 48.2475 85.5213C48.2475 85.7036 48.3204 85.8577 48.4663 85.9837C48.6121 86.1096 48.8623 86.2107 49.217 86.2869L50.5991 86.5653C51.3415 86.7178 51.895 86.9631 52.2596 87.3011C52.6242 87.6392 52.8065 88.0833 52.8065 88.6335C52.8065 89.134 52.659 89.5732 52.364 89.951C52.0723 90.3288 51.6713 90.6238 51.1609 90.8359C50.6538 91.0447 50.0688 91.1491 49.4059 91.1491C48.395 91.1491 47.5896 90.9387 46.9897 90.5178C46.3931 90.0935 46.0434 89.5168 45.9407 88.7876L48.0238 88.6783C48.0868 88.9865 48.2392 89.2218 48.4812 89.3842C48.7231 89.5433 49.033 89.6229 49.4109 89.6229C49.7821 89.6229 50.0804 89.5516 50.3058 89.4091C50.5344 89.2633 50.6505 89.076 50.6538 88.8473C50.6505 88.6551 50.5692 88.4976 50.4102 88.375C50.2511 88.2491 50.0058 88.1529 49.6744 88.0866L48.3519 87.8232C47.6062 87.674 47.051 87.4155 46.6864 87.0476C46.3252 86.6797 46.1445 86.2107 46.1445 85.6406C46.1445 85.1501 46.2771 84.7275 46.5423 84.3729C46.8107 84.0182 47.1869 83.7448 47.6708 83.5526C48.158 83.3603 48.7281 83.2642 49.381 83.2642C50.3455 83.2642 51.1045 83.468 51.658 83.8757C52.2148 84.2834 52.5397 84.8385 52.6325 85.5412ZM58.2019 83.3636V84.9545H53.6032V83.3636H58.2019ZM54.6472 81.5341H56.7651V88.6534C56.7651 88.849 56.7949 89.0014 56.8546 89.1108C56.9142 89.2169 56.9971 89.2914 57.1032 89.3345C57.2125 89.3776 57.3385 89.3991 57.481 89.3991C57.5804 89.3991 57.6799 89.3909 57.7793 89.3743C57.8787 89.3544 57.955 89.3395 58.008 89.3295L58.3411 90.9055C58.235 90.9387 58.0859 90.9768 57.8936 91.0199C57.7014 91.0663 57.4677 91.0945 57.1926 91.1044C56.6822 91.1243 56.2348 91.0563 55.8503 90.9006C55.4692 90.7448 55.1725 90.5028 54.9604 90.1747C54.7483 89.8466 54.6439 89.4323 54.6472 88.9318V81.5341ZM65.9439 91.1491C65.2412 91.1491 64.6347 91.0232 64.1243 90.7713C63.6139 90.5194 63.2211 90.178 62.946 89.7472C62.6742 89.313 62.5384 88.8291 62.5384 88.2955C62.5384 87.8977 62.6179 87.5447 62.777 87.2365C62.9361 86.9283 63.1581 86.6449 63.4432 86.3864C63.7282 86.1245 64.0597 85.8643 64.4375 85.6058L66.4112 84.3082C66.6664 84.1458 66.8537 83.9751 66.973 83.7962C67.0923 83.6139 67.152 83.4167 67.152 83.2045C67.152 83.0024 67.0708 82.8151 66.9084 82.6428C66.746 82.4704 66.5156 82.3859 66.2173 82.3892C66.0185 82.3892 65.8461 82.4339 65.7003 82.5234C65.5545 82.6096 65.4401 82.724 65.3572 82.8665C65.2777 83.0057 65.2379 83.1615 65.2379 83.3338C65.2379 83.5459 65.2976 83.7614 65.4169 83.9801C65.5362 84.1989 65.6953 84.4309 65.8942 84.6761C66.093 84.9181 66.3101 85.1799 66.5455 85.4616L71.3729 91H69.1655L65.1385 86.5156C64.8733 86.214 64.6082 85.8991 64.343 85.571C64.0812 85.2396 63.8625 84.8883 63.6868 84.517C63.5111 84.1425 63.4233 83.7365 63.4233 83.299C63.4233 82.8052 63.5376 82.361 63.7663 81.9666C63.9983 81.5722 64.3232 81.2607 64.7408 81.032C65.1584 80.8 65.6456 80.6839 66.2024 80.6839C66.746 80.6839 67.215 80.795 67.6094 81.017C68.0071 81.2358 68.312 81.5275 68.5241 81.892C68.7396 82.2533 68.8473 82.651 68.8473 83.0852C68.8473 83.5658 68.728 84.0017 68.4893 84.3928C68.254 84.7805 67.9226 85.1286 67.495 85.4368L65.4169 86.9332C65.1352 87.1387 64.9264 87.3492 64.7905 87.5646C64.6579 87.7768 64.5916 87.9806 64.5916 88.1761C64.5916 88.4181 64.6513 88.6352 64.7706 88.8274C64.8899 89.0196 65.0589 89.1721 65.2777 89.2848C65.4964 89.3942 65.7533 89.4489 66.0483 89.4489C66.4062 89.4489 66.7592 89.3677 67.1072 89.2053C67.4586 89.0395 67.7768 88.8059 68.0618 88.5043C68.3501 88.1993 68.5805 87.8381 68.7528 87.4205C68.9252 87.0028 69.0114 86.5405 69.0114 86.0334H70.7663C70.7663 86.6565 70.6984 87.2183 70.5625 87.7188C70.4266 88.2159 70.2377 88.6501 69.9957 89.0213C69.7538 89.3892 69.477 89.6908 69.1655 89.9261C69.0661 89.9891 68.9699 90.0488 68.8771 90.1051C68.7843 90.1615 68.6882 90.2211 68.5888 90.2841C68.2109 90.589 67.7884 90.8094 67.321 90.9453C66.857 91.0812 66.398 91.1491 65.9439 91.1491ZM78.9458 91.1491C78.1636 91.1491 77.4908 90.9834 76.9274 90.652C76.3672 90.3172 75.9364 89.8532 75.6348 89.2599C75.3365 88.6667 75.1873 87.9839 75.1873 87.2116C75.1873 86.4295 75.3381 85.7434 75.6397 85.1534C75.9447 84.5601 76.3772 84.0978 76.9373 83.7663C77.4975 83.4316 78.1636 83.2642 78.9359 83.2642C79.6021 83.2642 80.1854 83.3852 80.6859 83.6271C81.1864 83.8691 81.5824 84.2088 81.8741 84.6463C82.1658 85.0838 82.3265 85.5975 82.3564 86.1875H80.3578C80.3014 85.8063 80.1523 85.4998 79.9103 85.2678C79.6717 85.0324 79.3585 84.9148 78.9707 84.9148C78.6426 84.9148 78.3559 85.0043 78.1106 85.1832C77.8687 85.3589 77.6797 85.6158 77.5439 85.9538C77.408 86.2919 77.34 86.7012 77.34 87.1818C77.34 87.669 77.4063 88.0833 77.5389 88.4247C77.6748 88.7661 77.8654 89.0263 78.1106 89.2053C78.3559 89.3842 78.6426 89.4737 78.9707 89.4737C79.2127 89.4737 79.4297 89.424 79.622 89.3246C79.8175 89.2251 79.9783 89.081 80.1042 88.892C80.2335 88.6998 80.318 88.4695 80.3578 88.201H82.3564C82.3232 88.7843 82.1641 89.2981 81.8791 89.7422C81.5974 90.183 81.2079 90.5277 80.7108 90.7763C80.2136 91.0249 79.6253 91.1491 78.9458 91.1491ZM87.1626 91.1491C86.3904 91.1491 85.7225 90.9851 85.1591 90.657C84.599 90.3255 84.1664 89.8648 83.8615 89.2749C83.5566 88.6816 83.4041 87.9938 83.4041 87.2116C83.4041 86.4228 83.5566 85.7334 83.8615 85.1435C84.1664 84.5502 84.599 84.0895 85.1591 83.7614C85.7225 83.4299 86.3904 83.2642 87.1626 83.2642C87.9349 83.2642 88.6011 83.4299 89.1612 83.7614C89.7247 84.0895 90.1589 84.5502 90.4638 85.1435C90.7687 85.7334 90.9212 86.4228 90.9212 87.2116C90.9212 87.9938 90.7687 88.6816 90.4638 89.2749C90.1589 89.8648 89.7247 90.3255 89.1612 90.657C88.6011 90.9851 87.9349 91.1491 87.1626 91.1491ZM87.1726 89.5085C87.5239 89.5085 87.8172 89.4091 88.0526 89.2102C88.2879 89.008 88.4652 88.733 88.5845 88.3849C88.7071 88.0369 88.7685 87.6409 88.7685 87.1967C88.7685 86.7526 88.7071 86.3565 88.5845 86.0085C88.4652 85.6605 88.2879 85.3854 88.0526 85.1832C87.8172 84.9811 87.5239 84.88 87.1726 84.88C86.8179 84.88 86.5196 84.9811 86.2777 85.1832C86.0391 85.3854 85.8584 85.6605 85.7358 86.0085C85.6165 86.3565 85.5568 86.7526 85.5568 87.1967C85.5568 87.6409 85.6165 88.0369 85.7358 88.3849C85.8584 88.733 86.0391 89.008 86.2777 89.2102C86.5196 89.4091 86.8179 89.5085 87.1726 89.5085ZM92.2983 91V83.3636H94.3168V84.7109H94.4062C94.5653 84.2635 94.8305 83.9105 95.2017 83.652C95.5729 83.3935 96.017 83.2642 96.5341 83.2642C97.0578 83.2642 97.5036 83.3951 97.8714 83.657C98.2393 83.9155 98.4846 84.2668 98.6072 84.7109H98.6868C98.8426 84.2734 99.1243 83.9238 99.532 83.6619C99.9429 83.3968 100.429 83.2642 100.989 83.2642C101.701 83.2642 102.28 83.4912 102.724 83.9453C103.171 84.3961 103.395 85.0357 103.395 85.8643V91H101.282V86.282C101.282 85.8577 101.169 85.5395 100.944 85.3274C100.719 85.1153 100.437 85.0092 100.099 85.0092C99.7143 85.0092 99.4143 85.1319 99.1989 85.3771C98.9834 85.6191 98.8757 85.9389 98.8757 86.3366V91H96.8224V86.2372C96.8224 85.8627 96.7147 85.5644 96.4993 85.3423C96.2872 85.1203 96.0071 85.0092 95.6591 85.0092C95.4238 85.0092 95.2116 85.0689 95.0227 85.1882C94.8371 85.3042 94.6896 85.4683 94.5803 85.6804C94.4709 85.8892 94.4162 86.1345 94.4162 86.4162V91H92.2983ZM105.068 93.8636V83.3636H107.156V84.6463H107.25C107.343 84.4408 107.477 84.232 107.653 84.0199C107.832 83.8045 108.064 83.6255 108.349 83.483C108.637 83.3371 108.995 83.2642 109.423 83.2642C109.98 83.2642 110.493 83.41 110.964 83.7017C111.435 83.9901 111.811 84.4259 112.093 85.0092C112.374 85.5893 112.515 86.3168 112.515 87.1918C112.515 88.0436 112.378 88.7628 112.103 89.3494C111.831 89.9328 111.46 90.3752 110.989 90.6768C110.522 90.9751 109.998 91.1243 109.418 91.1243C109.007 91.1243 108.657 91.0563 108.369 90.9205C108.084 90.7846 107.85 90.6139 107.668 90.4084C107.486 90.1996 107.346 89.9891 107.25 89.777H107.186V93.8636H105.068ZM107.141 87.1818C107.141 87.6359 107.204 88.032 107.33 88.37C107.456 88.7081 107.638 88.9716 107.877 89.1605C108.115 89.3461 108.405 89.4389 108.747 89.4389C109.092 89.4389 109.383 89.3445 109.622 89.1555C109.86 88.9633 110.041 88.6982 110.164 88.3601C110.29 88.0187 110.353 87.6259 110.353 87.1818C110.353 86.741 110.291 86.3532 110.169 86.0185C110.046 85.6837 109.865 85.4219 109.627 85.233C109.388 85.044 109.095 84.9496 108.747 84.9496C108.402 84.9496 108.11 85.0407 107.872 85.223C107.636 85.4053 107.456 85.6638 107.33 85.9986C107.204 86.3333 107.141 86.7277 107.141 87.1818ZM117.377 91.1491C116.605 91.1491 115.937 90.9851 115.374 90.657C114.814 90.3255 114.381 89.8648 114.076 89.2749C113.771 88.6816 113.619 87.9938 113.619 87.2116C113.619 86.4228 113.771 85.7334 114.076 85.1435C114.381 84.5502 114.814 84.0895 115.374 83.7614C115.937 83.4299 116.605 83.2642 117.377 83.2642C118.15 83.2642 118.816 83.4299 119.376 83.7614C119.94 84.0895 120.374 84.5502 120.679 85.1435C120.984 85.7334 121.136 86.4228 121.136 87.2116C121.136 87.9938 120.984 88.6816 120.679 89.2749C120.374 89.8648 119.94 90.3255 119.376 90.657C118.816 90.9851 118.15 91.1491 117.377 91.1491ZM117.387 89.5085C117.739 89.5085 118.032 89.4091 118.267 89.2102C118.503 89.008 118.68 88.733 118.799 88.3849C118.922 88.0369 118.983 87.6409 118.983 87.1967C118.983 86.7526 118.922 86.3565 118.799 86.0085C118.68 85.6605 118.503 85.3854 118.267 85.1832C118.032 84.9811 117.739 84.88 117.387 84.88C117.033 84.88 116.734 84.9811 116.493 85.1832C116.254 85.3854 116.073 85.6605 115.951 86.0085C115.831 86.3565 115.772 86.7526 115.772 87.1967C115.772 87.6409 115.831 88.0369 115.951 88.3849C116.073 88.733 116.254 89.008 116.493 89.2102C116.734 89.4091 117.033 89.5085 117.387 89.5085ZM128.867 85.5412L126.928 85.6605C126.895 85.4948 126.824 85.3456 126.714 85.2131C126.605 85.0772 126.461 84.9695 126.282 84.8899C126.106 84.8071 125.895 84.7656 125.65 84.7656C125.322 84.7656 125.045 84.8352 124.82 84.9744C124.595 85.1103 124.482 85.2926 124.482 85.5213C124.482 85.7036 124.555 85.8577 124.701 85.9837C124.846 86.1096 125.097 86.2107 125.451 86.2869L126.833 86.5653C127.576 86.7178 128.129 86.9631 128.494 87.3011C128.859 87.6392 129.041 88.0833 129.041 88.6335C129.041 89.134 128.893 89.5732 128.598 89.951C128.307 90.3288 127.906 90.6238 127.395 90.8359C126.888 91.0447 126.303 91.1491 125.64 91.1491C124.629 91.1491 123.824 90.9387 123.224 90.5178C122.627 90.0935 122.278 89.5168 122.175 88.7876L124.258 88.6783C124.321 88.9865 124.474 89.2218 124.716 89.3842C124.958 89.5433 125.267 89.6229 125.645 89.6229C126.016 89.6229 126.315 89.5516 126.54 89.4091C126.769 89.2633 126.885 89.076 126.888 88.8473C126.885 88.6551 126.804 88.4976 126.645 88.375C126.485 88.2491 126.24 88.1529 125.909 88.0866L124.586 87.8232C123.841 87.674 123.285 87.4155 122.921 87.0476C122.56 86.6797 122.379 86.2107 122.379 85.6406C122.379 85.1501 122.511 84.7275 122.777 84.3729C123.045 84.0182 123.421 83.7448 123.905 83.5526C124.392 83.3603 124.962 83.2642 125.615 83.2642C126.58 83.2642 127.339 83.468 127.892 83.8757C128.449 84.2834 128.774 84.8385 128.867 85.5412ZM132.552 91.1442C132.065 91.1442 131.631 91.0597 131.249 90.8906C130.868 90.7183 130.567 90.4647 130.345 90.13C130.126 89.7919 130.017 89.371 130.017 88.8672C130.017 88.4429 130.094 88.0866 130.25 87.7983C130.406 87.5099 130.618 87.2779 130.887 87.1023C131.155 86.9266 131.46 86.794 131.801 86.7045C132.146 86.6151 132.507 86.5521 132.885 86.5156C133.329 86.4692 133.687 86.4261 133.959 86.3864C134.231 86.3433 134.428 86.2803 134.551 86.1974C134.673 86.1146 134.735 85.992 134.735 85.8295V85.7997C134.735 85.4848 134.635 85.2412 134.436 85.0689C134.241 84.8965 133.962 84.8104 133.601 84.8104C133.22 84.8104 132.917 84.8949 132.691 85.0639C132.466 85.2296 132.317 85.4384 132.244 85.6903L130.285 85.5312C130.384 85.0672 130.58 84.6662 130.872 84.3281C131.163 83.9867 131.539 83.7249 132 83.5426C132.464 83.357 133.001 83.2642 133.611 83.2642C134.035 83.2642 134.441 83.3139 134.829 83.4134C135.22 83.5128 135.566 83.6669 135.868 83.8757C136.173 84.0845 136.413 84.353 136.589 84.6811C136.765 85.0059 136.852 85.3954 136.852 85.8494V91H134.844V89.9411H134.784C134.662 90.1797 134.498 90.3902 134.292 90.5724C134.087 90.7514 133.84 90.8923 133.551 90.995C133.263 91.0945 132.93 91.1442 132.552 91.1442ZM133.159 89.6825C133.47 89.6825 133.745 89.6212 133.984 89.4986C134.222 89.3726 134.41 89.2036 134.546 88.9915C134.682 88.7794 134.749 88.5391 134.749 88.2706V87.4602C134.683 87.5033 134.592 87.5431 134.476 87.5795C134.363 87.6127 134.236 87.6442 134.093 87.674C133.951 87.7005 133.808 87.7254 133.666 87.7486C133.523 87.7685 133.394 87.7867 133.278 87.8033C133.029 87.8397 132.812 87.8977 132.627 87.9773C132.441 88.0568 132.297 88.1645 132.194 88.3004C132.091 88.433 132.04 88.5987 132.04 88.7976C132.04 89.0859 132.144 89.3063 132.353 89.4588C132.565 89.608 132.834 89.6825 133.159 89.6825ZM138.535 91V80.8182H140.653V84.6463H140.718C140.811 84.4408 140.945 84.232 141.121 84.0199C141.3 83.8045 141.532 83.6255 141.817 83.483C142.105 83.3371 142.463 83.2642 142.89 83.2642C143.447 83.2642 143.961 83.41 144.432 83.7017C144.902 83.9901 145.278 84.4259 145.56 85.0092C145.842 85.5893 145.983 86.3168 145.983 87.1918C145.983 88.0436 145.845 88.7628 145.57 89.3494C145.298 89.9328 144.927 90.3752 144.456 90.6768C143.989 90.9751 143.465 91.1243 142.885 91.1243C142.474 91.1243 142.125 91.0563 141.836 90.9205C141.551 90.7846 141.318 90.6139 141.135 90.4084C140.953 90.1996 140.814 89.9891 140.718 89.777H140.623V91H138.535ZM140.608 87.1818C140.608 87.6359 140.671 88.032 140.797 88.37C140.923 88.7081 141.106 88.9716 141.344 89.1605C141.583 89.3461 141.873 89.4389 142.214 89.4389C142.559 89.4389 142.851 89.3445 143.089 89.1555C143.328 88.9633 143.509 88.6982 143.631 88.3601C143.757 88.0187 143.82 87.6259 143.82 87.1818C143.82 86.741 143.759 86.3532 143.636 86.0185C143.514 85.6837 143.333 85.4219 143.094 85.233C142.856 85.044 142.562 84.9496 142.214 84.9496C141.87 84.9496 141.578 85.0407 141.339 85.223C141.104 85.4053 140.923 85.6638 140.797 85.9986C140.671 86.3333 140.608 86.7277 140.608 87.1818ZM149.514 80.8182V91H147.396V80.8182H149.514ZM154.691 91.1491C153.905 91.1491 153.229 90.9901 152.662 90.6719C152.099 90.3504 151.664 89.8963 151.36 89.3097C151.055 88.7197 150.902 88.022 150.902 87.2166C150.902 86.4311 151.055 85.7417 151.36 85.1484C151.664 84.5552 152.094 84.0928 152.647 83.7614C153.204 83.4299 153.857 83.2642 154.606 83.2642C155.11 83.2642 155.579 83.3454 156.013 83.5078C156.45 83.6669 156.832 83.9072 157.156 84.2287C157.485 84.5502 157.74 84.9545 157.922 85.4418C158.104 85.9257 158.195 86.4924 158.195 87.142V87.7237H151.747V86.4112H156.202C156.202 86.1063 156.136 85.8362 156.003 85.6009C155.87 85.3655 155.686 85.1816 155.451 85.049C155.219 84.9131 154.949 84.8452 154.641 84.8452C154.319 84.8452 154.034 84.9197 153.786 85.0689C153.54 85.2147 153.348 85.4119 153.209 85.6605C153.07 85.9058 152.999 86.1792 152.995 86.4808V87.7287C152.995 88.1065 153.065 88.433 153.204 88.7081C153.347 88.9832 153.547 89.1953 153.806 89.3445C154.064 89.4936 154.371 89.5682 154.725 89.5682C154.961 89.5682 155.176 89.535 155.372 89.4688C155.567 89.4025 155.735 89.303 155.874 89.1705C156.013 89.0379 156.119 88.8755 156.192 88.6832L158.151 88.8125C158.051 89.2831 157.847 89.6941 157.539 90.0455C157.234 90.3935 156.84 90.6652 156.356 90.8608C155.875 91.053 155.32 91.1491 154.691 91.1491ZM166.924 83.3636V84.9545H162.211V83.3636H166.924ZM163.29 91V82.8118C163.29 82.2583 163.398 81.7992 163.613 81.4347C163.832 81.0701 164.13 80.7966 164.508 80.6143C164.886 80.4321 165.315 80.3409 165.796 80.3409C166.121 80.3409 166.417 80.3658 166.686 80.4155C166.958 80.4652 167.16 80.5099 167.292 80.5497L166.914 82.1406C166.832 82.1141 166.729 82.0893 166.606 82.0661C166.487 82.0429 166.364 82.0312 166.238 82.0312C165.927 82.0312 165.71 82.1042 165.587 82.25C165.464 82.3925 165.403 82.593 165.403 82.8516V91H163.29ZM168.218 91V83.3636H170.271V84.696H170.351C170.49 84.2221 170.724 83.8641 171.052 83.6222C171.38 83.3769 171.758 83.2543 172.186 83.2543C172.292 83.2543 172.406 83.2609 172.529 83.2741C172.651 83.2874 172.759 83.3056 172.852 83.3288V85.2081C172.752 85.1783 172.615 85.1518 172.439 85.1286C172.263 85.1054 172.103 85.0938 171.957 85.0938C171.645 85.0938 171.367 85.1617 171.122 85.2976C170.88 85.4302 170.687 85.6158 170.545 85.8544C170.406 86.093 170.336 86.3681 170.336 86.6797V91H168.218ZM175.906 91.1442C175.418 91.1442 174.984 91.0597 174.603 90.8906C174.222 90.7183 173.92 90.4647 173.698 90.13C173.479 89.7919 173.37 89.371 173.37 88.8672C173.37 88.4429 173.448 88.0866 173.604 87.7983C173.759 87.5099 173.972 87.2779 174.24 87.1023C174.509 86.9266 174.813 86.794 175.155 86.7045C175.5 86.6151 175.861 86.5521 176.239 86.5156C176.683 86.4692 177.041 86.4261 177.312 86.3864C177.584 86.3433 177.781 86.2803 177.904 86.1974C178.027 86.1146 178.088 85.992 178.088 85.8295V85.7997C178.088 85.4848 177.989 85.2412 177.79 85.0689C177.594 84.8965 177.316 84.8104 176.955 84.8104C176.573 84.8104 176.27 84.8949 176.045 85.0639C175.819 85.2296 175.67 85.4384 175.597 85.6903L173.638 85.5312C173.738 85.0672 173.933 84.6662 174.225 84.3281C174.517 83.9867 174.893 83.7249 175.354 83.5426C175.818 83.357 176.355 83.2642 176.964 83.2642C177.389 83.2642 177.795 83.3139 178.183 83.4134C178.574 83.5128 178.92 83.6669 179.222 83.8757C179.527 84.0845 179.767 84.353 179.942 84.6811C180.118 85.0059 180.206 85.3954 180.206 85.8494V91H178.197V89.9411H178.138C178.015 90.1797 177.851 90.3902 177.646 90.5724C177.44 90.7514 177.193 90.8923 176.905 90.995C176.616 91.0945 176.283 91.1442 175.906 91.1442ZM176.512 89.6825C176.824 89.6825 177.099 89.6212 177.337 89.4986C177.576 89.3726 177.763 89.2036 177.899 88.9915C178.035 88.7794 178.103 88.5391 178.103 88.2706V87.4602C178.037 87.5033 177.946 87.5431 177.83 87.5795C177.717 87.6127 177.589 87.6442 177.447 87.674C177.304 87.7005 177.162 87.7254 177.019 87.7486C176.877 87.7685 176.747 87.7867 176.631 87.8033C176.383 87.8397 176.166 87.8977 175.98 87.9773C175.795 88.0568 175.65 88.1645 175.548 88.3004C175.445 88.433 175.393 88.5987 175.393 88.7976C175.393 89.0859 175.498 89.3063 175.707 89.4588C175.919 89.608 176.187 89.6825 176.512 89.6825ZM181.849 91V83.3636H183.868V84.7109H183.957C184.116 84.2635 184.381 83.9105 184.752 83.652C185.124 83.3935 185.568 83.2642 186.085 83.2642C186.609 83.2642 187.054 83.3951 187.422 83.657C187.79 83.9155 188.035 84.2668 188.158 84.7109H188.238C188.393 84.2734 188.675 83.9238 189.083 83.6619C189.494 83.3968 189.979 83.2642 190.539 83.2642C191.252 83.2642 191.83 83.4912 192.275 83.9453C192.722 84.3961 192.946 85.0357 192.946 85.8643V91H190.833V86.282C190.833 85.8577 190.72 85.5395 190.495 85.3274C190.269 85.1153 189.988 85.0092 189.65 85.0092C189.265 85.0092 188.965 85.1319 188.75 85.3771C188.534 85.6191 188.426 85.9389 188.426 86.3366V91H186.373V86.2372C186.373 85.8627 186.266 85.5644 186.05 85.3423C185.838 85.1203 185.558 85.0092 185.21 85.0092C184.975 85.0092 184.762 85.0689 184.574 85.1882C184.388 85.3042 184.24 85.4683 184.131 85.6804C184.022 85.8892 183.967 86.1345 183.967 86.4162V91H181.849ZM198.099 91.1491C197.313 91.1491 196.637 90.9901 196.07 90.6719C195.507 90.3504 195.073 89.8963 194.768 89.3097C194.463 88.7197 194.31 88.022 194.31 87.2166C194.31 86.4311 194.463 85.7417 194.768 85.1484C195.073 84.5552 195.502 84.0928 196.055 83.7614C196.612 83.4299 197.265 83.2642 198.014 83.2642C198.518 83.2642 198.987 83.3454 199.421 83.5078C199.859 83.6669 200.24 83.9072 200.565 84.2287C200.893 84.5502 201.148 84.9545 201.33 85.4418C201.513 85.9257 201.604 86.4924 201.604 87.142V87.7237H195.156V86.4112H199.61C199.61 86.1063 199.544 85.8362 199.411 85.6009C199.279 85.3655 199.095 85.1816 198.859 85.049C198.627 84.9131 198.357 84.8452 198.049 84.8452C197.728 84.8452 197.442 84.9197 197.194 85.0689C196.949 85.2147 196.756 85.4119 196.617 85.6605C196.478 85.9058 196.407 86.1792 196.403 86.4808V87.7287C196.403 88.1065 196.473 88.433 196.612 88.7081C196.755 88.9832 196.955 89.1953 197.214 89.3445C197.472 89.4936 197.779 89.5682 198.134 89.5682C198.369 89.5682 198.584 89.535 198.78 89.4688C198.975 89.4025 199.143 89.303 199.282 89.1705C199.421 89.0379 199.527 88.8755 199.6 88.6832L201.559 88.8125C201.46 89.2831 201.256 89.6941 200.947 90.0455C200.643 90.3935 200.248 90.6652 199.764 90.8608C199.284 91.053 198.728 91.1491 198.099 91.1491ZM204.438 91L202.359 83.3636H204.502L205.685 88.4943H205.755L206.988 83.3636H209.091L210.344 88.4645H210.408L211.572 83.3636H213.71L211.636 91H209.394L208.082 86.1974H207.987L206.675 91H204.438ZM218.098 91.1491C217.326 91.1491 216.658 90.9851 216.095 90.657C215.535 90.3255 215.102 89.8648 214.797 89.2749C214.492 88.6816 214.34 87.9938 214.34 87.2116C214.34 86.4228 214.492 85.7334 214.797 85.1435C215.102 84.5502 215.535 84.0895 216.095 83.7614C216.658 83.4299 217.326 83.2642 218.098 83.2642C218.87 83.2642 219.537 83.4299 220.097 83.7614C220.66 84.0895 221.094 84.5502 221.399 85.1435C221.704 85.7334 221.857 86.4228 221.857 87.2116C221.857 87.9938 221.704 88.6816 221.399 89.2749C221.094 89.8648 220.66 90.3255 220.097 90.657C219.537 90.9851 218.87 91.1491 218.098 91.1491ZM218.108 89.5085C218.459 89.5085 218.753 89.4091 218.988 89.2102C219.223 89.008 219.401 88.733 219.52 88.3849C219.643 88.0369 219.704 87.6409 219.704 87.1967C219.704 86.7526 219.643 86.3565 219.52 86.0085C219.401 85.6605 219.223 85.3854 218.988 85.1832C218.753 84.9811 218.459 84.88 218.108 84.88C217.753 84.88 217.455 84.9811 217.213 85.1832C216.975 85.3854 216.794 85.6605 216.671 86.0085C216.552 86.3565 216.492 86.7526 216.492 87.1967C216.492 87.6409 216.552 88.0369 216.671 88.3849C216.794 88.733 216.975 89.008 217.213 89.2102C217.455 89.4091 217.753 89.5085 218.108 89.5085ZM223.234 91V83.3636H225.287V84.696H225.367C225.506 84.2221 225.74 83.8641 226.068 83.6222C226.396 83.3769 226.774 83.2543 227.201 83.2543C227.307 83.2543 227.422 83.2609 227.544 83.2741C227.667 83.2874 227.775 83.3056 227.867 83.3288V85.2081C227.768 85.1783 227.63 85.1518 227.455 85.1286C227.279 85.1054 227.118 85.0938 226.972 85.0938C226.661 85.0938 226.383 85.1617 226.137 85.2976C225.895 85.4302 225.703 85.6158 225.561 85.8544C225.421 86.093 225.352 86.3681 225.352 86.6797V91H223.234ZM230.881 88.8026L230.886 86.2621H231.195L233.641 83.3636H236.072L232.786 87.2017H232.283L230.881 88.8026ZM228.962 91V80.8182H231.08V91H228.962ZM233.735 91L231.488 87.674L232.9 86.1776L236.216 91H233.735ZM243.801 91.1491C243.029 91.1491 242.361 90.9851 241.798 90.657C241.238 90.3255 240.805 89.8648 240.5 89.2749C240.195 88.6816 240.043 87.9938 240.043 87.2116C240.043 86.4228 240.195 85.7334 240.5 85.1435C240.805 84.5502 241.238 84.0895 241.798 83.7614C242.361 83.4299 243.029 83.2642 243.801 83.2642C244.574 83.2642 245.24 83.4299 245.8 83.7614C246.363 84.0895 246.798 84.5502 247.102 85.1435C247.407 85.7334 247.56 86.4228 247.56 87.2116C247.56 87.9938 247.407 88.6816 247.102 89.2749C246.798 89.8648 246.363 90.3255 245.8 90.657C245.24 90.9851 244.574 91.1491 243.801 91.1491ZM243.811 89.5085C244.163 89.5085 244.456 89.4091 244.691 89.2102C244.927 89.008 245.104 88.733 245.223 88.3849C245.346 88.0369 245.407 87.6409 245.407 87.1967C245.407 86.7526 245.346 86.3565 245.223 86.0085C245.104 85.6605 244.927 85.3854 244.691 85.1832C244.456 84.9811 244.163 84.88 243.811 84.88C243.457 84.88 243.158 84.9811 242.916 85.1832C242.678 85.3854 242.497 85.6605 242.374 86.0085C242.255 86.3565 242.195 86.7526 242.195 87.1967C242.195 87.6409 242.255 88.0369 242.374 88.3849C242.497 88.733 242.678 89.008 242.916 89.2102C243.158 89.4091 243.457 89.5085 243.811 89.5085ZM253.044 83.3636V84.9545H248.33V83.3636H253.044ZM249.409 91V82.8118C249.409 82.2583 249.517 81.7992 249.732 81.4347C249.951 81.0701 250.249 80.7966 250.627 80.6143C251.005 80.4321 251.434 80.3409 251.915 80.3409C252.24 80.3409 252.536 80.3658 252.805 80.4155C253.077 80.4652 253.279 80.5099 253.411 80.5497L253.034 82.1406C252.951 82.1141 252.848 82.0893 252.725 82.0661C252.606 82.0429 252.483 82.0312 252.357 82.0312C252.046 82.0312 251.829 82.1042 251.706 82.25C251.584 82.3925 251.522 82.593 251.522 82.8516V91H249.409ZM261.028 91.1491C260.256 91.1491 259.588 90.9851 259.024 90.657C258.464 90.3255 258.032 89.8648 257.727 89.2749C257.422 88.6816 257.269 87.9938 257.269 87.2116C257.269 86.4228 257.422 85.7334 257.727 85.1435C258.032 84.5502 258.464 84.0895 259.024 83.7614C259.588 83.4299 260.256 83.2642 261.028 83.2642C261.8 83.2642 262.466 83.4299 263.026 83.7614C263.59 84.0895 264.024 84.5502 264.329 85.1435C264.634 85.7334 264.786 86.4228 264.786 87.2116C264.786 87.9938 264.634 88.6816 264.329 89.2749C264.024 89.8648 263.59 90.3255 263.026 90.657C262.466 90.9851 261.8 91.1491 261.028 91.1491ZM261.038 89.5085C261.389 89.5085 261.682 89.4091 261.918 89.2102C262.153 89.008 262.33 88.733 262.45 88.3849C262.572 88.0369 262.634 87.6409 262.634 87.1967C262.634 86.7526 262.572 86.3565 262.45 86.0085C262.33 85.6605 262.153 85.3854 261.918 85.1832C261.682 84.9811 261.389 84.88 261.038 84.88C260.683 84.88 260.385 84.9811 260.143 85.1832C259.904 85.3854 259.724 85.6605 259.601 86.0085C259.482 86.3565 259.422 86.7526 259.422 87.1967C259.422 87.6409 259.482 88.0369 259.601 88.3849C259.724 88.733 259.904 89.008 260.143 89.2102C260.385 89.4091 260.683 89.5085 261.038 89.5085ZM266.164 91V83.3636H268.182V84.7109H268.271C268.431 84.2635 268.696 83.9105 269.067 83.652C269.438 83.3935 269.882 83.2642 270.399 83.2642C270.923 83.2642 271.369 83.3951 271.737 83.657C272.105 83.9155 272.35 84.2668 272.472 84.7109H272.552C272.708 84.2734 272.99 83.9238 273.397 83.6619C273.808 83.3968 274.294 83.2642 274.854 83.2642C275.566 83.2642 276.145 83.4912 276.589 83.9453C277.036 84.3961 277.26 85.0357 277.26 85.8643V91H275.147V86.282C275.147 85.8577 275.035 85.5395 274.809 85.3274C274.584 85.1153 274.302 85.0092 273.964 85.0092C273.579 85.0092 273.28 85.1319 273.064 85.3771C272.849 85.6191 272.741 85.9389 272.741 86.3366V91H270.688V86.2372C270.688 85.8627 270.58 85.5644 270.365 85.3423C270.152 85.1203 269.872 85.0092 269.524 85.0092C269.289 85.0092 269.077 85.0689 268.888 85.1882C268.702 85.3042 268.555 85.4683 268.445 85.6804C268.336 85.8892 268.281 86.1345 268.281 86.4162V91H266.164ZM281.051 86.5852V91H278.933V83.3636H280.952V84.7109H281.041C281.21 84.2668 281.493 83.9155 281.891 83.657C282.289 83.3951 282.771 83.2642 283.338 83.2642C283.868 83.2642 284.331 83.3802 284.725 83.6122C285.119 83.8442 285.426 84.1757 285.645 84.6065C285.863 85.0341 285.973 85.5445 285.973 86.1378V91H283.855V86.5156C283.858 86.0483 283.739 85.6837 283.497 85.4219C283.255 85.1567 282.922 85.0241 282.498 85.0241C282.213 85.0241 281.961 85.0855 281.742 85.2081C281.527 85.3307 281.358 85.5097 281.235 85.745C281.116 85.977 281.054 86.2571 281.051 86.5852ZM287.642 91V83.3636H289.76V91H287.642ZM288.706 82.3793C288.391 82.3793 288.121 82.2749 287.896 82.0661C287.674 81.8539 287.562 81.6004 287.562 81.3054C287.562 81.0137 287.674 80.7635 287.896 80.5547C288.121 80.3426 288.391 80.2365 288.706 80.2365C289.021 80.2365 289.289 80.3426 289.511 80.5547C289.737 80.7635 289.849 81.0137 289.849 81.3054C289.849 81.6004 289.737 81.8539 289.511 82.0661C289.289 82.2749 289.021 82.3793 288.706 82.3793ZM296.214 85.9787V87.6591H291.571V85.9787H296.214ZM301.469 91.1491C300.687 91.1491 300.014 90.9834 299.451 90.652C298.891 90.3172 298.46 89.8532 298.158 89.2599C297.86 88.6667 297.711 87.9839 297.711 87.2116C297.711 86.4295 297.862 85.7434 298.163 85.1534C298.468 84.5601 298.901 84.0978 299.461 83.7663C300.021 83.4316 300.687 83.2642 301.459 83.2642C302.126 83.2642 302.709 83.3852 303.209 83.6271C303.71 83.8691 304.106 84.2088 304.398 84.6463C304.689 85.0838 304.85 85.5975 304.88 86.1875H302.881C302.825 85.8063 302.676 85.4998 302.434 85.2678C302.195 85.0324 301.882 84.9148 301.494 84.9148C301.166 84.9148 300.879 85.0043 300.634 85.1832C300.392 85.3589 300.203 85.6158 300.067 85.9538C299.931 86.2919 299.863 86.7012 299.863 87.1818C299.863 87.669 299.93 88.0833 300.062 88.4247C300.198 88.7661 300.389 89.0263 300.634 89.2053C300.879 89.3842 301.166 89.4737 301.494 89.4737C301.736 89.4737 301.953 89.424 302.145 89.3246C302.341 89.2251 302.502 89.081 302.628 88.892C302.757 88.6998 302.841 88.4695 302.881 88.201H304.88C304.847 88.7843 304.688 89.2981 304.403 89.7422C304.121 90.183 303.731 90.5277 303.234 90.7763C302.737 91.0249 302.149 91.1491 301.469 91.1491ZM308.354 86.5852V91H306.236V80.8182H308.294V84.7109H308.384C308.556 84.2602 308.834 83.9072 309.219 83.652C309.603 83.3935 310.085 83.2642 310.665 83.2642C311.196 83.2642 311.658 83.3802 312.053 83.6122C312.45 83.8409 312.759 84.1707 312.977 84.6016C313.199 85.0291 313.309 85.5412 313.305 86.1378V91H311.188V86.5156C311.191 86.045 311.071 85.6787 310.83 85.4169C310.591 85.1551 310.256 85.0241 309.825 85.0241C309.537 85.0241 309.282 85.0855 309.06 85.2081C308.841 85.3307 308.669 85.5097 308.543 85.745C308.42 85.977 308.357 86.2571 308.354 86.5852ZM317.15 91.1442C316.662 91.1442 316.228 91.0597 315.847 90.8906C315.466 90.7183 315.164 90.4647 314.942 90.13C314.724 89.7919 314.614 89.371 314.614 88.8672C314.614 88.4429 314.692 88.0866 314.848 87.7983C315.004 87.5099 315.216 87.2779 315.484 87.1023C315.753 86.9266 316.058 86.794 316.399 86.7045C316.744 86.6151 317.105 86.5521 317.483 86.5156C317.927 86.4692 318.285 86.4261 318.557 86.3864C318.828 86.3433 319.026 86.2803 319.148 86.1974C319.271 86.1146 319.332 85.992 319.332 85.8295V85.7997C319.332 85.4848 319.233 85.2412 319.034 85.0689C318.838 84.8965 318.56 84.8104 318.199 84.8104C317.818 84.8104 317.514 84.8949 317.289 85.0639C317.064 85.2296 316.914 85.4384 316.841 85.6903L314.883 85.5312C314.982 85.0672 315.178 84.6662 315.469 84.3281C315.761 83.9867 316.137 83.7249 316.598 83.5426C317.062 83.357 317.599 83.2642 318.209 83.2642C318.633 83.2642 319.039 83.3139 319.427 83.4134C319.818 83.5128 320.164 83.6669 320.466 83.8757C320.771 84.0845 321.011 84.353 321.187 84.6811C321.362 85.0059 321.45 85.3954 321.45 85.8494V91H319.442V89.9411H319.382C319.259 90.1797 319.095 90.3902 318.89 90.5724C318.684 90.7514 318.437 90.8923 318.149 90.995C317.861 91.0945 317.528 91.1442 317.15 91.1442ZM317.756 89.6825C318.068 89.6825 318.343 89.6212 318.581 89.4986C318.82 89.3726 319.007 89.2036 319.143 88.9915C319.279 88.7794 319.347 88.5391 319.347 88.2706V87.4602C319.281 87.5033 319.19 87.5431 319.074 87.5795C318.961 87.6127 318.833 87.6442 318.691 87.674C318.548 87.7005 318.406 87.7254 318.263 87.7486C318.121 87.7685 317.992 87.7867 317.876 87.8033C317.627 87.8397 317.41 87.8977 317.224 87.9773C317.039 88.0568 316.894 88.1645 316.792 88.3004C316.689 88.433 316.638 88.5987 316.638 88.7976C316.638 89.0859 316.742 89.3063 316.951 89.4588C317.163 89.608 317.431 89.6825 317.756 89.6825ZM325.211 86.5852V91H323.093V83.3636H325.112V84.7109H325.201C325.37 84.2668 325.654 83.9155 326.051 83.657C326.449 83.3951 326.931 83.2642 327.498 83.2642C328.028 83.2642 328.491 83.3802 328.885 83.6122C329.28 83.8442 329.586 84.1757 329.805 84.6065C330.024 85.0341 330.133 85.5445 330.133 86.1378V91H328.015V86.5156C328.018 86.0483 327.899 85.6837 327.657 85.4219C327.415 85.1567 327.082 85.0241 326.658 85.0241C326.373 85.0241 326.121 85.0855 325.902 85.2081C325.687 85.3307 325.518 85.5097 325.395 85.745C325.276 85.977 325.214 86.2571 325.211 86.5852ZM333.92 86.5852V91H331.802V83.3636H333.821V84.7109H333.91C334.079 84.2668 334.363 83.9155 334.76 83.657C335.158 83.3951 335.64 83.2642 336.207 83.2642C336.737 83.2642 337.2 83.3802 337.594 83.6122C337.989 83.8442 338.295 84.1757 338.514 84.6065C338.733 85.0341 338.842 85.5445 338.842 86.1378V91H336.724V86.5156C336.727 86.0483 336.608 85.6837 336.366 85.4219C336.124 85.1567 335.791 85.0241 335.367 85.0241C335.082 85.0241 334.83 85.0855 334.611 85.2081C334.396 85.3307 334.227 85.5097 334.104 85.745C333.985 85.977 333.923 86.2571 333.92 86.5852ZM343.991 91.1491C343.206 91.1491 342.53 90.9901 341.963 90.6719C341.399 90.3504 340.965 89.8963 340.66 89.3097C340.355 88.7197 340.203 88.022 340.203 87.2166C340.203 86.4311 340.355 85.7417 340.66 85.1484C340.965 84.5552 341.394 84.0928 341.948 83.7614C342.505 83.4299 343.158 83.2642 343.907 83.2642C344.411 83.2642 344.88 83.3454 345.314 83.5078C345.751 83.6669 346.132 83.9072 346.457 84.2287C346.785 84.5502 347.041 84.9545 347.223 85.4418C347.405 85.9257 347.496 86.4924 347.496 87.142V87.7237H341.048V86.4112H345.503C345.503 86.1063 345.436 85.8362 345.304 85.6009C345.171 85.3655 344.987 85.1816 344.752 85.049C344.52 84.9131 344.25 84.8452 343.942 84.8452C343.62 84.8452 343.335 84.9197 343.086 85.0689C342.841 85.2147 342.649 85.4119 342.51 85.6605C342.371 85.9058 342.299 86.1792 342.296 86.4808V87.7287C342.296 88.1065 342.366 88.433 342.505 88.7081C342.647 88.9832 342.848 89.1953 343.106 89.3445C343.365 89.4936 343.671 89.5682 344.026 89.5682C344.261 89.5682 344.477 89.535 344.672 89.4688C344.868 89.4025 345.035 89.303 345.175 89.1705C345.314 89.0379 345.42 88.8755 345.493 88.6832L347.452 88.8125C347.352 89.2831 347.148 89.6941 346.84 90.0455C346.535 90.3935 346.141 90.6652 345.657 90.8608C345.176 91.053 344.621 91.1491 343.991 91.1491ZM350.996 80.8182V91H348.878V80.8182H350.996ZM49.102 108.383H46.9244C46.8847 108.101 46.8035 107.851 46.6808 107.632C46.5582 107.41 46.4008 107.221 46.2085 107.065C46.0163 106.91 45.7942 106.79 45.5423 106.707C45.2938 106.625 45.0236 106.583 44.732 106.583C44.205 106.583 43.7459 106.714 43.3548 106.976C42.9637 107.234 42.6605 107.612 42.445 108.109C42.2296 108.603 42.1219 109.203 42.1219 109.909C42.1219 110.635 42.2296 111.245 42.445 111.739C42.6638 112.232 42.9687 112.605 43.3598 112.857C43.7509 113.109 44.2033 113.235 44.7171 113.235C45.0054 113.235 45.2722 113.197 45.5175 113.121C45.7661 113.045 45.9865 112.933 46.1787 112.788C46.3709 112.638 46.53 112.458 46.656 112.246C46.7852 112.034 46.8747 111.792 46.9244 111.52L49.102 111.53C49.0457 111.997 48.9048 112.448 48.6794 112.882C48.4574 113.313 48.1574 113.699 47.7796 114.04C47.405 114.379 46.9576 114.647 46.4372 114.846C45.9202 115.041 45.3352 115.139 44.6823 115.139C43.7741 115.139 42.9621 114.934 42.2462 114.523C41.5336 114.112 40.9701 113.517 40.5558 112.738C40.1449 111.959 39.9394 111.016 39.9394 109.909C39.9394 108.799 40.1482 107.854 40.5658 107.075C40.9834 106.296 41.5502 105.703 42.2661 105.295C42.982 104.884 43.7874 104.679 44.6823 104.679C45.2722 104.679 45.8191 104.762 46.3229 104.928C46.83 105.093 47.2791 105.335 47.6702 105.653C48.0613 105.968 48.3795 106.354 48.6247 106.812C48.8733 107.269 49.0324 107.793 49.102 108.383ZM55.5029 111.749V107.364H57.6208V115H55.5874V113.613H55.5079C55.3356 114.06 55.0489 114.42 54.6478 114.692C54.2501 114.964 53.7645 115.099 53.1911 115.099C52.6807 115.099 52.2316 114.983 51.8438 114.751C51.4561 114.519 51.1528 114.19 50.934 113.762C50.7186 113.335 50.6092 112.822 50.6059 112.226V107.364H52.7238V111.848C52.7271 112.299 52.8481 112.655 53.0867 112.917C53.3254 113.179 53.6452 113.31 54.0463 113.31C54.3015 113.31 54.5401 113.252 54.7622 113.136C54.9842 113.016 55.1632 112.841 55.2991 112.609C55.4383 112.377 55.5062 112.09 55.5029 111.749ZM65.6686 109.541L63.7297 109.661C63.6965 109.495 63.6253 109.346 63.5159 109.213C63.4065 109.077 63.2623 108.969 63.0834 108.89C62.9077 108.807 62.6972 108.766 62.452 108.766C62.1238 108.766 61.8471 108.835 61.6217 108.974C61.3963 109.11 61.2836 109.293 61.2836 109.521C61.2836 109.704 61.3566 109.858 61.5024 109.984C61.6482 110.11 61.8985 110.211 62.2531 110.287L63.6352 110.565C64.3776 110.718 64.9311 110.963 65.2957 111.301C65.6603 111.639 65.8426 112.083 65.8426 112.634C65.8426 113.134 65.6951 113.573 65.4001 113.951C65.1085 114.329 64.7074 114.624 64.197 114.836C63.6899 115.045 63.1049 115.149 62.442 115.149C61.4311 115.149 60.6257 114.939 60.0258 114.518C59.4292 114.094 59.0796 113.517 58.9768 112.788L61.0599 112.678C61.1229 112.987 61.2754 113.222 61.5173 113.384C61.7593 113.543 62.0692 113.623 62.447 113.623C62.8182 113.623 63.1165 113.552 63.3419 113.409C63.5706 113.263 63.6866 113.076 63.6899 112.847C63.6866 112.655 63.6054 112.498 63.4463 112.375C63.2872 112.249 63.0419 112.153 62.7105 112.087L61.3881 111.823C60.6423 111.674 60.0872 111.415 59.7226 111.048C59.3613 110.68 59.1807 110.211 59.1807 109.641C59.1807 109.15 59.3132 108.728 59.5784 108.373C59.8469 108.018 60.223 107.745 60.7069 107.553C61.1942 107.36 61.7642 107.264 62.4172 107.264C63.3817 107.264 64.1407 107.468 64.6942 107.876C65.251 108.283 65.5758 108.839 65.6686 109.541ZM71.238 107.364V108.955H66.6393V107.364H71.238ZM67.6833 105.534H69.8012V112.653C69.8012 112.849 69.8311 113.001 69.8907 113.111C69.9504 113.217 70.0332 113.291 70.1393 113.335C70.2487 113.378 70.3746 113.399 70.5171 113.399C70.6166 113.399 70.716 113.391 70.8154 113.374C70.9149 113.354 70.9911 113.339 71.0441 113.33L71.3772 114.906C71.2712 114.939 71.122 114.977 70.9298 115.02C70.7375 115.066 70.5039 115.094 70.2288 115.104C69.7184 115.124 69.2709 115.056 68.8865 114.901C68.5053 114.745 68.2087 114.503 67.9965 114.175C67.7844 113.847 67.68 113.432 67.6833 112.932V105.534ZM75.9859 115.149C75.2136 115.149 74.5458 114.985 73.9823 114.657C73.4222 114.326 72.9897 113.865 72.6847 113.275C72.3798 112.682 72.2274 111.994 72.2274 111.212C72.2274 110.423 72.3798 109.733 72.6847 109.143C72.9897 108.55 73.4222 108.089 73.9823 107.761C74.5458 107.43 75.2136 107.264 75.9859 107.264C76.7581 107.264 77.4243 107.43 77.9845 107.761C78.5479 108.089 78.9821 108.55 79.287 109.143C79.5919 109.733 79.7444 110.423 79.7444 111.212C79.7444 111.994 79.5919 112.682 79.287 113.275C78.9821 113.865 78.5479 114.326 77.9845 114.657C77.4243 114.985 76.7581 115.149 75.9859 115.149ZM75.9958 113.509C76.3472 113.509 76.6405 113.409 76.8758 113.21C77.1111 113.008 77.2884 112.733 77.4078 112.385C77.5304 112.037 77.5917 111.641 77.5917 111.197C77.5917 110.753 77.5304 110.357 77.4078 110.009C77.2884 109.661 77.1111 109.385 76.8758 109.183C76.6405 108.981 76.3472 108.88 75.9958 108.88C75.6412 108.88 75.3429 108.981 75.1009 109.183C74.8623 109.385 74.6817 109.661 74.559 110.009C74.4397 110.357 74.3801 110.753 74.3801 111.197C74.3801 111.641 74.4397 112.037 74.559 112.385C74.6817 112.733 74.8623 113.008 75.1009 113.21C75.3429 113.409 75.6412 113.509 75.9958 113.509ZM81.1215 115V107.364H83.14V108.711H83.2295C83.3886 108.263 83.6537 107.911 84.0249 107.652C84.3962 107.393 84.8403 107.264 85.3573 107.264C85.881 107.264 86.3268 107.395 86.6947 107.657C87.0626 107.915 87.3079 108.267 87.4305 108.711H87.51C87.6658 108.273 87.9475 107.924 88.3552 107.662C88.7662 107.397 89.2517 107.264 89.8119 107.264C90.5245 107.264 91.1028 107.491 91.547 107.945C91.9944 108.396 92.2181 109.036 92.2181 109.864V115H90.1052V110.282C90.1052 109.858 89.9925 109.54 89.7671 109.327C89.5418 109.115 89.26 109.009 88.922 109.009C88.5375 109.009 88.2375 109.132 88.0221 109.377C87.8067 109.619 87.699 109.939 87.699 110.337V115H85.6457V110.237C85.6457 109.863 85.538 109.564 85.3225 109.342C85.1104 109.12 84.8303 109.009 84.4823 109.009C84.247 109.009 84.0349 109.069 83.846 109.188C83.6604 109.304 83.5129 109.468 83.4035 109.68C83.2941 109.889 83.2394 110.134 83.2394 110.416V115H81.1215ZM97.3712 115.149C96.5857 115.149 95.9095 114.99 95.3428 114.672C94.7793 114.35 94.3451 113.896 94.0402 113.31C93.7353 112.72 93.5828 112.022 93.5828 111.217C93.5828 110.431 93.7353 109.742 94.0402 109.148C94.3451 108.555 94.7744 108.093 95.3279 107.761C95.8847 107.43 96.5376 107.264 97.2867 107.264C97.7905 107.264 98.2594 107.345 98.6936 107.508C99.1311 107.667 99.5123 107.907 99.8371 108.229C100.165 108.55 100.42 108.955 100.603 109.442C100.785 109.926 100.876 110.492 100.876 111.142V111.724H94.428V110.411H98.8825C98.8825 110.106 98.8163 109.836 98.6837 109.601C98.5511 109.366 98.3672 109.182 98.1318 109.049C97.8998 108.913 97.6297 108.845 97.3215 108.845C97 108.845 96.7149 108.92 96.4664 109.069C96.2211 109.215 96.0289 109.412 95.8896 109.661C95.7504 109.906 95.6792 110.179 95.6759 110.481V111.729C95.6759 112.107 95.7455 112.433 95.8847 112.708C96.0272 112.983 96.2277 113.195 96.4862 113.344C96.7448 113.494 97.0513 113.568 97.406 113.568C97.6413 113.568 97.8567 113.535 98.0523 113.469C98.2478 113.402 98.4152 113.303 98.5544 113.17C98.6936 113.038 98.7997 112.875 98.8726 112.683L100.831 112.812C100.732 113.283 100.528 113.694 100.22 114.045C99.915 114.393 99.5206 114.665 99.0367 114.861C98.5561 115.053 98.0009 115.149 97.3712 115.149ZM102.258 115V107.364H104.312V108.696H104.391C104.53 108.222 104.764 107.864 105.092 107.622C105.42 107.377 105.798 107.254 106.226 107.254C106.332 107.254 106.446 107.261 106.569 107.274C106.691 107.287 106.799 107.306 106.892 107.329V109.208C106.792 109.178 106.655 109.152 106.479 109.129C106.303 109.105 106.143 109.094 105.997 109.094C105.685 109.094 105.407 109.162 105.162 109.298C104.92 109.43 104.727 109.616 104.585 109.854C104.446 110.093 104.376 110.368 104.376 110.68V115H102.258ZM111.267 115V104.818H118.128V106.593H113.419V109.019H117.775V110.794H113.419V113.225H118.147V115H111.267ZM121.569 107.364L122.971 110.033L124.408 107.364H126.581L124.368 111.182L126.64 115H124.478L122.971 112.36L121.49 115H119.302L121.569 111.182L119.382 107.364H121.569ZM127.838 117.864V107.364H129.926V108.646H130.021C130.114 108.441 130.248 108.232 130.424 108.02C130.603 107.804 130.835 107.625 131.12 107.483C131.408 107.337 131.766 107.264 132.193 107.264C132.75 107.264 133.264 107.41 133.735 107.702C134.205 107.99 134.581 108.426 134.863 109.009C135.145 109.589 135.286 110.317 135.286 111.192C135.286 112.044 135.148 112.763 134.873 113.349C134.601 113.933 134.23 114.375 133.759 114.677C133.292 114.975 132.768 115.124 132.188 115.124C131.777 115.124 131.428 115.056 131.139 114.92C130.854 114.785 130.621 114.614 130.438 114.408C130.256 114.2 130.117 113.989 130.021 113.777H129.956V117.864H127.838ZM129.911 111.182C129.911 111.636 129.974 112.032 130.1 112.37C130.226 112.708 130.409 112.972 130.647 113.161C130.886 113.346 131.176 113.439 131.517 113.439C131.862 113.439 132.154 113.344 132.392 113.156C132.631 112.963 132.812 112.698 132.934 112.36C133.06 112.019 133.123 111.626 133.123 111.182C133.123 110.741 133.062 110.353 132.939 110.018C132.817 109.684 132.636 109.422 132.397 109.233C132.159 109.044 131.865 108.95 131.517 108.95C131.173 108.95 130.881 109.041 130.642 109.223C130.407 109.405 130.226 109.664 130.1 109.999C129.974 110.333 129.911 110.728 129.911 111.182ZM140.178 115.149C139.392 115.149 138.716 114.99 138.149 114.672C137.586 114.35 137.152 113.896 136.847 113.31C136.542 112.72 136.389 112.022 136.389 111.217C136.389 110.431 136.542 109.742 136.847 109.148C137.152 108.555 137.581 108.093 138.134 107.761C138.691 107.43 139.344 107.264 140.093 107.264C140.597 107.264 141.066 107.345 141.5 107.508C141.938 107.667 142.319 107.907 142.644 108.229C142.972 108.55 143.227 108.955 143.409 109.442C143.592 109.926 143.683 110.492 143.683 111.142V111.724H137.235V110.411H141.689C141.689 110.106 141.623 109.836 141.49 109.601C141.358 109.366 141.174 109.182 140.938 109.049C140.706 108.913 140.436 108.845 140.128 108.845C139.807 108.845 139.522 108.92 139.273 109.069C139.028 109.215 138.835 109.412 138.696 109.661C138.557 109.906 138.486 110.179 138.483 110.481V111.729C138.483 112.107 138.552 112.433 138.691 112.708C138.834 112.983 139.034 113.195 139.293 113.344C139.551 113.494 139.858 113.568 140.213 113.568C140.448 113.568 140.663 113.535 140.859 113.469C141.054 113.402 141.222 113.303 141.361 113.17C141.5 113.038 141.606 112.875 141.679 112.683L143.638 112.812C143.539 113.283 143.335 113.694 143.027 114.045C142.722 114.393 142.327 114.665 141.843 114.861C141.363 115.053 140.808 115.149 140.178 115.149ZM145.065 115V107.364H147.118V108.696H147.198C147.337 108.222 147.571 107.864 147.899 107.622C148.227 107.377 148.605 107.254 149.032 107.254C149.138 107.254 149.253 107.261 149.375 107.274C149.498 107.287 149.606 107.306 149.698 107.329V109.208C149.599 109.178 149.461 109.152 149.286 109.129C149.11 109.105 148.949 109.094 148.804 109.094C148.492 109.094 148.214 109.162 147.968 109.298C147.726 109.43 147.534 109.616 147.392 109.854C147.252 110.093 147.183 110.368 147.183 110.68V115H145.065ZM150.793 115V107.364H152.911V115H150.793ZM151.857 106.379C151.542 106.379 151.272 106.275 151.047 106.066C150.825 105.854 150.714 105.6 150.714 105.305C150.714 105.014 150.825 104.763 151.047 104.555C151.272 104.343 151.542 104.237 151.857 104.237C152.172 104.237 152.441 104.343 152.663 104.555C152.888 104.763 153.001 105.014 153.001 105.305C153.001 105.6 152.888 105.854 152.663 106.066C152.441 106.275 152.172 106.379 151.857 106.379ZM158.088 115.149C157.302 115.149 156.626 114.99 156.06 114.672C155.496 114.35 155.062 113.896 154.757 113.31C154.452 112.72 154.3 112.022 154.3 111.217C154.3 110.431 154.452 109.742 154.757 109.148C155.062 108.555 155.491 108.093 156.045 107.761C156.601 107.43 157.254 107.264 158.003 107.264C158.507 107.264 158.976 107.345 159.41 107.508C159.848 107.667 160.229 107.907 160.554 108.229C160.882 108.55 161.137 108.955 161.32 109.442C161.502 109.926 161.593 110.492 161.593 111.142V111.724H155.145V110.411H159.599C159.599 110.106 159.533 109.836 159.4 109.601C159.268 109.366 159.084 109.182 158.849 109.049C158.617 108.913 158.347 108.845 158.038 108.845C157.717 108.845 157.432 108.92 157.183 109.069C156.938 109.215 156.746 109.412 156.606 109.661C156.467 109.906 156.396 110.179 156.393 110.481V111.729C156.393 112.107 156.462 112.433 156.601 112.708C156.744 112.983 156.945 113.195 157.203 113.344C157.462 113.494 157.768 113.568 158.123 113.568C158.358 113.568 158.574 113.535 158.769 113.469C158.965 113.402 159.132 113.303 159.271 113.17C159.41 113.038 159.516 112.875 159.589 112.683L161.548 112.812C161.449 113.283 161.245 113.694 160.937 114.045C160.632 114.393 160.237 114.665 159.753 114.861C159.273 115.053 158.718 115.149 158.088 115.149ZM165.093 110.585V115H162.975V107.364H164.994V108.711H165.083C165.252 108.267 165.535 107.915 165.933 107.657C166.331 107.395 166.813 107.264 167.38 107.264C167.91 107.264 168.373 107.38 168.767 107.612C169.161 107.844 169.468 108.176 169.687 108.607C169.905 109.034 170.015 109.545 170.015 110.138V115H167.897V110.516C167.9 110.048 167.781 109.684 167.539 109.422C167.297 109.157 166.964 109.024 166.54 109.024C166.255 109.024 166.003 109.085 165.784 109.208C165.569 109.331 165.4 109.51 165.277 109.745C165.158 109.977 165.096 110.257 165.093 110.585ZM175.134 115.149C174.352 115.149 173.679 114.983 173.116 114.652C172.556 114.317 172.125 113.853 171.823 113.26C171.525 112.667 171.376 111.984 171.376 111.212C171.376 110.429 171.527 109.743 171.828 109.153C172.133 108.56 172.566 108.098 173.126 107.766C173.686 107.432 174.352 107.264 175.124 107.264C175.791 107.264 176.374 107.385 176.874 107.627C177.375 107.869 177.771 108.209 178.063 108.646C178.354 109.084 178.515 109.598 178.545 110.188H176.546C176.49 109.806 176.341 109.5 176.099 109.268C175.86 109.032 175.547 108.915 175.159 108.915C174.831 108.915 174.544 109.004 174.299 109.183C174.057 109.359 173.868 109.616 173.732 109.954C173.596 110.292 173.528 110.701 173.528 111.182C173.528 111.669 173.595 112.083 173.727 112.425C173.863 112.766 174.054 113.026 174.299 113.205C174.544 113.384 174.831 113.474 175.159 113.474C175.401 113.474 175.618 113.424 175.81 113.325C176.006 113.225 176.167 113.081 176.293 112.892C176.422 112.7 176.506 112.469 176.546 112.201H178.545C178.512 112.784 178.353 113.298 178.068 113.742C177.786 114.183 177.396 114.528 176.899 114.776C176.402 115.025 175.814 115.149 175.134 115.149ZM183.381 115.149C182.595 115.149 181.919 114.99 181.353 114.672C180.789 114.35 180.355 113.896 180.05 113.31C179.745 112.72 179.593 112.022 179.593 111.217C179.593 110.431 179.745 109.742 180.05 109.148C180.355 108.555 180.784 108.093 181.338 107.761C181.894 107.43 182.547 107.264 183.296 107.264C183.8 107.264 184.269 107.345 184.703 107.508C185.141 107.667 185.522 107.907 185.847 108.229C186.175 108.55 186.43 108.955 186.612 109.442C186.795 109.926 186.886 110.492 186.886 111.142V111.724H180.438V110.411H184.892C184.892 110.106 184.826 109.836 184.693 109.601C184.561 109.366 184.377 109.182 184.142 109.049C183.91 108.913 183.639 108.845 183.331 108.845C183.01 108.845 182.725 108.92 182.476 109.069C182.231 109.215 182.039 109.412 181.899 109.661C181.76 109.906 181.689 110.179 181.686 110.481V111.729C181.686 112.107 181.755 112.433 181.894 112.708C182.037 112.983 182.237 113.195 182.496 113.344C182.755 113.494 183.061 113.568 183.416 113.568C183.651 113.568 183.867 113.535 184.062 113.469C184.258 113.402 184.425 113.303 184.564 113.17C184.703 113.038 184.809 112.875 184.882 112.683L186.841 112.812C186.742 113.283 186.538 113.694 186.23 114.045C185.925 114.393 185.53 114.665 185.046 114.861C184.566 115.053 184.011 115.149 183.381 115.149ZM194.63 115.149C193.928 115.149 193.321 115.023 192.811 114.771C192.3 114.519 191.908 114.178 191.633 113.747C191.361 113.313 191.225 112.829 191.225 112.295C191.225 111.898 191.304 111.545 191.464 111.237C191.623 110.928 191.845 110.645 192.13 110.386C192.415 110.125 192.746 109.864 193.124 109.606L195.098 108.308C195.353 108.146 195.54 107.975 195.66 107.796C195.779 107.614 195.839 107.417 195.839 107.205C195.839 107.002 195.757 106.815 195.595 106.643C195.432 106.47 195.202 106.386 194.904 106.389C194.705 106.389 194.533 106.434 194.387 106.523C194.241 106.61 194.127 106.724 194.044 106.866C193.964 107.006 193.924 107.161 193.924 107.334C193.924 107.546 193.984 107.761 194.103 107.98C194.223 108.199 194.382 108.431 194.581 108.676C194.78 108.918 194.997 109.18 195.232 109.462L200.059 115H197.852L193.825 110.516C193.56 110.214 193.295 109.899 193.03 109.571C192.768 109.24 192.549 108.888 192.373 108.517C192.198 108.143 192.11 107.737 192.11 107.299C192.11 106.805 192.224 106.361 192.453 105.967C192.685 105.572 193.01 105.261 193.427 105.032C193.845 104.8 194.332 104.684 194.889 104.684C195.432 104.684 195.901 104.795 196.296 105.017C196.694 105.236 196.999 105.527 197.211 105.892C197.426 106.253 197.534 106.651 197.534 107.085C197.534 107.566 197.415 108.002 197.176 108.393C196.941 108.781 196.609 109.129 196.182 109.437L194.103 110.933C193.822 111.139 193.613 111.349 193.477 111.565C193.344 111.777 193.278 111.981 193.278 112.176C193.278 112.418 193.338 112.635 193.457 112.827C193.576 113.02 193.745 113.172 193.964 113.285C194.183 113.394 194.44 113.449 194.735 113.449C195.093 113.449 195.446 113.368 195.794 113.205C196.145 113.04 196.463 112.806 196.748 112.504C197.037 112.199 197.267 111.838 197.439 111.42C197.612 111.003 197.698 110.54 197.698 110.033H199.453C199.453 110.656 199.385 111.218 199.249 111.719C199.113 112.216 198.924 112.65 198.682 113.021C198.44 113.389 198.164 113.691 197.852 113.926C197.753 113.989 197.656 114.049 197.564 114.105C197.471 114.161 197.375 114.221 197.275 114.284C196.897 114.589 196.475 114.809 196.008 114.945C195.544 115.081 195.084 115.149 194.63 115.149ZM210.973 108.109C210.904 107.867 210.806 107.654 210.68 107.468C210.554 107.279 210.4 107.12 210.218 106.991C210.039 106.858 209.833 106.757 209.601 106.688C209.372 106.618 209.119 106.583 208.84 106.583C208.32 106.583 207.863 106.712 207.468 106.971C207.077 107.229 206.772 107.606 206.554 108.099C206.335 108.59 206.225 109.19 206.225 109.899C206.225 110.608 206.333 111.212 206.549 111.709C206.764 112.206 207.069 112.585 207.463 112.847C207.858 113.106 208.323 113.235 208.86 113.235C209.348 113.235 209.764 113.149 210.108 112.977C210.456 112.801 210.721 112.554 210.904 112.236C211.089 111.918 211.182 111.541 211.182 111.107L211.62 111.172H208.995V109.551H213.255V110.834C213.255 111.729 213.066 112.498 212.688 113.141C212.311 113.78 211.79 114.274 211.127 114.622C210.465 114.967 209.706 115.139 208.85 115.139C207.896 115.139 207.057 114.929 206.335 114.508C205.612 114.084 205.049 113.482 204.644 112.703C204.243 111.921 204.043 110.993 204.043 109.919C204.043 109.094 204.162 108.358 204.401 107.712C204.643 107.062 204.981 106.512 205.415 106.061C205.849 105.61 206.355 105.267 206.931 105.032C207.508 104.797 208.133 104.679 208.806 104.679C209.382 104.679 209.919 104.763 210.416 104.933C210.914 105.098 211.354 105.334 211.739 105.638C212.127 105.943 212.443 106.306 212.688 106.727C212.934 107.145 213.091 107.606 213.161 108.109H210.973ZM214.832 115V107.364H216.886V108.696H216.965C217.104 108.222 217.338 107.864 217.666 107.622C217.994 107.377 218.372 107.254 218.8 107.254C218.906 107.254 219.02 107.261 219.143 107.274C219.265 107.287 219.373 107.306 219.466 107.329V109.208C219.367 109.178 219.229 109.152 219.053 109.129C218.878 109.105 218.717 109.094 218.571 109.094C218.26 109.094 217.981 109.162 217.736 109.298C217.494 109.43 217.302 109.616 217.159 109.854C217.02 110.093 216.95 110.368 216.95 110.68V115H214.832ZM223.656 115.149C222.884 115.149 222.216 114.985 221.652 114.657C221.092 114.326 220.66 113.865 220.355 113.275C220.05 112.682 219.897 111.994 219.897 111.212C219.897 110.423 220.05 109.733 220.355 109.143C220.66 108.55 221.092 108.089 221.652 107.761C222.216 107.43 222.884 107.264 223.656 107.264C224.428 107.264 225.094 107.43 225.654 107.761C226.218 108.089 226.652 108.55 226.957 109.143C227.262 109.733 227.414 110.423 227.414 111.212C227.414 111.994 227.262 112.682 226.957 113.275C226.652 113.865 226.218 114.326 225.654 114.657C225.094 114.985 224.428 115.149 223.656 115.149ZM223.666 113.509C224.017 113.509 224.31 113.409 224.546 113.21C224.781 113.008 224.958 112.733 225.078 112.385C225.2 112.037 225.262 111.641 225.262 111.197C225.262 110.753 225.2 110.357 225.078 110.009C224.958 109.661 224.781 109.385 224.546 109.183C224.31 108.981 224.017 108.88 223.666 108.88C223.311 108.88 223.013 108.981 222.771 109.183C222.532 109.385 222.352 109.661 222.229 110.009C222.11 110.357 222.05 110.753 222.05 111.197C222.05 111.641 222.11 112.037 222.229 112.385C222.352 112.733 222.532 113.008 222.771 113.21C223.013 113.409 223.311 113.509 223.666 113.509ZM230.106 115L228.028 107.364H230.171L231.354 112.494H231.424L232.657 107.364H234.76L236.013 112.464H236.077L237.241 107.364H239.378L237.305 115H235.063L233.751 110.197H233.656L232.344 115H230.106ZM244.57 107.364V108.955H239.971V107.364H244.57ZM241.015 105.534H243.133V112.653C243.133 112.849 243.163 113.001 243.223 113.111C243.282 113.217 243.365 113.291 243.471 113.335C243.581 113.378 243.707 113.399 243.849 113.399C243.949 113.399 244.048 113.391 244.147 113.374C244.247 113.354 244.323 113.339 244.376 113.33L244.709 114.906C244.603 114.939 244.454 114.977 244.262 115.02C244.07 115.066 243.836 115.094 243.561 115.104C243.05 115.124 242.603 115.056 242.218 114.901C241.837 114.745 241.541 114.503 241.329 114.175C241.116 113.847 241.012 113.432 241.015 112.932V105.534ZM248.232 110.585V115H246.114V104.818H248.172V108.711H248.261C248.434 108.26 248.712 107.907 249.097 107.652C249.481 107.393 249.963 107.264 250.543 107.264C251.074 107.264 251.536 107.38 251.93 107.612C252.328 107.841 252.636 108.171 252.855 108.602C253.077 109.029 253.187 109.541 253.183 110.138V115H251.065V110.516C251.069 110.045 250.949 109.679 250.707 109.417C250.469 109.155 250.134 109.024 249.703 109.024C249.415 109.024 249.16 109.085 248.938 109.208C248.719 109.331 248.546 109.51 248.421 109.745C248.298 109.977 248.235 110.257 248.232 110.585ZM264.444 109.541L262.505 109.661C262.472 109.495 262.401 109.346 262.291 109.213C262.182 109.077 262.038 108.969 261.859 108.89C261.683 108.807 261.473 108.766 261.227 108.766C260.899 108.766 260.622 108.835 260.397 108.974C260.172 109.11 260.059 109.293 260.059 109.521C260.059 109.704 260.132 109.858 260.278 109.984C260.424 110.11 260.674 110.211 261.028 110.287L262.411 110.565C263.153 110.718 263.707 110.963 264.071 111.301C264.436 111.639 264.618 112.083 264.618 112.634C264.618 113.134 264.47 113.573 264.176 113.951C263.884 114.329 263.483 114.624 262.972 114.836C262.465 115.045 261.88 115.149 261.217 115.149C260.207 115.149 259.401 114.939 258.801 114.518C258.205 114.094 257.855 113.517 257.752 112.788L259.835 112.678C259.898 112.987 260.051 113.222 260.293 113.384C260.535 113.543 260.845 113.623 261.222 113.623C261.594 113.623 261.892 113.552 262.117 113.409C262.346 113.263 262.462 113.076 262.465 112.847C262.462 112.655 262.381 112.498 262.222 112.375C262.063 112.249 261.817 112.153 261.486 112.087L260.163 111.823C259.418 111.674 258.863 111.415 258.498 111.048C258.137 110.68 257.956 110.211 257.956 109.641C257.956 109.15 258.089 108.728 258.354 108.373C258.622 108.018 258.998 107.745 259.482 107.553C259.97 107.36 260.54 107.264 261.193 107.264C262.157 107.264 262.916 107.468 263.47 107.876C264.026 108.283 264.351 108.839 264.444 109.541ZM269.402 115.149C268.63 115.149 267.962 114.985 267.398 114.657C266.838 114.326 266.406 113.865 266.101 113.275C265.796 112.682 265.643 111.994 265.643 111.212C265.643 110.423 265.796 109.733 266.101 109.143C266.406 108.55 266.838 108.089 267.398 107.761C267.962 107.43 268.63 107.264 269.402 107.264C270.174 107.264 270.84 107.43 271.4 107.761C271.964 108.089 272.398 108.55 272.703 109.143C273.008 109.733 273.16 110.423 273.16 111.212C273.16 111.994 273.008 112.682 272.703 113.275C272.398 113.865 271.964 114.326 271.4 114.657C270.84 114.985 270.174 115.149 269.402 115.149ZM269.412 113.509C269.763 113.509 270.056 113.409 270.292 113.21C270.527 113.008 270.704 112.733 270.824 112.385C270.946 112.037 271.008 111.641 271.008 111.197C271.008 110.753 270.946 110.357 270.824 110.009C270.704 109.661 270.527 109.385 270.292 109.183C270.056 108.981 269.763 108.88 269.412 108.88C269.057 108.88 268.759 108.981 268.517 109.183C268.278 109.385 268.098 109.661 267.975 110.009C267.856 110.357 267.796 110.753 267.796 111.197C267.796 111.641 267.856 112.037 267.975 112.385C268.098 112.733 268.278 113.008 268.517 113.21C268.759 113.409 269.057 113.509 269.412 113.509ZM276.655 104.818V115H274.538V104.818H276.655ZM283.249 111.749V107.364H285.367V115H283.334V113.613H283.254C283.082 114.06 282.795 114.42 282.394 114.692C281.996 114.964 281.511 115.099 280.937 115.099C280.427 115.099 279.978 114.983 279.59 114.751C279.202 114.519 278.899 114.19 278.68 113.762C278.465 113.335 278.355 112.822 278.352 112.226V107.364H280.47V111.848C280.473 112.299 280.594 112.655 280.833 112.917C281.071 113.179 281.391 113.31 281.792 113.31C282.048 113.31 282.286 113.252 282.508 113.136C282.73 113.016 282.909 112.841 283.045 112.609C283.184 112.377 283.252 112.09 283.249 111.749ZM291.123 107.364V108.955H286.524V107.364H291.123ZM287.568 105.534H289.686V112.653C289.686 112.849 289.716 113.001 289.775 113.111C289.835 113.217 289.918 113.291 290.024 113.335C290.133 113.378 290.259 113.399 290.402 113.399C290.501 113.399 290.601 113.391 290.7 113.374C290.8 113.354 290.876 113.339 290.929 113.33L291.262 114.906C291.156 114.939 291.007 114.977 290.815 115.02C290.622 115.066 290.389 115.094 290.114 115.104C289.603 115.124 289.156 115.056 288.771 114.901C288.39 114.745 288.093 114.503 287.881 114.175C287.669 113.847 287.565 113.432 287.568 112.932V105.534ZM292.502 115V107.364H294.62V115H292.502ZM293.566 106.379C293.251 106.379 292.981 106.275 292.756 106.066C292.534 105.854 292.423 105.6 292.423 105.305C292.423 105.014 292.534 104.763 292.756 104.555C292.981 104.343 293.251 104.237 293.566 104.237C293.881 104.237 294.15 104.343 294.372 104.555C294.597 104.763 294.71 105.014 294.71 105.305C294.71 105.6 294.597 105.854 294.372 106.066C294.15 106.275 293.881 106.379 293.566 106.379ZM299.767 115.149C298.995 115.149 298.327 114.985 297.764 114.657C297.203 114.326 296.771 113.865 296.466 113.275C296.161 112.682 296.009 111.994 296.009 111.212C296.009 110.423 296.161 109.733 296.466 109.143C296.771 108.55 297.203 108.089 297.764 107.761C298.327 107.43 298.995 107.264 299.767 107.264C300.539 107.264 301.206 107.43 301.766 107.761C302.329 108.089 302.763 108.55 303.068 109.143C303.373 109.733 303.526 110.423 303.526 111.212C303.526 111.994 303.373 112.682 303.068 113.275C302.763 113.865 302.329 114.326 301.766 114.657C301.206 114.985 300.539 115.149 299.767 115.149ZM299.777 113.509C300.128 113.509 300.422 113.409 300.657 113.21C300.892 113.008 301.07 112.733 301.189 112.385C301.312 112.037 301.373 111.641 301.373 111.197C301.373 110.753 301.312 110.357 301.189 110.009C301.07 109.661 300.892 109.385 300.657 109.183C300.422 108.981 300.128 108.88 299.777 108.88C299.422 108.88 299.124 108.981 298.882 109.183C298.644 109.385 298.463 109.661 298.34 110.009C298.221 110.357 298.161 110.753 298.161 111.197C298.161 111.641 298.221 112.037 298.34 112.385C298.463 112.733 298.644 113.008 298.882 113.21C299.124 113.409 299.422 113.509 299.777 113.509ZM307.021 110.585V115H304.903V107.364H306.921V108.711H307.011C307.18 108.267 307.463 107.915 307.861 107.657C308.259 107.395 308.741 107.264 309.308 107.264C309.838 107.264 310.3 107.38 310.695 107.612C311.089 107.844 311.396 108.176 311.614 108.607C311.833 109.034 311.943 109.545 311.943 110.138V115H309.825V110.516C309.828 110.048 309.709 109.684 309.467 109.422C309.225 109.157 308.892 109.024 308.467 109.024C308.182 109.024 307.93 109.085 307.712 109.208C307.496 109.331 307.327 109.51 307.205 109.745C307.085 109.977 307.024 110.257 307.021 110.585Z" fill="#043C3C"/>
    <path d="M341.808 138C293.602 151.583 159.791 170.6 10.1923 138" stroke="url(#paint0_linear_504_3)" stroke-width="5.53846" stroke-linecap="round"/>
    <defs>
        <linearGradient id="paint0_linear_504_3" x1="225.846" y1="239.077" x2="104" y2="104.769" gradientUnits="userSpaceOnUse">
            <stop stop-color="#24DD85"/>
            <stop offset="1" stop-color="#FFF5F6" stop-opacity="0"/>
        </linearGradient>
    </defs>
</svg>
