<svg width="48" height="48" viewBox="0 0 48 48" fill="none" xmlns="http://www.w3.org/2000/svg">
<rect opacity="0.48" width="48" height="48" rx="8" fill="url(#paint0_linear)"/>
<rect x="12" y="12" width="14" height="24" rx="2" fill="url(#paint1_linear)"/>
<g opacity="0.4">
<path d="M29 14H30.0001C30.55 14 31 14.45 31 14.9999V32.9999C31 33.5498 30.55 33.9998 30.0001 33.9998H29C28.4477 33.9998 28 33.5521 28 32.9998V15C28 14.4477 28.4477 14 29 14Z" fill="url(#paint2_linear)"/>
<path d="M34 16H35.0001C35.5497 16 36 16.4503 36 17.0002V31C36 31.5499 35.5497 32.0002 35.0001 32.0002H34C33.4477 32.0002 33 31.5525 33 31.0002V17C33 16.4477 33.4477 16 34 16Z" fill="url(#paint3_linear)"/>
</g>
<defs>
<linearGradient id="paint0_linear" x1="48" y1="-2.0218e-06" x2="-2.0218e-06" y2="48" gradientUnits="userSpaceOnUse">
<stop stop-color="#70D3E9" stop-opacity="0.1"/>
<stop offset="1" stop-color="#7371E1" stop-opacity="0.34"/>
</linearGradient>
<linearGradient id="paint1_linear" x1="26" y1="12" x2="27.506" y2="34.984" gradientUnits="userSpaceOnUse">
<stop stop-color="#5E97EE"/>
<stop offset="1" stop-color="#897AE3"/>
</linearGradient>
<linearGradient id="paint2_linear" x1="36" y1="14" x2="37.8213" y2="33.0614" gradientUnits="userSpaceOnUse">
<stop stop-color="#5E97EE"/>
<stop offset="1" stop-color="#897AE3"/>
</linearGradient>
<linearGradient id="paint3_linear" x1="36" y1="14" x2="37.8213" y2="33.0614" gradientUnits="userSpaceOnUse">
<stop stop-color="#5E97EE"/>
<stop offset="1" stop-color="#897AE3"/>
</linearGradient>
</defs>
</svg>