<svg width="17" height="14" viewBox="0 0 17 14" fill="none" xmlns="http://www.w3.org/2000/svg">
<path d="M12.5 8.625C11.819 8.62514 11.1471 8.78112 10.5358 9.081C10.3497 9.17208 10.2728 9.3967 10.3639 9.58271C10.3692 9.59349 10.375 9.60402 10.3813 9.61425V9.61425C11.0309 10.67 11.3749 11.8854 11.375 13.125C11.375 13.3321 11.5429 13.5 11.75 13.5H16.625C16.8321 13.5 17 13.3321 17 13.125C17 10.6397 14.9853 8.625 12.5 8.625C12.5 8.625 12.5 8.625 12.5 8.625Z" fill="#B1B4D3"/>
<path d="M14.4468 3.44876C15.5451 4.54712 15.5451 6.32789 14.4468 7.42624C13.3484 8.52459 11.5677 8.52459 10.4693 7.42624C9.37095 6.32789 9.37095 4.54712 10.4693 3.44876C11.5677 2.35041 13.3484 2.35041 14.4468 3.44876Z" fill="#B1B4D3"/>
<path d="M7.1441 1.04343C8.53534 2.43467 8.53534 4.69032 7.1441 6.08156C5.75286 7.47281 3.49721 7.47281 2.10597 6.08156C0.714726 4.69032 0.714726 2.43467 2.10597 1.04343C3.49721 -0.347811 5.75286 -0.347811 7.1441 1.04343Z" fill="#8185A7"/>
<path d="M10 13.625C10 10.5184 7.76143 8 5 8C2.23857 8 0 10.5184 0 13.625H0C2.77975e-08 13.8321 0.149239 14 0.333333 14H9.66667C9.85076 14 10 13.8321 10 13.625Z" fill="#8185A7"/>
</svg>
