<svg width="18" height="18" viewBox="0 0 18 18" fill="none" xmlns="http://www.w3.org/2000/svg">
<path d="M16.875 0H1.125L1.125 0C0.50368 2.71588e-08 0 0.50368 0 1.125V11.4375H0C1.56362e-08 11.5411 0.0839467 11.625 0.1875 11.625H17.8125C17.9161 11.625 18 11.5411 18 11.4375V1.125C18 0.50368 17.4963 2.83118e-08 16.875 2.83118e-08V0ZM3.5745 3.375H4.863H4.863C5.17366 3.375 5.4255 3.62684 5.4255 3.9375C5.4255 4.24816 5.17366 4.5 4.863 4.5H3.5745C3.26384 4.5 3.012 4.24816 3.012 3.9375C3.012 3.62684 3.26384 3.375 3.5745 3.375ZM7.512 8.625H3.5745C3.26384 8.625 3.012 8.37316 3.012 8.0625C3.012 7.75184 3.26384 7.5 3.5745 7.5H7.512C7.82266 7.5 8.0745 7.75184 8.0745 8.0625C8.0745 8.37316 7.82266 8.625 7.512 8.625ZM7.737 5.25C7.01302 5.28597 6.39696 4.72822 6.361 4.00424C6.32503 3.28025 6.88278 2.66419 7.60676 2.62823C8.33065 2.59227 8.94666 3.14987 8.98276 3.87375V3.87375C9.0189 4.59643 8.46334 5.21204 7.74076 5.25L7.737 5.25ZM10.386 9.375H10.386C9.66204 9.41138 9.04566 8.85398 9.00928 8.13002C8.97291 7.40606 9.5303 6.78968 10.2543 6.75331C10.9782 6.71693 11.5946 7.27432 11.631 7.99829C11.631 7.99844 11.631 7.9986 11.631 7.99875V7.99875C11.6672 8.72115 11.112 9.33664 10.3898 9.375H10.386ZM14.4218 8.625H13.137C12.8263 8.625 12.5745 8.37316 12.5745 8.0625C12.5745 7.75184 12.8263 7.5 13.137 7.5H14.4255C14.7362 7.5 14.988 7.75184 14.988 8.0625C14.988 8.37316 14.7362 8.625 14.4255 8.625H14.4218ZM14.4218 4.5H10.4843C10.1736 4.5 9.92175 4.24816 9.92175 3.9375C9.92175 3.62684 10.1736 3.375 10.4843 3.375H14.4218C14.7324 3.375 14.9843 3.62684 14.9843 3.9375C14.9843 4.24816 14.7324 4.5 14.4218 4.5Z" fill="#8185A7"/>
<path d="M17.8125 12.75H0.1875C0.0839467 12.75 0 12.8339 0 12.9375V13.875H0C-9.38167e-08 14.4963 0.50368 15 1.125 15H7.35L5.66325 17.4105C5.54478 17.5804 5.58646 17.8141 5.75634 17.9326C5.81903 17.9763 5.89358 17.9998 5.97 18H12.03C12.2371 17.9998 12.4049 17.8318 12.4047 17.6247C12.4046 17.5478 12.3809 17.4727 12.3367 17.4097L10.65 15H16.875C17.4963 15 18 14.4963 18 13.875V12.9375C18 12.8339 17.9161 12.75 17.8125 12.75C17.8125 12.75 17.8125 12.75 17.8125 12.75Z" fill="#B1B4D3"/>
</svg>
