<svg width="18" height="18" viewBox="0 0 18 18" fill="none" xmlns="http://www.w3.org/2000/svg">
<path d="M9.10351 11.55L5.94901 14.7C5.31633 15.3605 4.31081 15.4953 3.52651 15.0248V15.0248C2.65826 14.4491 2.42108 13.2786 2.99674 12.4103C3.06363 12.3094 3.14007 12.2152 3.22501 12.129L6.45001 8.898C6.67897 7.14908 7.2938 5.47291 8.25001 3.99075C8.30676 3.90663 8.28457 3.79242 8.20045 3.73566C8.17075 3.71563 8.13583 3.70471 8.10001 3.70425H1.17151C0.550189 3.70425 0.0465088 4.20793 0.0465088 4.82925V16.8293C0.0465089 17.4506 0.550189 17.9543 1.17151 17.9543H13.1715C13.7928 17.9543 14.2965 17.4506 14.2965 16.8293V9.9045C14.2952 9.80303 14.2119 9.72181 14.1104 9.7231C14.0746 9.72355 14.0397 9.73447 14.01 9.7545C12.5276 10.7089 10.8518 11.3222 9.10351 11.55L9.10351 11.55Z" fill="#8185A7"/>
<path d="M17.565 0.0457572V0.0457572C15.9132 0.106302 14.2961 0.536346 12.8325 1.30426C12.7614 1.3421 12.7213 1.42017 12.732 1.50001L12.975 3.33976C13.0026 3.54501 12.8586 3.73381 12.6534 3.76145C12.5626 3.77367 12.4705 3.75226 12.3945 3.70126L10.9927 2.76001C10.9186 2.70891 10.8185 2.71874 10.7557 2.78326C10.488 3.05701 9.80697 3.75826 9.76047 3.81301L9.76047 3.81301C9.2662 4.43033 8.84678 5.10403 8.51097 5.82001L8.51097 5.82001C8.24049 6.39444 8.02163 6.99179 7.85697 7.60501C7.77497 7.90501 7.70597 8.21001 7.64997 8.52001C7.62297 8.67001 7.59822 8.82001 7.57497 8.97001C7.56372 9.05251 7.57497 9.36376 7.52097 9.42001L4.01622 12.924C3.72343 13.2169 3.72343 13.6916 4.01622 13.9845C4.3111 14.2724 4.78184 14.2724 5.07672 13.9845L8.58372 10.4775H8.58372C10.9844 10.2609 13.2376 9.22496 14.9647 7.54351H14.9647C16.818 5.63293 17.8849 3.09515 17.9535 0.434257C17.9573 0.33008 17.9177 0.228994 17.844 0.155257V0.155257C17.7706 0.081011 17.6693 0.0412378 17.565 0.0457573L17.565 0.0457572Z" fill="#B1B4D3"/>
</svg>
