<svg width="18" height="19" viewBox="0 0 18 19" fill="none" xmlns="http://www.w3.org/2000/svg">
<g clip-path="url(#clip0)">
<path d="M9.00011 4.5532C9.67691 4.5532 10.3177 4.7008 10.8937 4.9672C11.1709 5.0932 11.4949 5.0392 11.7109 4.8268L13.7953 2.7424C14.1229 2.4148 14.0581 1.8676 13.6657 1.6228C12.3157 0.769599 10.7137 0.279999 9.00011 0.279999C7.28651 0.279999 5.68451 0.769599 4.33091 1.6156C3.93851 1.8604 3.87371 2.4076 4.20131 2.7352L6.28571 4.8196C6.50171 5.0356 6.82571 5.0896 7.10291 4.96C7.68251 4.7008 8.32331 4.5532 9.00011 4.5532Z" fill="#8185A7"/>
<path d="M13.5469 9.1C13.5469 9.7768 13.3993 10.4176 13.1329 10.9936C13.0069 11.2708 13.0609 11.5948 13.2733 11.8108L15.3577 13.8952C15.6853 14.2228 16.2325 14.158 16.4773 13.7656C17.3305 12.4156 17.8201 10.8136 17.8201 9.1C17.8201 7.3864 17.3305 5.7844 16.4845 4.4308C16.2397 4.0384 15.6925 3.9736 15.3649 4.3012L13.2805 6.3856C13.0645 6.6016 13.0105 6.9256 13.1401 7.2028C13.3993 7.7824 13.5469 8.4232 13.5469 9.1Z" fill="#8185A7"/>
<path d="M9.00005 13.6468C8.32325 13.6468 7.68245 13.4992 7.10645 13.2328C6.82925 13.1068 6.50525 13.1608 6.28925 13.3732L4.20485 15.4576C3.87725 15.7852 3.94205 16.3324 4.33445 16.5772C5.68445 17.4304 7.28645 17.92 9.00005 17.92C10.7137 17.92 12.3157 17.4304 13.6693 16.5844C14.0617 16.3396 14.1265 15.7924 13.7989 15.4648L11.7145 13.3804C11.4985 13.1644 11.1745 13.1104 10.8973 13.24C10.3177 13.4992 9.67685 13.6468 9.00005 13.6468Z" fill="#8185A7"/>
<path d="M4.45325 9.1C4.45325 8.4232 4.60085 7.7824 4.86725 7.2064C4.99325 6.9292 4.93925 6.6052 4.72685 6.3892L2.64245 4.3048C2.31485 3.9772 1.76765 4.042 1.52285 4.4344C0.669654 5.7844 0.180054 7.3864 0.180054 9.1C0.180054 10.8136 0.669654 12.4156 1.51565 13.7692C1.76045 14.1616 2.30765 14.2264 2.63525 13.8988L4.71965 11.8144C4.93565 11.5984 4.98965 11.2744 4.86005 10.9972C4.60085 10.4176 4.45325 9.7768 4.45325 9.1Z" fill="#8185A7"/>
<circle cx="9" cy="9.10001" r="3" fill="#B1B4D3"/>
</g>
<defs>
<clipPath id="clip0">
<rect y="0.100006" width="18" height="18" fill="white"/>
</clipPath>
</defs>
</svg>
