<svg width="14" height="19" viewBox="0 0 14 19" fill="none" xmlns="http://www.w3.org/2000/svg">
<path d="M11 0C11 2.76114 8.76054 4.99836 6 5C6 2.23722 8.23864 0 11 0Z" fill="#B1B4D3"/>
<path d="M10.7074 10.875C10.7074 9.46732 11.6923 8.27088 13.0684 7.81957C12.1969 6.70525 10.9317 6 9.51792 6C8.60252 6 7.64261 6.546 7.64261 6.546C7.36519 6.70395 6.91138 6.70395 6.63355 6.546C6.63355 6.546 5.67384 6 4.75844 6C2.13068 6 -0.00083976 8.42472 2.48193e-07 11.4167C2.48193e-07 15.6018 1.86335 19 4.16371 19C5.26496 19 6.61444 18.3426 6.61444 18.3426C6.90298 18.2018 7.37464 18.2018 7.66235 18.3426C7.66235 18.3426 9.01119 19 10.1124 19C11.8905 19 13.4025 16.9672 14 14.1122C12.1581 13.984 10.7074 12.5847 10.7074 10.875Z" fill="#8185A7"/>
</svg>
