<svg width="18" height="21" viewBox="0 0 18 21" fill="none" xmlns="http://www.w3.org/2000/svg">
<path d="M7.92389 19.7712L6.75278 19.0126C2.50226 16.3572 0.0113338 12.2772 4.43813e-07 7.95191V5.94915C-0.000515988 5.34849 0.440163 4.80415 1.12388 4.56088L8.11278 2.065C8.35636 1.97833 8.63419 1.97833 8.87778 2.065L15.8761 4.56087C16.5598 4.80413 17.0005 5.34848 17 5.94915V7.95191C17 12.2879 14.5076 16.3817 10.2464 19.0435L9.07533 19.8021C8.72725 20.0028 8.25456 19.9901 7.92389 19.7712Z" fill="#8185A7"/>
<path d="M9.05714 1.59807L16.0435 4.09452L16.0438 4.09463C16.8736 4.39005 17.5007 5.09102 17.5 5.9552M9.05714 1.59807L9.05547 1.59747L8.91163 2H8.5L8.49975 2.06832L8.38722 2.06832V2.42061L8.49829 2.4603L8.49814 2.5C8.49876 2.5 8.49938 2.5 8.5 2.50001V19.4444C8.49958 19.4444 8.49917 19.4444 8.49875 19.4444L8.5 19.9444H9V19.8279C9.02614 19.8146 9.05154 19.8004 9.07611 19.785L10.2472 19.026C14.4977 16.369 16.9887 12.2865 17 7.95871V5.95499L17.5 5.9552M9.05714 1.59807C8.87989 1.53343 8.69093 1.50071 8.50186 1.5L8 1.49814V2V19.9444V20.4457L8.50125 20.4444C8.79588 20.4437 9.09098 20.3651 9.34074 20.2093L9.34078 20.2093L9.34806 20.2046L10.5157 19.4478C14.8828 16.7166 17.4881 12.4883 17.5 7.96002V7.95871V5.9552M9.05714 1.59807L17 5.95476L17.5 5.95477V5.9552" fill="#BFC2DB" stroke="white"/>
</svg>
