<svg width="18" height="18" viewBox="0 0 18 18" fill="none" xmlns="http://www.w3.org/2000/svg">
<path d="M0.866249 5.55L8.103 8.7C8.67529 8.94799 9.32471 8.94799 9.897 8.7L17.1337 5.55C17.7035 5.30216 17.9645 4.63938 17.7166 4.06963C17.6031 3.80859 17.3948 3.6003 17.1337 3.48675L9.9 0.339002V0.339002C9.32769 0.0911009 8.67831 0.0911009 8.106 0.339002L0.86775 3.4845C0.297791 3.73186 0.036277 4.39443 0.283634 4.96439C0.397225 5.22612 0.606019 5.43491 0.86775 5.5485L0.866249 5.55Z" fill="#8185A7"/>
<path d="M17.133 7.98601L16.2 7.57951C16.0086 7.49657 15.7914 7.49657 15.6 7.57951L9 10.4498L2.4 7.57951C2.2086 7.49657 1.9914 7.49657 1.8 7.57951L0.867 7.98526H0.867C0.297042 8.23262 0.0355274 8.89519 0.282885 9.46514C0.396475 9.72688 0.605269 9.93567 0.867 10.0493L8.1 13.1948C8.67229 13.4428 9.32171 13.4428 9.894 13.1948L17.1307 10.05C17.7007 9.80265 17.9622 9.14008 17.7149 8.57012C17.6013 8.30839 17.3925 8.0996 17.1307 7.98601H17.133Z" fill="#B1B4D3"/>
<path d="M17.133 12.45L16.2 12.0457C16.0087 11.9623 15.7913 11.9623 15.6 12.0457L9 14.916L2.4 12.0457C2.20871 11.9623 1.99129 11.9623 1.8 12.0457L0.867 12.4507C0.297042 12.6981 0.0355274 13.3607 0.282885 13.9306C0.396475 14.1924 0.605269 14.4011 0.867 14.5147L8.1 17.661C8.67229 17.909 9.32171 17.909 9.894 17.661L17.1277 14.5162C17.6979 14.2694 17.96 13.607 17.7131 13.0368C17.5995 12.7744 17.3902 12.5651 17.1277 12.4515L17.133 12.45Z" fill="#B1B4D3"/>
</svg>
