<svg width="18" height="18" viewBox="0 0 18 18" fill="none" xmlns="http://www.w3.org/2000/svg">
<path d="M11.9798 6.20326C12.074 6.16033 12.1156 6.04913 12.0726 5.9549C12.0539 5.91375 12.0209 5.88076 11.9798 5.86201L4.662 2.52601C4.56507 2.48295 4.45444 2.48295 4.3575 2.52601L1.49475 3.76801C1.39949 3.8086 1.35516 3.91873 1.39574 4.014C1.41472 4.05855 1.4502 4.09403 1.49475 4.11301L9.21225 7.32901C9.30852 7.36932 9.41724 7.36769 9.51225 7.32451L11.9798 6.20326Z" fill="#B1B4D3"/>
<path d="M16.5465 4.125C16.6409 4.08252 16.6831 3.97152 16.6406 3.87708C16.6218 3.83527 16.5883 3.8018 16.5465 3.783L9.3 0.635245C9.10871 0.551761 8.89129 0.551761 8.7 0.635245L6.285 1.68525C6.19035 1.72726 6.14768 1.83804 6.18969 1.93269C6.20855 1.97517 6.24252 2.00914 6.285 2.028L13.56 5.3445C13.6586 5.38936 13.7719 5.38936 13.8705 5.3445L16.5465 4.125Z" fill="#B1B4D3"/>
<path d="M0.6345 4.97249H0.6345C0.538885 4.93273 0.429139 4.978 0.389375 5.07362C0.379869 5.09647 0.374984 5.12099 0.375 5.14574V13.5052V13.5053C0.375 13.808 0.556946 14.081 0.836308 14.1975L8.54998 17.4127C8.6456 17.4525 8.75534 17.4072 8.79511 17.3116C8.80461 17.2888 8.8095 17.2642 8.80948 17.2395V8.50499V8.505C8.80933 8.42927 8.76382 8.36101 8.69398 8.33175L0.6345 4.97249Z" fill="#8185A7"/>
<path d="M9.9375 17.208V17.208C9.93805 17.312 10.0228 17.3958 10.1267 17.3953C10.1528 17.3951 10.1785 17.3896 10.2022 17.379L17.1855 14.205C17.4531 14.0833 17.6249 13.8165 17.625 13.5225V5.16452V5.16451C17.6251 5.06096 17.5412 4.97695 17.4376 4.97687C17.411 4.97685 17.3846 4.98253 17.3602 4.99352L10.05 8.31752C9.98282 8.34748 9.9396 8.41422 9.93975 8.48777L9.9375 17.208Z" fill="#8185A7"/>
</svg>
