<svg width="16" height="16" viewBox="0 0 16 16" fill="none" xmlns="http://www.w3.org/2000/svg">
<path d="M15.6112 7.05713L14.52 5.96611C14.261 5.70711 14.0488 5.1953 14.0488 4.82829V3.28526C14.0488 2.55125 13.4492 1.95164 12.7153 1.95124H11.1717C10.8051 1.95124 10.2927 1.73863 10.0337 1.47983L8.94267 0.388807C8.42426 -0.129602 7.57544 -0.129602 7.05703 0.388807L5.96601 1.48063C5.70681 1.73963 5.1938 1.95164 4.82799 1.95164H3.28496C2.55195 1.95164 1.95154 2.55125 1.95154 3.28526V4.82829C1.95154 5.1939 1.73933 5.70731 1.48033 5.96611L0.389107 7.05713C-0.129702 7.57554 -0.129702 8.42436 0.389107 8.94357L1.48033 10.0346C1.73953 10.2936 1.95154 10.8068 1.95154 11.1724V12.7154C1.95154 13.4487 2.55195 14.0491 3.28496 14.0491H4.82799C5.1946 14.0491 5.70701 14.2613 5.96601 14.5201L7.05703 15.6115C7.57544 16.1295 8.42426 16.1295 8.94267 15.6115L10.0337 14.5201C10.2929 14.2611 10.8051 14.0491 11.1717 14.0491H12.7153C13.4492 14.0491 14.0488 13.4487 14.0488 12.7154V11.1724C14.0488 10.8052 14.2612 10.2934 14.52 10.0346L15.6112 8.94357C16.1292 8.42436 16.1292 7.57554 15.6112 7.05713ZM6.94143 11.0002L3.99958 8.05795L4.94239 7.11533L6.94163 9.11457L11.0571 5.00009L11.9997 5.94271L6.94143 11.0002Z" fill="#ABAEC6"/>
<path d="M14.5199 5.96619L15.6112 7.05721C16.1292 7.57562 16.1292 8.42444 15.6112 8.94365L14.5199 10.0347C14.2611 10.2935 14.0487 10.8053 14.0487 11.1725V12.7155C14.0487 13.4487 13.4491 14.0491 12.7153 14.0491H11.1717C10.8051 14.0491 10.2929 14.2611 10.0336 14.5202L8.94263 15.6116V0.388885L10.0336 1.47991C10.2927 1.73871 10.8051 1.95131 11.1717 1.95131H12.7153C13.4491 1.95171 14.0487 2.55133 14.0487 3.28534V4.82837C14.0487 5.19538 14.2609 5.70719 14.5199 5.96619Z" fill="#CACCE2"/>
<path d="M6.94143 11.0001L3.99957 8.05786L4.94239 7.11524L6.94163 9.11448L11.0571 5L11.9997 5.94262L6.94143 11.0001Z" fill="white"/>
</svg>
