<svg width="18" height="19" viewBox="0 0 18 19" fill="none" xmlns="http://www.w3.org/2000/svg">
<g clip-path="url(#clip0)">
<path d="M7.03125 10.225C7.03125 9.91434 7.28309 9.6625 7.59375 9.6625H10.4062C10.7169 9.6625 10.9688 9.91434 10.9688 10.225V10.4125C10.9688 10.6196 11.1366 10.7875 11.3438 10.7875H17.25C17.4571 10.7875 17.625 10.6196 17.625 10.4125V7.6C17.625 7.18578 17.2892 6.85 16.875 6.85H12.7313C12.5244 4.78928 10.6862 3.28643 8.62547 3.49327C6.85063 3.67143 5.4469 5.07514 5.26875 6.85H1.125H1.125C0.710786 6.85 0.375 7.18578 0.375 7.6V10.4125V10.4125C0.375 10.6196 0.542893 10.7875 0.75 10.7875H6.65625C6.86336 10.7875 7.03125 10.6196 7.03125 10.4125V10.225ZM9 4.975C10.0979 4.97501 11.0355 5.76743 11.2185 6.85H6.7815C6.96449 5.76743 7.90208 4.97501 9 4.975V4.975Z" fill="#B1B4D3"/>
<path d="M10.9688 12.5695V12.5695C10.9675 13.6584 10.0837 14.5402 8.99475 14.5389C8.86454 14.5388 8.73467 14.5258 8.60704 14.5C7.67308 14.2873 7.01592 13.4492 7.03204 12.4915V12.2883C7.03204 12.0811 6.86414 11.9133 6.65704 11.9133H0.75C0.542893 11.9133 0.375 12.0811 0.375 12.2883V17.35C0.375 17.7642 0.710786 18.1 1.125 18.1H16.875C17.2892 18.1 17.625 17.7642 17.625 17.35V12.2875C17.625 12.0804 17.4571 11.9125 17.25 11.9125H11.3775C11.1712 11.8939 10.9889 12.046 10.9703 12.2522C10.9692 12.2639 10.9687 12.2757 10.9688 12.2875L10.9688 12.5695Z" fill="#8185A7"/>
<path d="M9.46875 10.7882H8.53125C8.32414 10.7882 8.15625 10.9561 8.15625 11.1632V12.5695C8.15625 13.0355 8.53401 13.4132 9 13.4132C9.46599 13.4132 9.84375 13.0355 9.84375 12.5695V11.1632C9.84375 10.9561 9.67586 10.7882 9.46875 10.7882Z" fill="#8185A7"/>
</g>
<defs>
<clipPath id="clip0">
<rect y="0.100006" width="18" height="18" fill="white"/>
</clipPath>
</defs>
</svg>
