<svg width="16" height="16" viewBox="0 0 16 16" fill="none" xmlns="http://www.w3.org/2000/svg">
<path fill-rule="evenodd" clip-rule="evenodd" d="M15.1714 0H6.94286C6.69039 0 6.48572 0.20467 6.48572 0.457143V14.6286C6.48572 14.881 6.69039 15.0857 6.94286 15.0857H15.1714C15.4239 15.0857 15.6286 14.881 15.6286 14.6286V0.457143C15.6286 0.20467 15.4239 0 15.1714 0ZM10.1429 12.8C10.1429 13.0525 9.93819 13.2571 9.68571 13.2571H8.77143C8.51895 13.2571 8.31428 13.0525 8.31428 12.8V11.8857C8.31428 11.6332 8.51895 11.4286 8.77143 11.4286H9.68571C9.93819 11.4286 10.1429 11.6332 10.1429 11.8857V12.8ZM9.68571 8.68571C9.93819 8.68571 10.1429 8.48104 10.1429 8.22857V7.31429C10.1429 7.06181 9.93819 6.85714 9.68571 6.85714H8.77143C8.51895 6.85714 8.31428 7.06181 8.31428 7.31429V8.22857C8.31428 8.48104 8.51895 8.68571 8.77143 8.68571H9.68571ZM10.1429 3.65714C10.1429 3.90962 9.93819 4.11429 9.68571 4.11429H8.77143C8.51895 4.11429 8.31428 3.90962 8.31428 3.65714V2.74286C8.31428 2.49038 8.51895 2.28571 8.77143 2.28571H9.68571C9.93819 2.28571 10.1429 2.49038 10.1429 2.74286V3.65714ZM13.3429 13.2571C13.5953 13.2571 13.8 13.0525 13.8 12.8V11.8857C13.8 11.6332 13.5953 11.4286 13.3429 11.4286H12.4286C12.1761 11.4286 11.9714 11.6332 11.9714 11.8857V12.8C11.9714 13.0525 12.1761 13.2571 12.4286 13.2571H13.3429ZM13.8 8.22857C13.8 8.48104 13.5953 8.68571 13.3429 8.68571H12.4286C12.1761 8.68571 11.9714 8.48104 11.9714 8.22857V7.31429C11.9714 7.06181 12.1761 6.85714 12.4286 6.85714H13.3429C13.5953 6.85714 13.8 7.06181 13.8 7.31429V8.22857ZM13.3429 4.11429C13.5953 4.11429 13.8 3.90962 13.8 3.65714V2.74286C13.8 2.49038 13.5953 2.28571 13.3429 2.28571H12.4286C12.1761 2.28571 11.9714 2.49038 11.9714 2.74286V3.65714C11.9714 3.90962 12.1761 4.11429 12.4286 4.11429H13.3429Z" fill="#ABAEC6"/>
<rect y="3.65714" width="5.48571" height="11.4286" rx="2" fill="#CACCE2"/>
</svg>
