<svg width="20" height="20" viewBox="0 0 20 20" fill="none" xmlns="http://www.w3.org/2000/svg">
<path fill-rule="evenodd" clip-rule="evenodd" d="M19.6533 5.6304V5.6304C20.0599 5.22407 20.0601 4.56506 19.6538 4.15844C19.6536 4.15826 19.6534 4.15808 19.6533 4.1579L16.3199 0.824567V0.824567C15.9204 0.410652 15.2609 0.399004 14.847 0.798554C14.4331 1.1981 14.4215 1.85754 14.821 2.27146C14.8294 2.28014 14.8379 2.28868 14.8466 2.29706L17.1458 4.59956C17.3084 4.76227 17.3084 5.02602 17.1458 5.18873L14.8466 7.49123H14.8466C14.4471 7.90514 14.4587 8.56459 14.8726 8.96414C15.2764 9.3539 15.9164 9.35372 16.3199 8.96373L19.6533 5.6304Z" fill="#B1B4D3"/>
<path fill-rule="evenodd" clip-rule="evenodd" d="M8.82004 0.824583V0.824583C8.41395 0.417733 7.75493 0.417118 7.34808 0.82321C7.34762 0.823667 7.34716 0.824125 7.34671 0.824583L4.01337 4.15792H4.01337C3.60675 4.56424 3.60651 5.22326 4.01284 5.62987C4.01302 5.63005 4.01319 5.63023 4.01337 5.63041L7.34671 8.96374C7.74626 9.37766 8.4057 9.38931 8.81961 8.98976C9.23353 8.59021 9.24518 7.93077 8.84563 7.51685C8.83725 7.50817 8.82872 7.49963 8.82004 7.49125L6.51754 5.18875C6.35488 5.02604 6.35488 4.76229 6.51754 4.59958L8.82004 2.29708C9.22666 1.89076 9.2269 1.23174 8.82058 0.825124C8.8204 0.824944 8.82022 0.824764 8.82004 0.824584L8.82004 0.824583Z" fill="#B1B4D3"/>
<path fill-rule="evenodd" clip-rule="evenodd" d="M10.7742 9.66126H10.7742C10.8487 9.67749 10.9247 9.68559 11.0009 9.68542H11.0009C11.4886 9.68478 11.9108 9.34633 12.0175 8.87042L13.6842 1.37043V1.37043C13.8092 0.807557 13.4542 0.249968 12.8913 0.12501C12.3284 5.59688e-05 11.7708 0.355057 11.6459 0.917926L9.97921 8.41792L9.97921 8.41792C9.85532 8.98067 10.2111 9.53729 10.7738 9.66117C10.774 9.6612 10.7741 9.66123 10.7742 9.66126H10.7742Z" fill="#B1B4D3"/>
<path fill-rule="evenodd" clip-rule="evenodd" d="M4.12 13.2246L4.12 13.2246C3.60243 13.2248 3.09201 13.3455 2.62917 13.5771L0.115 14.8363L0.115 14.8363C0.0443784 14.8717 -0.000154597 14.9439 4.03309e-07 15.0229V19.5179L4.0358e-07 19.5179C0.000143645 19.633 0.0935337 19.7262 0.208593 19.726C0.247384 19.726 0.285391 19.7151 0.318334 19.6946L3.16667 17.9146C3.2723 17.8486 3.40191 17.8333 3.52 17.8729C12.0633 20.7363 9.16416 20.7854 18.6033 16.0096C18.8137 15.9014 18.8965 15.6431 18.7883 15.4328C18.7604 15.3785 18.7212 15.3308 18.6733 15.2929V15.2929C18.1213 14.814 17.3574 14.6622 16.6642 14.8938L13.8125 15.8404C13.7072 15.8755 13.6202 15.9511 13.5708 16.0504V16.0504C13.2909 16.6161 12.7145 16.9742 12.0833 16.9746H8.75C8.51988 16.9746 8.33333 16.7881 8.33333 16.5579C8.33333 16.3278 8.51988 16.1413 8.75 16.1413H12.0833C12.5436 16.1413 12.9167 15.7682 12.9167 15.3079C12.9167 14.8477 12.5436 14.4746 12.0833 14.4746H9.3125C9.22234 14.4746 9.13462 14.4454 9.0625 14.3913V14.3913C8.12896 13.6863 7.00433 13.2797 5.83583 13.2246L4.12 13.2246Z" fill="#8185A7"/>
</svg>
