<svg width="48" height="48" viewBox="0 0 48 48" fill="none" xmlns="http://www.w3.org/2000/svg">
<rect opacity="0.48" width="48" height="48" rx="8" fill="url(#paint0_linear)"/>
<path opacity="0.4" d="M21.9996 17.0004C21.9996 15.8958 22.8954 15.0004 24 15.0004C25.1046 15.0004 26.0105 13.9148 25.0816 13.3171C24.7698 13.1164 24.3985 13 24 13H13.9995C12.8955 13.0003 12 13.8958 12 15.0004V33.0007C12 34.1059 12.8955 35.0005 13.9995 35.0005H24C24.3983 35.0005 24.7694 34.8842 25.0812 34.6837C26.0102 34.0863 25.1046 33.0007 24 33.0007C22.8954 33.0007 21.9996 32.1053 21.9996 31.0007V17.0004ZM20.0001 30.0007C20.0001 30.5529 19.5524 31.0006 19.0002 31.0006H14.9994C14.4472 31.0006 13.9995 30.5529 13.9995 30.0007C13.9995 29.4485 14.4472 29.0008 14.9994 29.0008H19.0002C19.5524 29.0008 20.0001 29.4485 20.0001 30.0007ZM20.0001 26.0002C20.0001 26.5526 19.5523 27.0004 18.9999 27.0004H14.9997C14.4473 27.0004 13.9995 26.5526 13.9995 26.0002C13.9995 25.4478 14.4473 25 14.9997 25H18.9999C19.5523 25 20.0001 25.4478 20.0001 26.0002ZM20.0001 22.0005C20.0001 22.5528 19.5524 23.0005 19 23.0005H14.9996C14.4472 23.0005 13.9995 22.5528 13.9995 22.0005C13.9995 21.4481 14.4472 21.0004 14.9995 21.0004H19C19.5524 21.0004 20.0001 21.4481 20.0001 22.0005ZM20.0001 18.0003C20.0001 18.5527 19.5522 19.0006 18.9998 19.0006H14.9999C14.4474 19.0006 13.9995 18.5527 13.9995 18.0003C13.9995 17.4478 14.4474 16.9999 14.9998 16.9999H18.9997C19.5522 16.9999 20.0001 17.4478 20.0001 18.0003Z" fill="url(#paint1_linear)"/>
<path d="M33.099 16.2181C33.3693 16.079 33.6755 16 34.0014 16C35.1045 16 36 16.8964 36 18.0004C36 19.1062 35.1045 20.0008 34.0014 20.0011C33.6759 20.0011 33.3701 19.9227 33.1001 19.7841C32.9655 19.715 32.8313 19.64 32.6965 19.5646C32.1962 19.2849 31.6882 19.0009 31.1269 19.0009H25.0003C24.4479 19.0009 24 18.553 24 18.0005C24 17.4481 24.4479 17.0002 25.0003 17.0002H31.1287C31.6908 17.0002 32.1996 16.7155 32.7004 16.4353C32.8336 16.3608 32.9662 16.2866 33.099 16.2181Z" fill="url(#paint2_linear)"/>
<path d="M33.0995 24.2184C33.3696 24.0796 33.6757 24.001 34.0014 24.001C35.1045 24.001 36 24.8977 36 26.0005C36 27.1063 35.1045 28.0009 34.0014 28.0009C33.6759 28.0009 33.3701 27.9225 33.1001 27.7839C32.9655 27.7148 32.8313 27.6397 32.6964 27.5644C32.1962 27.2847 31.6882 27.0007 31.1269 27.0007H25.0002C24.4478 27.0007 24 26.5529 24 26.0005C24 25.4481 24.4478 25.0003 25.0002 25.0003H31.1284C31.6898 25.0003 32.198 24.7162 32.6984 24.4366C32.8323 24.3617 32.9658 24.2871 33.0995 24.2184Z" fill="url(#paint3_linear)"/>
<path d="M28.0008 28.001C27.5604 28.001 27.1563 28.1449 26.8281 28.387C26.4141 28.6924 25.961 29.0012 25.4467 29.0012H24.9999C24.4477 29.0012 24 29.4488 24 30.0011C24 30.5533 24.4477 31.001 24.9999 31.001H25.4461C25.9608 31.001 26.4139 31.3103 26.8282 31.6157C27.1563 31.8577 27.5605 32.0012 28.0008 32.0012C29.1048 32.0012 30.0006 31.1066 30.0006 30.0008C30.0006 28.8974 29.1048 28.001 28.0008 28.001Z" fill="url(#paint4_linear)"/>
<path d="M29.0991 20.2181C29.3693 20.0792 29.6754 20.0005 30.0012 20.0005C31.1046 20.0005 32.0001 20.8972 32.0001 22C32.0001 23.1058 31.1046 24.0004 30.0012 24.0004C29.6757 24.0004 29.3699 23.922 29.0999 23.7834C28.9653 23.7143 28.8311 23.6392 28.6962 23.5639C28.196 23.2842 27.688 23.0002 27.1267 23.0002H25.0002C24.4478 23.0002 24 22.5524 24 22C24 21.4476 24.4478 20.9998 25.0002 20.9998H27.1285C27.69 20.9998 28.1984 20.7156 28.6988 20.4359C28.8325 20.3611 28.9657 20.2867 29.0991 20.2181Z" fill="url(#paint5_linear)"/>
<defs>
<linearGradient id="paint0_linear" x1="48" y1="-2.0218e-06" x2="-2.0218e-06" y2="48" gradientUnits="userSpaceOnUse">
<stop stop-color="#70D3E9" stop-opacity="0.1"/>
<stop offset="1" stop-color="#7371E1" stop-opacity="0.34"/>
</linearGradient>
<linearGradient id="paint1_linear" x1="26.0004" y1="13" x2="27.2667" y2="34.0836" gradientUnits="userSpaceOnUse">
<stop stop-color="#5E97EE"/>
<stop offset="1" stop-color="#897AE3"/>
</linearGradient>
<linearGradient id="paint2_linear" x1="36" y1="16" x2="36.7823" y2="31.3497" gradientUnits="userSpaceOnUse">
<stop stop-color="#5E97EE"/>
<stop offset="1" stop-color="#897AE3"/>
</linearGradient>
<linearGradient id="paint3_linear" x1="36" y1="16" x2="36.7823" y2="31.3497" gradientUnits="userSpaceOnUse">
<stop stop-color="#5E97EE"/>
<stop offset="1" stop-color="#897AE3"/>
</linearGradient>
<linearGradient id="paint4_linear" x1="36" y1="16" x2="36.7823" y2="31.3497" gradientUnits="userSpaceOnUse">
<stop stop-color="#5E97EE"/>
<stop offset="1" stop-color="#897AE3"/>
</linearGradient>
<linearGradient id="paint5_linear" x1="36" y1="16" x2="36.7823" y2="31.3497" gradientUnits="userSpaceOnUse">
<stop stop-color="#5E97EE"/>
<stop offset="1" stop-color="#897AE3"/>
</linearGradient>
</defs>
</svg>