<svg width="14" height="16" viewBox="0 0 14 16" fill="none" xmlns="http://www.w3.org/2000/svg">
<path fill-rule="evenodd" clip-rule="evenodd" d="M10.3328 3.99995C9.96475 3.99995 9.6749 3.69692 9.58408 3.3402C9.29038 2.18667 8.24449 1.33338 6.99978 1.33338C5.75498 1.33338 4.7091 2.18657 4.41534 3.34001C4.32447 3.69682 4.03453 3.99995 3.66633 3.99995C3.29812 3.99995 2.99381 3.69922 3.05447 3.33605C3.37072 1.44259 5.01691 0 6.99958 0C8.98232 0 10.6284 1.44269 10.9445 3.33625C11.0052 3.69931 10.7009 3.99995 10.3328 3.99995Z" fill="#CACCE2"/>
<path fill-rule="evenodd" clip-rule="evenodd" d="M13.9843 14.6848L12.8701 7.04488C12.7268 6.06219 11.8841 5.3335 10.891 5.3335H3.10887C2.11577 5.3335 1.2731 6.06221 1.1298 7.04491L0.0157756 14.6848C-0.090098 15.4074 0.348271 16 0.990337 16H13.0095C13.6511 16 14.0896 15.4074 13.9843 14.6848Z" fill="#ABAEC6"/>
</svg>