<svg width="48" height="48" viewBox="0 0 48 48" fill="none" xmlns="http://www.w3.org/2000/svg">
<rect width="48" height="48" rx="8" fill="url(#paint0_linear)"/>
<path d="M28 18.5C28 19.163 27.7366 19.7989 27.2678 20.2678C26.7989 20.7366 26.163 21 25.5 21C25.4162 20.9976 25.3327 20.9896 25.25 20.976C25.2188 20.9714 25.1871 20.9736 25.1568 20.9824C25.1266 20.9912 25.0986 21.0064 25.0748 21.027C25.0509 21.0476 25.0318 21.0731 25.0188 21.1017C25.0057 21.1304 24.9989 21.1615 24.999 21.193V24.5C24.999 24.6326 25.0517 24.7598 25.1454 24.8536C25.2392 24.9473 25.3664 25 25.499 25C25.8621 24.9968 26.2244 24.9634 26.582 24.9C26.6986 24.8804 26.8044 24.8201 26.8807 24.7298C26.9571 24.6396 26.999 24.5252 26.999 24.407V23.438C26.9989 23.3863 27.0148 23.3359 27.0445 23.2936C27.0742 23.2514 27.1163 23.2194 27.165 23.202C27.3283 23.1437 27.4886 23.0769 27.645 23.002C27.6916 22.9795 27.7441 22.972 27.7951 22.9806C27.8462 22.9892 27.8933 23.0135 27.93 23.05L28.618 23.737C28.7016 23.8208 28.8122 23.8721 28.9301 23.882C29.048 23.8919 29.1656 23.8597 29.262 23.791C29.8545 23.3697 30.372 22.8518 30.793 22.259C30.8614 22.1627 30.8935 22.0453 30.8836 21.9276C30.8737 21.8099 30.8225 21.6995 30.739 21.616L30.05 20.931C30.0135 20.8943 29.9892 20.8472 29.9806 20.7961C29.972 20.7451 29.9795 20.6926 30.002 20.646C30.0773 20.4887 30.144 20.3287 30.202 20.166C30.2194 20.1168 30.2518 20.0742 30.2947 20.0445C30.3376 20.0147 30.3888 19.9991 30.441 20H31.41C31.5282 20 31.6426 19.9581 31.7328 19.8818C31.8231 19.8054 31.8834 19.6996 31.903 19.583C32.0323 18.8668 32.0323 18.1332 31.903 17.417C31.8834 17.3004 31.8231 17.1946 31.7328 17.1182C31.6426 17.0419 31.5282 17 31.41 17H30.441C30.3895 16.9999 30.3393 16.9839 30.2972 16.9542C30.2552 16.9245 30.2233 16.8825 30.206 16.834C30.147 16.671 30.08 16.51 30.006 16.353C29.9835 16.3064 29.976 16.2539 29.9846 16.2029C29.9932 16.1518 30.0175 16.1047 30.054 16.068L30.741 15.381C30.8247 15.2974 30.8761 15.1868 30.886 15.0689C30.8959 14.951 30.8637 14.8334 30.795 14.737C30.374 14.1445 29.8565 13.627 29.264 13.206C29.1677 13.1372 29.0502 13.1048 28.9323 13.1145C28.8144 13.1242 28.7037 13.1754 28.62 13.259L27.932 13.946C27.8962 13.9829 27.85 14.0079 27.7995 14.0175C27.7491 14.0272 27.6969 14.0211 27.65 14C27.4937 13.9247 27.3335 13.8579 27.17 13.8C27.1215 13.7827 27.0795 13.7508 27.0498 13.7088C27.0201 13.6667 27.0041 13.6165 27.004 13.565V12.59C27.0031 12.4717 26.9603 12.3576 26.8833 12.2679C26.8062 12.1782 26.6998 12.1187 26.583 12.1C26.2254 12.0366 25.8631 12.0031 25.5 12C25.3674 12 25.2402 12.0527 25.1464 12.1464C25.0527 12.2402 25 12.3674 25 12.5V15.767C25 15.8026 25.0076 15.8379 25.0223 15.8703C25.037 15.9028 25.0584 15.9317 25.0852 15.9552C25.112 15.9787 25.1435 15.9962 25.1776 16.0065C25.2118 16.0168 25.2477 16.0197 25.283 16.015C25.3549 16.0055 25.4274 16.0005 25.5 16C26.163 16 26.7989 16.2634 27.2678 16.7322C27.7366 17.2011 28 17.837 28 18.5Z" fill="#897AE3"/>
<path d="M23 12C21.2761 12 19.6228 12.6848 18.4038 13.9038C17.1848 15.1228 16.5 16.7761 16.5 18.5C16.5 20.2239 17.1848 21.8772 18.4038 23.0962C19.6228 24.3152 21.2761 25 23 25C23.1326 25 23.2598 24.9473 23.3536 24.8536C23.4473 24.7598 23.5 24.6326 23.5 24.5V12.5C23.5 12.3674 23.4473 12.2402 23.3536 12.1464C23.2598 12.0527 23.1326 12 23 12V12Z" fill="#897AE3"/>
<path d="M23 25.5C20.3487 25.5029 17.8069 26.5574 15.9321 28.4321C14.0574 30.3069 13.0029 32.8487 13 35.5C13 35.6326 13.0527 35.7598 13.1464 35.8536C13.2402 35.9473 13.3674 36 13.5 36H23C23.1326 36 23.2598 35.9473 23.3536 35.8536C23.4473 35.7598 23.5 35.6326 23.5 35.5V26C23.5 25.8674 23.4473 25.7402 23.3536 25.6464C23.2598 25.5527 23.1326 25.5 23 25.5Z" fill="#897AE3"/>
<path d="M35.365 33.923C35.3455 33.8055 35.2851 33.6987 35.1946 33.6213C35.104 33.5439 34.9891 33.501 34.87 33.5H33.438C33.3836 33.5 33.3308 33.4823 33.2873 33.4497C33.2438 33.4171 33.2121 33.3712 33.197 33.319C33.1062 33.0027 32.9956 32.6924 32.866 32.39C32.8463 32.344 32.841 32.2932 32.8506 32.2442C32.8603 32.1951 32.8844 32.1501 32.92 32.115L34.02 31.015C34.0971 30.9375 34.1466 30.8368 34.1611 30.7285C34.1755 30.6201 34.1541 30.51 34.1 30.415C33.375 29.1881 32.3953 28.131 31.227 27.315C31.1308 27.2501 31.015 27.2208 30.8995 27.2319C30.7841 27.243 30.676 27.294 30.594 27.376L29.559 28.4C29.5212 28.438 29.4722 28.4628 29.4193 28.4707C29.3663 28.4786 29.3122 28.4693 29.265 28.444C28.9109 28.2555 28.5432 28.0937 28.165 27.96C28.1161 27.9428 28.0738 27.9109 28.0439 27.8686C28.014 27.8263 27.9979 27.7758 27.998 27.724V26.215C27.9982 26.1019 27.96 25.992 27.8897 25.9034C27.8195 25.8147 27.7212 25.7526 27.611 25.727C26.9121 25.5759 26.199 25.4998 25.484 25.5C25.3538 25.5036 25.2302 25.5579 25.1394 25.6513C25.0487 25.7447 24.9979 25.8698 24.998 26V30.8C24.9985 30.8609 25.0218 30.9193 25.0633 30.9639C25.1047 31.0085 25.1613 31.036 25.222 31.041C26.4356 31.1633 27.5697 31.7012 28.4322 32.5638C29.2948 33.4263 29.8327 34.5604 29.955 35.774C29.96 35.8347 29.9875 35.8913 30.0321 35.9327C30.0766 35.9742 30.1351 35.9975 30.196 35.998H34.996C35.1255 35.9981 35.2501 35.9479 35.3433 35.858C35.4366 35.7681 35.4913 35.6455 35.496 35.516C35.4943 34.9824 35.4505 34.4497 35.365 33.923Z" fill="#6152BD"/>
<defs>
<linearGradient id="paint0_linear" x1="0" y1="48" x2="48" y2="0" gradientUnits="userSpaceOnUse">
<stop stop-color="#E9E6F6"/>
<stop offset="1" stop-color="#E9E6F6" stop-opacity="0.24"/>
</linearGradient>
</defs>
</svg>