<svg width="16" height="14" viewBox="0 0 16 14" fill="none" xmlns="http://www.w3.org/2000/svg">
<path d="M0 2C0 0.89543 0.895431 0 2 0H14C15.1046 0 16 0.895431 16 2V11.5C16 12.6046 15.1046 13.5 14 13.5H2C0.895431 13.5 0 12.6046 0 11.5V2Z" fill="#ABAEC6"/>
<path d="M10.6667 0H16V13.5H10.6667V0Z" fill="#CACCE2"/>
<path d="M3.52775 2.42655C3.40032 2.65781 3.15723 2.80144 2.89325 2.80144C2.62927 2.80144 2.38618 2.65781 2.25875 2.42655C2.1867 2.31442 2.14675 2.18468 2.14325 2.05144C2.14664 1.91817 2.18659 1.7884 2.25875 1.67632C2.38618 1.44506 2.62927 1.30144 2.89325 1.30144C3.15723 1.30144 3.40032 1.44506 3.52775 1.67632C3.5999 1.7884 3.63986 1.91817 3.64325 2.05144C3.63975 2.18468 3.5998 2.31442 3.52775 2.42655Z" fill="white"/>
<path d="M6.02775 2.42655C5.90032 2.65781 5.65723 2.80144 5.39325 2.80144C5.12927 2.80144 4.88618 2.65781 4.75875 2.42655C4.6867 2.31442 4.64675 2.18468 4.64325 2.05144C4.64664 1.91817 4.68659 1.7884 4.75875 1.67632C4.88618 1.44506 5.12927 1.30144 5.39325 1.30144C5.65723 1.30144 5.90032 1.44506 6.02775 1.67632C6.0999 1.7884 6.13986 1.91817 6.14325 2.05144C6.13975 2.18468 6.0998 2.31442 6.02775 2.42655Z" fill="white"/>
<path d="M8.52775 2.42661C8.40032 2.65783 8.15723 2.80144 7.89325 2.80144C7.62927 2.80144 7.38618 2.65783 7.25875 2.42661C7.1867 2.3145 7.14675 2.18478 7.14325 2.05155C7.14664 1.91831 7.18659 1.78856 7.25875 1.67649C7.38811 1.44712 7.62996 1.30417 7.89325 1.30144C8.18756 1.30277 8.45388 1.47615 8.57425 1.74475C8.61895 1.8409 8.64248 1.94552 8.64325 2.05155C8.63975 2.18478 8.5998 2.3145 8.52775 2.42661Z" fill="white"/>
<path fill-rule="evenodd" clip-rule="evenodd" d="M4.9952 9.49742C5.25556 9.74883 5.6776 9.74883 5.93795 9.49742L7.60478 7.8874C7.86506 7.63591 7.86506 7.22826 7.60478 6.97677L5.93795 5.36675C5.67634 5.12269 5.2605 5.12618 5.00332 5.3746C4.74614 5.62302 4.74253 6.02469 4.9952 6.27738L6.07263 7.3181C6.10398 7.3483 6.1216 7.38932 6.1216 7.43209C6.1216 7.47486 6.10398 7.51587 6.07263 7.54608L4.9952 8.58679C4.73492 8.83828 4.73492 9.24593 4.9952 9.49742Z" fill="white"/>
<path fill-rule="evenodd" clip-rule="evenodd" d="M9.46665 10.186H12.1333C12.5015 10.186 12.8 9.96212 12.8 9.68597C12.8 9.40983 12.5015 9.18597 12.1333 9.18597H9.46665C9.09846 9.18597 8.79999 9.40983 8.79999 9.68597C8.79999 9.96212 9.09846 10.186 9.46665 10.186Z" fill="white"/>
</svg>
