<svg width="20" height="20" viewBox="0 0 20 20" fill="none" xmlns="http://www.w3.org/2000/svg">
<path opacity="0.24" d="M15.1428 6.48705C15.1846 6.61429 15.2574 6.72913 15.3547 6.82117C15.4519 6.9132 15.5706 6.97955 15.7 7.01419C15.7736 7.03664 15.8501 7.04819 15.9271 7.04847C16.0521 7.04715 16.1751 7.01709 16.2865 6.96061C16.398 6.90412 16.495 6.82274 16.57 6.72276C16.6453 6.62152 16.6958 6.50402 16.7174 6.3797C16.7389 6.25539 16.731 6.12774 16.6943 6.00705C16.2681 4.56149 15.3855 3.29266 14.1785 2.39017C12.9715 1.48768 11.5049 1 9.99783 1C8.49075 1 7.02413 1.48768 5.81714 2.39017C4.61016 3.29266 3.72761 4.56149 3.3014 6.00705C3.2653 6.12527 3.25813 6.25044 3.2805 6.37201C3.30288 6.49358 3.35414 6.608 3.42997 6.70562C3.50404 6.80687 3.60073 6.88943 3.71233 6.94673C3.82394 7.00402 3.94738 7.03446 4.07283 7.03562C4.14209 7.03898 4.21146 7.03176 4.27855 7.01419C4.41136 6.98313 4.53411 6.91887 4.6353 6.82742C4.7365 6.73597 4.81282 6.62033 4.85712 6.49133C5.18361 5.38508 5.85924 4.41414 6.78308 3.72355C7.70693 3.03297 8.8294 2.65981 9.98283 2.65981C11.1363 2.65981 12.2587 3.03297 13.1826 3.72355C14.1064 4.41414 14.7821 5.38508 15.1085 6.49133L15.1428 6.48705Z" fill="#1C0732"/>
<path opacity="0.48" d="M4.02571 8.25269H3.97429C3.59733 8.25274 3.23135 8.37956 2.93519 8.61276C2.63903 8.84596 2.4299 9.17198 2.34143 9.53841H1.53571C1.39363 9.53841 1.25737 9.59485 1.15691 9.69531C1.05644 9.79578 1 9.93204 1 10.0741L1 14.1455C1 14.2876 1.05644 14.4239 1.15691 14.5244C1.25737 14.6248 1.39363 14.6813 1.53571 14.6813H2.34143C2.4299 15.0477 2.63903 15.3737 2.93519 15.6069C3.23135 15.8401 3.59733 15.9669 3.97429 15.967H4.02571C4.24782 15.967 4.46775 15.9232 4.67289 15.838C4.87804 15.7529 5.06438 15.6281 5.22123 15.4709C5.37809 15.3136 5.50238 15.127 5.58698 14.9216C5.67159 14.7163 5.71485 14.4962 5.71429 14.2741V9.94126C5.71485 9.71936 5.67156 9.49953 5.5869 9.29441C5.50224 9.08928 5.37789 8.90291 5.22098 8.746C5.06406 8.58909 4.87769 8.46473 4.67257 8.38007C4.46745 8.29542 4.24762 8.25213 4.02571 8.25269Z" fill="#1C0732"/>
<path opacity="0.48" d="M18.4643 9.53841H17.6586C17.5701 9.17198 17.361 8.84596 17.0648 8.61276C16.7686 8.37956 16.4027 8.25274 16.0257 8.25269H15.9743C15.7524 8.25213 15.5325 8.29542 15.3274 8.38007C15.1223 8.46473 14.9359 8.58909 14.779 8.746C14.6221 8.90291 14.4977 9.08928 14.4131 9.29441C14.3284 9.49953 14.2851 9.71936 14.2857 9.94126V14.2741C14.2853 14.6075 14.3835 14.9335 14.5681 15.2111C14.7527 15.4887 15.0153 15.7055 15.3229 15.8341C15.2355 16.1763 15.037 16.4798 14.7586 16.697C14.4801 16.9142 14.1374 17.0327 13.7843 17.0341H10.8828C10.7369 16.7264 10.4906 16.4775 10.1844 16.3284C9.87819 16.1793 9.53037 16.1388 9.19811 16.2136C8.86586 16.2884 8.56895 16.4741 8.35622 16.74C8.14348 17.006 8.02759 17.3364 8.02759 17.677C8.02759 18.0175 8.14348 18.348 8.35622 18.6139C8.56895 18.8799 8.86586 19.0655 9.19811 19.1403C9.53037 19.2152 9.87819 19.1747 10.1844 19.0255C10.4906 18.8764 10.7369 18.6275 10.8828 18.3198H13.7843C14.4769 18.3178 15.1457 18.067 15.6688 17.6131C16.192 17.1591 16.5346 16.5324 16.6343 15.847C16.8862 15.7493 17.1108 15.5924 17.2891 15.3895C17.4674 15.1865 17.5941 14.9436 17.6586 14.6813H18.4643C18.6064 14.6813 18.7426 14.6248 18.8431 14.5244C18.9436 14.4239 19 14.2876 19 14.1455V10.0741C19 9.93204 18.9436 9.79578 18.8431 9.69531C18.7426 9.59485 18.6064 9.53841 18.4643 9.53841Z" fill="#1C0732"/>
</svg>
