<svg width="20" height="20" viewBox="0 0 20 20" fill="none" xmlns="http://www.w3.org/2000/svg">
<path opacity="0.48" fill-rule="evenodd" clip-rule="evenodd" d="M0.833374 4.16666C0.833374 2.78594 1.95266 1.66666 3.33337 1.66666C4.71409 1.66666 5.83337 2.78594 5.83337 4.16666C5.83337 5.25517 5.1377 6.1812 4.16671 6.5244V14.1667C4.16671 15.5474 5.286 16.6667 6.66671 16.6667C8.04742 16.6667 9.16671 15.5474 9.16671 14.1667V12.3577C8.19571 12.0145 7.50004 11.0885 7.50004 9.99999C7.50004 8.91147 8.19571 7.98544 9.16671 7.64224V5.83332C9.16671 3.53214 11.0322 1.66666 13.3334 1.66666C15.6346 1.66666 17.5 3.53214 17.5 5.83332V13.4756C18.471 13.8188 19.1667 14.7448 19.1667 15.8333C19.1667 17.214 18.0474 18.3333 16.6667 18.3333C15.286 18.3333 14.1667 17.214 14.1667 15.8333C14.1667 14.7448 14.8624 13.8188 15.8334 13.4756V5.83332C15.8334 4.45261 14.7141 3.33332 13.3334 3.33332C11.9527 3.33332 10.8334 4.45261 10.8334 5.83332V7.64224C11.8044 7.98544 12.5 8.91147 12.5 9.99999C12.5 11.0885 11.8044 12.0145 10.8334 12.3577V14.1667C10.8334 16.4678 8.96789 18.3333 6.66671 18.3333C4.36552 18.3333 2.50004 16.4678 2.50004 14.1667V6.5244C1.52905 6.1812 0.833374 5.25517 0.833374 4.16666ZM3.33337 3.33332C2.87314 3.33332 2.50004 3.70642 2.50004 4.16666C2.50004 4.62689 2.87314 4.99999 3.33337 4.99999C3.79361 4.99999 4.16671 4.62689 4.16671 4.16666C4.16671 3.70642 3.79361 3.33332 3.33337 3.33332ZM15.8334 15.8333C15.8334 15.3731 16.2065 15 16.6667 15C17.1269 15 17.5 15.3731 17.5 15.8333C17.5 16.2936 17.1269 16.6667 16.6667 16.6667C16.2065 16.6667 15.8334 16.2936 15.8334 15.8333Z" fill="#1C0732"/>
</svg>
