<svg width="18" height="19" viewBox="0 0 18 19" fill="none" xmlns="http://www.w3.org/2000/svg">
<path d="M9.56251 16.3435V16.3435C9.56232 16.4471 9.64612 16.5312 9.74967 16.5313C9.78418 16.5314 9.81804 16.5219 9.84751 16.504L9.84751 16.504C10.8751 15.9262 11.9965 15.534 13.1603 15.3453C13.2477 15.3271 13.3103 15.25 13.3103 15.1608V11.8788V11.8788C13.3107 11.3151 13.7673 10.8581 14.331 10.8573H16.875C17.0018 10.8573 17.2433 10.8535 17.4315 10.8573C17.5346 10.861 17.6212 10.7804 17.6249 10.6774C17.625 10.6748 17.625 10.6723 17.625 10.6698V2.425V2.42499C17.625 2.01077 17.2892 1.67499 16.875 1.67499C16.8735 1.67499 16.872 1.67499 16.8705 1.675H16.8645C12.9548 1.72675 10.7603 2.55325 9.6585 3.175C9.59927 3.20812 9.56256 3.27064 9.5625 3.3385L9.56251 16.3435Z" fill="#BFC2DB"/>
<path d="M8.4375 3.33249V3.33249C8.43755 3.26441 8.40084 3.2016 8.34149 3.16824C7.23975 2.55025 5.0445 1.72374 1.13325 1.67499C0.931394 1.65583 0.732732 1.73546 0.6 1.88874L0.6 1.88874C0.4565 2.03034 0.3755 2.22339 0.375 2.42499V14.2465V14.2466C0.375 14.6567 0.704465 14.9908 1.11457 14.9965C5.15557 15.0482 7.24957 15.955 8.15257 16.5055C8.24028 16.5598 8.35538 16.5326 8.40964 16.4449C8.42821 16.4149 8.43789 16.3803 8.43757 16.345L8.4375 3.33249Z" fill="#8185A7"/>
<path d="M14.625 11.9823C14.5214 11.9823 14.4375 12.0662 14.4375 12.1698V14.6703V14.6703C14.4377 14.7738 14.5218 14.8576 14.6254 14.8574C14.6736 14.8573 14.7199 14.8386 14.7547 14.8053C15.366 14.2195 16.6792 12.9055 17.271 12.2965C17.3431 12.2216 17.3408 12.1024 17.2658 12.0303C17.2311 11.9969 17.1849 11.9781 17.1367 11.9778L14.625 11.9823Z" fill="#8185A7"/>
</svg>
