<svg width="18" height="15" viewBox="0 0 18 15" fill="none" xmlns="http://www.w3.org/2000/svg">
<path d="M17.5476 4.17744L9.36576 0.086523C9.13585 -0.028841 8.86421 -0.028841 8.63348 0.086523L0.451638 4.17744C0.287183 4.26008 0.161182 4.40245 0.0875457 4.55626C0.0376365 4.65608 0 4.82545 0 4.90972V9.62655C0 10.0782 0.366547 10.4447 0.818184 10.4447C1.26982 10.4447 1.63637 10.0782 1.63637 9.62655V5.86454L9.0123 8.93764L17.4862 5.66981C17.7849 5.55036 17.9861 5.26645 17.9992 4.94408C18.0131 4.62172 17.8356 4.32226 17.5476 4.17744Z" fill="#8185A7"/>
<path d="M9 10.2378C9 10.2378 8.77543 10.2066 8.67 10.1453L3 8V11.6207C3 12.0748 3.18343 12.4917 3.474 12.6947C4.944 13.7254 6.45857 15 9 15C11.5397 15 13.0586 13.723 14.526 12.6947C14.8166 12.4929 15 12.076 15 11.6219V8.25708L9.30771 10.1585C9.20829 10.2114 9 10.2378 9 10.2378Z" fill="#B1B4D3"/>
<path d="M0.818184 11.4552C0.366547 11.4552 0 11.8217 0 12.2734V13.9098C0 14.3614 0.366547 14.7279 0.818184 14.7279C1.26982 14.7279 1.63637 14.3614 1.63637 13.9098V12.2734C1.63637 11.8217 1.26982 11.4552 0.818184 11.4552Z" fill="#8185A7"/>
</svg>
