<svg width="16" height="15" viewBox="0 0 16 15" fill="none" xmlns="http://www.w3.org/2000/svg">
<path d="M4.72751 14.9088H11.2728C11.3693 14.9088 11.4618 14.8705 11.53 14.8023C11.5982 14.7341 11.6365 14.6416 11.6365 14.5452L11.6365 0.363632C11.6365 0.267191 11.5982 0.1747 11.53 0.106506C11.4618 0.038312 11.3693 1.90735e-06 11.2728 1.90735e-06H4.72751C4.63107 1.90735e-06 4.53858 0.038312 4.47039 0.106506C4.40219 0.1747 4.36388 0.267191 4.36388 0.363632L4.36388 14.5452C4.36388 14.6416 4.40219 14.7341 4.47039 14.8023C4.53858 14.8705 4.63107 14.9088 4.72751 14.9088ZM8.72744 1.81815C8.72744 1.72171 8.76575 1.62922 8.83394 1.56102C8.90214 1.49283 8.99463 1.45452 9.09107 1.45452H9.81833C9.91477 1.45452 10.0073 1.49283 10.0755 1.56102C10.1436 1.62922 10.182 1.72171 10.182 1.81815V2.54541C10.182 2.64185 10.1436 2.73434 10.0755 2.80253C10.0073 2.87073 9.91477 2.90904 9.81833 2.90904H9.09107C8.99463 2.90904 8.90214 2.87073 8.83394 2.80253C8.76575 2.73434 8.72744 2.64185 8.72744 2.54541V1.81815ZM8.72744 5.45444C8.72744 5.358 8.76575 5.26551 8.83394 5.19732C8.90214 5.12913 8.99463 5.09082 9.09107 5.09082H9.81833C9.91477 5.09082 10.0073 5.12913 10.0755 5.19732C10.1436 5.26551 10.182 5.358 10.182 5.45444V6.1817C10.182 6.27814 10.1436 6.37064 10.0755 6.43883C10.0073 6.50702 9.91477 6.54533 9.81833 6.54533H9.09107C8.99463 6.54533 8.90214 6.50702 8.83394 6.43883C8.76575 6.37064 8.72744 6.27814 8.72744 6.1817L8.72744 5.45444ZM8.72744 9.09074C8.72744 8.9943 8.76575 8.90181 8.83394 8.83362C8.90214 8.76542 8.99463 8.72711 9.09107 8.72711H9.81833C9.91477 8.72711 10.0073 8.76542 10.0755 8.83362C10.1436 8.90181 10.182 8.9943 10.182 9.09074V9.818C10.182 9.91444 10.1436 10.0069 10.0755 10.0751C10.0073 10.1433 9.91477 10.1816 9.81833 10.1816H9.09107C8.99463 10.1816 8.90214 10.1433 8.83394 10.0751C8.76575 10.0069 8.72744 9.91444 8.72744 9.818V9.09074ZM5.8184 1.81815C5.8184 1.72171 5.85671 1.62922 5.92491 1.56102C5.9931 1.49283 6.08559 1.45452 6.18203 1.45452H6.90929C7.00573 1.45452 7.09822 1.49283 7.16642 1.56102C7.23461 1.62922 7.27292 1.72171 7.27292 1.81815V2.54541C7.27292 2.64185 7.23461 2.73434 7.16642 2.80253C7.09822 2.87073 7.00573 2.90904 6.90929 2.90904H6.18203C6.08559 2.90904 5.9931 2.87073 5.92491 2.80253C5.85671 2.73434 5.8184 2.64185 5.8184 2.54541V1.81815ZM5.8184 5.45444C5.8184 5.358 5.85671 5.26551 5.92491 5.19732C5.9931 5.12913 6.08559 5.09082 6.18203 5.09082H6.90929C7.00573 5.09082 7.09822 5.12913 7.16642 5.19732C7.23461 5.26551 7.27292 5.358 7.27292 5.45444V6.1817C7.27292 6.27814 7.23461 6.37064 7.16642 6.43883C7.09822 6.50702 7.00573 6.54533 6.90929 6.54533H6.18203C6.08559 6.54533 5.9931 6.50702 5.92491 6.43883C5.85671 6.37064 5.8184 6.27814 5.8184 6.1817V5.45444ZM5.8184 9.09074C5.8184 8.9943 5.85671 8.90181 5.92491 8.83362C5.9931 8.76542 6.08559 8.72711 6.18203 8.72711H6.90929C7.00573 8.72711 7.09822 8.76542 7.16642 8.83362C7.23461 8.90181 7.27292 8.9943 7.27292 9.09074V9.818C7.27292 9.91444 7.23461 10.0069 7.16642 10.0751C7.09822 10.1433 7.00573 10.1816 6.90929 10.1816H6.18203C6.08559 10.1816 5.9931 10.1433 5.92491 10.0751C5.85671 10.0069 5.8184 9.91444 5.8184 9.818V9.09074Z" fill="#ABAEC6"/>
<path d="M2.90904 5.81836H0.36363C0.162803 5.81836 0 5.98116 0 6.18199V14.5455C0 14.7463 0.162803 14.9091 0.36363 14.9091H2.90904C3.10986 14.9091 3.27267 14.7463 3.27267 14.5455V6.18199C3.27267 5.98116 3.10986 5.81836 2.90904 5.81836Z" fill="#CACCE2"/>
<path d="M15.6363 5.81836H13.0909C12.8901 5.81836 12.7273 5.98116 12.7273 6.18199V14.5455C12.7273 14.7463 12.8901 14.9091 13.0909 14.9091H15.6363C15.8372 14.9091 16 14.7463 16 14.5455V6.18199C16 5.98116 15.8372 5.81836 15.6363 5.81836Z" fill="#CACCE2"/>
</svg>
