<svg width="16" height="16" viewBox="0 0 16 16" fill="none" xmlns="http://www.w3.org/2000/svg">
<path fill-rule="evenodd" clip-rule="evenodd" d="M1.38279 0H11.0617C11.822 0 12.4444 0.5996 12.4444 1.3334V2.61721C12.4444 3.38091 11.8254 4 11.0617 4C9.53639 4 8.2963 5.1958 8.2963 6.6666V14C8.2963 15.1046 7.40087 16 6.2963 16H1.38279C0.62243 16 0 15.3998 0 14.6666V1.3334C0 0.5996 0.62243 0 1.38279 0ZM4.83944 14.6664H6.22222C6.60448 14.6664 6.91351 14.3684 6.91351 13.9998C6.91351 13.6312 6.60448 13.3332 6.22222 13.3332H4.83944C4.4574 13.3332 4.14815 13.6312 4.14815 13.9998C4.14815 14.3684 4.4574 14.6664 4.83944 14.6664Z" fill="#ABAEC6"/>
<path fill-rule="evenodd" clip-rule="evenodd" d="M11.0222 5.33319H14.7555C15.4399 5.33319 16.0001 5.93339 16.0001 6.6664V14.6664C16.0001 15.3997 15.4399 15.9999 14.7555 15.9999H11.0222C10.338 15.9999 9.77783 15.3997 9.77783 14.6664V6.6664C9.77783 5.93339 10.338 5.33319 11.0222 5.33319ZM12.2667 14C12.2667 14.3686 12.545 14.6666 12.8888 14.6666C13.2329 14.6666 13.5112 14.3686 13.5112 14C13.5112 13.6314 13.2329 13.3334 12.8888 13.3334C12.545 13.3334 12.2667 13.6314 12.2667 14Z" fill="#CACCE2"/>
</svg>