<svg width="16" height="15" viewBox="0 0 16 15" fill="none" xmlns="http://www.w3.org/2000/svg">
<path fill-rule="evenodd" clip-rule="evenodd" d="M15.7559 4.51544L13.9072 2.60206C13.877 2.57081 13.8396 2.02642 13.7997 1.44153C13.741 0.579338 13.0826 0 12.2184 0C9.08893 0 6.86272 0 3.72132 0C2.8873 0 2.18734 0.537036 2.14974 1.3702C2.12165 1.99255 2.12786 2.56645 2.09354 2.60206L0.226156 4.53544C-0.123632 4.96286 -0.0607067 5.5929 0.366706 5.94269C0.54542 6.08895 0.769244 6.16885 1.00018 6.16882H15.0005C15.5528 6.16852 16.0003 5.72055 16 5.16825C15.9999 4.93754 15.92 4.71398 15.7739 4.53544C15.7685 4.52878 15.7619 4.52211 15.7559 4.51544Z" fill="#CACCE2"/>
<path fill-rule="evenodd" clip-rule="evenodd" d="M13.6673 7.16895H2.33371C2.14961 7.16895 2.00037 7.31819 2.00037 7.50229V13.1691H2.00037C2.00037 13.7214 2.44809 14.1691 3.00039 14.1691H6.00047C6.18456 14.1691 6.33381 14.0199 6.33381 13.8358V10.5024C6.33381 9.58187 7.08002 8.83565 8.00051 8.83565C8.92101 8.83565 9.66722 9.58187 9.66722 10.5024V13.8358C9.66722 14.0199 9.81646 14.1691 10.0006 14.1691H13.0006C13.5529 14.1691 14.0007 13.7214 14.0007 13.1691V7.50229V7.50229C14.0007 7.31819 13.8514 7.16895 13.6673 7.16895V7.16895Z" fill="#ABAEC6"/>
</svg>