<svg width="19" height="18" viewBox="0 0 19 18" fill="none" xmlns="http://www.w3.org/2000/svg">
<path d="M13.134 10.4875L12.4993 9.85292V9.85292C12.3529 9.7065 12.1155 9.7065 11.969 9.85292L9.85066 11.9713H9.85066C9.70424 12.1177 9.70424 12.3551 9.85066 12.5016L10.4875 13.1385C10.5752 13.2293 10.6112 13.3581 10.5835 13.4813L10.5835 13.4813C10.1568 15.5057 11.452 17.4928 13.4765 17.9195C13.7272 17.9723 13.9827 17.9993 14.2389 18C14.6445 17.9999 15.0475 17.9345 15.4323 17.8065C15.6293 17.7424 15.7371 17.5308 15.673 17.3338C15.6549 17.2779 15.6238 17.2271 15.5824 17.1854L13.7453 15.3483C13.675 15.2779 13.6356 15.1823 13.6358 15.0828V14.0244V14.0244C13.6358 13.8172 13.8037 13.6493 14.0109 13.6493H15.0708C15.1704 13.6493 15.266 13.689 15.3363 13.7596L17.1764 15.5996C17.3229 15.7461 17.5603 15.746 17.7068 15.5995C17.7475 15.5588 17.7782 15.5093 17.7967 15.4548V15.4548C18.4666 13.4982 17.4235 11.3691 15.4669 10.6992C14.8263 10.4799 14.1383 10.4384 13.476 10.579C13.3539 10.6077 13.2255 10.5733 13.134 10.4875L13.134 10.4875Z" fill="#B1B4D3"/>
<path d="M8.14939 5.50292L7.51179 4.86532C7.42362 4.77447 7.38723 4.64527 7.41502 4.52176C7.84422 2.49869 6.55214 0.510728 4.52907 0.0815292C3.86789 -0.0587419 3.18107 -0.0174445 2.54146 0.201042V0.201042C2.34551 0.268196 2.24109 0.481487 2.30825 0.677441C2.32695 0.732007 2.35798 0.781526 2.39894 0.822146L4.24124 2.66595C4.31136 2.73624 4.35074 2.83147 4.35076 2.93075V3.99142C4.35076 4.19856 4.18284 4.36649 3.9757 4.36649H2.91502C2.81563 4.36627 2.7204 4.32661 2.65023 4.25622L0.813172 2.41991C0.666267 2.27388 0.428791 2.27458 0.282756 2.42149C0.24131 2.46318 0.210246 2.51403 0.192069 2.56994H0.192068C-0.460149 4.53293 0.602448 6.65299 2.56545 7.3052C3.19527 7.51446 3.86938 7.55261 4.51879 7.41574C4.64206 7.38821 4.77091 7.42459 4.8616 7.51251L5.5007 8.15161C5.64716 8.29803 5.88458 8.29803 6.03104 8.15161L8.14939 6.03326C8.29581 5.8868 8.29581 5.64938 8.14939 5.50292V5.50292Z" fill="#B1B4D3"/>
<path d="M12.4858 7.21471L10.7875 5.51643V5.51643C10.6411 5.37001 10.4037 5.37001 10.2572 5.51643L0.814619 14.959H0.814619C0.228949 15.5448 0.228949 16.4945 0.814619 17.0804L0.921887 17.1876H0.921887C1.50765 17.7736 2.45756 17.7738 3.04356 17.1881C3.04371 17.1879 3.04385 17.1878 3.04399 17.1876L12.4858 7.74505C12.6322 7.59859 12.6322 7.36117 12.4858 7.21471H12.4858Z" fill="#8185A7"/>
<path d="M14.2606 7.20195C14.6604 7.60021 15.307 7.60021 15.7069 7.20195L17.7022 5.20662C18.1013 4.80713 18.1013 4.15987 17.7022 3.76038L14.7302 0.788384H14.7302C14.6066 0.664823 14.414 0.643044 14.2659 0.735875L14.2659 0.735875C13.1065 1.36851 11.6651 1.12963 10.7718 0.156779C10.6231 0.0158961 10.3902 0.0158961 10.2414 0.156779L9.45007 0.946661H9.45007C9.05099 1.34615 9.05099 1.99342 9.45007 2.3929L14.2606 7.20195Z" fill="#8185A7"/>
</svg>
