<svg width="15" height="17" viewBox="0 0 15 17" fill="none" xmlns="http://www.w3.org/2000/svg">
<path d="M9.91653 5.66674C9.1341 5.66674 8.5 5.03179 8.5 4.25V0H1.41653C0.6341 0 0 0.633462 0 1.41674V15.5833C0 16.3651 0.6341 17 1.41653 17H12.75C13.5316 17 14.1665 16.3665 14.1665 15.5833V5.66674H9.91653ZM6.4787 13.0613L5.72751 13.8125L3.04087 11.1257C2.7642 10.8496 2.7642 10.4008 3.04087 10.1241L5.72751 7.4375L6.4787 8.18869L4.04239 10.625L6.4787 13.0613ZM11.3333 13.1042H7.79153V12.0417H11.3333V13.1042Z" fill="#8185A7"/>
</svg>
