<svg width="17" height="16" viewBox="0 0 17 16" fill="none" xmlns="http://www.w3.org/2000/svg">
<path d="M11.5 5C10.6715 5 9.5 5 9.5 5L9 5H1.49985C0.6714 5 0 5 0 5V14.4999C0 15.3277 0.6714 16 1.49985 16H15.5C16.3276 16 16.9999 15.3293 16.9999 14.4999V5H11.5ZM6.8598 12.8296L6.06443 13.625L3.21975 10.7801C2.9268 10.4878 2.9268 10.0126 3.21975 9.71967L6.06443 6.875L6.8598 7.67037L4.28017 10.25L6.8598 12.8296ZM11.9999 12.8751H8.24985V11.7501H11.9999V12.8751Z" fill="#8185A7"/>
<path d="M17 3.4017V1.7C17 0.7616 16.2375 0 15.3 0H1.7C0.76245 0 0 0.7616 0 1.7V3.4017H17ZM5.1 0.85C5.5692 0.85 5.95 1.2308 5.95 1.7C5.95 2.1692 5.5692 2.55 5.1 2.55C4.6308 2.55 4.25 2.1692 4.25 1.7C4.25 1.2308 4.6308 0.85 5.1 0.85ZM2.55 0.85C3.0192 0.85 3.4 1.2308 3.4 1.7C3.4 2.1692 3.0192 2.55 2.55 2.55C2.0808 2.55 1.7 2.1692 1.7 1.7C1.7 1.2308 2.0808 0.85 2.55 0.85Z" fill="#B1B4D3"/>
</svg>
