<svg width="16" height="16" viewBox="0 0 16 16" fill="none" xmlns="http://www.w3.org/2000/svg">
<path d="M3.9188 0H0.78376C0.365755 0 0 0.373333 0 0.8V15.2C0 15.6267 0.365755 16 0.78376 16H3.9188C4.3368 16 4.70256 15.6267 4.70256 15.2V0.8C4.70256 0.373333 4.3368 0 3.9188 0ZM2.35128 13.8667C1.93327 13.8667 1.56752 13.4933 1.56752 13.0667C1.56752 12.64 1.93327 12.2667 2.35128 12.2667C2.76928 12.2667 3.13504 12.64 3.13504 13.0667C3.13504 13.4933 2.76928 13.8667 2.35128 13.8667ZM2.87379 6.32793H1.82877C1.67202 6.32793 1.56752 6.15495 1.56752 5.8955C1.56752 5.63604 1.67202 5.46306 1.82877 5.46306H2.87379C3.03054 5.46306 3.13504 5.63604 3.13504 5.8955C3.13504 6.15495 3.03054 6.32793 2.87379 6.32793ZM2.87379 4.3964H1.82877C1.67202 4.3964 1.56752 4.22342 1.56752 3.96396C1.56752 3.7045 1.67202 3.53153 1.82877 3.53153H2.87379C3.03054 3.53153 3.13504 3.7045 3.13504 3.96396C3.13504 4.22342 3.03054 4.3964 2.87379 4.3964ZM2.87379 2.46486H1.82877C1.67202 2.46486 1.56752 2.29189 1.56752 2.03243C1.56752 1.77297 1.67202 1.6 1.82877 1.6H2.87379C3.03054 1.6 3.13504 1.77297 3.13504 2.03243C3.13504 2.29189 3.03054 2.46486 2.87379 2.46486ZM9.56752 0H6.43248C6.01447 0 5.64872 0.373333 5.64872 0.8V15.2C5.64872 15.6267 6.01447 16 6.43248 16H9.56752C9.98552 16 10.3513 15.6267 10.3513 15.2V0.8C10.3513 0.373333 9.98552 0 9.56752 0ZM8.14122 13.8667C7.72321 13.8667 7.35746 13.4933 7.35746 13.0667C7.35746 12.64 7.72321 12.2667 8.14122 12.2667C8.55922 12.2667 8.92498 12.64 8.92498 13.0667C8.92498 13.4933 8.55922 13.8667 8.14122 13.8667ZM8.52251 6.32793H7.47749C7.32074 6.32793 7.21624 6.15495 7.21624 5.8955C7.21624 5.63604 7.32074 5.46306 7.47749 5.46306H8.52251C8.67926 5.46306 8.78376 5.63604 8.78376 5.8955C8.78376 6.15495 8.67926 6.32793 8.52251 6.32793ZM8.52251 4.3964H7.47749C7.32074 4.3964 7.21624 4.22342 7.21624 3.96396C7.21624 3.7045 7.32074 3.53153 7.47749 3.53153H8.52251C8.67926 3.53153 8.78376 3.7045 8.78376 3.96396C8.78376 4.22342 8.67926 4.3964 8.52251 4.3964ZM8.52251 2.46486H7.47749C7.32074 2.46486 7.21624 2.29189 7.21624 2.03243C7.21624 1.77297 7.32074 1.6 7.47749 1.6H8.52251C8.67926 1.6 8.78376 1.77297 8.78376 2.03243C8.78376 2.29189 8.67926 2.46486 8.52251 2.46486ZM15.2162 0H12.0812C11.6632 0 11.2974 0.373333 11.2974 0.8V15.2C11.2974 15.6267 11.6632 16 12.0812 16H15.2162C15.6342 16 16 15.6267 16 15.2V0.8C16 0.373333 15.6342 0 15.2162 0ZM13.6487 13.8667C13.2307 13.8667 12.865 13.4933 12.865 13.0667C12.865 12.64 13.2307 12.2667 13.6487 12.2667C14.0667 12.2667 14.4325 12.64 14.4325 13.0667C14.4325 13.4933 14.0667 13.8667 13.6487 13.8667ZM14.1712 6.32793H13.1262C12.9695 6.32793 12.865 6.15495 12.865 5.8955C12.865 5.63604 12.9695 5.46306 13.1262 5.46306H14.1712C14.328 5.46306 14.4325 5.63604 14.4325 5.8955C14.4325 6.15495 14.328 6.32793 14.1712 6.32793ZM14.1712 4.3964H13.1262C12.9695 4.3964 12.865 4.22342 12.865 3.96396C12.865 3.7045 12.9695 3.53153 13.1262 3.53153H14.1712C14.328 3.53153 14.4325 3.7045 14.4325 3.96396C14.4325 4.22342 14.328 4.3964 14.1712 4.3964ZM14.1712 2.46486H13.1262C12.9695 2.46486 12.865 2.29189 12.865 2.03243C12.865 1.77297 12.9695 1.6 13.1262 1.6H14.1712C14.328 1.6 14.4325 1.77297 14.4325 2.03243C14.4325 2.29189 14.328 2.46486 14.1712 2.46486Z" fill="#ABAEC6"/>
<path d="M9.56748 0H6.43244C6.01444 0 5.64868 0.373333 5.64868 0.8V15.2C5.64868 15.6267 6.01444 16 6.43244 16H9.56748C9.98549 16 10.3512 15.6267 10.3512 15.2V0.8C10.3512 0.373333 9.98549 0 9.56748 0ZM8.14118 13.8667C7.72317 13.8667 7.35742 13.4933 7.35742 13.0667C7.35742 12.64 7.72317 12.2667 8.14118 12.2667C8.55919 12.2667 8.92494 12.64 8.92494 13.0667C8.92494 13.4933 8.55919 13.8667 8.14118 13.8667ZM8.52247 6.32793H7.47745C7.3207 6.32793 7.2162 6.15495 7.2162 5.8955C7.2162 5.63604 7.3207 5.46306 7.47745 5.46306H8.52247C8.67922 5.46306 8.78372 5.63604 8.78372 5.8955C8.78372 6.15495 8.67922 6.32793 8.52247 6.32793ZM8.52247 4.3964H7.47745C7.3207 4.3964 7.2162 4.22342 7.2162 3.96396C7.2162 3.7045 7.3207 3.53153 7.47745 3.53153H8.52247C8.67922 3.53153 8.78372 3.7045 8.78372 3.96396C8.78372 4.22342 8.67922 4.3964 8.52247 4.3964ZM8.52247 2.46486H7.47745C7.3207 2.46486 7.2162 2.29189 7.2162 2.03243C7.2162 1.77297 7.3207 1.6 7.47745 1.6H8.52247C8.67922 1.6 8.78372 1.77297 8.78372 2.03243C8.78372 2.29189 8.67922 2.46486 8.52247 2.46486Z" fill="#CACCE2"/>
</svg>