<svg width="48" height="48" viewBox="0 0 48 48" fill="none" xmlns="http://www.w3.org/2000/svg">
<rect width="48" height="48" rx="8" fill="url(#paint0_linear)"/>
<path d="M22.8381 33.726C23.8872 33.7264 24.9351 33.6549 25.9739 33.5118C26.1016 33.4938 26.1964 33.3871 26.1966 33.2612V31.705C26.1966 31.5655 26.0807 31.4524 25.9377 31.4524H25.5524C24.7007 31.4468 23.9129 31.0108 23.4708 30.3004C23.423 30.2244 23.3375 30.1787 23.2461 30.1801C21.9205 30.1983 16.3397 30.1124 13.4265 27.7549C13.3494 27.6918 13.2417 27.6782 13.1508 27.7201C13.0598 27.762 13.002 27.8517 13.0029 27.9499V29.6799C12.9998 31.9172 17.4053 33.726 22.8381 33.726Z" fill="#14B6D1"/>
<path d="M13 25.1368C13 27.4761 17.6499 29.1789 22.8559 29.1789C22.9943 29.1785 23.1082 29.0723 23.1148 28.9373C23.1318 28.4109 23.3294 27.9052 23.6761 27.5014L24.925 25.9785C24.9899 25.8999 25.0006 25.7911 24.9522 25.7018C24.9038 25.6126 24.8055 25.5601 24.7024 25.5683C24.081 25.6188 23.4596 25.6461 22.8383 25.6461C19.2136 25.6461 15.4285 24.8043 13.4215 23.2107C13.3442 23.1488 13.2372 23.1361 13.1469 23.1781C13.0566 23.22 12.9994 23.3092 13 23.4068V25.1368Z" fill="#14B6D1"/>
<path d="M29.3098 20.6279C29.3806 20.541 29.385 20.419 29.3205 20.3275C29.2559 20.2359 29.1377 20.1963 29.0291 20.2298C27.0211 20.8154 24.9351 21.1069 22.8393 21.0948C19.2095 21.0948 15.4275 20.253 13.4225 18.6584C13.345 18.5967 13.238 18.5841 13.1477 18.626C13.0574 18.6679 12.9999 18.7569 13 18.8545V20.5895C13 22.8228 17.4055 24.6316 22.8383 24.6316C23.9412 24.6325 25.0427 24.5531 26.1336 24.3941C26.1981 24.3848 26.2565 24.3519 26.2972 24.3022C27.98 22.2508 28.85 21.1867 29.3098 20.6279Z" fill="#14B6D1"/>
<path d="M22.8397 20.0842C28.2732 20.0842 32.678 18.2745 32.678 16.0421C32.678 13.8097 28.2732 12 22.8397 12C17.4062 12 13.0015 13.8097 13.0015 16.0421C13.0015 18.2745 17.4062 20.0842 22.8397 20.0842Z" fill="#14B6D1"/>
<path d="M32.1515 26.9051C32.0085 26.9051 31.8926 26.792 31.8926 26.6524V21.3472C31.8926 21.1324 31.7534 20.9411 31.5456 20.8702C31.3384 20.7975 31.1067 20.8627 30.9709 21.0319L24.8608 28.4795C24.6327 28.7423 24.5816 29.1104 24.7298 29.423C24.878 29.7357 25.1986 29.936 25.5515 29.9366H27.4933C27.6363 29.9366 27.7522 30.0497 27.7522 30.1893V35.4945C27.7522 35.709 27.8909 35.9001 28.0982 35.9712C28.3056 36.0424 28.5364 35.9781 28.6739 35.8108L34.784 28.3622C35.0129 28.0997 35.0646 27.7314 34.9165 27.4185C34.7684 27.1056 34.4475 26.9052 34.0943 26.9051H32.1515Z" fill="#2CCDE8"/>
<defs>
<linearGradient id="paint0_linear" x1="0" y1="48" x2="48" y2="0" gradientUnits="userSpaceOnUse">
<stop stop-color="#D9F7FB"/>
<stop offset="1" stop-color="#D9F7FB" stop-opacity="0.24"/>
</linearGradient>
</defs>
</svg>