<svg width="18" height="19" viewBox="0 0 18 19" fill="none" xmlns="http://www.w3.org/2000/svg">
<path d="M17.934 6.26649C17.7806 5.85239 17.3864 5.57685 16.9448 5.57499H13.377C13.2183 5.5749 13.0768 5.47487 13.0238 5.32524L11.7375 1.68399V1.68399C11.533 1.13827 10.9248 0.861679 10.379 1.06622C10.0935 1.17323 9.86828 1.39849 9.76127 1.68399L9.75752 1.69824L8.47502 5.32824C8.42191 5.47813 8.28004 5.57822 8.12102 5.57799H4.55402C3.97122 5.57874 3.49938 6.0518 3.50012 6.63459C3.50052 6.94693 3.63927 7.24305 3.87902 7.44324L6.93302 9.97449C7.05206 10.0733 7.09822 10.235 7.04927 10.3817L6.75002 11.275C6.68858 11.4586 6.77697 11.6587 6.95402 11.737C7.60415 12.0233 8.12108 12.5462 8.40002 13.1995C8.47897 13.382 8.5281 13.5759 8.54552 13.774C8.56386 13.9803 8.74596 14.1327 8.95225 14.1143C9.01555 14.1087 9.07637 14.0871 9.12902 14.0515L10.5315 13.1035C10.6626 13.015 10.8351 13.0183 10.9628 13.1117L14.1128 15.4187C14.5818 15.7647 15.2425 15.6648 15.5884 15.1958C15.7921 14.9196 15.8487 14.5616 15.7403 14.236L14.4555 10.3817C14.4066 10.235 14.4527 10.0733 14.5718 9.97449L17.6348 7.43649C17.9691 7.14728 18.0884 6.68072 17.934 6.26649L17.934 6.26649Z" fill="#8185A7"/>
<path d="M4.78125 15.625C4.52237 15.625 4.3125 15.4151 4.3125 15.1563C4.3125 14.8974 4.52237 14.6875 4.78125 14.6875H6.675C7.08921 14.6875 7.42496 14.3516 7.42492 13.9374C7.42491 13.8359 7.40427 13.7354 7.36425 13.642V13.642C7.10067 13.0248 6.49412 12.6246 5.823 12.625H2.625H2.625C2.41789 12.625 2.25 12.7929 2.25 13V17.875C2.25 18.0821 2.41789 18.25 2.625 18.25H10.698H10.698C11.6238 18.2492 12.3742 17.4988 12.375 16.573V16.375C12.375 15.9608 12.0392 15.625 11.625 15.625H4.78125Z" fill="#BFC2DB"/>
<path d="M1.5 12.8125V12.8125C1.49202 12.4016 1.16086 12.0705 0.75 12.0625H0.75C0.335786 12.0625 0 12.3983 0 12.8125V18.25H0C6.25445e-08 18.6642 0.335786 19 0.75 19C1.15704 18.9832 1.48318 18.657 1.5 18.25V12.8125Z" fill="#BFC2DB"/>
</svg>
