<svg width="24" height="32" viewBox="0 0 24 32" fill="none" xmlns="http://www.w3.org/2000/svg">
<path fill-rule="evenodd" clip-rule="evenodd" d="M24 20.831V7.68844C24.0026 6.70288 23.6152 5.75516 22.92 5.04678L18.92 1.104C18.2119 0.406308 17.2545 0.00997424 16.2533 2.30214e-05H9.17336L9.14665 2.2932e-05C7.03327 0.00729079 5.326 1.70191 5.33337 3.78508V3.78509V5.25706C5.33337 5.98291 5.93032 6.57132 6.6667 6.57132H11.7733C12.9575 6.58093 14.0893 7.05366 14.92 7.88558L19.5466 12.354C19.8372 12.6341 20.0007 13.018 20 13.4186V22.1453C20 22.8711 20.5969 23.4595 21.3333 23.4595C22.8061 23.4595 24 22.2827 24 20.831ZM13.5466 9.00271L17.5466 12.9455L17.5999 12.9061C18.2943 13.6246 18.677 14.5817 18.6666 15.574V27.5995C18.6669 29.6645 16.988 31.3487 14.8933 31.3845H3.83999C1.71922 31.3845 0 29.6899 0 27.5995V11.6707C0.00734664 9.58536 1.72442 7.89872 3.83999 7.89873H10.88C11.8817 7.90586 12.8401 8.30262 13.5466 9.00271Z" fill="#4EACE1"/>
</svg>
