<svg width="18" height="16" viewBox="0 0 18 16" fill="none" xmlns="http://www.w3.org/2000/svg">
<path fill-rule="evenodd" clip-rule="evenodd" d="M11.9925 10.9088V7.80124C11.9925 6.38349 10.8432 5.23416 9.42547 5.23416H3.5741V2.26176C3.5741 1.06785 4.54194 0.100006 5.73585 0.100006H15.824C17.0179 0.100006 17.9858 1.06785 17.9858 2.26176V8.74701L18.0001 12.753C18.0009 12.9893 17.81 13.1815 17.5737 13.1823C17.4597 13.1827 17.3503 13.1376 17.2697 13.057L15.1214 10.9088H11.9926L11.9925 10.9088Z" fill="#8185A7"/>
<path fill-rule="evenodd" clip-rule="evenodd" d="M0 12.9354V8.65691C0 7.71174 0.766213 6.94553 1.71139 6.94553H8.55693C9.5021 6.94553 10.2683 7.71174 10.2683 8.65691V12.9354C10.2683 13.8805 9.5021 14.6468 8.55693 14.6468H1.81041L0.746061 15.6655C0.575358 15.8289 0.304526 15.8229 0.14114 15.6522C0.0649228 15.5726 0.0223798 15.4666 0.0223798 15.3564V13.2128C0.00765648 13.1225 1.62582e-06 13.0298 1.62582e-06 12.9354L0 12.9354ZM3.86332 9.51262C3.62703 9.51262 3.43547 9.70417 3.43547 9.94046C3.43547 10.1768 3.62703 10.3683 3.86332 10.3683H8.14178C8.37808 10.3683 8.56963 10.1768 8.56963 9.94046C8.56963 9.70417 8.37808 9.51262 8.14178 9.51262H3.86332ZM6.4304 11.224C6.19411 11.224 6.00255 11.4155 6.00255 11.6518C6.00255 11.8881 6.19411 12.0797 6.4304 12.0797H8.14178C8.37808 12.0797 8.56963 11.8881 8.56963 11.6518C8.56963 11.4155 8.37808 11.224 8.14178 11.224H6.4304Z" fill="#B1B4D3"/>
</svg>
