<svg width="15" height="18" viewBox="0 0 15 18" fill="none" xmlns="http://www.w3.org/2000/svg">
<path d="M12.75 7.125H12.1875V5.0625C12.1875 2.26656 9.92094 0 7.125 0C4.32906 0 2.0625 2.26656 2.0625 5.0625V7.125H1.5C0.671572 7.125 0 7.79657 0 8.625V16.5C1.25089e-07 17.3284 0.671573 18 1.5 18H12.75C13.5784 18 14.25 17.3284 14.25 16.5V8.625C14.25 7.79657 13.5784 7.125 12.75 7.125ZM5.625 11.625V11.625C5.62126 10.7966 6.28979 10.122 7.11821 10.1182C7.94663 10.1145 8.62123 10.783 8.62497 11.6114C8.6274 12.1498 8.34119 12.6481 7.87499 12.9173V14.625C7.87499 15.0392 7.53921 15.375 7.12499 15.375C6.71078 15.375 6.37499 15.0392 6.37499 14.625V12.9173L6.37499 12.9172C5.91231 12.6512 5.6265 12.1587 5.625 11.625L5.625 11.625ZM3.9375 5.0625V5.0625C3.9375 3.30209 5.36459 1.875 7.125 1.875C8.88541 1.875 10.3125 3.30209 10.3125 5.0625V6.75C10.3125 6.95711 10.1446 7.125 9.9375 7.125H4.3125C4.10539 7.125 3.9375 6.95711 3.9375 6.75V5.0625Z" fill="#8185A7"/>
</svg>
