<svg width="18" height="18" viewBox="0 0 18 18" fill="none" xmlns="http://www.w3.org/2000/svg">
<path d="M7.125 9V8.99998C7.12607 8.60196 6.9678 8.22006 6.68549 7.93949L5.56049 6.81449H5.56049C5.27856 6.53421 4.89754 6.37631 4.5 6.375H1.125H1.125C0.503684 6.375 3.8147e-06 6.87868 3.8147e-06 7.5V10.5C3.90851e-06 11.1213 0.503684 11.625 1.125 11.625H4.5C4.89803 11.6261 5.27992 11.4678 5.5605 11.1855L6.6855 10.0605C6.96781 9.77992 7.12608 9.39802 7.125 9L7.125 9Z" fill="#8185A7"/>
<path d="M16.875 6.37501H13.5C13.102 6.37393 12.7201 6.5322 12.4395 6.81451L11.3145 7.93951V7.93951C10.7289 8.52526 10.7289 9.47475 11.3145 10.0605L12.4395 11.1855C12.7201 11.4678 13.102 11.6261 13.5 11.625H16.875C17.4963 11.625 18 11.1213 18 10.5V10.5V7.5C18 6.87868 17.4963 6.375 16.875 6.375V6.37501Z" fill="#8185A7"/>
<path d="M10.0605 11.313H10.0605C9.47475 10.7274 8.52525 10.7274 7.9395 11.313L6.8145 12.438H6.8145C6.53225 12.7192 6.37402 13.1015 6.375 13.5V16.875C6.375 17.4963 6.87868 18 7.5 18H10.5C11.1213 18 11.625 17.4963 11.625 16.875V13.5V13.5C11.6257 13.1022 11.4678 12.7205 11.1862 12.4395L10.0605 11.313Z" fill="#B1B4D3"/>
<path d="M7.9395 6.684H7.9395C8.52525 7.26957 9.47475 7.26957 10.0605 6.684L11.1855 5.559C11.467 5.2785 11.6252 4.8974 11.625 4.5V1.125C11.625 0.50368 11.1213 0 10.5 0H7.5C6.87868 2.71588e-08 6.375 0.50368 6.375 1.125V4.5V4.49999C6.37397 4.89823 6.53221 5.28034 6.81449 5.56124L7.9395 6.684Z" fill="#B1B4D3"/>
</svg>
