<svg width="16" height="15" viewBox="0 0 16 15" fill="none" xmlns="http://www.w3.org/2000/svg">
<path fill-rule="evenodd" clip-rule="evenodd" d="M14.4681 2.55319C14.5621 2.55319 14.6383 2.47698 14.6383 2.38298V1.87234C14.6383 1.59032 14.4097 1.3617 14.1277 1.3617H5.27659L5.15404 1.30996L4.24034 0.364255C4.01565 0.13146 3.706 -1.8383e-05 3.38247 0H1.38621V0C0.620786 0.000375694 0.000374666 0.620784 1.97856e-07 1.38621V10.0425L1.45009e-07 10.0426C-0.000320923 10.7003 0.532562 11.2337 1.19023 11.234C1.19068 11.234 1.19114 11.234 1.19159 11.234H1.3618C1.45581 11.234 1.53202 11.1578 1.53202 11.0638V4.59574C1.53202 3.46767 2.4465 2.55319 3.57457 2.55319L14.4681 2.55319Z" fill="#CACCE2"/>
<path fill-rule="evenodd" clip-rule="evenodd" d="M3.91488 3.74481H14.8085C15.4662 3.74556 15.9992 4.27856 16 4.9363V13.1065C15.9992 13.7642 15.4662 14.2972 14.8085 14.298H3.91488C3.25715 14.2972 2.72414 13.7642 2.72339 13.1065V4.9363C2.72414 4.27857 3.25715 3.74556 3.91488 3.74481ZM8.49019 11.6389L11.5537 9.84912C11.5538 9.84907 11.5538 9.84895 11.5537 9.84895C11.5536 9.84895 11.5536 9.84883 11.5536 9.84878C11.6686 9.78228 11.764 9.68677 11.8305 9.5718C12.0401 9.20913 11.916 8.7452 11.5533 8.53559L8.48951 6.74563C8.25076 6.60687 7.95679 6.60326 7.7147 6.7361C7.47186 6.86992 7.3205 7.12471 7.31913 7.40197V10.9819C7.32076 11.2596 7.47301 11.5146 7.71674 11.6478C7.95826 11.7807 8.25178 11.7773 8.49019 11.6389Z" fill="#ABAEC6"/>
</svg>