<svg width="16" height="16" viewBox="0 0 16 16" fill="none" xmlns="http://www.w3.org/2000/svg">
<path fill-rule="evenodd" clip-rule="evenodd" d="M14.1009 12.6551C12.2867 11.4693 10.1672 10.8356 7.9997 10.8309C5.83222 10.8356 3.71273 11.4694 1.89853 12.6551C1.74992 12.7551 1.54883 12.7198 1.44321 12.5752C-0.299342 10.0838 -0.477656 6.81993 0.983128 4.15367C2.44391 1.4874 5.29094 -0.119718 8.32903 0.00697675C12.5677 0.218174 15.9192 3.67413 15.9995 7.91633C16.0184 9.58209 15.5135 11.2117 14.5562 12.5752C14.4506 12.7198 14.2495 12.7551 14.1009 12.6551ZM7.99969 1.8332C7.72356 1.8332 7.49971 2.057 7.49971 2.33308V3.33283C7.49971 3.6089 7.72356 3.8327 7.99969 3.8327C8.27583 3.8327 8.49968 3.6089 8.49968 3.33283V2.33308C8.49968 2.057 8.27583 1.8332 7.99969 1.8332ZM3.33316 8.49819H2.33319C2.05705 8.49819 1.8332 8.27438 1.8332 7.99831C1.8332 7.72224 2.05705 7.49844 2.33319 7.49844H3.33316C3.6093 7.49844 3.83315 7.72224 3.83315 7.99831C3.83315 8.27438 3.6093 8.49819 3.33316 8.49819ZM4.69979 5.19917C4.83239 5.19917 4.95954 5.14636 5.05311 5.05242C5.14694 4.95867 5.19967 4.83148 5.19967 4.69885C5.19967 4.56622 5.14694 4.43902 5.05311 4.34527L4.34646 3.63944C4.15037 3.44991 3.83852 3.45247 3.64557 3.6452C3.45261 3.83793 3.44976 4.1497 3.63915 4.34593L4.34646 5.05242C4.44004 5.14636 4.56718 5.19917 4.69979 5.19917ZM7.94569 9.6286C7.3022 9.63601 6.71875 9.25183 6.4714 8.65787C6.22406 8.06391 6.36243 7.37928 6.82105 6.92794C7.32504 6.42474 11.5156 3.84205 11.9916 3.54879C12.123 3.46777 12.293 3.48765 12.4022 3.59683C12.5114 3.70601 12.5313 3.8759 12.4502 4.00734C12.1569 4.48322 9.57364 8.67284 9.06966 9.17605C8.7698 9.46987 8.36553 9.63264 7.94569 9.6286ZM12.1662 7.99831C12.1662 8.27438 12.3901 8.49819 12.6662 8.49819H13.6662C13.9423 8.49819 14.1662 8.27438 14.1662 7.99831C14.1662 7.72224 13.9423 7.49844 13.6662 7.49844H12.6662C12.3901 7.49844 12.1662 7.72224 12.1662 7.99831Z" fill="#ABAEC6"/>
<path fill-rule="evenodd" clip-rule="evenodd" d="M7.99969 11.8306C6.10615 11.8263 4.25003 12.3578 2.64584 13.3636C2.5587 13.4197 2.50208 13.5127 2.4922 13.6159C2.48233 13.7191 2.52027 13.8211 2.59518 13.8928C5.65024 16.7023 10.3492 16.7023 13.4042 13.8928C13.4791 13.8212 13.5171 13.7193 13.5072 13.6162C13.4973 13.5131 13.4407 13.4203 13.3535 13.3642C11.7495 12.358 9.89333 11.8263 7.99969 11.8306Z" fill="#CACCE2"/>
</svg>