<svg width="18" height="18" viewBox="0 0 18 18" fill="none" xmlns="http://www.w3.org/2000/svg">
<path d="M17.25 16.5H1.875C1.66789 16.5 1.5 16.3321 1.5 16.125V0.75C1.5 0.335786 1.16421 0 0.75 0C0.335786 0 2.07715e-08 0.335786 2.07715e-08 0.75V16.8915L0 16.8915C0.00081858 17.5036 0.497077 17.9996 1.10923 18H17.25C17.6642 18 18 17.6642 18 17.25C18 16.8358 17.6642 16.5 17.25 16.5H17.25Z" fill="#B1B4D3"/>
<path d="M4.125 15H15.75C16.3448 15.0241 16.8474 14.5634 16.875 13.9687V12.6562V12.6562C16.8474 12.0616 16.3448 11.6008 15.75 11.625H4.125C3.5302 11.6008 3.02756 12.0616 3 12.6562V13.9687V13.9687C3.02756 14.5634 3.5302 15.0241 4.125 15Z" fill="#8185A7"/>
<path d="M3 8.71874V8.71874C3.02756 9.31339 3.5302 9.77414 4.125 9.74999H11.25C11.8448 9.77414 12.3474 9.31339 12.375 8.71874V7.40624V7.40624C12.3474 6.81159 11.8448 6.35084 11.25 6.37499H4.125C3.5302 6.35084 3.02756 6.81159 3 7.40624V8.71874Z" fill="#8185A7"/>
<path d="M4.125 4.49999H7.5C8.0948 4.52414 8.59744 4.06339 8.625 3.46874V2.15624V2.15624C8.59744 1.56159 8.0948 1.10084 7.5 1.12499H4.125C3.5302 1.10084 3.02756 1.56159 3 2.15624V3.46874V3.46874C3.02756 4.06339 3.5302 4.52414 4.125 4.49999Z" fill="#8185A7"/>
</svg>
