<svg width="48" height="48" viewBox="0 0 48 48" fill="none" xmlns="http://www.w3.org/2000/svg">
<rect width="48" height="48" rx="8" fill="url(#paint0_linear)"/>
<g clip-path="url(#clip0)">
<path d="M23.9999 29.9849C27.3053 29.9849 29.9849 27.3053 29.9849 23.9999C29.9849 20.6945 27.3053 18.0149 23.9999 18.0149C20.6945 18.0149 18.0149 20.6945 18.0149 23.9999C18.0149 27.3053 20.6945 29.9849 23.9999 29.9849Z" fill="#F22F46"/>
<path d="M22.7025 32.9099C21.1956 32.6898 19.7692 32.0909 18.5568 31.1693C17.3445 30.2476 16.3858 29.0334 15.7706 27.6404C15.1553 26.2473 14.9037 24.7209 15.0391 23.204C15.1746 21.6871 15.6927 20.2295 16.545 18.9674C16.6365 18.8243 16.6766 18.6543 16.6589 18.4854C16.6412 18.3164 16.5667 18.1585 16.4475 18.0374L15.3675 16.9574C15.2905 16.8846 15.199 16.8289 15.0989 16.794C14.9988 16.7591 14.8924 16.7458 14.7868 16.755C14.6812 16.7642 14.5788 16.7957 14.4863 16.8474C14.3937 16.8991 14.3132 16.9698 14.25 17.0549C12.7929 19.078 12.006 21.5067 12 23.9999V35.0324C12 35.289 12.1019 35.5351 12.2834 35.7165C12.4648 35.898 12.7109 35.9999 12.9675 35.9999H24C26.4891 36.0048 28.9174 35.2312 30.945 33.7874C31.0363 33.7245 31.1125 33.6422 31.1681 33.5463C31.2237 33.4504 31.2574 33.3434 31.2667 33.233C31.2761 33.1225 31.2608 33.0114 31.222 32.9075C31.1832 32.8037 31.1219 32.7097 31.0425 32.6324L30 31.5524C29.8789 31.4332 29.721 31.3587 29.5521 31.341C29.3831 31.3233 29.2131 31.3634 29.07 31.4549C27.2046 32.7202 24.9323 33.2394 22.7025 32.9099Z" fill="#F22F46"/>
<path d="M25.2976 15.09C26.8045 15.3101 28.2309 15.909 29.4433 16.8307C30.6556 17.7523 31.6143 18.9665 32.2295 20.3596C32.8448 21.7526 33.0964 23.2791 32.961 24.7959C32.8256 26.3128 32.3074 27.7705 31.4551 29.0325C31.3538 29.1791 31.308 29.3569 31.3258 29.5342C31.3437 29.7115 31.4241 29.8766 31.5526 30L32.6326 31.08C32.7099 31.1594 32.8039 31.2207 32.9077 31.2595C33.0116 31.2983 33.1227 31.3136 33.2332 31.3042C33.3436 31.2949 33.4506 31.2612 33.5465 31.2056C33.6424 31.15 33.7247 31.0738 33.7876 30.9825C35.2389 28.9445 36.0129 26.5019 36.0001 24V12.9675C36.0001 12.7109 35.8982 12.4648 35.7167 12.2834C35.5353 12.1019 35.2892 12 35.0326 12H24.0001C21.5069 12.006 19.0782 12.7929 17.0551 14.25C16.9638 14.3129 16.8876 14.3952 16.832 14.4911C16.7764 14.587 16.7427 14.694 16.7334 14.8045C16.724 14.9149 16.7393 15.0261 16.7781 15.1299C16.8169 15.2337 16.8782 15.3277 16.9576 15.405L18.0376 16.4475C18.1587 16.5667 18.3166 16.6412 18.4856 16.6589C18.6545 16.6766 18.8245 16.6365 18.9676 16.545C20.8229 15.289 23.0801 14.7702 25.2976 15.09Z" fill="#F22F46"/>
</g>
<defs>
<linearGradient id="paint0_linear" x1="0" y1="48" x2="48" y2="0" gradientUnits="userSpaceOnUse">
<stop stop-color="#F22F46" stop-opacity="0.24"/>
<stop offset="1" stop-color="#F22F46" stop-opacity="0"/>
</linearGradient>
<clipPath id="clip0">
<rect width="24" height="24" fill="white" transform="translate(12 12)"/>
</clipPath>
</defs>
</svg>
