<svg width="16" height="16" viewBox="0 0 16 16" fill="none" xmlns="http://www.w3.org/2000/svg">
<path d="M1.71429 16.0002L4.01314 13.7013L3.17543 8.70703C2.38743 9.13903 0 10.5676 0 12.0002C0 14.2859 1.71429 16.0002 1.71429 16.0002Z" fill="#CACCE2"/>
<path d="M12.8291 8.70877L12.0068 13.7208L14.2857 16.0002C14.2857 16.0002 16 14.2859 16 12.0002C16 10.5699 13.6206 9.14363 12.8291 8.70877" fill="#CACCE2"/>
<path d="M6.28568 14.2856L5.14282 15.9999H10.8571L9.71425 14.2856H6.28568Z" fill="#ABAEC6"/>
<path d="M7.99998 0C5.7778 3.75621e-10 2.71998 2.56229 3.54112 7.44057L4.59598 13.7143H11.4286L12.4588 7.44057C13.28 2.56171 10.2222 -3.75621e-10 7.99998 0Z" fill="#ABAEC6"/>
<path fill-rule="evenodd" clip-rule="evenodd" d="M7.99994 7.99998C8.98178 7.99998 9.77772 7.20404 9.77772 6.2222C9.77772 5.24037 8.98178 4.44443 7.99994 4.44443C7.01811 4.44443 6.22217 5.24037 6.22217 6.2222C6.22217 7.20404 7.01811 7.99998 7.99994 7.99998Z" fill="white"/>
</svg>
