<svg xmlns="http://www.w3.org/2000/svg" width="20" height="20" viewBox="0 0 20 20" fill="none">
  <path fill-rule="evenodd" clip-rule="evenodd" d="M13.3333 5.67067H15.6667C16.9533 5.67067 18 6.718 18 8.004V14.6707C18 15.9567 16.9533 17.004 15.6667 17H4.33333C3.04667 17.004 2 15.9567 2 14.6707V8.004C2 6.718 3.04667 5.67067 4.33333 5.67067H6.66667V5C6.66667 3.89733 7.564 3 8.66667 3H11.3333C12.436 3 13.3333 3.89733 13.3333 5V5.67067ZM8.66667 4.33333C8.29867 4.33333 8 4.63267 8 5V5.67067H12V5C12 4.63267 11.7013 4.33333 11.3333 4.33333H8.66667ZM11.3467 9.14501L9.90438 13.8875C9.86508 14.0165 9.78475 14.1295 9.67531 14.2098C9.56587 14.2901 9.43314 14.3334 9.29683 14.3333C9.23494 14.3334 9.17337 14.3246 9.11403 14.3072C8.95321 14.259 8.81835 14.1496 8.7391 14.0032C8.65985 13.8567 8.64268 13.6852 8.69139 13.5262L10.1337 8.78373C10.1572 8.7044 10.1964 8.63044 10.2489 8.56613C10.3015 8.50182 10.3664 8.44843 10.44 8.40904C10.5135 8.36964 10.5942 8.34502 10.6775 8.3366C10.7607 8.32817 10.8448 8.3361 10.9249 8.35994C11.005 8.38378 11.0795 8.42305 11.1442 8.47549C11.2089 8.52792 11.2624 8.59249 11.3017 8.66547C11.341 8.73845 11.3653 8.81839 11.3732 8.90069C11.3811 8.983 11.3725 9.06603 11.3477 9.14501H11.3467ZM7.71948 13.0205C7.68839 12.9431 7.64199 12.8726 7.58299 12.8131L6.16606 11.3283L7.58933 9.79759C7.64566 9.73699 7.68937 9.66601 7.71794 9.58871C7.74652 9.51141 7.75941 9.42931 7.75588 9.34709C7.75235 9.26487 7.73246 9.18415 7.69735 9.10952C7.66225 9.03489 7.61262 8.96783 7.55129 8.91216C7.48996 8.85649 7.41813 8.8133 7.33991 8.78506C7.26169 8.75683 7.17861 8.74409 7.09541 8.74758C7.0122 8.75107 6.93051 8.77072 6.85499 8.80541C6.77948 8.8401 6.71161 8.88914 6.65528 8.94975L4.83367 10.9117C4.72536 11.0283 4.6657 11.181 4.66668 11.3392C4.66766 11.4975 4.7292 11.6495 4.83895 11.7648L6.66056 13.6724C6.71718 13.7341 6.78568 13.784 6.86206 13.8193C6.93844 13.8545 7.02116 13.8743 7.10538 13.8776C7.18961 13.8808 7.27364 13.8675 7.35258 13.8383C7.43151 13.809 7.50376 13.7646 7.56509 13.7074C7.62642 13.6503 7.67561 13.5816 7.70977 13.5055C7.74393 13.4293 7.76239 13.3472 7.76406 13.264C7.76572 13.1807 7.75057 13.0979 7.71948 13.0205ZM15.161 10.8511C15.2708 10.9664 15.3323 11.1184 15.3333 11.2766C15.3343 11.4349 15.2746 11.5876 15.1663 11.7042L13.3405 13.6661C13.2267 13.7885 13.0684 13.8612 12.9004 13.8683C12.7323 13.8753 12.5683 13.8161 12.4445 13.7037C12.3206 13.5913 12.247 13.4348 12.2399 13.2688C12.2328 13.1027 12.2927 12.9407 12.4064 12.8183L13.8297 11.2855L12.4128 9.80177C12.3013 9.68024 12.2425 9.52034 12.249 9.35641C12.2555 9.19249 12.3268 9.03763 12.4476 8.9251C12.5684 8.81257 12.729 8.75135 12.895 8.75459C13.0609 8.75783 13.219 8.82528 13.3352 8.94244L15.161 10.8511Z" fill="#8D869A"/>
  <path fill-rule="evenodd" clip-rule="evenodd" d="M15.6667 5.67066H13.3333V4.99999C13.3333 3.89899 12.4387 3.00269 11.3383 3H10V4.33333H11.3333C11.7013 4.33333 12 4.63266 12 4.99999V5.67066H10V9.22326L10.1337 8.78373C10.1572 8.70439 10.1964 8.63043 10.2489 8.56613C10.3015 8.50182 10.3664 8.44843 10.44 8.40903C10.5135 8.36964 10.5942 8.34502 10.6775 8.33659C10.7607 8.32816 10.8448 8.3361 10.9249 8.35993C11.005 8.38377 11.0795 8.42304 11.1442 8.47548C11.2089 8.52792 11.2624 8.59249 11.3017 8.66546C11.341 8.73844 11.3653 8.81839 11.3732 8.90069C11.3811 8.98299 11.3725 9.06602 11.3477 9.145H11.3467L10 13.5731V17L15.6667 17C15.6674 17 15.6681 17 15.6688 17C15.6723 17 15.6757 17 15.6792 17C16.9601 16.9972 18 15.9525 18 14.6707V8.00399C18 6.71799 16.9533 5.67066 15.6667 5.67066ZM15.3333 11.2766C15.3323 11.1184 15.2708 10.9664 15.161 10.8511L13.3352 8.94244C13.219 8.82527 13.0609 8.75783 12.895 8.75458C12.729 8.75134 12.5684 8.81256 12.4476 8.92509C12.3268 9.03762 12.2555 9.19248 12.249 9.35641C12.2425 9.52033 12.3013 9.68023 12.4128 9.80176L13.8297 11.2855L12.4064 12.8183C12.2927 12.9407 12.2328 13.1027 12.2399 13.2688C12.247 13.4348 12.3206 13.5913 12.4445 13.7037C12.5683 13.8161 12.7323 13.8753 12.9004 13.8683C13.0684 13.8612 13.2267 13.7885 13.3405 13.6661L15.1663 11.7042C15.2746 11.5876 15.3343 11.4349 15.3333 11.2766Z" fill="#C2BFCB"/>
</svg>
