<svg width="16" height="16" viewBox="0 0 16 16" fill="none" xmlns="http://www.w3.org/2000/svg">
<path d="M6.66665 1.50553e-08H1.306L1.306 1.54903e-08C0.588252 0.00485045 0.00871385 0.598693 0.00800051 1.33004L5.32384e-07 5.94306L5.37183e-07 5.94306C-0.000158172 6.0332 0.0348565 6.1197 0.0973316 6.18352C0.159856 6.24743 0.244771 6.28336 0.333333 6.28338H6.66665C6.85075 6.28338 6.99998 6.13132 6.99998 5.94374V0.339642C6.99998 0.152063 6.85075 0 6.66665 0V1.50553e-08Z" fill="#ABAEC6"/>
<path d="M6.66676 8.32117H0.423437V8.32117C0.33139 8.32141 0.256965 8.39764 0.257203 8.49143C0.257235 8.50408 0.258655 8.51669 0.261437 8.52903L0.261437 8.52903C1.03765 11.985 3.49817 14.7944 6.78009 15.9719C6.8673 16.002 6.96187 15.9543 6.99132 15.8654C6.99714 15.8479 7.0001 15.8295 7.00009 15.811V8.66081C7.00009 8.47323 6.85085 8.32117 6.66676 8.32117L6.66676 8.32117Z" fill="#CACCE2"/>
<path d="M15.5713 8.32117H9.33333C9.14924 8.32117 9 8.47323 9 8.66081V15.83L9 15.83C8.99994 15.9238 9.07452 15.9998 9.16657 15.9999C9.18474 15.9999 9.20278 15.9969 9.22 15.991L9.22 15.991C12.5049 14.8088 14.9643 11.9912 15.7333 8.52903V8.52903C15.7539 8.43762 15.6979 8.34649 15.6082 8.32548C15.5959 8.3226 15.5833 8.32115 15.5706 8.32117L15.5713 8.32117Z" fill="#ABAEC6"/>
<path d="M15.992 1.33004C15.9913 0.598692 15.4118 0.00486368 14.694 0H9.33333C9.14924 8.19937e-09 9 0.152063 9 0.339642V5.94374C9 6.13132 9.14924 6.28338 9.33333 6.28338H15.6667C15.7552 6.28336 15.8401 6.24743 15.9026 6.18353C15.9651 6.11971 16.0001 6.0332 16 5.94306L15.992 1.33004Z" fill="#CACCE2"/>
</svg>
