<svg width="18" height="19" viewBox="0 0 18 19" fill="none" xmlns="http://www.w3.org/2000/svg">
<path fill-rule="evenodd" clip-rule="evenodd" d="M4 0.806335H14C16.2091 0.806335 18 2.5972 18 4.80634C18 7.01548 16.2091 8.80633 14 8.80633H4C1.79086 8.80633 0 7.01548 0 4.80634C0 2.5972 1.79086 0.806335 4 0.806335ZM4.00001 6.80632C5.10458 6.80632 6.00001 5.91089 6.00001 4.80632C6.00001 3.70175 5.10458 2.80632 4.00001 2.80632C2.89544 2.80632 2.00001 3.70175 2.00001 4.80632C2.00001 5.91089 2.89544 6.80632 4.00001 6.80632Z" fill="#8185A7"/>
<path fill-rule="evenodd" clip-rule="evenodd" d="M4 10.8064H14C16.2091 10.8064 18 12.5972 18 14.8064C18 17.0155 16.2091 18.8064 14 18.8064H4C1.79086 18.8064 0 17.0155 0 14.8064C0 12.5972 1.79086 10.8064 4 10.8064ZM14 16.8063C15.1046 16.8063 16 15.9109 16 14.8063C16 13.7018 15.1046 12.8063 14 12.8063C12.8954 12.8063 12 13.7018 12 14.8063C12 15.9109 12.8954 16.8063 14 16.8063Z" fill="#B1B4D3"/>
</svg>
