<svg width="16" height="16" viewBox="0 0 16 16" fill="none" xmlns="http://www.w3.org/2000/svg">
<path d="M8 0C3.57333 0 0 3.57333 0 8C0 12.4267 3.57333 16 8 16C12.4267 16 16 12.4267 16 8C16 3.57333 12.4267 0 8 0ZM8 13.8667C4.74667 13.8667 2.13333 11.2533 2.13333 8C2.13333 4.74667 4.74667 2.13333 8 2.13333C11.2533 2.13333 13.8667 4.74667 13.8667 8C13.8667 11.2533 11.2533 13.8667 8 13.8667ZM11.6267 6.02667C11.6267 6.93333 10.88 7.68 9.97333 7.68C9.06667 7.68 8.32 6.93333 8.32 6.02667C8.32 5.12 9.06667 4.37333 9.97333 4.37333C10.88 4.37333 11.6267 5.12 11.6267 6.02667ZM11.6267 9.97333C11.6267 10.88 10.88 11.6267 9.97333 11.6267C9.06667 11.6267 8.32 10.88 8.32 9.97333C8.32 9.06667 9.06667 8.32 9.97333 8.32C10.88 8.32 11.6267 9.06667 11.6267 9.97333ZM7.68 9.97333C7.68 10.88 6.93333 11.6267 6.02667 11.6267C5.12 11.6267 4.37333 10.88 4.37333 9.97333C4.37333 9.06667 5.12 8.32 6.02667 8.32C6.93333 8.32 7.68 9.06667 7.68 9.97333ZM7.68 6.02667C7.68 6.93333 6.93333 7.68 6.02667 7.68C5.12 7.68 4.37333 6.93333 4.37333 6.02667C4.37333 5.12 5.12 4.37333 6.02667 4.37333C6.93333 4.37333 7.68 5.12 7.68 6.02667Z" fill="#ABAEC6"/>
</svg>
