<svg width="48" height="48" viewBox="0 0 48 48" fill="none" xmlns="http://www.w3.org/2000/svg">
<rect opacity="0.48" width="48" height="48" rx="8" fill="url(#paint0_linear)"/>
<path d="M21.5 24.5C21.5 22.8431 22.8431 21.5 24.5 21.5H32.25C32.388 21.5 32.5 21.3881 32.5 21.25V13.5C32.5 12.6716 31.8284 12 31 12H13.5H13.5C12.6716 12 12 12.6716 12 13.5V28H12C12 28.8284 12.6716 29.5 13.5 29.5H16.5V33V32.9999C16.5 33.2022 16.6219 33.3846 16.8089 33.4619C16.8696 33.4868 16.9344 33.4997 17 33.5C17.1328 33.4999 17.2602 33.4471 17.354 33.353L21.207 29.5H21.25C21.3881 29.5 21.5 29.3881 21.5 29.25V24.5ZM14.97 21.969C15.263 21.6771 15.737 21.6771 16.03 21.969H16.03C16.8471 22.7943 17.9169 23.3224 19.069 23.469C19.4799 23.5217 19.7702 23.8976 19.7175 24.3085C19.6647 24.7194 19.2889 25.0097 18.878 24.957C17.3968 24.7687 16.0212 24.0904 14.97 23.03C14.677 22.7372 14.6769 22.2623 14.9697 21.9693C14.9698 21.9692 14.9699 21.9691 14.97 21.969H14.97ZM19.75 18.5C19.75 18.9142 19.4142 19.25 19 19.25C18.5858 19.25 18.25 18.9142 18.25 18.5V16.5C18.25 16.0858 18.5858 15.75 19 15.75C19.4142 15.75 19.75 16.0858 19.75 16.5V18.5ZM25.75 18.5C25.75 18.9142 25.4142 19.25 25 19.25C24.5858 19.25 24.25 18.9142 24.25 18.5V16.5C24.25 16.0858 24.5858 15.75 25 15.75C25.4142 15.75 25.75 16.0858 25.75 16.5V18.5Z" fill="url(#paint1_linear)"/>
<path opacity="0.4" d="M34.5 23H24.5C23.6716 23 23 23.6716 23 24.5V31.5C23 32.3284 23.6716 33 24.5 33H28.333L32.2 35.9C32.4209 36.0657 32.7343 36.0209 32.9 35.8C32.9649 35.7134 33 35.6082 33 35.5V33H34.5C35.3284 33 36 32.3284 36 31.5V24.5C36 23.6716 35.3284 23 34.5 23C34.5 23 34.5 23 34.5 23ZM26.5 28C26.5 27.4477 26.9477 27 27.5 27C28.0523 27 28.5 27.4477 28.5 28C28.5 28.5523 28.0523 29 27.5 29C26.9477 29 26.5 28.5523 26.5 28C26.5 28 26.5 28 26.5 28ZM31.5 29C30.9477 29 30.5 28.5523 30.5 28C30.5 27.4477 30.9477 27 31.5 27C32.0523 27 32.5 27.4477 32.5 28C32.5 28.5523 32.0523 29 31.5 29Z" fill="url(#paint2_linear)"/>
<defs>
<linearGradient id="paint0_linear" x1="48" y1="-2.0218e-06" x2="-2.0218e-06" y2="48" gradientUnits="userSpaceOnUse">
<stop stop-color="#70D3E9" stop-opacity="0.1"/>
<stop offset="1" stop-color="#7371E1" stop-opacity="0.34"/>
</linearGradient>
<linearGradient id="paint1_linear" x1="32.5" y1="12" x2="33.3275" y2="32.6451" gradientUnits="userSpaceOnUse">
<stop stop-color="#5E97EE"/>
<stop offset="1" stop-color="#897AE3"/>
</linearGradient>
<linearGradient id="paint2_linear" x1="36" y1="23" x2="36.4772" y2="35.4849" gradientUnits="userSpaceOnUse">
<stop stop-color="#5E97EE"/>
<stop offset="1" stop-color="#897AE3"/>
</linearGradient>
</defs>
</svg>