<svg width="822" height="553" viewBox="0 0 822 553" fill="none" xmlns="http://www.w3.org/2000/svg">
<path opacity="0.2" d="M421 332L421 393" stroke="url(#paint0_linear)" stroke-width="24"/>
<g filter="url(#filter0_d)">
<rect x="16" y="113" width="216" height="382" rx="10" fill="#090C24"/>
</g>
<g filter="url(#filter1_d)">
<rect x="37" y="130" width="174" height="276" rx="10" fill="#171A2D"/>
<path d="M104.15 283.95V278.9H104.92C106.6 278.9 107.3 279.83 107.3 281.37V281.45C107.3 283.03 106.53 283.95 104.93 283.95H104.15ZM102.82 285H104.97C107.48 285 108.69 283.52 108.69 281.44V281.35C108.69 279.27 107.48 277.85 104.99 277.85H102.82V285ZM111.229 285.1C112.029 285.1 112.489 284.81 112.829 284.36V285H114.019V281.57C114.019 280.14 113.099 279.66 111.929 279.66C110.759 279.66 109.789 280.17 109.689 281.39H110.859C110.919 280.87 111.229 280.57 111.859 280.57C112.569 280.57 112.809 280.92 112.809 281.62V281.89H112.159C110.659 281.89 109.479 282.33 109.479 283.55C109.479 284.64 110.269 285.1 111.229 285.1ZM111.519 284.23C110.919 284.23 110.679 283.94 110.679 283.5C110.679 282.86 111.269 282.65 112.189 282.65H112.809V283.17C112.809 283.84 112.259 284.23 111.519 284.23ZM117.186 285.09C117.556 285.09 117.816 285.03 118.006 284.96V284C117.836 284.07 117.656 284.1 117.416 284.1C117.036 284.1 116.816 283.89 116.816 283.43V280.68H117.966V279.77H116.816V278.62H115.606V279.77H114.906V280.68H115.606V283.54C115.606 284.53 116.146 285.09 117.186 285.09ZM120.516 285.1C121.316 285.1 121.776 284.81 122.116 284.36V285H123.306V281.57C123.306 280.14 122.386 279.66 121.216 279.66C120.046 279.66 119.076 280.17 118.976 281.39H120.146C120.206 280.87 120.516 280.57 121.146 280.57C121.856 280.57 122.096 280.92 122.096 281.62V281.89H121.446C119.946 281.89 118.766 282.33 118.766 283.55C118.766 284.64 119.556 285.1 120.516 285.1ZM120.806 284.23C120.206 284.23 119.966 283.94 119.966 283.5C119.966 282.86 120.556 282.65 121.476 282.65H122.096V283.17C122.096 283.84 121.546 284.23 120.806 284.23ZM127.613 285.1C128.963 285.1 129.933 284.08 129.933 282.4V282.32C129.933 280.63 128.923 279.66 127.613 279.66C126.843 279.66 126.193 280.11 125.903 280.61V277.35H124.693V285H125.903V284.16C126.183 284.69 126.783 285.1 127.613 285.1ZM127.313 284.14C126.433 284.14 125.863 283.59 125.863 282.42V282.34C125.863 281.18 126.463 280.61 127.303 280.61C128.093 280.61 128.693 281.18 128.693 282.34V282.42C128.693 283.54 128.203 284.14 127.313 284.14ZM132.391 285.1C133.191 285.1 133.651 284.81 133.991 284.36V285H135.181V281.57C135.181 280.14 134.261 279.66 133.091 279.66C131.921 279.66 130.951 280.17 130.851 281.39H132.021C132.081 280.87 132.391 280.57 133.021 280.57C133.731 280.57 133.971 280.92 133.971 281.62V281.89H133.321C131.821 281.89 130.641 282.33 130.641 283.55C130.641 284.64 131.431 285.1 132.391 285.1ZM132.681 284.23C132.081 284.23 131.841 283.94 131.841 283.5C131.841 282.86 132.431 282.65 133.351 282.65H133.971V283.17C133.971 283.84 133.421 284.23 132.681 284.23ZM138.358 285.1C139.698 285.1 140.448 284.49 140.448 283.43C140.448 282.32 139.718 282.02 138.488 281.83C137.658 281.69 137.408 281.54 137.408 281.16C137.408 280.79 137.718 280.54 138.238 280.54C138.798 280.54 139.068 280.76 139.168 281.24H140.288C140.158 280.06 139.308 279.66 138.238 279.66C137.258 279.66 136.278 280.18 136.278 281.23C136.278 282.21 136.788 282.6 138.168 282.82C138.938 282.95 139.288 283.11 139.288 283.54C139.288 283.98 138.998 284.21 138.348 284.21C137.638 284.21 137.368 283.9 137.308 283.37H136.168C136.218 284.48 137.008 285.1 138.358 285.1ZM143.809 285.1C145.149 285.1 146.039 284.5 146.209 283.4H145.039C144.949 283.91 144.569 284.2 143.839 284.2C142.939 284.2 142.439 283.64 142.399 282.65H146.229V282.3C146.229 280.43 145.059 279.66 143.759 279.66C142.269 279.66 141.159 280.74 141.159 282.36V282.44C141.159 284.09 142.269 285.1 143.809 285.1ZM142.419 281.84C142.539 281.03 143.029 280.54 143.759 280.54C144.509 280.54 144.969 280.94 145.029 281.84H142.419Z" fill="#9395A4"/>
<path d="M124 254C128.971 254 133 252.657 133 251C133 249.343 128.971 248 124 248C119.029 248 115 249.343 115 251C115 252.657 119.029 254 124 254Z" stroke="url(#paint1_linear)" stroke-width="2" stroke-linecap="round" stroke-linejoin="round"/>
<path d="M133 258C133 259.66 129 261 124 261C119 261 115 259.66 115 258" stroke="url(#paint2_linear)" stroke-width="2" stroke-linecap="round" stroke-linejoin="round"/>
<path d="M115 251V265C115 266.66 119 268 124 268C129 268 133 266.66 133 265V251" stroke="url(#paint3_linear)" stroke-width="2" stroke-linecap="round" stroke-linejoin="round"/>
<rect x="37.5" y="130.5" width="173" height="275" rx="9.5" stroke="#2F3244"/>
</g>
<path d="M67.5826 458H68.9746V453.024L72.5906 446.56H71.1986L68.3186 451.872L65.3266 446.56H63.7586L67.5826 453.008V458ZM76.6601 457.04C74.9641 457.04 73.9241 455.792 73.9241 453.888V453.76C73.9241 451.84 74.9801 450.592 76.6601 450.592C78.3241 450.592 79.3961 451.84 79.3961 453.776V453.888C79.3961 455.776 78.3401 457.04 76.6601 457.04ZM76.6441 458.144C79.0281 458.144 80.7721 456.4 80.7721 453.872V453.744C80.7721 451.232 79.0281 449.488 76.6601 449.488C74.2921 449.488 72.5481 451.248 72.5481 453.76V453.888C72.5481 456.336 74.2601 458.144 76.6441 458.144ZM85.6604 458.144C87.0044 458.144 87.9324 457.456 88.3164 456.672V458H89.6444V449.632H88.3164V454.704C88.3164 456.208 87.1964 456.992 86.0124 456.992C84.7004 456.992 84.0764 456.336 84.0764 454.864V449.632H82.7484V454.928C82.7484 457.232 83.9964 458.144 85.6604 458.144ZM92.3284 458H93.6564V453.408C93.6564 451.344 94.7284 450.816 96.4084 450.736V449.488C94.9044 449.536 94.1844 450.192 93.6564 451.136V449.632H92.3284V458ZM104.754 458H106.018L108.69 448.96L111.282 458H112.562L115.538 446.56H114.242L111.89 455.824L109.202 446.56H108.21L105.522 455.792L103.202 446.56H101.778L104.754 458ZM119.034 458.144C120.266 458.144 121.018 457.728 121.642 456.944V458H122.97V452.48C122.97 450.144 121.514 449.488 119.914 449.488C118.298 449.488 116.778 450.192 116.602 452.096H117.93C118.058 451.072 118.698 450.592 119.85 450.592C121.13 450.592 121.642 451.152 121.642 452.48V453.088H120.442C118.298 453.088 116.25 453.744 116.25 455.68C116.25 457.392 117.482 458.144 119.034 458.144ZM119.162 457.088C117.994 457.088 117.578 456.544 117.578 455.68C117.578 454.448 118.81 454.032 120.49 454.032H121.642V455.072C121.642 456.368 120.57 457.088 119.162 457.088ZM125.578 458H126.906V453.408C126.906 451.344 127.978 450.816 129.658 450.736V449.488C128.154 449.536 127.434 450.192 126.906 451.136V449.632H125.578V458ZM134.784 458.144C136.672 458.144 138.064 457.264 138.352 455.584H137.024C136.848 456.56 136.096 457.04 134.8 457.04C133.088 457.04 132.176 455.984 132.112 454.08H138.416V453.648C138.416 450.656 136.592 449.488 134.656 449.488C132.352 449.488 130.736 451.248 130.736 453.776V453.904C130.736 456.48 132.416 458.144 134.784 458.144ZM132.16 453.008C132.384 451.52 133.296 450.592 134.656 450.592C136.032 450.592 136.928 451.28 137.056 453.008H132.16ZM140.453 458H141.781V452.928C141.781 451.424 142.885 450.64 144.117 450.64C145.461 450.64 146.085 451.296 146.085 452.768V458H147.413V452.864C147.413 450.432 146.197 449.488 144.469 449.488C143.093 449.488 142.165 450.176 141.781 450.96V445.632H140.453V458ZM153.504 457.04C151.808 457.04 150.768 455.792 150.768 453.888V453.76C150.768 451.84 151.824 450.592 153.504 450.592C155.168 450.592 156.24 451.84 156.24 453.776V453.888C156.24 455.776 155.184 457.04 153.504 457.04ZM153.488 458.144C155.872 458.144 157.616 456.4 157.616 453.872V453.744C157.616 451.232 155.872 449.488 153.504 449.488C151.136 449.488 149.392 451.248 149.392 453.76V453.888C149.392 456.336 151.104 458.144 153.488 458.144ZM162.504 458.144C163.848 458.144 164.776 457.456 165.16 456.672V458H166.488V449.632H165.16V454.704C165.16 456.208 164.04 456.992 162.856 456.992C161.544 456.992 160.92 456.336 160.92 454.864V449.632H159.592V454.928C159.592 457.232 160.84 458.144 162.504 458.144ZM171.764 458.144C173.796 458.144 174.836 457.12 174.836 455.6C174.836 453.824 173.62 453.44 171.892 453.12C170.356 452.848 169.94 452.544 169.94 451.792C169.94 451.072 170.564 450.592 171.524 450.592C172.58 450.592 173.092 450.992 173.284 451.904H174.564C174.34 450.096 173.044 449.488 171.54 449.488C170.228 449.488 168.708 450.288 168.708 451.84C168.708 453.296 169.444 453.904 171.62 454.304C172.916 454.544 173.572 454.832 173.572 455.712C173.572 456.608 173.012 457.04 171.748 457.04C170.404 457.04 169.876 456.416 169.78 455.424H168.484C168.564 457.136 169.764 458.144 171.764 458.144ZM180.284 458.144C182.172 458.144 183.564 457.264 183.852 455.584H182.524C182.348 456.56 181.596 457.04 180.3 457.04C178.588 457.04 177.676 455.984 177.612 454.08H183.916V453.648C183.916 450.656 182.092 449.488 180.156 449.488C177.852 449.488 176.236 451.248 176.236 453.776V453.904C176.236 456.48 177.916 458.144 180.284 458.144ZM177.66 453.008C177.884 451.52 178.796 450.592 180.156 450.592C181.532 450.592 182.428 451.28 182.556 453.008H177.66Z" fill="white"/>
<path d="M380.634 229.154C383 229.154 384.456 227.74 384.456 225.962C384.456 223.89 383.21 223.232 380.788 222.924C379.248 222.7 378.926 222.364 378.926 221.65C378.926 220.978 379.43 220.516 380.424 220.516C381.418 220.516 381.95 220.936 382.09 221.846H384.176C383.994 219.858 382.678 218.85 380.424 218.85C378.212 218.85 376.784 220.124 376.784 221.832C376.784 223.764 377.834 224.534 380.396 224.87C381.866 225.094 382.286 225.374 382.286 226.172C382.286 226.956 381.628 227.502 380.634 227.502C379.15 227.502 378.772 226.76 378.674 225.864H376.504C376.63 227.866 377.89 229.154 380.634 229.154ZM389.281 229.154C391.283 229.154 392.543 228.272 392.781 226.69H390.863C390.737 227.306 390.275 227.712 389.337 227.712C388.231 227.712 387.573 227.012 387.517 225.794H392.795V225.234C392.795 222.616 391.115 221.51 389.225 221.51C387.097 221.51 385.459 223.008 385.459 225.318V225.43C385.459 227.768 387.069 229.154 389.281 229.154ZM387.545 224.548C387.699 223.512 388.315 222.91 389.225 222.91C390.191 222.91 390.751 223.442 390.821 224.548H387.545ZM394.18 229H396.196V218.36H394.18V229ZM401.421 229.154C403.423 229.154 404.683 228.272 404.921 226.69H403.003C402.877 227.306 402.415 227.712 401.477 227.712C400.371 227.712 399.713 227.012 399.657 225.794H404.935V225.234C404.935 222.616 403.255 221.51 401.365 221.51C399.237 221.51 397.599 223.008 397.599 225.318V225.43C397.599 227.768 399.209 229.154 401.421 229.154ZM399.685 224.548C399.839 223.512 400.455 222.91 401.365 222.91C402.331 222.91 402.891 223.442 402.961 224.548H399.685ZM409.582 229.154C411.71 229.154 412.97 227.95 413.082 226.214H411.248C411.15 227.152 410.492 227.628 409.68 227.628C408.546 227.628 407.888 226.872 407.888 225.402V225.29C407.888 223.89 408.588 223.106 409.638 223.106C410.464 223.106 410.982 223.498 411.122 224.352H413.04C412.858 222.252 411.29 221.51 409.596 221.51C407.51 221.51 405.816 222.952 405.816 225.318V225.43C405.816 227.824 407.44 229.154 409.582 229.154ZM417.032 229.14C417.578 229.14 417.984 229.042 418.264 228.944V227.376C418.026 227.474 417.802 227.516 417.494 227.516C416.976 227.516 416.682 227.236 416.682 226.648V223.12H418.222V221.678H416.682V220.096H414.666V221.678H413.728V223.12H414.666V226.83C414.666 228.356 415.492 229.14 417.032 229.14ZM424.013 223.624L424.867 221.986L425.735 223.624L426.981 222.728L425.763 221.37L427.443 221.104L427.023 219.662L425.455 220.376L425.707 218.598H424.069L424.307 220.376L422.739 219.662L422.319 221.104L423.985 221.37L422.767 222.728L424.013 223.624ZM432.249 229H434.265V223.12H435.861V221.678H434.265V220.782C434.265 220.222 434.531 219.816 435.175 219.816C435.469 219.816 435.721 219.872 435.917 219.942V218.416C435.595 218.318 435.301 218.276 434.867 218.276C433.243 218.276 432.249 219.13 432.249 220.838V221.678H431.283V223.12H432.249V229ZM437.108 229H439.138V225.332C439.138 223.932 440.006 223.442 441.504 223.456V221.566C440.314 221.58 439.6 222.098 439.138 223.078V221.678H437.108V229ZM446.116 227.614C444.968 227.614 444.324 226.774 444.324 225.374V225.262C444.324 223.862 444.996 223.05 446.116 223.05C447.25 223.05 447.908 223.89 447.908 225.29V225.388C447.908 226.774 447.25 227.614 446.116 227.614ZM446.102 229.154C448.3 229.154 449.966 227.684 449.966 225.374V225.262C449.966 222.98 448.314 221.51 446.116 221.51C443.918 221.51 442.252 223.008 442.252 225.304V225.416C442.252 227.698 443.918 229.154 446.102 229.154ZM451.327 229H453.357V224.674C453.357 223.68 453.987 223.176 454.771 223.176C455.485 223.176 455.919 223.596 455.919 224.534V229H457.935V224.674C457.935 223.68 458.565 223.176 459.349 223.176C460.077 223.176 460.497 223.596 460.497 224.534V229H462.513V224.31C462.513 222.364 461.463 221.51 460.105 221.51C459.181 221.51 458.229 221.902 457.641 222.784C457.291 221.916 456.563 221.51 455.597 221.51C454.505 221.51 453.721 222.112 453.357 222.798V221.678H451.327V229ZM470.668 229.154C472.796 229.154 474.056 227.95 474.168 226.214H472.334C472.236 227.152 471.578 227.628 470.766 227.628C469.632 227.628 468.974 226.872 468.974 225.402V225.29C468.974 223.89 469.674 223.106 470.724 223.106C471.55 223.106 472.068 223.498 472.208 224.352H474.126C473.944 222.252 472.376 221.51 470.682 221.51C468.596 221.51 466.902 222.952 466.902 225.318V225.43C466.902 227.824 468.526 229.154 470.668 229.154ZM477.88 229.154C479.084 229.154 479.826 228.594 480.204 227.852V229H482.22V221.678H480.204V225.976C480.204 227.054 479.532 227.586 478.678 227.586C477.81 227.586 477.404 227.11 477.404 226.116V221.678H475.388V226.396C475.388 228.314 476.452 229.154 477.88 229.154ZM486.676 229.154C488.608 229.154 489.756 228.328 489.756 226.746C489.756 225.178 488.748 224.716 486.914 224.45C485.85 224.296 485.5 224.114 485.5 223.652C485.5 223.204 485.878 222.896 486.536 222.896C487.236 222.896 487.572 223.176 487.684 223.778H489.546C489.364 222.098 488.146 221.51 486.522 221.51C485.024 221.51 483.624 222.266 483.624 223.792C483.624 225.22 484.38 225.78 486.326 226.074C487.376 226.228 487.81 226.438 487.81 226.942C487.81 227.446 487.446 227.74 486.662 227.74C485.78 227.74 485.458 227.362 485.374 226.704H483.484C483.554 228.286 484.702 229.154 486.676 229.154ZM493.717 229.14C494.263 229.14 494.669 229.042 494.949 228.944V227.376C494.711 227.474 494.487 227.516 494.179 227.516C493.661 227.516 493.367 227.236 493.367 226.648V223.12H494.907V221.678H493.367V220.096H491.351V221.678H490.413V223.12H491.351V226.83C491.351 228.356 492.177 229.14 493.717 229.14ZM499.737 227.614C498.589 227.614 497.945 226.774 497.945 225.374V225.262C497.945 223.862 498.617 223.05 499.737 223.05C500.871 223.05 501.529 223.89 501.529 225.29V225.388C501.529 226.774 500.871 227.614 499.737 227.614ZM499.723 229.154C501.921 229.154 503.587 227.684 503.587 225.374V225.262C503.587 222.98 501.935 221.51 499.737 221.51C497.539 221.51 495.873 223.008 495.873 225.304V225.416C495.873 227.698 497.539 229.154 499.723 229.154ZM504.948 229H506.978V224.674C506.978 223.68 507.608 223.176 508.392 223.176C509.106 223.176 509.54 223.596 509.54 224.534V229H511.556V224.674C511.556 223.68 512.186 223.176 512.97 223.176C513.698 223.176 514.118 223.596 514.118 224.534V229H516.134V224.31C516.134 222.364 515.084 221.51 513.726 221.51C512.802 221.51 511.85 221.902 511.262 222.784C510.912 221.916 510.184 221.51 509.218 221.51C508.126 221.51 507.342 222.112 506.978 222.798V221.678H504.948V229ZM521.242 229.154C523.244 229.154 524.504 228.272 524.742 226.69H522.824C522.698 227.306 522.236 227.712 521.298 227.712C520.192 227.712 519.534 227.012 519.478 225.794H524.756V225.234C524.756 222.616 523.076 221.51 521.186 221.51C519.058 221.51 517.42 223.008 517.42 225.318V225.43C517.42 227.768 519.03 229.154 521.242 229.154ZM519.506 224.548C519.66 223.512 520.276 222.91 521.186 222.91C522.152 222.91 522.712 223.442 522.782 224.548H519.506ZM526.084 229H528.114V225.332C528.114 223.932 528.982 223.442 530.48 223.456V221.566C529.29 221.58 528.576 222.098 528.114 223.078V221.678H526.084V229ZM534.473 229.154C536.405 229.154 537.553 228.328 537.553 226.746C537.553 225.178 536.545 224.716 534.711 224.45C533.647 224.296 533.297 224.114 533.297 223.652C533.297 223.204 533.675 222.896 534.333 222.896C535.033 222.896 535.369 223.176 535.481 223.778H537.343C537.161 222.098 535.943 221.51 534.319 221.51C532.821 221.51 531.421 222.266 531.421 223.792C531.421 225.22 532.177 225.78 534.123 226.074C535.173 226.228 535.607 226.438 535.607 226.942C535.607 227.446 535.243 227.74 534.459 227.74C533.577 227.74 533.255 227.362 533.171 226.704H531.281C531.351 228.286 532.499 229.154 534.473 229.154Z" fill="white"/>
<g filter="url(#filter2_d)">
<rect x="341" y="398" width="162" height="96" rx="10" fill="#090C24"/>
</g>
<g filter="url(#filter3_d)">
<rect x="388" y="413" width="69" height="67" rx="10" fill="#171A2D"/>
<path d="M402.15 462.95V457.9H402.92C404.6 457.9 405.3 458.83 405.3 460.37V460.45C405.3 462.03 404.53 462.95 402.93 462.95H402.15ZM400.82 464H402.97C405.48 464 406.69 462.52 406.69 460.44V460.35C406.69 458.27 405.48 456.85 402.99 456.85H400.82V464ZM409.229 464.1C410.029 464.1 410.489 463.81 410.829 463.36V464H412.019V460.57C412.019 459.14 411.099 458.66 409.929 458.66C408.759 458.66 407.789 459.17 407.689 460.39H408.859C408.919 459.87 409.229 459.57 409.859 459.57C410.569 459.57 410.809 459.92 410.809 460.62V460.89H410.159C408.659 460.89 407.479 461.33 407.479 462.55C407.479 463.64 408.269 464.1 409.229 464.1ZM409.519 463.23C408.919 463.23 408.679 462.94 408.679 462.5C408.679 461.86 409.269 461.65 410.189 461.65H410.809V462.17C410.809 462.84 410.259 463.23 409.519 463.23ZM415.186 464.09C415.556 464.09 415.816 464.03 416.006 463.96V463C415.836 463.07 415.656 463.1 415.416 463.1C415.036 463.1 414.816 462.89 414.816 462.43V459.68H415.966V458.77H414.816V457.62H413.606V458.77H412.906V459.68H413.606V462.54C413.606 463.53 414.146 464.09 415.186 464.09ZM418.516 464.1C419.316 464.1 419.776 463.81 420.116 463.36V464H421.306V460.57C421.306 459.14 420.386 458.66 419.216 458.66C418.046 458.66 417.076 459.17 416.976 460.39H418.146C418.206 459.87 418.516 459.57 419.146 459.57C419.856 459.57 420.096 459.92 420.096 460.62V460.89H419.446C417.946 460.89 416.766 461.33 416.766 462.55C416.766 463.64 417.556 464.1 418.516 464.1ZM418.806 463.23C418.206 463.23 417.966 462.94 417.966 462.5C417.966 461.86 418.556 461.65 419.476 461.65H420.096V462.17C420.096 462.84 419.546 463.23 418.806 463.23ZM425.613 464.1C426.963 464.1 427.933 463.08 427.933 461.4V461.32C427.933 459.63 426.923 458.66 425.613 458.66C424.843 458.66 424.193 459.11 423.903 459.61V456.35H422.693V464H423.903V463.16C424.183 463.69 424.783 464.1 425.613 464.1ZM425.313 463.14C424.433 463.14 423.863 462.59 423.863 461.42V461.34C423.863 460.18 424.463 459.61 425.303 459.61C426.093 459.61 426.693 460.18 426.693 461.34V461.42C426.693 462.54 426.203 463.14 425.313 463.14ZM430.391 464.1C431.191 464.1 431.651 463.81 431.991 463.36V464H433.181V460.57C433.181 459.14 432.261 458.66 431.091 458.66C429.921 458.66 428.951 459.17 428.851 460.39H430.021C430.081 459.87 430.391 459.57 431.021 459.57C431.731 459.57 431.971 459.92 431.971 460.62V460.89H431.321C429.821 460.89 428.641 461.33 428.641 462.55C428.641 463.64 429.431 464.1 430.391 464.1ZM430.681 463.23C430.081 463.23 429.841 462.94 429.841 462.5C429.841 461.86 430.431 461.65 431.351 461.65H431.971V462.17C431.971 462.84 431.421 463.23 430.681 463.23ZM436.358 464.1C437.698 464.1 438.448 463.49 438.448 462.43C438.448 461.32 437.718 461.02 436.488 460.83C435.658 460.69 435.408 460.54 435.408 460.16C435.408 459.79 435.718 459.54 436.238 459.54C436.798 459.54 437.068 459.76 437.168 460.24H438.288C438.158 459.06 437.308 458.66 436.238 458.66C435.258 458.66 434.278 459.18 434.278 460.23C434.278 461.21 434.788 461.6 436.168 461.82C436.938 461.95 437.288 462.11 437.288 462.54C437.288 462.98 436.998 463.21 436.348 463.21C435.638 463.21 435.368 462.9 435.308 462.37H434.168C434.218 463.48 435.008 464.1 436.358 464.1ZM441.809 464.1C443.149 464.1 444.039 463.5 444.209 462.4H443.039C442.949 462.91 442.569 463.2 441.839 463.2C440.939 463.2 440.439 462.64 440.399 461.65H444.229V461.3C444.229 459.43 443.059 458.66 441.759 458.66C440.269 458.66 439.159 459.74 439.159 461.36V461.44C439.159 463.09 440.269 464.1 441.809 464.1ZM440.419 460.84C440.539 460.03 441.029 459.54 441.759 459.54C442.509 459.54 442.969 459.94 443.029 460.84H440.419Z" fill="#9395A4"/>
<path d="M422 433C426.971 433 431 431.657 431 430C431 428.343 426.971 427 422 427C417.029 427 413 428.343 413 430C413 431.657 417.029 433 422 433Z" stroke="white" stroke-width="2" stroke-linecap="round" stroke-linejoin="round"/>
<path d="M431 437C431 438.66 427 440 422 440C417 440 413 438.66 413 437" stroke="white" stroke-width="2" stroke-linecap="round" stroke-linejoin="round"/>
<path d="M413 430V444C413 445.66 417 447 422 447C427 447 431 445.66 431 444V430" stroke="white" stroke-width="2" stroke-linecap="round" stroke-linejoin="round"/>
<rect x="388.5" y="413.5" width="68" height="66" rx="9.5" stroke="#2F3244"/>
</g>
<line opacity="0.5" x1="287" y1="1" x2="287" y2="552" stroke="#9395A4" stroke-width="2" stroke-linecap="round" stroke-dasharray="0.1 16"/>
<path opacity="0.2" d="M158 176L328 176C341.807 176 353 187.193 353 201L353 258" stroke="url(#paint4_linear)" stroke-width="24"/>
<path d="M189 170L183 176L189 182" stroke="white" stroke-width="2" stroke-linecap="round" stroke-linejoin="round"/>
<path d="M358 228L352 222L346 228" stroke="white" stroke-width="2" stroke-linecap="round" stroke-linejoin="round"/>
<g filter="url(#filter4_d)">
<rect x="340" y="247" width="163" height="96" rx="10" fill="#090C24"/>
</g>
<path d="M398.912 300H400.13V295.646H401.67L404.652 300H406.01L402.944 295.562C404.316 295.296 405.422 294.484 405.422 292.832V292.776C405.422 290.774 403.84 289.99 401.922 289.99H398.912V300ZM400.13 294.68V290.97H402.006C403.364 290.97 404.204 291.418 404.204 292.776V292.832C404.204 294.064 403.434 294.68 402.006 294.68H400.13ZM409.961 300.126C411.137 300.126 411.949 299.524 412.285 298.838V300H413.447V292.678H412.285V297.116C412.285 298.432 411.305 299.118 410.269 299.118C409.121 299.118 408.575 298.544 408.575 297.256V292.678H407.413V297.312C407.413 299.328 408.505 300.126 409.961 300.126ZM415.795 300H416.957V295.562C416.957 294.246 417.923 293.56 419.001 293.56C420.177 293.56 420.723 294.134 420.723 295.422V300H421.885V295.506C421.885 293.378 420.821 292.552 419.309 292.552C418.105 292.552 417.293 293.154 416.957 293.84V292.678H415.795V300ZM424.162 300H425.324V295.562C425.324 294.246 426.29 293.56 427.368 293.56C428.544 293.56 429.09 294.134 429.09 295.422V300H430.252V295.506C430.252 293.378 429.188 292.552 427.676 292.552C426.472 292.552 425.66 293.154 425.324 293.84V292.678H424.162V300ZM435.526 300.126C437.178 300.126 438.396 299.356 438.648 297.886H437.486C437.332 298.74 436.674 299.16 435.54 299.16C434.042 299.16 433.244 298.236 433.188 296.57H438.704V296.192C438.704 293.574 437.108 292.552 435.414 292.552C433.398 292.552 431.984 294.092 431.984 296.304V296.416C431.984 298.67 433.454 300.126 435.526 300.126ZM433.23 295.632C433.426 294.33 434.224 293.518 435.414 293.518C436.618 293.518 437.402 294.12 437.514 295.632H433.23ZM440.487 300H441.649V295.982C441.649 294.176 442.587 293.714 444.057 293.644V292.552C442.741 292.594 442.111 293.168 441.649 293.994V292.678H440.487V300Z" fill="white"/>
<g clip-path="url(#clip0)">
<path d="M525 295.5H579.026C662.114 295.5 645.921 444.5 723.47 444.5H764" stroke="url(#paint5_linear)" stroke-opacity="0.24" stroke-width="24"/>
<path d="M378 297L454.533 297C588.726 297 575.307 297 700.554 297L764 297" stroke="url(#paint6_linear)" stroke-opacity="0.24" stroke-width="24"/>
<path d="M525 293.5H579.026C662.114 293.5 645.921 145.5 723.47 145.5H764" stroke="url(#paint7_linear)" stroke-opacity="0.24" stroke-width="24"/>
<g clip-path="url(#clip1)">
<path d="M734 152L740 146L734 140" stroke="white" stroke-width="2" stroke-linecap="round" stroke-linejoin="round"/>
<path d="M734 302L740 296L734 290" stroke="white" stroke-width="2" stroke-linecap="round" stroke-linejoin="round"/>
<path d="M734 452L740 446L734 440" stroke="white" stroke-width="2" stroke-linecap="round" stroke-linejoin="round"/>
</g>
<path d="M541 302L547 296L541 290" stroke="white" stroke-width="2" stroke-linecap="round" stroke-linejoin="round"/>
</g>
<g clip-path="url(#clip2)">
<path d="M760.798 191H762.238V184.52L764.842 191H765.358L767.914 184.52V191H769.51V182.42H767.398L765.19 188.276L762.934 182.42H760.798V191ZM771.39 191H772.842V184.724H771.39V191ZM772.098 183.692C772.578 183.692 772.962 183.332 772.962 182.864C772.962 182.384 772.578 182.024 772.098 182.024C771.618 182.024 771.234 182.384 771.234 182.864C771.234 183.332 771.618 183.692 772.098 183.692ZM774 191H775.512L777.012 188.732L778.476 191H780.168L777.924 187.676L779.952 184.724H778.428L777.132 186.752L775.824 184.724H774.144L776.184 187.784L774 191ZM781.28 193.148H782.732V190.016C783.068 190.628 783.788 191.12 784.784 191.12C786.404 191.12 787.568 189.896 787.568 187.88V187.784C787.568 185.756 786.356 184.592 784.784 184.592C783.86 184.592 783.08 185.132 782.732 185.732V184.724H781.28V193.148ZM784.424 189.968C783.368 189.968 782.684 189.308 782.684 187.904V187.808C782.684 186.416 783.404 185.732 784.412 185.732C785.36 185.732 786.08 186.416 786.08 187.808V187.904C786.08 189.248 785.492 189.968 784.424 189.968ZM790.518 191.12C791.478 191.12 792.03 190.772 792.438 190.232V191H793.866V186.884C793.866 185.168 792.762 184.592 791.358 184.592C789.954 184.592 788.79 185.204 788.67 186.668H790.074C790.146 186.044 790.518 185.684 791.274 185.684C792.126 185.684 792.414 186.104 792.414 186.944V187.268H791.634C789.834 187.268 788.418 187.796 788.418 189.26C788.418 190.568 789.366 191.12 790.518 191.12ZM790.866 190.076C790.146 190.076 789.858 189.728 789.858 189.2C789.858 188.432 790.566 188.18 791.67 188.18H792.414V188.804C792.414 189.608 791.754 190.076 790.866 190.076ZM795.53 191H796.982V187.304C796.982 186.308 797.642 185.804 798.458 185.804C799.322 185.804 799.706 186.236 799.706 187.184V191H801.158V187.052C801.158 185.324 800.27 184.592 799.01 184.592C797.978 184.592 797.282 185.108 796.982 185.72V184.724H795.53V191ZM805.591 191.12C807.199 191.12 808.267 190.4 808.471 189.08H807.067C806.959 189.692 806.503 190.04 805.627 190.04C804.547 190.04 803.947 189.368 803.899 188.18H808.495V187.76C808.495 185.516 807.091 184.592 805.531 184.592C803.743 184.592 802.411 185.888 802.411 187.832V187.928C802.411 189.908 803.743 191.12 805.591 191.12ZM803.923 187.208C804.067 186.236 804.655 185.648 805.531 185.648C806.431 185.648 806.983 186.128 807.055 187.208H803.923ZM809.828 191H811.28V181.82H809.828V191Z" fill="#9395A4"/>
<g filter="url(#filter5_d)">
<rect x="758" y="117" width="56" height="56" rx="10" fill="#090C24"/>
<rect x="758.5" y="117.5" width="55" height="55" rx="9.5" stroke="#2F3244"/>
</g>
<path d="M767.831 151.963C768.79 151.963 769.568 151.193 769.568 150.243C769.568 149.293 768.79 148.523 767.831 148.523C766.871 148.523 766.093 149.293 766.093 150.243C766.093 151.193 766.871 151.963 767.831 151.963Z" fill="#4284FB"/>
<path d="M774.099 151.479C774.778 151.479 775.328 150.934 775.328 150.262C775.328 149.59 774.778 149.045 774.099 149.045C773.42 149.045 772.87 149.59 772.87 150.262C772.87 150.934 773.42 151.479 774.099 151.479Z" fill="#4284FB"/>
<path d="M779.28 150.814C779.588 150.814 779.838 150.566 779.838 150.261C779.838 149.956 779.588 149.709 779.28 149.709C778.972 149.709 778.722 149.956 778.722 150.261C778.722 150.566 778.972 150.814 779.28 150.814Z" fill="#4284FB"/>
<path d="M773.774 146.639C773.469 146.639 773.242 146.404 773.242 146.112V143.872C773.242 143.099 772.869 142.506 772.031 142.506C771.194 142.506 770.685 143.144 770.685 143.883V146.112C770.685 146.404 770.481 146.639 770.153 146.639C769.836 146.639 769.621 146.404 769.621 146.112V143.872C769.621 143.099 769.214 142.506 768.376 142.506C767.516 142.506 767.064 143.144 767.064 143.883V146.112C767.064 146.404 766.849 146.639 766.532 146.639C766.226 146.639 766 146.404 766 146.112V142.136C766 141.822 766.204 141.598 766.532 141.598C766.894 141.598 767.064 141.845 767.064 142.136V142.494C767.369 141.901 767.992 141.553 768.659 141.553C769.474 141.553 770.085 141.957 770.391 142.55C770.832 141.878 771.477 141.553 772.28 141.553C773.65 141.553 774.306 142.483 774.306 143.794V146.112C774.306 146.404 774.091 146.639 773.774 146.639Z" fill="#4284FB"/>
<path d="M775.806 139.605C776.145 139.605 776.428 139.885 776.428 140.221C776.428 140.557 776.145 140.837 775.806 140.837C775.466 140.837 775.184 140.557 775.184 140.221C775.184 139.885 775.466 139.605 775.806 139.605ZM775.806 146.639C775.489 146.639 775.274 146.404 775.274 146.113V142.125C775.274 141.834 775.5 141.599 775.806 141.599C776.111 141.599 776.338 141.834 776.338 142.125V146.113C776.338 146.404 776.123 146.639 775.806 146.639Z" fill="#4284FB"/>
<path d="M779.32 143.413L780.666 141.755C780.757 141.654 780.87 141.598 781.017 141.598C781.311 141.598 781.504 141.789 781.504 142.057C781.504 142.158 781.47 142.259 781.379 142.36L779.897 144.107L781.402 145.866C781.481 145.955 781.526 146.045 781.526 146.179C781.526 146.437 781.3 146.639 781.051 146.639C780.893 146.639 780.768 146.583 780.678 146.47L779.32 144.802L777.962 146.47C777.871 146.582 777.747 146.639 777.589 146.639C777.34 146.639 777.113 146.437 777.113 146.179C777.113 146.045 777.159 145.955 777.238 145.866L778.743 144.107L777.26 142.36C777.17 142.259 777.136 142.158 777.136 142.057C777.136 141.789 777.328 141.598 777.622 141.598C777.77 141.598 777.883 141.654 777.973 141.755L779.32 143.413Z" fill="#4284FB"/>
<path d="M785.138 146.684C784.38 146.684 783.758 146.292 783.396 145.721V148.207C783.396 148.499 783.181 148.734 782.864 148.734C782.547 148.734 782.332 148.498 782.332 148.207V142.125C782.332 141.834 782.513 141.598 782.841 141.598C783.169 141.598 783.362 141.845 783.362 142.136V142.517C783.701 141.935 784.38 141.554 785.138 141.554C786.44 141.554 787.503 142.629 787.503 144.119C787.503 145.664 786.44 146.684 785.138 146.684ZM784.923 142.427C784.007 142.427 783.396 143.222 783.396 144.119C783.396 145.015 784.007 145.81 784.923 145.81C785.84 145.81 786.44 145.127 786.44 144.119C786.44 143.111 785.84 142.427 784.923 142.427Z" fill="#4284FB"/>
<path d="M793.107 146.113C793.107 146.404 792.904 146.639 792.576 146.639C792.259 146.639 792.055 146.404 792.055 146.113V145.866C791.738 146.337 791.139 146.684 790.403 146.684C788.819 146.684 787.902 145.541 787.902 144.119C787.902 142.719 788.921 141.554 790.516 141.554C792.146 141.554 793.108 142.607 793.108 144.119V146.113H793.107ZM790.505 142.45C789.599 142.45 788.966 143.2 788.966 144.119C788.966 145.082 789.498 145.788 790.505 145.788C791.444 145.788 792.044 144.992 792.044 144.119C792.044 143.088 791.41 142.45 790.505 142.45Z" fill="#4284FB"/>
<path d="M796.314 141.554C797.684 141.554 798.691 142.584 798.691 143.895V146.113C798.691 146.404 798.453 146.639 798.159 146.639C797.865 146.639 797.627 146.404 797.627 146.113V143.771C797.627 143.066 797.061 142.517 796.314 142.517C795.568 142.517 795.013 143.066 795.013 143.771V146.113C795.013 146.404 794.775 146.639 794.481 146.639C794.187 146.639 793.949 146.404 793.949 146.113V143.895C793.949 142.584 794.945 141.554 796.314 141.554Z" fill="#4284FB"/>
<path d="M804.232 144.129C804.232 144.309 804.13 144.488 803.825 144.488H800.442C800.498 145.261 801.03 145.843 801.969 145.843C802.558 145.843 802.908 145.641 803.282 145.294C803.372 145.205 803.497 145.126 803.633 145.126C803.87 145.126 804.074 145.294 804.074 145.563C804.074 145.675 804.017 145.776 803.938 145.865C803.508 146.358 802.739 146.683 801.924 146.683C800.238 146.683 799.344 145.518 799.344 144.118C799.344 142.65 800.419 141.553 801.878 141.553C803.305 141.553 804.232 142.696 804.232 144.129ZM801.879 142.393C801.098 142.393 800.566 142.942 800.464 143.637H803.248C803.157 142.964 802.648 142.393 801.879 142.393Z" fill="#4284FB"/>
<path d="M805.469 146.639C805.152 146.639 804.938 146.404 804.938 146.113V139.526C804.938 139.235 805.153 139 805.469 139C805.786 139 806.001 139.235 806.001 139.526V146.113C806.001 146.404 805.786 146.639 805.469 146.639Z" fill="#4284FB"/>
<path d="M763.23 340H764.826V336.532H765.846L768.09 340H769.818L767.406 336.292C768.474 336.016 769.314 335.332 769.314 333.988V333.94C769.314 332.188 767.994 331.42 766.11 331.42H763.23V340ZM764.826 335.392V332.656H766.11C767.13 332.656 767.742 332.992 767.742 333.976V334.024C767.742 334.936 767.178 335.392 766.11 335.392H764.826ZM773.499 340.12C775.107 340.12 776.175 339.4 776.379 338.08H774.975C774.867 338.692 774.411 339.04 773.535 339.04C772.455 339.04 771.855 338.368 771.807 337.18H776.403V336.76C776.403 334.516 774.999 333.592 773.439 333.592C771.651 333.592 770.319 334.888 770.319 336.832V336.928C770.319 338.908 771.651 340.12 773.499 340.12ZM771.831 336.208C771.975 335.236 772.563 334.648 773.439 334.648C774.339 334.648 774.891 335.128 774.963 336.208H771.831ZM780.052 340.12C780.976 340.12 781.78 339.568 782.116 338.944V340H783.568V330.82H782.116V334.684C781.768 334.06 781.132 333.592 780.112 333.592C778.48 333.592 777.292 334.864 777.292 336.868V336.964C777.292 339.004 778.48 340.12 780.052 340.12ZM780.412 338.968C779.476 338.968 778.78 338.308 778.78 336.928V336.832C778.78 335.476 779.404 334.732 780.472 334.732C781.528 334.732 782.164 335.416 782.164 336.796V336.892C782.164 338.296 781.42 338.968 780.412 338.968ZM787.442 340.12C789.05 340.12 789.95 339.388 789.95 338.116C789.95 336.784 789.074 336.424 787.598 336.196C786.602 336.028 786.302 335.848 786.302 335.392C786.302 334.948 786.674 334.648 787.298 334.648C787.97 334.648 788.294 334.912 788.414 335.488H789.758C789.602 334.072 788.582 333.592 787.298 333.592C786.122 333.592 784.946 334.216 784.946 335.476C784.946 336.652 785.558 337.12 787.214 337.384C788.138 337.54 788.558 337.732 788.558 338.248C788.558 338.776 788.21 339.052 787.43 339.052C786.578 339.052 786.254 338.68 786.182 338.044H784.814C784.874 339.376 785.822 340.12 787.442 340.12ZM791.223 340H792.675V336.304C792.675 335.308 793.335 334.804 794.151 334.804C795.015 334.804 795.399 335.236 795.399 336.184V340H796.851V336.052C796.851 334.324 795.963 333.592 794.703 333.592C793.671 333.592 792.975 334.108 792.675 334.72V330.82H791.223V340ZM798.56 340H800.012V333.724H798.56V340ZM799.268 332.692C799.748 332.692 800.132 332.332 800.132 331.864C800.132 331.384 799.748 331.024 799.268 331.024C798.788 331.024 798.404 331.384 798.404 331.864C798.404 332.332 798.788 332.692 799.268 332.692ZM802.034 340H803.486V334.816H804.914V333.724H803.486V332.824C803.486 332.284 803.726 331.9 804.314 331.9C804.578 331.9 804.806 331.948 804.974 332.008V330.88C804.71 330.796 804.494 330.76 804.146 330.76C802.802 330.76 802.034 331.504 802.034 332.884V333.724H801.182V334.816H802.034V340ZM808.324 340.108C808.768 340.108 809.08 340.036 809.308 339.952V338.8C809.104 338.884 808.888 338.92 808.6 338.92C808.144 338.92 807.88 338.668 807.88 338.116V334.816H809.26V333.724H807.88V332.344H806.428V333.724H805.588V334.816H806.428V338.248C806.428 339.436 807.076 340.108 808.324 340.108Z" fill="#9395A4"/>
<g filter="url(#filter6_d)">
<rect x="758" y="266" width="56" height="56" rx="10" fill="#090C24"/>
<rect x="758.5" y="266.5" width="55" height="55" rx="9.5" stroke="#2F3244"/>
</g>
<path d="M785.88 310C780.632 310 775 308.464 775 305.648V282.352H776.28V305.648C776.28 306.928 779.928 308.72 785.88 308.72C791.832 308.72 795.48 306.928 795.48 305.648V282.352H796.76V305.648C796.76 308.464 791.128 310 785.88 310Z" fill="#D9D6EF"/>
<path d="M785.88 310C780.632 310 775 308.464 775 305.648V282.352H776.28V305.648C776.28 306.928 779.928 308.72 785.88 308.72C791.832 308.72 795.48 306.928 795.48 305.648V282.352H796.76V305.648C796.76 308.464 791.128 310 785.88 310Z" fill="#D9D6EF"/>
<path d="M785.88 286.704C780.632 286.704 775 285.168 775 282.352C775 279.536 780.632 278 785.88 278C791.128 278 796.76 279.536 796.76 282.352C796.76 285.168 791.128 286.704 785.88 286.704ZM785.88 279.28C779.928 279.28 776.28 281.072 776.28 282.352C776.28 283.632 779.928 285.424 785.88 285.424C791.832 285.424 795.48 283.632 795.48 282.352C795.48 281.072 791.832 279.28 785.88 279.28Z" fill="#D9D6EF"/>
<path d="M784.056 295.24L783.772 296.488L787.642 297.367L787.925 296.119L784.056 295.24Z" fill="#D9D6EF"/>
<path d="M790.979 291.407L789.498 295.157L790.689 295.627L792.169 291.877L790.979 291.407Z" fill="#D9D6EF"/>
<path d="M781.156 296.758L779.85 299.82L781.027 300.322L782.333 297.261L781.156 296.758Z" fill="#D9D6EF"/>
<path d="M779.8 303.792C778.584 303.792 777.56 302.768 777.56 301.552C777.56 300.336 778.584 299.312 779.8 299.312C781.016 299.312 782.04 300.336 782.04 301.552C782.04 302.768 781.016 303.792 779.8 303.792ZM779.8 300.592C779.288 300.592 778.84 301.04 778.84 301.552C778.84 302.064 779.288 302.512 779.8 302.512C780.312 302.512 780.76 302.064 780.76 301.552C780.76 301.04 780.312 300.592 779.8 300.592Z" fill="#D9D6EF"/>
<path d="M782.36 297.776C781.144 297.776 780.12 296.752 780.12 295.536C780.12 294.32 781.144 293.296 782.36 293.296C783.576 293.296 784.6 294.32 784.6 295.536C784.6 296.752 783.576 297.776 782.36 297.776ZM782.36 294.576C781.848 294.576 781.4 295.024 781.4 295.536C781.4 296.048 781.848 296.496 782.36 296.496C782.872 296.496 783.32 296.048 783.32 295.536C783.32 295.024 782.872 294.576 782.36 294.576Z" fill="#D9D6EF"/>
<path d="M789.4 299.12C788.184 299.12 787.16 298.096 787.16 296.88C787.16 295.664 788.184 294.64 789.4 294.64C790.616 294.64 791.64 295.664 791.64 296.88C791.64 298.096 790.616 299.12 789.4 299.12ZM789.4 295.92C788.888 295.92 788.44 296.368 788.44 296.88C788.44 297.392 788.888 297.84 789.4 297.84C789.912 297.84 790.36 297.392 790.36 296.88C790.36 296.368 789.912 295.92 789.4 295.92Z" fill="#D9D6EF"/>
<path d="M791.96 292.4C790.744 292.4 789.72 291.376 789.72 290.16C789.72 288.944 790.744 287.92 791.96 287.92C793.176 287.92 794.2 288.944 794.2 290.16C794.2 291.376 793.176 292.4 791.96 292.4ZM791.96 289.2C791.448 289.2 791 289.648 791 290.16C791 290.672 791.448 291.12 791.96 291.12C792.472 291.12 792.92 290.736 792.92 290.16C792.92 289.648 792.536 289.2 791.96 289.2C791.96 289.2 791.96 289.136 791.96 289.2Z" fill="#D9D6EF"/>
<path d="M756.418 489H757.918L758.59 486.876H761.866L762.55 489H764.206L761.374 480.42H759.286L756.418 489ZM760.234 481.728L761.494 485.712H758.962L760.234 481.728ZM765.395 489H766.847V485.244C766.847 484.284 767.507 483.804 768.227 483.804C768.935 483.804 769.343 484.2 769.343 485.124V489H770.795V485.244C770.795 484.284 771.455 483.804 772.175 483.804C772.895 483.804 773.291 484.2 773.291 485.124V489H774.743V485.028C774.743 483.3 773.807 482.592 772.655 482.592C771.875 482.592 771.011 482.94 770.531 483.72C770.219 482.94 769.571 482.592 768.755 482.592C767.831 482.592 767.147 483.096 766.847 483.684V482.724H765.395V489ZM776.411 491.148H777.863V488.016C778.199 488.628 778.919 489.12 779.915 489.12C781.535 489.12 782.699 487.896 782.699 485.88V485.784C782.699 483.756 781.487 482.592 779.915 482.592C778.991 482.592 778.211 483.132 777.863 483.732V482.724H776.411V491.148ZM779.555 487.968C778.499 487.968 777.815 487.308 777.815 485.904V485.808C777.815 484.416 778.535 483.732 779.543 483.732C780.491 483.732 781.211 484.416 781.211 485.808V485.904C781.211 487.248 780.623 487.968 779.555 487.968ZM784.041 489H785.493V479.82H784.041V489ZM787.298 489H788.75V482.724H787.298V489ZM788.006 481.692C788.486 481.692 788.87 481.332 788.87 480.864C788.87 480.384 788.486 480.024 788.006 480.024C787.526 480.024 787.142 480.384 787.142 480.864C787.142 481.332 787.526 481.692 788.006 481.692ZM792.656 489.108C793.1 489.108 793.412 489.036 793.64 488.952V487.8C793.436 487.884 793.22 487.92 792.932 487.92C792.476 487.92 792.212 487.668 792.212 487.116V483.816H793.592V482.724H792.212V481.344H790.76V482.724H789.92V483.816H790.76V487.248C790.76 488.436 791.408 489.108 792.656 489.108ZM797.05 489.12C798.07 489.12 798.73 488.628 799.042 488.016V489H800.494V482.724H799.042V486.456C799.042 487.452 798.358 487.956 797.578 487.956C796.738 487.956 796.342 487.524 796.342 486.576V482.724H794.89V486.744C794.89 488.412 795.814 489.12 797.05 489.12ZM804.568 489.12C805.492 489.12 806.296 488.568 806.632 487.944V489H808.084V479.82H806.632V483.684C806.284 483.06 805.648 482.592 804.628 482.592C802.996 482.592 801.808 483.864 801.808 485.868V485.964C801.808 488.004 802.996 489.12 804.568 489.12ZM804.928 487.968C803.992 487.968 803.296 487.308 803.296 485.928V485.832C803.296 484.476 803.92 483.732 804.988 483.732C806.044 483.732 806.68 484.416 806.68 485.796V485.892C806.68 487.296 805.936 487.968 804.928 487.968ZM812.569 489.12C814.177 489.12 815.245 488.4 815.449 487.08H814.045C813.937 487.692 813.481 488.04 812.605 488.04C811.525 488.04 810.925 487.368 810.877 486.18H815.473V485.76C815.473 483.516 814.069 482.592 812.509 482.592C810.721 482.592 809.389 483.888 809.389 485.832V485.928C809.389 487.908 810.721 489.12 812.569 489.12ZM810.901 485.208C811.045 484.236 811.633 483.648 812.509 483.648C813.409 483.648 813.961 484.128 814.033 485.208H810.901Z" fill="#9395A4"/>
<g filter="url(#filter7_d)">
<rect x="758" y="415" width="56" height="56" rx="10" fill="#090C24"/>
<rect x="758.5" y="415.5" width="55" height="55" rx="9.5" stroke="#2F3244"/>
</g>
<path d="M784.104 434.203C784.014 434.087 783.911 434.023 783.802 434.023C783.719 434.03 783.641 434.055 783.571 434.1C782.716 434.769 781.553 437.602 780.596 441.342L781.444 441.348C783.115 441.368 784.837 441.387 786.546 441.413C786.096 439.704 785.672 438.238 785.28 437.05C784.708 435.321 784.329 434.55 784.104 434.203Z" fill="#00A7CF"/>
<path fill-rule="evenodd" clip-rule="evenodd" d="M770 443C770 434.165 777.165 427 786 427C794.835 427 802 434.165 802 443C802 451.835 794.835 459 786 459C777.165 459 770 451.835 770 443ZM797.444 443.328L797.502 443.289C797.656 443.167 797.765 442.994 797.81 442.801C797.907 442.345 797.605 441.895 797.149 441.805H797.142H797.129H797.116C797.111 441.804 797.106 441.803 797.101 441.803C797.063 441.797 797.028 441.792 796.988 441.792L796.872 441.779C794.186 441.586 791.436 441.509 788.847 441.458L788.84 441.439C787.581 436.716 786.006 431.89 783.886 431.89C781.907 431.896 780.127 435.071 778.591 441.316C777.505 441.304 776.509 441.291 775.578 441.271H775.436C775.32 441.265 775.205 441.271 775.089 441.284C774.562 441.381 774.177 441.843 774.183 442.377C774.183 442.923 774.588 443.392 775.128 443.476L775.141 443.488H778.096C777.82 444.735 777.582 445.975 777.383 447.164L777.293 447.691V447.716C777.293 447.967 777.422 448.198 777.634 448.333C777.974 448.552 778.431 448.449 778.649 448.108L778.668 448.128L780.114 443.495H787.092C787.626 445.512 788.178 447.588 788.911 449.541L788.912 449.544C789.304 450.593 790.217 453.031 791.745 453.043H791.764C794.129 453.043 795.054 449.22 795.664 446.688C795.689 446.587 795.714 446.488 795.737 446.392C795.84 445.972 795.929 445.609 796.018 445.326L796.063 445.185C796.127 444.992 796.024 444.786 795.831 444.722C795.639 444.658 795.433 444.761 795.369 444.953L795.317 445.095C795.218 445.374 795.121 445.644 795.029 445.903C794.937 446.161 794.848 446.409 794.765 446.643L794.752 446.676L794.729 446.74C793.717 449.593 793.254 450.897 792.342 450.897H792.316H792.304H792.278C791.11 450.897 790.018 446.193 789.594 444.366L789.586 444.33C789.546 444.16 789.507 443.995 789.47 443.839C789.441 443.714 789.412 443.594 789.386 443.482H796.962C797.097 443.482 797.232 443.45 797.354 443.386L797.386 443.366L797.425 443.341L797.444 443.328Z" fill="#00A7CF"/>
</g>
<path d="M555 372C555 372.6 554.6 373 554 373C553.4 373 553 372.6 553 372C553 371.4 553.4 371 554 371C554.6 371 555 371.4 555 372Z" fill="white"/>
<path d="M560.5 368C562.985 368 565 365.985 565 363.5C565 361.015 562.985 359 560.5 359C558.015 359 556 361.015 556 363.5C556 365.985 558.015 368 560.5 368Z" stroke="white" stroke-width="2" stroke-miterlimit="10"/>
<path d="M556 370.5C557.4 369.5 559.1 369 561 369C566 369 570 373 570 378" stroke="white" stroke-width="2" stroke-miterlimit="10"/>
<path d="M552 378C552 376.6 552.3 375.2 552.9 374" stroke="white" stroke-width="2" stroke-miterlimit="10"/>
<path d="M579 372C579 372.6 578.6 373 578 373C577.4 373 577 372.6 577 372C577 371.4 577.4 371 578 371C578.6 371 579 371.4 579 372Z" fill="white"/>
<path d="M584.5 368C586.985 368 589 365.985 589 363.5C589 361.015 586.985 359 584.5 359C582.015 359 580 361.015 580 363.5C580 365.985 582.015 368 584.5 368Z" stroke="white" stroke-width="2" stroke-miterlimit="10"/>
<path d="M580 370.5C581.4 369.5 583.1 369 585 369C590 369 594 373 594 378" stroke="white" stroke-width="2" stroke-miterlimit="10"/>
<path d="M576 378C576 376.6 576.3 375.2 576.9 374" stroke="white" stroke-width="2" stroke-miterlimit="10"/>
<path d="M603 372C603 372.6 602.6 373 602 373C601.4 373 601 372.6 601 372C601 371.4 601.4 371 602 371C602.6 371 603 371.4 603 372Z" fill="white"/>
<path d="M608.5 368C610.985 368 613 365.985 613 363.5C613 361.015 610.985 359 608.5 359C606.015 359 604 361.015 604 363.5C604 365.985 606.015 368 608.5 368Z" stroke="white" stroke-width="2" stroke-miterlimit="10"/>
<path d="M604 370.5C605.4 369.5 607.1 369 609 369C614 369 618 373 618 378" stroke="white" stroke-width="2" stroke-miterlimit="10"/>
<path d="M600 378C600 376.6 600.3 375.2 600.9 374" stroke="white" stroke-width="2" stroke-miterlimit="10"/>
<path d="M467.223 375H469.477V371.136H470.457L472.851 375H475.259L472.613 370.744C473.789 370.394 474.671 369.596 474.671 368.084V368.028C474.671 365.956 473.173 364.99 470.807 364.99H467.223V375ZM469.477 369.596V366.726H470.751C471.843 366.726 472.459 367.076 472.459 368.098V368.154C472.459 369.12 471.885 369.596 470.751 369.596H469.477ZM479.547 375.154C481.549 375.154 482.809 374.272 483.047 372.69H481.129C481.003 373.306 480.541 373.712 479.603 373.712C478.497 373.712 477.839 373.012 477.783 371.794H483.061V371.234C483.061 368.616 481.381 367.51 479.491 367.51C477.363 367.51 475.725 369.008 475.725 371.318V371.43C475.725 373.768 477.335 375.154 479.547 375.154ZM477.811 370.548C477.965 369.512 478.581 368.91 479.491 368.91C480.457 368.91 481.017 369.442 481.087 370.548H477.811ZM487.119 375.154C489.051 375.154 490.199 374.328 490.199 372.746C490.199 371.178 489.191 370.716 487.357 370.45C486.293 370.296 485.943 370.114 485.943 369.652C485.943 369.204 486.321 368.896 486.979 368.896C487.678 368.896 488.015 369.176 488.127 369.778H489.989C489.807 368.098 488.589 367.51 486.965 367.51C485.467 367.51 484.067 368.266 484.067 369.792C484.067 371.22 484.823 371.78 486.769 372.074C487.819 372.228 488.253 372.438 488.253 372.942C488.253 373.446 487.889 373.74 487.105 373.74C486.223 373.74 485.901 373.362 485.817 372.704H483.927C483.997 374.286 485.145 375.154 487.119 375.154ZM494.902 373.614C493.754 373.614 493.11 372.774 493.11 371.374V371.262C493.11 369.862 493.782 369.05 494.902 369.05C496.036 369.05 496.694 369.89 496.694 371.29V371.388C496.694 372.774 496.036 373.614 494.902 373.614ZM494.888 375.154C497.086 375.154 498.752 373.684 498.752 371.374V371.262C498.752 368.98 497.1 367.51 494.902 367.51C492.704 367.51 491.038 369.008 491.038 371.304V371.416C491.038 373.698 492.704 375.154 494.888 375.154ZM500.169 375H502.185V364.36H500.169V375ZM506.011 375H508.293L510.953 367.678H508.993L507.257 372.914L505.507 367.678H503.337L506.011 375ZM515.067 375.154C517.069 375.154 518.329 374.272 518.567 372.69H516.649C516.523 373.306 516.061 373.712 515.123 373.712C514.017 373.712 513.359 373.012 513.303 371.794H518.581V371.234C518.581 368.616 516.901 367.51 515.011 367.51C512.883 367.51 511.245 369.008 511.245 371.318V371.43C511.245 373.768 512.855 375.154 515.067 375.154ZM513.331 370.548C513.485 369.512 514.101 368.91 515.011 368.91C515.977 368.91 516.537 369.442 516.607 370.548H513.331ZM523.251 375H525.533V364.99H523.251V375ZM530.016 373.236V366.754H530.912C533.026 366.754 533.908 367.86 533.908 369.918V370.03C533.908 372.102 532.956 373.236 530.94 373.236H530.016ZM527.748 375H531.01C534.524 375 536.274 372.998 536.274 370.002V369.89C536.274 366.894 534.538 364.99 531.024 364.99H527.748V375ZM540.384 375.154C542.316 375.154 543.464 374.328 543.464 372.746C543.464 371.178 542.456 370.716 540.622 370.45C539.558 370.296 539.208 370.114 539.208 369.652C539.208 369.204 539.586 368.896 540.244 368.896C540.944 368.896 541.28 369.176 541.392 369.778H543.254C543.072 368.098 541.854 367.51 540.23 367.51C538.732 367.51 537.332 368.266 537.332 369.792C537.332 371.22 538.088 371.78 540.034 372.074C541.084 372.228 541.518 372.438 541.518 372.942C541.518 373.446 541.154 373.74 540.37 373.74C539.488 373.74 539.166 373.362 539.082 372.704H537.192C537.262 374.286 538.41 375.154 540.384 375.154Z" fill="white"/>
<defs>
<filter id="filter0_d" x="0" y="113" width="248" height="422" filterUnits="userSpaceOnUse" color-interpolation-filters="sRGB">
<feFlood flood-opacity="0" result="BackgroundImageFix"/>
<feColorMatrix in="SourceAlpha" type="matrix" values="0 0 0 0 0 0 0 0 0 0 0 0 0 0 0 0 0 0 127 0"/>
<feOffset dy="24"/>
<feGaussianBlur stdDeviation="8"/>
<feColorMatrix type="matrix" values="0 0 0 0 0 0 0 0 0 0 0 0 0 0 0 0 0 0 0.16 0"/>
<feBlend mode="normal" in2="BackgroundImageFix" result="effect1_dropShadow"/>
<feBlend mode="normal" in="SourceGraphic" in2="effect1_dropShadow" result="shape"/>
</filter>
<filter id="filter1_d" x="21" y="130" width="206" height="316" filterUnits="userSpaceOnUse" color-interpolation-filters="sRGB">
<feFlood flood-opacity="0" result="BackgroundImageFix"/>
<feColorMatrix in="SourceAlpha" type="matrix" values="0 0 0 0 0 0 0 0 0 0 0 0 0 0 0 0 0 0 127 0"/>
<feOffset dy="24"/>
<feGaussianBlur stdDeviation="8"/>
<feColorMatrix type="matrix" values="0 0 0 0 0 0 0 0 0 0 0 0 0 0 0 0 0 0 0.16 0"/>
<feBlend mode="normal" in2="BackgroundImageFix" result="effect1_dropShadow"/>
<feBlend mode="normal" in="SourceGraphic" in2="effect1_dropShadow" result="shape"/>
</filter>
<filter id="filter2_d" x="325" y="398" width="194" height="136" filterUnits="userSpaceOnUse" color-interpolation-filters="sRGB">
<feFlood flood-opacity="0" result="BackgroundImageFix"/>
<feColorMatrix in="SourceAlpha" type="matrix" values="0 0 0 0 0 0 0 0 0 0 0 0 0 0 0 0 0 0 127 0"/>
<feOffset dy="24"/>
<feGaussianBlur stdDeviation="8"/>
<feColorMatrix type="matrix" values="0 0 0 0 0 0 0 0 0 0 0 0 0 0 0 0 0 0 0.16 0"/>
<feBlend mode="normal" in2="BackgroundImageFix" result="effect1_dropShadow"/>
<feBlend mode="normal" in="SourceGraphic" in2="effect1_dropShadow" result="shape"/>
</filter>
<filter id="filter3_d" x="372" y="413" width="101" height="107" filterUnits="userSpaceOnUse" color-interpolation-filters="sRGB">
<feFlood flood-opacity="0" result="BackgroundImageFix"/>
<feColorMatrix in="SourceAlpha" type="matrix" values="0 0 0 0 0 0 0 0 0 0 0 0 0 0 0 0 0 0 127 0"/>
<feOffset dy="24"/>
<feGaussianBlur stdDeviation="8"/>
<feColorMatrix type="matrix" values="0 0 0 0 0 0 0 0 0 0 0 0 0 0 0 0 0 0 0.16 0"/>
<feBlend mode="normal" in2="BackgroundImageFix" result="effect1_dropShadow"/>
<feBlend mode="normal" in="SourceGraphic" in2="effect1_dropShadow" result="shape"/>
</filter>
<filter id="filter4_d" x="324" y="247" width="195" height="136" filterUnits="userSpaceOnUse" color-interpolation-filters="sRGB">
<feFlood flood-opacity="0" result="BackgroundImageFix"/>
<feColorMatrix in="SourceAlpha" type="matrix" values="0 0 0 0 0 0 0 0 0 0 0 0 0 0 0 0 0 0 127 0"/>
<feOffset dy="24"/>
<feGaussianBlur stdDeviation="8"/>
<feColorMatrix type="matrix" values="0 0 0 0 0 0 0 0 0 0 0 0 0 0 0 0 0 0 0.16 0"/>
<feBlend mode="normal" in2="BackgroundImageFix" result="effect1_dropShadow"/>
<feBlend mode="normal" in="SourceGraphic" in2="effect1_dropShadow" result="shape"/>
</filter>
<filter id="filter5_d" x="742" y="117" width="88" height="96" filterUnits="userSpaceOnUse" color-interpolation-filters="sRGB">
<feFlood flood-opacity="0" result="BackgroundImageFix"/>
<feColorMatrix in="SourceAlpha" type="matrix" values="0 0 0 0 0 0 0 0 0 0 0 0 0 0 0 0 0 0 127 0"/>
<feOffset dy="24"/>
<feGaussianBlur stdDeviation="8"/>
<feColorMatrix type="matrix" values="0 0 0 0 0 0 0 0 0 0 0 0 0 0 0 0 0 0 0.16 0"/>
<feBlend mode="normal" in2="BackgroundImageFix" result="effect1_dropShadow"/>
<feBlend mode="normal" in="SourceGraphic" in2="effect1_dropShadow" result="shape"/>
</filter>
<filter id="filter6_d" x="742" y="266" width="88" height="96" filterUnits="userSpaceOnUse" color-interpolation-filters="sRGB">
<feFlood flood-opacity="0" result="BackgroundImageFix"/>
<feColorMatrix in="SourceAlpha" type="matrix" values="0 0 0 0 0 0 0 0 0 0 0 0 0 0 0 0 0 0 127 0"/>
<feOffset dy="24"/>
<feGaussianBlur stdDeviation="8"/>
<feColorMatrix type="matrix" values="0 0 0 0 0 0 0 0 0 0 0 0 0 0 0 0 0 0 0.16 0"/>
<feBlend mode="normal" in2="BackgroundImageFix" result="effect1_dropShadow"/>
<feBlend mode="normal" in="SourceGraphic" in2="effect1_dropShadow" result="shape"/>
</filter>
<filter id="filter7_d" x="742" y="415" width="88" height="96" filterUnits="userSpaceOnUse" color-interpolation-filters="sRGB">
<feFlood flood-opacity="0" result="BackgroundImageFix"/>
<feColorMatrix in="SourceAlpha" type="matrix" values="0 0 0 0 0 0 0 0 0 0 0 0 0 0 0 0 0 0 127 0"/>
<feOffset dy="24"/>
<feGaussianBlur stdDeviation="8"/>
<feColorMatrix type="matrix" values="0 0 0 0 0 0 0 0 0 0 0 0 0 0 0 0 0 0 0.16 0"/>
<feBlend mode="normal" in2="BackgroundImageFix" result="effect1_dropShadow"/>
<feBlend mode="normal" in="SourceGraphic" in2="effect1_dropShadow" result="shape"/>
</filter>
<linearGradient id="paint0_linear" x1="420.842" y1="332" x2="401.368" y2="407.138" gradientUnits="userSpaceOnUse">
<stop stop-color="white" stop-opacity="0"/>
<stop offset="0.502244" stop-color="white"/>
<stop offset="1" stop-color="white" stop-opacity="0"/>
</linearGradient>
<linearGradient id="paint1_linear" x1="115" y1="248" x2="133.479" y2="250.623" gradientUnits="userSpaceOnUse">
<stop stop-color="#957BFC"/>
<stop offset="1" stop-color="#6876F6"/>
</linearGradient>
<linearGradient id="paint2_linear" x1="115" y1="258" x2="132.445" y2="262.953" gradientUnits="userSpaceOnUse">
<stop stop-color="#957BFC"/>
<stop offset="1" stop-color="#6876F6"/>
</linearGradient>
<linearGradient id="paint3_linear" x1="115" y1="251" x2="133.805" y2="251.942" gradientUnits="userSpaceOnUse">
<stop stop-color="#957BFC"/>
<stop offset="1" stop-color="#6876F6"/>
</linearGradient>
<linearGradient id="paint4_linear" x1="158" y1="176" x2="341.656" y2="266.915" gradientUnits="userSpaceOnUse">
<stop stop-color="white" stop-opacity="0"/>
<stop offset="0.502244" stop-color="white"/>
<stop offset="1" stop-color="white" stop-opacity="0"/>
</linearGradient>
<linearGradient id="paint5_linear" x1="562.966" y1="473.314" x2="764" y2="473.314" gradientUnits="userSpaceOnUse">
<stop stop-color="white" stop-opacity="0"/>
<stop offset="0.552083" stop-color="white" stop-opacity="0.5"/>
<stop offset="0.932292" stop-color="white" stop-opacity="0"/>
</linearGradient>
<linearGradient id="paint6_linear" x1="439.318" y1="297.193" x2="764" y2="297.193" gradientUnits="userSpaceOnUse">
<stop stop-color="white" stop-opacity="0"/>
<stop offset="0.552083" stop-color="white" stop-opacity="0.5"/>
<stop offset="0.932292" stop-color="white" stop-opacity="0"/>
</linearGradient>
<linearGradient id="paint7_linear" x1="562.966" y1="116.879" x2="764" y2="116.879" gradientUnits="userSpaceOnUse">
<stop stop-color="white" stop-opacity="0"/>
<stop offset="0.552083" stop-color="white" stop-opacity="0.5"/>
<stop offset="0.932292" stop-color="white" stop-opacity="0"/>
</linearGradient>
<clipPath id="clip0">
<rect width="312" height="520" fill="white" transform="matrix(-1 0 0 1 814 29)"/>
</clipPath>
<clipPath id="clip1">
<rect width="24" height="324" fill="white" transform="matrix(-1 0 0 1 749 134)"/>
</clipPath>
<clipPath id="clip2">
<rect width="72" height="374" fill="white" transform="translate(750 117)"/>
</clipPath>
</defs>
</svg>
