<svg width="846" height="428" viewBox="0 0 846 428" fill="none" xmlns="http://www.w3.org/2000/svg">
<rect width="200" height="418" rx="10" fill="#352446"/>
<rect width="200" height="418" rx="10" fill="#22243A"/>
<path d="M44.793 383.154C47.257 383.154 49.035 381.88 49.287 379.402H47.061C46.879 380.69 46.011 381.32 44.765 381.32C43.113 381.32 42.161 380.116 42.161 378.044V377.932C42.161 375.86 43.169 374.628 44.751 374.628C46.011 374.628 46.683 375.272 46.851 376.476H49.175C48.937 374.012 47.145 372.836 44.737 372.836C41.895 372.836 39.767 374.908 39.767 377.946V378.058C39.767 381.138 41.517 383.154 44.793 383.154ZM50.7577 383H53.0117V379.36H54.2857C56.5677 379.36 58.0377 378.352 58.0377 376.238V376.182C58.0377 374.068 56.6517 372.99 54.2157 372.99H50.7577V383ZM53.0117 377.778V374.712H54.1597C55.2377 374.712 55.8537 375.132 55.8537 376.196V376.252C55.8537 377.246 55.2657 377.778 54.1597 377.778H53.0117ZM63.5674 383.154C66.2694 383.154 67.7954 381.74 67.7954 379.01V372.99H65.5134V378.87C65.5134 380.704 64.9254 381.348 63.5814 381.348C62.2094 381.348 61.7194 380.62 61.7194 378.954V372.99H59.4374V379.094C59.4374 381.754 60.9354 383.154 63.5674 383.154Z" fill="white"/>
<rect x="538" width="308" height="418" rx="10" fill="#352446"/>
<rect x="538" width="308" height="418" rx="10" fill="#090C24"/>
<path d="M642.08 57.216C646.496 57.216 648.992 54.072 648.992 48.432V47.544C648.992 42.6 646.784 39.576 642.296 39.576C638.384 39.576 635.936 41.952 635.936 45.456C635.936 48.84 638.312 51.024 641.624 51.024C643.664 51.024 645.056 50.16 645.848 48.864C645.8 52.776 644.48 54.744 642.032 54.744C640.184 54.744 639.392 53.88 639.08 52.536H636.08C636.488 55.488 638.576 57.216 642.08 57.216ZM642.296 48.792C640.328 48.792 639.08 47.424 639.08 45.36C639.08 43.32 640.352 41.952 642.272 41.952C644.24 41.952 645.608 43.296 645.608 45.6C645.608 47.496 644.24 48.792 642.296 48.792ZM657.244 57.216C661.66 57.216 664.156 54.072 664.156 48.432V47.544C664.156 42.6 661.948 39.576 657.46 39.576C653.548 39.576 651.1 41.952 651.1 45.456C651.1 48.84 653.476 51.024 656.788 51.024C658.828 51.024 660.22 50.16 661.012 48.864C660.964 52.776 659.644 54.744 657.196 54.744C655.348 54.744 654.556 53.88 654.244 52.536H651.244C651.652 55.488 653.74 57.216 657.244 57.216ZM657.46 48.792C655.492 48.792 654.244 47.424 654.244 45.36C654.244 43.32 655.516 41.952 657.436 41.952C659.404 41.952 660.772 43.296 660.772 45.6C660.772 47.496 659.404 48.792 657.46 48.792ZM667.538 57.168C668.618 57.168 669.458 56.352 669.458 55.296C669.458 54.24 668.618 53.4 667.538 53.4C666.482 53.4 665.642 54.24 665.642 55.296C665.642 56.352 666.482 57.168 667.538 57.168ZM677.541 57.216C681.957 57.216 684.453 54.072 684.453 48.432V47.544C684.453 42.6 682.245 39.576 677.757 39.576C673.845 39.576 671.397 41.952 671.397 45.456C671.397 48.84 673.773 51.024 677.085 51.024C679.125 51.024 680.517 50.16 681.309 48.864C681.261 52.776 679.941 54.744 677.493 54.744C675.645 54.744 674.853 53.88 674.541 52.536H671.541C671.949 55.488 674.037 57.216 677.541 57.216ZM677.757 48.792C675.789 48.792 674.541 47.424 674.541 45.36C674.541 43.32 675.813 41.952 677.733 41.952C679.701 41.952 681.069 43.296 681.069 45.6C681.069 47.496 679.701 48.792 677.757 48.792ZM692.705 57.216C697.121 57.216 699.617 54.072 699.617 48.432V47.544C699.617 42.6 697.409 39.576 692.921 39.576C689.009 39.576 686.561 41.952 686.561 45.456C686.561 48.84 688.937 51.024 692.249 51.024C694.289 51.024 695.681 50.16 696.473 48.864C696.425 52.776 695.105 54.744 692.657 54.744C690.809 54.744 690.017 53.88 689.705 52.536H686.705C687.113 55.488 689.201 57.216 692.705 57.216ZM692.921 48.792C690.953 48.792 689.705 47.424 689.705 45.36C689.705 43.32 690.977 41.952 692.897 41.952C694.865 41.952 696.233 43.296 696.233 45.6C696.233 47.496 694.865 48.792 692.921 48.792ZM707.869 57.216C712.285 57.216 714.781 54.072 714.781 48.432V47.544C714.781 42.6 712.573 39.576 708.085 39.576C704.173 39.576 701.725 41.952 701.725 45.456C701.725 48.84 704.101 51.024 707.413 51.024C709.453 51.024 710.845 50.16 711.637 48.864C711.589 52.776 710.269 54.744 707.821 54.744C705.973 54.744 705.181 53.88 704.869 52.536H701.869C702.277 55.488 704.365 57.216 707.869 57.216ZM708.085 48.792C706.117 48.792 704.869 47.424 704.869 45.36C704.869 43.32 706.141 41.952 708.061 41.952C710.029 41.952 711.397 43.296 711.397 45.6C711.397 47.496 710.029 48.792 708.085 48.792ZM723.033 57.216C727.449 57.216 729.945 54.072 729.945 48.432V47.544C729.945 42.6 727.737 39.576 723.249 39.576C719.337 39.576 716.889 41.952 716.889 45.456C716.889 48.84 719.265 51.024 722.577 51.024C724.617 51.024 726.009 50.16 726.801 48.864C726.753 52.776 725.433 54.744 722.985 54.744C721.137 54.744 720.345 53.88 720.033 52.536H717.033C717.441 55.488 719.529 57.216 723.033 57.216ZM723.249 48.792C721.281 48.792 720.033 47.424 720.033 45.36C720.033 43.32 721.305 41.952 723.225 41.952C725.193 41.952 726.561 43.296 726.561 45.6C726.561 47.496 725.193 48.792 723.249 48.792ZM735.869 46.056C734.741 46.056 734.021 45.288 734.021 43.824C734.021 42.384 734.741 41.592 735.869 41.592C736.997 41.592 737.693 42.432 737.693 43.824C737.693 45.24 736.997 46.056 735.869 46.056ZM735.845 48C738.197 48 740.021 46.224 740.021 43.8C740.021 41.4 738.173 39.672 735.869 39.672C733.565 39.672 731.669 41.448 731.669 43.848C731.669 46.224 733.493 48 735.845 48ZM734.021 57H736.061L747.101 39.84H745.085L734.021 57ZM745.277 55.296C744.149 55.296 743.429 54.528 743.429 53.064C743.429 51.624 744.149 50.832 745.277 50.832C746.405 50.832 747.101 51.672 747.101 53.064C747.101 54.48 746.405 55.296 745.277 55.296ZM745.253 57.24C747.605 57.24 749.453 55.464 749.453 53.04C749.453 50.64 747.581 48.912 745.277 48.912C742.973 48.912 741.101 50.688 741.101 53.088C741.101 55.464 742.901 57.24 745.253 57.24Z" fill="#52BD95"/>
<path d="M675.202 81.12C676.222 81.12 676.882 80.628 677.194 80.016V81H678.646V74.724H677.194V78.456C677.194 79.452 676.51 79.956 675.73 79.956C674.89 79.956 674.494 79.524 674.494 78.576V74.724H673.042V78.744C673.042 80.412 673.966 81.12 675.202 81.12ZM680.368 83.148H681.82V80.016C682.156 80.628 682.876 81.12 683.872 81.12C685.492 81.12 686.656 79.896 686.656 77.88V77.784C686.656 75.756 685.444 74.592 683.872 74.592C682.948 74.592 682.168 75.132 681.82 75.732V74.724H680.368V83.148ZM683.512 79.968C682.456 79.968 681.772 79.308 681.772 77.904V77.808C681.772 76.416 682.492 75.732 683.5 75.732C684.448 75.732 685.168 76.416 685.168 77.808V77.904C685.168 79.248 684.58 79.968 683.512 79.968ZM690.098 81.108C690.542 81.108 690.854 81.036 691.082 80.952V79.8C690.878 79.884 690.662 79.92 690.374 79.92C689.918 79.92 689.654 79.668 689.654 79.116V75.816H691.034V74.724H689.654V73.344H688.202V74.724H687.362V75.816H688.202V79.248C688.202 80.436 688.85 81.108 690.098 81.108ZM692.427 81H693.879V74.724H692.427V81ZM693.135 73.692C693.615 73.692 693.999 73.332 693.999 72.864C693.999 72.384 693.615 72.024 693.135 72.024C692.655 72.024 692.271 72.384 692.271 72.864C692.271 73.332 692.655 73.692 693.135 73.692ZM695.649 81H697.101V77.244C697.101 76.284 697.761 75.804 698.481 75.804C699.189 75.804 699.597 76.2 699.597 77.124V81H701.049V77.244C701.049 76.284 701.709 75.804 702.429 75.804C703.149 75.804 703.545 76.2 703.545 77.124V81H704.997V77.028C704.997 75.3 704.061 74.592 702.909 74.592C702.129 74.592 701.265 74.94 700.785 75.72C700.473 74.94 699.825 74.592 699.009 74.592C698.085 74.592 697.401 75.096 697.101 75.684V74.724H695.649V81ZM709.425 81.12C711.033 81.12 712.101 80.4 712.305 79.08H710.901C710.793 79.692 710.337 80.04 709.461 80.04C708.381 80.04 707.781 79.368 707.733 78.18H712.329V77.76C712.329 75.516 710.925 74.592 709.365 74.592C707.577 74.592 706.245 75.888 706.245 77.832V77.928C706.245 79.908 707.577 81.12 709.425 81.12ZM707.757 77.208C707.901 76.236 708.489 75.648 709.365 75.648C710.265 75.648 710.817 76.128 710.889 77.208H707.757Z" fill="white"/>
<g clip-path="url(#clip0)">
<path fill-rule="evenodd" clip-rule="evenodd" d="M782.915 292.024L599.915 292.024L599.915 268.024L782.915 268.024L782.915 292.024Z" fill="url(#paint0_linear)"/>
</g>
<g clip-path="url(#clip1)">
<path fill-rule="evenodd" clip-rule="evenodd" d="M598.227 281.796L688.227 125.912L709.011 137.912L619.011 293.796L598.227 281.796Z" fill="url(#paint1_linear)"/>
<ellipse cx="611" cy="279" rx="6" ry="6" transform="rotate(180 611 279)" fill="#52BD94"/>
</g>
<g clip-path="url(#clip2)">
<path fill-rule="evenodd" clip-rule="evenodd" d="M763.999 293.955L720.749 219.044L677.499 144.133L698.284 132.133L784.784 281.955L763.999 293.955Z" fill="url(#paint2_linear)"/>
<circle cx="692.197" cy="148.151" r="6" transform="rotate(-60 692.197 148.151)" fill="#52BD94"/>
</g>
<circle cx="787.289" cy="278.999" r="6" transform="rotate(180 787.289 278.999)" fill="#52BD94"/>
<g clip-path="url(#clip3)">
<path fill-rule="evenodd" clip-rule="evenodd" d="M42 337L42 37L66 37L66 337L42 337Z" fill="#090C24" fill-opacity="0.4"/>
<path fill-rule="evenodd" clip-rule="evenodd" d="M42 337L42 307L66 307L66 337L42 337Z" fill="#52BD94"/>
<line x1="42" y1="306.5" x2="66" y2="306.5" stroke="white"/>
</g>
<rect x="109" width="414" height="418" rx="10" fill="#090C24"/>
<g clip-path="url(#clip4)">
<path fill-rule="evenodd" clip-rule="evenodd" d="M259 155L259 60L283 60L283 155L259 155Z" fill="url(#paint3_linear)"/>
<path d="M277 115L271 121L265 115" stroke="white" stroke-width="2" stroke-linecap="round" stroke-linejoin="round"/>
</g>
<g clip-path="url(#clip5)">
<path fill-rule="evenodd" clip-rule="evenodd" d="M301 155L301 60L325 60L325 155L301 155Z" fill="url(#paint4_linear)"/>
<path d="M319 115L313 121L307 115" stroke="white" stroke-width="2" stroke-linecap="round" stroke-linejoin="round"/>
</g>
<g clip-path="url(#clip6)">
<path fill-rule="evenodd" clip-rule="evenodd" d="M343 155L343 60L367 60L367 155L343 155Z" fill="url(#paint5_linear)"/>
<path d="M361 115L355 121L349 115" stroke="white" stroke-width="2" stroke-linecap="round" stroke-linejoin="round"/>
</g>
<g clip-path="url(#clip7)">
<path fill-rule="evenodd" clip-rule="evenodd" d="M301 285L301 190L325 190L325 285L301 285Z" fill="url(#paint6_linear)"/>
<path d="M319 245L313 251L307 245" stroke="white" stroke-width="2" stroke-linecap="round" stroke-linejoin="round"/>
</g>
<g clip-path="url(#clip8)">
<path fill-rule="evenodd" clip-rule="evenodd" d="M325 333L325 428L301 428L301 333L325 333Z" fill="url(#paint7_linear)"/>
<path d="M307 381L313 375L319 381" stroke="white" stroke-width="2" stroke-linecap="round" stroke-linejoin="round"/>
</g>
<path d="M298.22 57H301.436V39.84H298.58L294.596 42.672V45.48L298.22 43.008V57ZM305.851 57H308.731V44.04L313.939 57H314.971L320.083 44.04V57H323.275V39.84H319.051L314.635 51.552L310.123 39.84H305.851V57ZM330.49 54.696H332.914V49.944H337.306V47.688H332.914V42.936H330.49V47.688H326.122V49.944H330.49V54.696Z" fill="#52BD95"/>
<path d="M253.612 81H255.185V77.464C255.185 76.021 256.017 75.579 257.395 75.566V74.097C256.251 74.11 255.614 74.617 255.185 75.475V74.201H253.612V81ZM261.642 81.13C263.384 81.13 264.541 80.35 264.762 78.92H263.241C263.124 79.583 262.63 79.96 261.681 79.96C260.511 79.96 259.861 79.232 259.809 77.945H264.788V77.49C264.788 75.059 263.267 74.058 261.577 74.058C259.64 74.058 258.197 75.462 258.197 77.568V77.672C258.197 79.817 259.64 81.13 261.642 81.13ZM259.835 76.892C259.991 75.839 260.628 75.202 261.577 75.202C262.552 75.202 263.15 75.722 263.228 76.892H259.835ZM270.977 83.327H272.55V74.201H270.977V75.241C270.6 74.565 269.911 74.058 268.806 74.058C267.038 74.058 265.751 75.436 265.751 77.607V77.711C265.751 79.921 267.038 81.13 268.741 81.13C269.742 81.13 270.613 80.532 270.977 79.882V83.327ZM269.131 79.882C268.117 79.882 267.363 79.167 267.363 77.672V77.568C267.363 76.099 268.039 75.293 269.196 75.293C270.34 75.293 271.029 76.034 271.029 77.529V77.633C271.029 79.154 270.223 79.882 269.131 79.882ZM276.694 81.13C277.799 81.13 278.514 80.597 278.852 79.934V81H280.425V74.201H278.852V78.244C278.852 79.323 278.111 79.869 277.266 79.869C276.356 79.869 275.927 79.401 275.927 78.374V74.201H274.354V78.556C274.354 80.363 275.355 81.13 276.694 81.13ZM285.28 81.13C287.022 81.13 288.179 80.35 288.4 78.92H286.879C286.762 79.583 286.268 79.96 285.319 79.96C284.149 79.96 283.499 79.232 283.447 77.945H288.426V77.49C288.426 75.059 286.905 74.058 285.215 74.058C283.278 74.058 281.835 75.462 281.835 77.568V77.672C281.835 79.817 283.278 81.13 285.28 81.13ZM283.473 76.892C283.629 75.839 284.266 75.202 285.215 75.202C286.19 75.202 286.788 75.722 286.866 76.892H283.473ZM292.222 81.13C293.964 81.13 294.939 80.337 294.939 78.959C294.939 77.516 293.99 77.126 292.391 76.879C291.312 76.697 290.987 76.502 290.987 76.008C290.987 75.527 291.39 75.202 292.066 75.202C292.794 75.202 293.145 75.488 293.275 76.112H294.731C294.562 74.578 293.457 74.058 292.066 74.058C290.792 74.058 289.518 74.734 289.518 76.099C289.518 77.373 290.181 77.88 291.975 78.166C292.976 78.335 293.431 78.543 293.431 79.102C293.431 79.674 293.054 79.973 292.209 79.973C291.286 79.973 290.935 79.57 290.857 78.881H289.375C289.44 80.324 290.467 81.13 292.222 81.13ZM298.633 81.117C299.114 81.117 299.452 81.039 299.699 80.948V79.7C299.478 79.791 299.244 79.83 298.932 79.83C298.438 79.83 298.152 79.557 298.152 78.959V75.384H299.647V74.201H298.152V72.706H296.579V74.201H295.669V75.384H296.579V79.102C296.579 80.389 297.281 81.117 298.633 81.117ZM303.508 81.13C305.25 81.13 306.225 80.337 306.225 78.959C306.225 77.516 305.276 77.126 303.677 76.879C302.598 76.697 302.273 76.502 302.273 76.008C302.273 75.527 302.676 75.202 303.352 75.202C304.08 75.202 304.431 75.488 304.561 76.112H306.017C305.848 74.578 304.743 74.058 303.352 74.058C302.078 74.058 300.804 74.734 300.804 76.099C300.804 77.373 301.467 77.88 303.261 78.166C304.262 78.335 304.717 78.543 304.717 79.102C304.717 79.674 304.34 79.973 303.495 79.973C302.572 79.973 302.221 79.57 302.143 78.881H300.661C300.726 80.324 301.753 81.13 303.508 81.13ZM310.703 83.327H312.276V79.934C312.64 80.597 313.42 81.13 314.499 81.13C316.254 81.13 317.515 79.804 317.515 77.62V77.516C317.515 75.319 316.202 74.058 314.499 74.058C313.498 74.058 312.653 74.643 312.276 75.293V74.201H310.703V83.327ZM314.109 79.882C312.965 79.882 312.224 79.167 312.224 77.646V77.542C312.224 76.034 313.004 75.293 314.096 75.293C315.123 75.293 315.903 76.034 315.903 77.542V77.646C315.903 79.102 315.266 79.882 314.109 79.882ZM321.919 81.13C323.661 81.13 324.818 80.35 325.039 78.92H323.518C323.401 79.583 322.907 79.96 321.958 79.96C320.788 79.96 320.138 79.232 320.086 77.945H325.065V77.49C325.065 75.059 323.544 74.058 321.854 74.058C319.917 74.058 318.474 75.462 318.474 77.568V77.672C318.474 79.817 319.917 81.13 321.919 81.13ZM320.112 76.892C320.268 75.839 320.905 75.202 321.854 75.202C322.829 75.202 323.427 75.722 323.505 76.892H320.112ZM326.47 81H328.043V77.464C328.043 76.021 328.875 75.579 330.253 75.566V74.097C329.109 74.11 328.472 74.617 328.043 75.475V74.201H326.47V81ZM337.062 81.13C338.804 81.13 339.779 80.337 339.779 78.959C339.779 77.516 338.83 77.126 337.231 76.879C336.152 76.697 335.827 76.502 335.827 76.008C335.827 75.527 336.23 75.202 336.906 75.202C337.634 75.202 337.985 75.488 338.115 76.112H339.571C339.402 74.578 338.297 74.058 336.906 74.058C335.632 74.058 334.358 74.734 334.358 76.099C334.358 77.373 335.021 77.88 336.815 78.166C337.816 78.335 338.271 78.543 338.271 79.102C338.271 79.674 337.894 79.973 337.049 79.973C336.126 79.973 335.775 79.57 335.697 78.881H334.215C334.28 80.324 335.307 81.13 337.062 81.13ZM344.149 81.13C345.891 81.13 347.048 80.35 347.269 78.92H345.748C345.631 79.583 345.137 79.96 344.188 79.96C343.018 79.96 342.368 79.232 342.316 77.945H347.295V77.49C347.295 75.059 345.774 74.058 344.084 74.058C342.147 74.058 340.704 75.462 340.704 77.568V77.672C340.704 79.817 342.147 81.13 344.149 81.13ZM342.342 76.892C342.498 75.839 343.135 75.202 344.084 75.202C345.059 75.202 345.657 75.722 345.735 76.892H342.342ZM351.677 81.13C353.523 81.13 354.706 80.025 354.823 78.465H353.38C353.289 79.427 352.574 79.921 351.742 79.921C350.585 79.921 349.857 79.141 349.857 77.659V77.555C349.857 76.151 350.624 75.319 351.703 75.319C352.535 75.319 353.133 75.696 353.263 76.606H354.784C354.602 74.734 353.185 74.058 351.677 74.058C349.779 74.058 348.245 75.423 348.245 77.581V77.685C348.245 79.856 349.727 81.13 351.677 81.13ZM359.219 79.908C358.023 79.908 357.334 79.037 357.334 77.646V77.542C357.334 76.138 358.049 75.293 359.219 75.293C360.389 75.293 361.091 76.151 361.091 77.555V77.646C361.091 79.037 360.389 79.908 359.219 79.908ZM359.206 81.13C361.208 81.13 362.703 79.752 362.703 77.633V77.529C362.703 75.449 361.208 74.058 359.219 74.058C357.217 74.058 355.722 75.462 355.722 77.568V77.672C355.722 79.739 357.204 81.13 359.206 81.13ZM364.124 81H365.697V76.996C365.697 75.917 366.412 75.371 367.296 75.371C368.232 75.371 368.648 75.839 368.648 76.866V81H370.221V76.723C370.221 74.851 369.259 74.058 367.894 74.058C366.776 74.058 366.022 74.617 365.697 75.28V74.201H364.124V81ZM374.582 81.13C375.583 81.13 376.454 80.532 376.818 79.856V81H378.391V71.055H376.818V75.241C376.441 74.565 375.752 74.058 374.647 74.058C372.879 74.058 371.592 75.436 371.592 77.607V77.711C371.592 79.921 372.879 81.13 374.582 81.13ZM374.972 79.882C373.958 79.882 373.204 79.167 373.204 77.672V77.568C373.204 76.099 373.88 75.293 375.037 75.293C376.181 75.293 376.87 76.034 376.87 77.529V77.633C376.87 79.154 376.064 79.882 374.972 79.882Z" fill="white"/>
<g filter="url(#filter0_d)">
<rect x="259" y="149" width="108" height="66" rx="10" fill="white" fill-opacity="0.12"/>
</g>
<path d="M286.679 177.766C286.558 177.766 286.528 177.704 286.588 177.612L287.222 176.781C287.283 176.689 287.434 176.627 287.554 176.627H298.331C298.452 176.627 298.482 176.72 298.422 176.812L297.908 177.612C297.848 177.704 297.697 177.796 297.607 177.796L286.679 177.766Z" fill="#00ACD7"/>
<path d="M282.121 180.596C282 180.596 281.97 180.534 282.03 180.442L282.664 179.611C282.724 179.519 282.875 179.458 282.996 179.458H296.761C296.882 179.458 296.942 179.55 296.912 179.642L296.671 180.381C296.641 180.504 296.52 180.565 296.399 180.565L282.121 180.596Z" fill="#00ACD7"/>
<path d="M289.426 183.427C289.305 183.427 289.275 183.334 289.335 183.242L289.758 182.473C289.818 182.381 289.939 182.288 290.06 182.288H296.097C296.218 182.288 296.278 182.381 296.278 182.504L296.218 183.242C296.218 183.365 296.097 183.457 296.007 183.457L289.426 183.427Z" fill="#00ACD7"/>
<path d="M320.76 177.212C318.858 177.704 317.56 178.073 315.689 178.565C315.236 178.689 315.206 178.719 314.813 178.258C314.36 177.735 314.028 177.396 313.394 177.089C311.493 176.135 309.651 176.412 307.931 177.55C305.878 178.904 304.821 180.904 304.852 183.396C304.882 185.857 306.542 187.888 308.927 188.226C310.979 188.503 312.7 187.765 314.059 186.196C314.33 185.857 314.572 185.488 314.874 185.057C313.787 185.057 312.428 185.057 309.048 185.057C308.414 185.057 308.263 184.657 308.474 184.134C308.866 183.181 309.591 181.581 310.014 180.781C310.104 180.596 310.315 180.288 310.768 180.288C312.308 180.288 317.983 180.288 321.756 180.288C321.696 181.119 321.696 181.95 321.575 182.781C321.243 184.996 320.428 187.027 319.1 188.811C316.926 191.734 314.089 193.549 310.496 194.042C307.538 194.442 304.791 193.857 302.376 192.011C300.142 190.288 298.875 188.011 298.542 185.18C298.15 181.827 299.116 178.812 301.108 176.166C303.252 173.304 306.089 171.489 309.561 170.843C312.398 170.32 315.115 170.658 317.56 172.35C319.16 173.427 320.307 174.904 321.062 176.689C321.243 176.966 321.122 177.119 320.76 177.212Z" fill="#00ACD7"/>
<path d="M330.752 194.226C328.005 194.165 325.499 193.365 323.386 191.519C321.605 189.949 320.488 187.949 320.126 185.58C319.583 182.104 320.519 179.027 322.571 176.289C324.775 173.335 327.431 171.797 331.024 171.15C334.103 170.597 337.001 170.904 339.627 172.72C342.012 174.381 343.491 176.627 343.883 179.581C344.396 183.734 343.219 187.119 340.412 190.011C338.419 192.072 335.974 193.365 333.167 193.949C332.352 194.103 331.537 194.134 330.752 194.226ZM337.936 181.796C337.906 181.396 337.906 181.088 337.846 180.781C337.302 177.735 334.555 176.012 331.688 176.689C328.88 177.335 327.069 179.15 326.405 182.042C325.862 184.442 327.009 186.873 329.182 187.857C330.842 188.596 332.503 188.503 334.103 187.673C336.487 186.411 337.785 184.442 337.936 181.796Z" fill="#00ACD7"/>
<g filter="url(#filter1_d)">
<rect x="259" y="275" width="108" height="8" rx="4" fill="white" fill-opacity="0.12"/>
</g>
<g filter="url(#filter2_d)">
<rect x="259" y="287" width="108" height="8" rx="4" fill="white" fill-opacity="0.12"/>
</g>
<g filter="url(#filter3_d)">
<rect x="259" y="299" width="108" height="8" rx="4" fill="white" fill-opacity="0.12"/>
</g>
<g filter="url(#filter4_d)">
<rect x="259" y="311" width="108" height="8" rx="4" fill="white" fill-opacity="0.12"/>
</g>
<g filter="url(#filter5_d)">
<rect x="259" y="323" width="108" height="8" rx="4" fill="white" fill-opacity="0.12"/>
</g>
<g filter="url(#filter6_d)">
<rect x="259" y="335" width="108" height="8" rx="4" fill="white" fill-opacity="0.12"/>
</g>
<path d="M344.294 383H346.422L347.108 380.774H350.734L351.42 383H353.786L350.538 372.99H347.584L344.294 383ZM348.928 374.838L350.244 379.164H347.598L348.928 374.838ZM355.028 383H357.044V372.36H355.028V383ZM360.45 383H362.466L363.81 378.408L365.056 383H367.044L369.354 375.678H367.408L366.022 380.606L364.734 375.678H363.068L361.654 380.606L360.352 375.678H358.224L360.45 383ZM372.231 383.154C373.379 383.154 374.023 382.706 374.443 382.118V383H376.417V378.226C376.417 376.238 375.143 375.51 373.351 375.51C371.559 375.51 370.187 376.28 370.061 378.016H371.979C372.063 377.386 372.427 376.98 373.225 376.98C374.149 376.98 374.415 377.456 374.415 378.324V378.618H373.589C371.349 378.618 369.781 379.262 369.781 380.97C369.781 382.51 370.901 383.154 372.231 383.154ZM372.833 381.74C372.091 381.74 371.769 381.39 371.769 380.858C371.769 380.074 372.455 379.822 373.631 379.822H374.415V380.438C374.415 381.25 373.729 381.74 372.833 381.74ZM378.879 385.492H380.839L384.801 375.678H382.855L381.217 380.074L379.439 375.678H377.255L380.167 382.258L378.879 385.492ZM388.558 383.154C390.49 383.154 391.638 382.328 391.638 380.746C391.638 379.178 390.63 378.716 388.796 378.45C387.732 378.296 387.382 378.114 387.382 377.652C387.382 377.204 387.76 376.896 388.418 376.896C389.118 376.896 389.454 377.176 389.566 377.778H391.428C391.246 376.098 390.028 375.51 388.404 375.51C386.906 375.51 385.506 376.266 385.506 377.792C385.506 379.22 386.262 379.78 388.208 380.074C389.258 380.228 389.692 380.438 389.692 380.942C389.692 381.446 389.328 381.74 388.544 381.74C387.662 381.74 387.34 381.362 387.256 380.704H385.366C385.436 382.286 386.584 383.154 388.558 383.154ZM395.427 383H397.555L398.241 380.774H401.867L402.553 383H404.919L401.671 372.99H398.717L395.427 383ZM400.061 374.838L401.377 379.164H398.731L400.061 374.838ZM407.382 383H409.664L412.324 375.678H410.364L408.628 380.914L406.878 375.678H404.708L407.382 383ZM415.188 383.154C416.336 383.154 416.98 382.706 417.4 382.118V383H419.374V378.226C419.374 376.238 418.1 375.51 416.308 375.51C414.516 375.51 413.144 376.28 413.018 378.016H414.936C415.02 377.386 415.384 376.98 416.182 376.98C417.106 376.98 417.372 377.456 417.372 378.324V378.618H416.546C414.306 378.618 412.738 379.262 412.738 380.97C412.738 382.51 413.858 383.154 415.188 383.154ZM415.79 381.74C415.048 381.74 414.726 381.39 414.726 380.858C414.726 380.074 415.412 379.822 416.588 379.822H417.372V380.438C417.372 381.25 416.686 381.74 415.79 381.74ZM421.173 383H423.189V375.678H421.173V383ZM422.167 374.684C422.825 374.684 423.329 374.208 423.329 373.578C423.329 372.948 422.825 372.472 422.167 372.472C421.523 372.472 421.019 372.948 421.019 373.578C421.019 374.208 421.523 374.684 422.167 374.684ZM425.11 383H427.126V372.36H425.11V383ZM430.952 383.154C432.1 383.154 432.744 382.706 433.164 382.118V383H435.138V378.226C435.138 376.238 433.864 375.51 432.072 375.51C430.28 375.51 428.908 376.28 428.782 378.016H430.7C430.784 377.386 431.148 376.98 431.946 376.98C432.87 376.98 433.136 377.456 433.136 378.324V378.618H432.31C430.07 378.618 428.502 379.262 428.502 380.97C428.502 382.51 429.622 383.154 430.952 383.154ZM431.554 381.74C430.812 381.74 430.49 381.39 430.49 380.858C430.49 380.074 431.176 379.822 432.352 379.822H433.136V380.438C433.136 381.25 432.45 381.74 431.554 381.74ZM441.248 383.154C443.068 383.154 444.44 381.796 444.44 379.374V379.262C444.44 376.84 443.04 375.51 441.248 375.51C440.17 375.51 439.316 376.126 438.91 376.826V372.36H436.88V383H438.91V381.838C439.288 382.594 440.114 383.154 441.248 383.154ZM440.646 381.572C439.54 381.572 438.84 380.858 438.84 379.388V379.276C438.84 377.806 439.568 377.064 440.632 377.064C441.654 377.064 442.382 377.792 442.382 379.276V379.388C442.382 380.816 441.766 381.572 440.646 381.572ZM445.85 383H447.866V372.36H445.85V383ZM453.092 383.154C455.094 383.154 456.354 382.272 456.592 380.69H454.674C454.548 381.306 454.086 381.712 453.148 381.712C452.042 381.712 451.384 381.012 451.328 379.794H456.606V379.234C456.606 376.616 454.926 375.51 453.036 375.51C450.908 375.51 449.27 377.008 449.27 379.318V379.43C449.27 381.768 450.88 383.154 453.092 383.154ZM451.356 378.548C451.51 377.512 452.126 376.91 453.036 376.91C454.002 376.91 454.562 377.442 454.632 378.548H451.356Z" fill="white"/>
<g filter="url(#filter7_d)">
<rect x="27" y="282" width="53" height="25" rx="5" fill="#2F3244"/>
<path d="M43.0834 299H44.8254V289.705H43.2784L41.1204 291.239V292.76L43.0834 291.421V299ZM50.7527 297.752C49.3617 297.752 48.5557 296.686 48.5557 294.58V294.112C48.5557 292.045 49.3227 290.927 50.7267 290.927C52.1177 290.927 52.8717 292.123 52.8717 294.099V294.554C52.8717 296.66 52.1827 297.752 50.7527 297.752ZM50.7137 299.13C53.1447 299.13 54.6007 297.349 54.6007 294.554V294.086C54.6007 291.291 53.0667 289.575 50.7137 289.575C48.3737 289.575 46.8137 291.304 46.8137 294.125V294.593C46.8137 297.388 48.3477 299.13 50.7137 299.13ZM57.8675 293.072C57.2565 293.072 56.8665 292.656 56.8665 291.863C56.8665 291.083 57.2565 290.654 57.8675 290.654C58.4785 290.654 58.8555 291.109 58.8555 291.863C58.8555 292.63 58.4785 293.072 57.8675 293.072ZM57.8545 294.125C59.1285 294.125 60.1165 293.163 60.1165 291.85C60.1165 290.55 59.1155 289.614 57.8675 289.614C56.6195 289.614 55.5925 290.576 55.5925 291.876C55.5925 293.163 56.5805 294.125 57.8545 294.125ZM56.8665 299H57.9715L63.9515 289.705H62.8595L56.8665 299ZM62.9635 298.077C62.3525 298.077 61.9625 297.661 61.9625 296.868C61.9625 296.088 62.3525 295.659 62.9635 295.659C63.5745 295.659 63.9515 296.114 63.9515 296.868C63.9515 297.635 63.5745 298.077 62.9635 298.077ZM62.9505 299.13C64.2245 299.13 65.2255 298.168 65.2255 296.855C65.2255 295.555 64.2115 294.619 62.9635 294.619C61.7155 294.619 60.7015 295.581 60.7015 296.881C60.7015 298.168 61.6765 299.13 62.9505 299.13Z" fill="white"/>
</g>
<defs>
<filter id="filter0_d" x="244" y="149" width="138" height="96" filterUnits="userSpaceOnUse" color-interpolation-filters="sRGB">
<feFlood flood-opacity="0" result="BackgroundImageFix"/>
<feColorMatrix in="SourceAlpha" type="matrix" values="0 0 0 0 0 0 0 0 0 0 0 0 0 0 0 0 0 0 127 0"/>
<feOffset dy="15"/>
<feGaussianBlur stdDeviation="7.5"/>
<feColorMatrix type="matrix" values="0 0 0 0 0.0509804 0 0 0 0 0.0823529 0 0 0 0 0.215686 0 0 0 0.07 0"/>
<feBlend mode="normal" in2="BackgroundImageFix" result="effect1_dropShadow"/>
<feBlend mode="normal" in="SourceGraphic" in2="effect1_dropShadow" result="shape"/>
</filter>
<filter id="filter1_d" x="244" y="275" width="138" height="38" filterUnits="userSpaceOnUse" color-interpolation-filters="sRGB">
<feFlood flood-opacity="0" result="BackgroundImageFix"/>
<feColorMatrix in="SourceAlpha" type="matrix" values="0 0 0 0 0 0 0 0 0 0 0 0 0 0 0 0 0 0 127 0"/>
<feOffset dy="15"/>
<feGaussianBlur stdDeviation="7.5"/>
<feColorMatrix type="matrix" values="0 0 0 0 0.0509804 0 0 0 0 0.0823529 0 0 0 0 0.215686 0 0 0 0.07 0"/>
<feBlend mode="normal" in2="BackgroundImageFix" result="effect1_dropShadow"/>
<feBlend mode="normal" in="SourceGraphic" in2="effect1_dropShadow" result="shape"/>
</filter>
<filter id="filter2_d" x="244" y="287" width="138" height="38" filterUnits="userSpaceOnUse" color-interpolation-filters="sRGB">
<feFlood flood-opacity="0" result="BackgroundImageFix"/>
<feColorMatrix in="SourceAlpha" type="matrix" values="0 0 0 0 0 0 0 0 0 0 0 0 0 0 0 0 0 0 127 0"/>
<feOffset dy="15"/>
<feGaussianBlur stdDeviation="7.5"/>
<feColorMatrix type="matrix" values="0 0 0 0 0.0509804 0 0 0 0 0.0823529 0 0 0 0 0.215686 0 0 0 0.07 0"/>
<feBlend mode="normal" in2="BackgroundImageFix" result="effect1_dropShadow"/>
<feBlend mode="normal" in="SourceGraphic" in2="effect1_dropShadow" result="shape"/>
</filter>
<filter id="filter3_d" x="244" y="299" width="138" height="38" filterUnits="userSpaceOnUse" color-interpolation-filters="sRGB">
<feFlood flood-opacity="0" result="BackgroundImageFix"/>
<feColorMatrix in="SourceAlpha" type="matrix" values="0 0 0 0 0 0 0 0 0 0 0 0 0 0 0 0 0 0 127 0"/>
<feOffset dy="15"/>
<feGaussianBlur stdDeviation="7.5"/>
<feColorMatrix type="matrix" values="0 0 0 0 0.0509804 0 0 0 0 0.0823529 0 0 0 0 0.215686 0 0 0 0.07 0"/>
<feBlend mode="normal" in2="BackgroundImageFix" result="effect1_dropShadow"/>
<feBlend mode="normal" in="SourceGraphic" in2="effect1_dropShadow" result="shape"/>
</filter>
<filter id="filter4_d" x="244" y="311" width="138" height="38" filterUnits="userSpaceOnUse" color-interpolation-filters="sRGB">
<feFlood flood-opacity="0" result="BackgroundImageFix"/>
<feColorMatrix in="SourceAlpha" type="matrix" values="0 0 0 0 0 0 0 0 0 0 0 0 0 0 0 0 0 0 127 0"/>
<feOffset dy="15"/>
<feGaussianBlur stdDeviation="7.5"/>
<feColorMatrix type="matrix" values="0 0 0 0 0.0509804 0 0 0 0 0.0823529 0 0 0 0 0.215686 0 0 0 0.07 0"/>
<feBlend mode="normal" in2="BackgroundImageFix" result="effect1_dropShadow"/>
<feBlend mode="normal" in="SourceGraphic" in2="effect1_dropShadow" result="shape"/>
</filter>
<filter id="filter5_d" x="244" y="323" width="138" height="38" filterUnits="userSpaceOnUse" color-interpolation-filters="sRGB">
<feFlood flood-opacity="0" result="BackgroundImageFix"/>
<feColorMatrix in="SourceAlpha" type="matrix" values="0 0 0 0 0 0 0 0 0 0 0 0 0 0 0 0 0 0 127 0"/>
<feOffset dy="15"/>
<feGaussianBlur stdDeviation="7.5"/>
<feColorMatrix type="matrix" values="0 0 0 0 0.0509804 0 0 0 0 0.0823529 0 0 0 0 0.215686 0 0 0 0.07 0"/>
<feBlend mode="normal" in2="BackgroundImageFix" result="effect1_dropShadow"/>
<feBlend mode="normal" in="SourceGraphic" in2="effect1_dropShadow" result="shape"/>
</filter>
<filter id="filter6_d" x="244" y="335" width="138" height="38" filterUnits="userSpaceOnUse" color-interpolation-filters="sRGB">
<feFlood flood-opacity="0" result="BackgroundImageFix"/>
<feColorMatrix in="SourceAlpha" type="matrix" values="0 0 0 0 0 0 0 0 0 0 0 0 0 0 0 0 0 0 127 0"/>
<feOffset dy="15"/>
<feGaussianBlur stdDeviation="7.5"/>
<feColorMatrix type="matrix" values="0 0 0 0 0.0509804 0 0 0 0 0.0823529 0 0 0 0 0.215686 0 0 0 0.07 0"/>
<feBlend mode="normal" in2="BackgroundImageFix" result="effect1_dropShadow"/>
<feBlend mode="normal" in="SourceGraphic" in2="effect1_dropShadow" result="shape"/>
</filter>
<filter id="filter7_d" x="19" y="274" width="85" height="57" filterUnits="userSpaceOnUse" color-interpolation-filters="sRGB">
<feFlood flood-opacity="0" result="BackgroundImageFix"/>
<feColorMatrix in="SourceAlpha" type="matrix" values="0 0 0 0 0 0 0 0 0 0 0 0 0 0 0 0 0 0 127 0"/>
<feOffset dx="8" dy="8"/>
<feGaussianBlur stdDeviation="8"/>
<feColorMatrix type="matrix" values="0 0 0 0 0 0 0 0 0 0 0 0 0 0 0 0 0 0 0.48 0"/>
<feBlend mode="multiply" in2="BackgroundImageFix" result="effect1_dropShadow"/>
<feBlend mode="normal" in="SourceGraphic" in2="effect1_dropShadow" result="shape"/>
</filter>
<linearGradient id="paint0_linear" x1="773" y1="277.83" x2="627.22" y2="277.83" gradientUnits="userSpaceOnUse">
<stop stop-color="white" stop-opacity="0"/>
<stop offset="0.515625" stop-color="white" stop-opacity="0.12"/>
<stop offset="1" stop-color="white" stop-opacity="0"/>
</linearGradient>
<linearGradient id="paint1_linear" x1="615.395" y1="280.448" x2="687.09" y2="156.268" gradientUnits="userSpaceOnUse">
<stop stop-color="white" stop-opacity="0"/>
<stop offset="0.515625" stop-color="white" stop-opacity="0.12"/>
<stop offset="1" stop-color="white" stop-opacity="0"/>
</linearGradient>
<linearGradient id="paint2_linear" x1="771.605" y1="278.741" x2="702.698" y2="159.391" gradientUnits="userSpaceOnUse">
<stop stop-color="white" stop-opacity="0"/>
<stop offset="0.515625" stop-color="white" stop-opacity="0.12"/>
<stop offset="1" stop-color="white" stop-opacity="0"/>
</linearGradient>
<linearGradient id="paint3_linear" x1="273.194" y1="149.853" x2="273.194" y2="74.1751" gradientUnits="userSpaceOnUse">
<stop stop-color="white" stop-opacity="0"/>
<stop offset="0.515625" stop-color="white" stop-opacity="0.12"/>
<stop offset="1" stop-color="white" stop-opacity="0"/>
</linearGradient>
<linearGradient id="paint4_linear" x1="315.194" y1="149.853" x2="315.194" y2="74.1751" gradientUnits="userSpaceOnUse">
<stop stop-color="white" stop-opacity="0"/>
<stop offset="0.515625" stop-color="white" stop-opacity="0.12"/>
<stop offset="1" stop-color="white" stop-opacity="0"/>
</linearGradient>
<linearGradient id="paint5_linear" x1="357.194" y1="149.853" x2="357.194" y2="74.1751" gradientUnits="userSpaceOnUse">
<stop stop-color="white" stop-opacity="0"/>
<stop offset="0.515625" stop-color="white" stop-opacity="0.12"/>
<stop offset="1" stop-color="white" stop-opacity="0"/>
</linearGradient>
<linearGradient id="paint6_linear" x1="315.194" y1="279.853" x2="315.194" y2="204.175" gradientUnits="userSpaceOnUse">
<stop stop-color="white" stop-opacity="0"/>
<stop offset="0.515625" stop-color="white" stop-opacity="0.12"/>
<stop offset="1" stop-color="white" stop-opacity="0"/>
</linearGradient>
<linearGradient id="paint7_linear" x1="310.806" y1="338.147" x2="310.806" y2="413.825" gradientUnits="userSpaceOnUse">
<stop stop-color="white" stop-opacity="0"/>
<stop offset="0.515625" stop-color="white" stop-opacity="0.12"/>
<stop offset="1" stop-color="white" stop-opacity="0"/>
</linearGradient>
<clipPath id="clip0">
<rect width="182.88" height="27.1371" fill="white" transform="translate(782.915 294.024) rotate(180)"/>
</clipPath>
<clipPath id="clip1">
<rect width="179.898" height="28.317" fill="white" transform="translate(596.495 280.796) rotate(-60)"/>
</clipPath>
<clipPath id="clip2">
<rect width="173.124" height="28.317" fill="white" transform="translate(762.267 294.955) rotate(-120)"/>
</clipPath>
<clipPath id="clip3">
<rect width="300" height="24" fill="white" transform="translate(42 337) rotate(-90)"/>
</clipPath>
<clipPath id="clip4">
<rect width="95" height="24" fill="white" transform="translate(259 155) rotate(-90)"/>
</clipPath>
<clipPath id="clip5">
<rect width="95" height="24" fill="white" transform="translate(301 155) rotate(-90)"/>
</clipPath>
<clipPath id="clip6">
<rect width="95" height="24" fill="white" transform="translate(343 155) rotate(-90)"/>
</clipPath>
<clipPath id="clip7">
<rect width="95" height="24" fill="white" transform="translate(301 285) rotate(-90)"/>
</clipPath>
<clipPath id="clip8">
<rect width="95" height="24" fill="white" transform="translate(325 333) rotate(90)"/>
</clipPath>
</defs>
</svg>
