<svg viewBox="0 0 260 272" fill="none" xmlns="http://www.w3.org/2000/svg">
  <g clip-path="url(#clip0_1475_2177)">
    <g clip-path="url(#clip1_1475_2177)">
      <path d="M150.972 89.4354L153.706 89.4185L153.51 53.1441C153.51 52.7819 153.361 52.4333 153.104 52.1761L128.394 27.754C127.717 27.0839 126.803 26.7116 125.852 26.7184L91.2869 26.8774C85.0257 26.9146 79.9761 32.0116 79.9998 38.2728L80.3518 111.776C80.389 118.02 85.4488 123.067 91.6931 123.087H91.7472L126.018 122.86L126.001 120.132L91.7303 120.352H91.6897C86.9515 120.335 83.1101 116.501 83.0831 111.763L82.7345 38.2728C82.7175 33.5211 86.5487 29.6493 91.3005 29.6188L125.412 29.453L125.48 43.4036C125.514 49.6513 130.574 54.7043 136.821 54.7347H136.875L150.785 54.5994L150.972 89.4354ZM136.858 51.9967H136.818C132.073 51.9697 128.235 48.1317 128.211 43.3867L128.154 31.3652L148.849 51.8174L136.858 51.9967Z" fill="#043C3C"/>
      <path d="M142.132 80.7072C142.132 79.9524 141.519 79.3398 140.764 79.3398H113.191C112.436 79.3398 111.824 79.9524 111.824 80.7072C111.824 81.4619 112.436 82.0745 113.191 82.0745H140.764C141.522 82.0745 142.132 81.4619 142.132 80.7072Z" fill="#043C3C"/>
      <path d="M99.2811 80.4465L96.2115 83.3842L94.9626 82.1353C94.4279 81.6006 93.5614 81.6006 93.0301 82.1353C92.4953 82.6701 92.4953 83.5365 93.0301 84.0679L95.2266 86.2644C95.7512 86.7889 96.6007 86.7991 97.1388 86.2847L101.176 82.423C101.721 81.9018 101.742 81.0354 101.22 80.4905C100.699 79.9456 99.826 79.9253 99.2811 80.4465Z" fill="#069356"/>
      <path d="M97.1083 74.0194C91.9471 74.0194 87.7639 78.2026 87.7639 83.3638C87.7639 88.5251 91.9471 92.7083 97.1083 92.7083C102.27 92.7083 106.453 88.5251 106.453 83.3638C106.446 78.206 102.266 74.0262 97.1083 74.0194ZM97.1083 89.977C93.4565 89.977 90.4985 87.0157 90.4985 83.3672C90.4985 79.7154 93.4599 76.7574 97.1083 76.7574C100.76 76.7574 103.718 79.7188 103.718 83.3672C103.715 87.0157 100.757 89.9703 97.1083 89.977Z" fill="#069356"/>
      <path d="M132.943 85.266C132.943 84.5113 132.33 83.8987 131.575 83.8987H113.191C112.436 83.8987 111.824 84.5113 111.824 85.266C111.824 86.0207 112.436 86.6333 113.191 86.6333H131.572C132.33 86.6299 132.943 86.0207 132.943 85.266Z" fill="#043C3C"/>
      <path d="M127.907 101.214C127.907 100.459 127.294 99.8463 126.539 99.8463H113.191C112.436 99.8463 111.824 100.459 111.824 101.214C111.824 101.968 112.436 102.581 113.191 102.581H126.539C127.298 102.581 127.907 101.968 127.907 101.214Z" fill="#043C3C"/>
      <path d="M99.2811 101.125L96.2115 104.06L94.9626 102.811C94.4245 102.283 93.5581 102.29 93.0301 102.828C92.5055 103.359 92.5055 104.212 93.0301 104.747L95.2266 106.943C95.7512 107.468 96.6007 107.478 97.1388 106.964L101.176 103.102C101.721 102.581 101.742 101.714 101.22 101.169C100.689 100.625 99.826 100.604 99.2811 101.125Z" fill="#069356"/>
      <path d="M97.1083 94.6984C91.9471 94.6984 87.7639 98.8815 87.7639 104.043C87.7639 109.204 91.9471 113.387 97.1083 113.387C102.27 113.387 106.453 109.204 106.453 104.043C106.446 98.8849 102.266 94.7051 97.1083 94.6984ZM97.1083 110.656C93.4565 110.656 90.4985 107.695 90.4985 104.046C90.4985 100.398 93.4599 97.4364 97.1083 97.4364C100.76 97.4364 103.718 100.398 103.718 104.046C103.715 107.695 100.757 110.653 97.1083 110.656Z" fill="#069356"/>
      <path d="M113.191 104.405C112.436 104.405 111.824 105.017 111.824 105.772C111.824 106.527 112.436 107.14 113.191 107.14H124.864C125.619 107.14 126.231 106.527 126.231 105.772C126.231 105.017 125.619 104.405 124.864 104.405H113.191Z" fill="#043C3C"/>
      <path d="M140.764 58.6067H113.191C112.436 58.6067 111.824 59.2193 111.824 59.974C111.824 60.7287 112.436 61.3413 113.191 61.3413H140.764C141.519 61.3413 142.132 60.7287 142.132 59.974C142.132 59.2193 141.522 58.6067 140.764 58.6067Z" fill="#043C3C"/>
      <path d="M99.2811 59.7676L96.2115 62.7053L94.9626 61.4564C94.4245 60.9285 93.5581 60.9352 93.0301 61.4734C92.5055 62.0047 92.5055 62.8576 93.0301 63.3923L95.2266 65.5888C95.7512 66.1134 96.6007 66.1236 97.1388 65.6092L101.176 61.7509C101.721 61.2297 101.742 60.3633 101.22 59.8184C100.689 59.2633 99.826 59.243 99.2811 59.7676Z" fill="#069356"/>
      <path d="M97.1083 53.3406C91.9471 53.3406 87.7639 57.5237 87.7639 62.685C87.7639 67.8463 91.9471 72.0294 97.1083 72.0294C102.27 72.0294 106.453 67.8463 106.453 62.685C106.446 57.5271 102.266 53.344 97.1083 53.3406ZM97.1083 69.2948C93.4565 69.2948 90.4985 66.3334 90.4985 62.685C90.4985 59.0366 93.4599 56.0752 97.1083 56.0752C100.76 56.0752 103.718 59.0366 103.718 62.685C103.715 66.3334 100.757 69.2914 97.1083 69.2948Z" fill="#069356"/>
      <path d="M113.191 65.8967H131.572C132.327 65.8967 132.939 65.2842 132.939 64.5294C132.939 63.7747 132.327 63.1621 131.572 63.1621H113.191C112.436 63.1621 111.824 63.7747 111.824 64.5294C111.824 65.2842 112.436 65.8967 113.191 65.8967Z" fill="#043C3C"/>
      <g clip-path="url(#clip2_1475_2177)">
        <path d="M164.132 102.775C163.69 102.775 163.261 102.927 162.919 103.206L160.149 101.988C160.15 101.967 160.152 101.946 160.152 101.924C160.154 100.865 159.296 100.003 158.232 100C157.169 99.9974 156.304 100.853 156.302 101.914C156.3 102.156 156.345 102.394 156.434 102.619L153.096 105.708C152.124 105.281 150.988 105.719 150.559 106.688C150.319 107.229 150.345 107.851 150.626 108.372L147.722 111.044C147.081 110.447 146.115 110.36 145.379 110.835L142.221 108.339C142.711 107.393 142.338 106.231 141.388 105.743C140.439 105.255 139.273 105.626 138.784 106.573C138.294 107.519 138.667 108.682 139.617 109.17C140.206 109.472 140.909 109.453 141.481 109.118L144.672 111.64C144.219 112.599 144.632 113.743 145.594 114.195C146.555 114.648 147.703 114.235 148.157 113.276C148.348 112.873 148.392 112.417 148.28 111.984L151.377 109.135C152.301 109.656 153.474 109.33 153.997 108.408C154.354 107.778 154.325 107.002 153.921 106.401L157.088 103.471C157.94 104.097 159.141 103.918 159.77 103.067C159.784 103.047 159.797 103.029 159.811 103.009L162.298 104.103C161.971 105.111 162.525 106.192 163.536 106.519C164.547 106.846 165.632 106.293 165.96 105.285C166.288 104.277 165.733 103.195 164.722 102.869C164.534 102.807 164.333 102.775 164.132 102.775ZM140.51 108.314C140.039 108.314 139.657 107.933 139.657 107.463C139.657 106.994 140.039 106.613 140.51 106.613C140.981 106.613 141.363 106.994 141.363 107.463C141.363 107.933 140.981 108.314 140.51 108.314ZM146.415 113.3C145.944 113.3 145.562 112.919 145.562 112.45C145.562 111.98 145.944 111.599 146.415 111.599C146.886 111.599 147.268 111.98 147.268 112.45C147.268 112.919 146.886 113.299 146.415 113.3ZM152.32 108.314C151.849 108.314 151.467 107.933 151.467 107.463C151.467 106.994 151.849 106.613 152.32 106.613C152.791 106.613 153.173 106.994 153.173 107.463C153.173 107.933 152.791 108.314 152.32 108.314ZM158.225 102.775C157.754 102.775 157.372 102.394 157.372 101.924C157.372 101.455 157.754 101.074 158.225 101.074C158.696 101.074 159.078 101.455 159.078 101.924C159.078 102.394 158.696 102.775 158.225 102.775ZM164.13 105.544C163.659 105.544 163.277 105.163 163.277 104.694C163.277 104.224 163.659 103.843 164.13 103.843C164.601 103.843 164.983 104.224 164.983 104.694C164.983 105.163 164.601 105.544 164.13 105.544Z" fill="#069356"/>
        <path d="M131.921 117.932C130.933 117.932 130.135 118.729 130.135 119.712C130.135 120.696 130.935 121.492 131.921 121.492H145.238L140.77 130.409C140.214 131.514 140.662 132.859 141.77 133.413C142.079 133.568 142.42 133.648 142.766 133.65C143.609 133.663 144.384 133.195 144.763 132.445L145.625 130.753H158.55L159.413 132.447C159.973 133.545 161.318 133.982 162.419 133.425C162.786 133.238 163.096 132.955 163.311 132.605C163.72 131.939 163.756 131.111 163.407 130.413L158.938 121.494H172.255C173.242 121.494 174.041 120.696 174.041 119.713C174.041 118.729 173.241 117.933 172.255 117.933H171.738V96.027H172.255C173.266 96.027 174.086 95.2096 174.086 94.2018C174.086 93.194 173.267 92.3766 172.257 92.3766H131.921C130.91 92.3766 130.09 93.194 130.09 94.2018C130.09 95.2096 130.91 96.027 131.921 96.027H132.438V117.93H131.921V117.932ZM143.805 131.925C143.61 132.32 143.208 132.573 142.766 132.576C142.364 132.58 141.989 132.373 141.778 132.032C141.564 131.684 141.546 131.25 141.728 130.885L146.437 121.492H149.036L143.805 131.925ZM150.234 121.492H153.941L156.883 127.369H147.293L150.234 121.492ZM146.163 129.684L146.757 128.437H157.42L158.014 129.684H146.163ZM162.449 130.888C162.631 131.25 162.613 131.682 162.399 132.027C162.189 132.371 161.814 132.581 161.411 132.582C160.968 132.576 160.566 132.32 160.372 131.924L155.141 121.494H157.74L162.449 130.888ZM131.921 94.9583C131.501 94.9437 131.174 94.5933 131.187 94.1753C131.2 93.7772 131.521 93.4585 131.921 93.4439H172.255C172.674 93.4585 173.002 93.809 172.989 94.2269C172.976 94.625 172.655 94.9437 172.255 94.9583H131.921ZM170.666 96.027V117.93H133.51V96.027H170.666ZM172.257 118.999C172.651 118.999 172.972 119.318 172.972 119.712C172.972 120.105 172.652 120.425 172.257 120.425H131.921C131.527 120.425 131.205 120.106 131.205 119.712C131.205 119.319 131.525 118.999 131.921 118.999H172.257Z" fill="#043C3C"/>
      </g>
    </g>
  </g>
  <path d="M49.0474 193H43.8912V178.455H49.09C50.5531 178.455 51.8126 178.746 52.8684 179.328C53.9243 179.906 54.7363 180.737 55.3045 181.821C55.8774 182.905 56.1639 184.203 56.1639 185.713C56.1639 187.228 55.8774 188.53 55.3045 189.619C54.7363 190.708 53.9196 191.544 52.8542 192.126C51.7936 192.709 50.5247 193 49.0474 193ZM46.9664 190.365H48.9196C49.8287 190.365 50.5933 190.204 51.2136 189.882C51.8386 189.555 52.3074 189.051 52.6199 188.369C52.9371 187.683 53.0957 186.797 53.0957 185.713C53.0957 184.638 52.9371 183.76 52.6199 183.078C52.3074 182.396 51.841 181.894 51.2207 181.572C50.6004 181.25 49.8358 181.089 48.9267 181.089H46.9664V190.365ZM58.3851 193V182.091H61.4107V193H58.3851ZM59.905 180.685C59.4552 180.685 59.0693 180.536 58.7473 180.237C58.4301 179.934 58.2715 179.572 58.2715 179.151C58.2715 178.734 58.4301 178.376 58.7473 178.078C59.0693 177.775 59.4552 177.624 59.905 177.624C60.3548 177.624 60.7383 177.775 61.0556 178.078C61.3775 178.376 61.5385 178.734 61.5385 179.151C61.5385 179.572 61.3775 179.934 61.0556 180.237C60.7383 180.536 60.3548 180.685 59.905 180.685ZM68.7491 197.318C67.769 197.318 66.9286 197.183 66.2278 196.913C65.5318 196.648 64.9778 196.286 64.5659 195.827C64.1539 195.367 63.8864 194.851 63.7633 194.278L66.5616 193.902C66.6468 194.12 66.7818 194.323 66.9664 194.513C67.1511 194.702 67.3949 194.854 67.698 194.967C68.0057 195.086 68.3798 195.145 68.8201 195.145C69.4783 195.145 70.0204 194.984 70.4466 194.662C70.8774 194.345 71.0929 193.812 71.0929 193.064V191.068H70.965C70.8324 191.371 70.6336 191.658 70.3684 191.928C70.1033 192.197 69.7624 192.418 69.3457 192.588C68.929 192.759 68.4319 192.844 67.8542 192.844C67.0351 192.844 66.2894 192.654 65.617 192.276C64.9494 191.892 64.4167 191.307 64.019 190.521C63.626 189.731 63.4295 188.732 63.4295 187.524C63.4295 186.288 63.6307 185.256 64.0332 184.428C64.4357 183.599 64.9707 182.979 65.6383 182.567C66.3107 182.155 67.0469 181.949 67.8471 181.949C68.4579 181.949 68.9693 182.053 69.3812 182.261C69.7931 182.465 70.1246 182.721 70.3755 183.028C70.6312 183.331 70.8277 183.63 70.965 183.923H71.0787V182.091H74.0829V193.107C74.0829 194.035 73.8556 194.811 73.4011 195.436C72.9466 196.061 72.3168 196.53 71.5119 196.842C70.7117 197.16 69.7908 197.318 68.7491 197.318ZM68.813 190.571C69.3007 190.571 69.7127 190.45 70.0488 190.209C70.3897 189.963 70.6502 189.612 70.8301 189.158C71.0147 188.698 71.1071 188.149 71.1071 187.51C71.1071 186.871 71.0171 186.317 70.8372 185.848C70.6573 185.375 70.3968 185.008 70.0559 184.747C69.715 184.487 69.3007 184.357 68.813 184.357C68.3159 184.357 67.8968 184.491 67.5559 184.761C67.215 185.027 66.957 185.396 66.7818 185.869C66.6066 186.343 66.519 186.89 66.519 187.51C66.519 188.14 66.6066 188.684 66.7818 189.143C66.9617 189.598 67.2198 189.951 67.5559 190.202C67.8968 190.448 68.3159 190.571 68.813 190.571ZM76.4906 193V182.091H79.5162V193H76.4906ZM78.0105 180.685C77.5607 180.685 77.1748 180.536 76.8528 180.237C76.5356 179.934 76.377 179.572 76.377 179.151C76.377 178.734 76.5356 178.376 76.8528 178.078C77.1748 177.775 77.5607 177.624 78.0105 177.624C78.4603 177.624 78.8438 177.775 79.161 178.078C79.483 178.376 79.644 178.734 79.644 179.151C79.644 179.572 79.483 179.934 79.161 180.237C78.8438 180.536 78.4603 180.685 78.0105 180.685ZM87.7424 182.091V184.364H81.1728V182.091H87.7424ZM82.6642 179.477H85.6898V189.648C85.6898 189.927 85.7324 190.145 85.8176 190.301C85.9029 190.453 86.0212 190.559 86.1728 190.621C86.329 190.682 86.5089 190.713 86.7125 190.713C86.8546 190.713 86.9966 190.701 87.1387 190.678C87.2807 190.649 87.3896 190.628 87.4654 190.614L87.9412 192.865C87.7897 192.912 87.5766 192.967 87.302 193.028C87.0274 193.095 86.6936 193.135 86.3006 193.149C85.5714 193.178 84.9322 193.08 84.383 192.858C83.8385 192.635 83.4147 192.29 83.1117 191.821C82.8087 191.352 82.6595 190.76 82.6642 190.045V179.477ZM92.824 193.206C92.128 193.206 91.5078 193.085 90.9632 192.844C90.4187 192.598 89.9879 192.235 89.6706 191.757C89.3581 191.274 89.2019 190.673 89.2019 189.953C89.2019 189.347 89.3132 188.838 89.5357 188.426C89.7582 188.014 90.0613 187.683 90.4448 187.432C90.8283 187.181 91.2639 186.991 91.7516 186.864C92.244 186.736 92.7601 186.646 93.2999 186.594C93.9344 186.527 94.4457 186.466 94.834 186.409C95.2222 186.348 95.504 186.258 95.6792 186.139C95.8543 186.021 95.9419 185.846 95.9419 185.614V185.571C95.9419 185.121 95.7999 184.773 95.5158 184.527C95.2364 184.281 94.8387 184.158 94.3226 184.158C93.7781 184.158 93.3449 184.278 93.0229 184.52C92.7009 184.757 92.4879 185.055 92.3837 185.415L89.5854 185.188C89.7275 184.525 90.0068 183.952 90.4235 183.469C90.8401 182.981 91.3775 182.607 92.0357 182.347C92.6986 182.081 93.4656 181.949 94.3368 181.949C94.9429 181.949 95.5229 182.02 96.0769 182.162C96.6356 182.304 97.1304 182.524 97.5613 182.822C97.9969 183.121 98.3401 183.504 98.5911 183.973C98.842 184.437 98.9675 184.993 98.9675 185.642V193H96.0982V191.487H96.013C95.8378 191.828 95.6034 192.129 95.3098 192.389C95.0163 192.645 94.6635 192.846 94.2516 192.993C93.8397 193.135 93.3638 193.206 92.824 193.206ZM93.6905 191.118C94.1356 191.118 94.5286 191.03 94.8695 190.855C95.2104 190.675 95.4779 190.434 95.6721 190.131C95.8662 189.828 95.9632 189.484 95.9632 189.101V187.943C95.8685 188.005 95.7383 188.062 95.5726 188.114C95.4116 188.161 95.2293 188.206 95.0257 188.249C94.8221 188.286 94.6185 188.322 94.415 188.355C94.2114 188.384 94.0267 188.41 93.861 188.433C93.5059 188.485 93.1957 188.568 92.9306 188.682C92.6654 188.795 92.4595 188.949 92.3127 189.143C92.1659 189.333 92.0925 189.57 92.0925 189.854C92.0925 190.266 92.2417 190.58 92.54 190.798C92.843 191.011 93.2265 191.118 93.6905 191.118ZM104.34 178.455V193H101.315V178.455H104.34ZM124.284 183.547H121.173C121.116 183.144 121 182.787 120.825 182.474C120.65 182.157 120.425 181.887 120.15 181.665C119.875 181.442 119.558 181.272 119.198 181.153C118.843 181.035 118.457 180.976 118.041 180.976C117.288 180.976 116.632 181.163 116.073 181.537C115.515 181.906 115.081 182.446 114.774 183.156C114.466 183.862 114.312 184.719 114.312 185.727C114.312 186.764 114.466 187.635 114.774 188.341C115.086 189.046 115.522 189.579 116.08 189.939C116.639 190.299 117.285 190.479 118.019 190.479C118.431 190.479 118.812 190.424 119.163 190.315C119.518 190.206 119.833 190.048 120.107 189.839C120.382 189.626 120.609 189.368 120.789 189.065C120.974 188.762 121.102 188.417 121.173 188.028L124.284 188.043C124.203 188.71 124.002 189.354 123.68 189.974C123.363 190.59 122.934 191.142 122.394 191.629C121.859 192.112 121.22 192.496 120.477 192.78C119.738 193.059 118.902 193.199 117.97 193.199C116.672 193.199 115.512 192.905 114.49 192.318C113.472 191.731 112.667 190.881 112.075 189.768C111.488 188.656 111.194 187.309 111.194 185.727C111.194 184.141 111.492 182.792 112.089 181.679C112.686 180.566 113.495 179.719 114.518 179.136C115.541 178.549 116.691 178.256 117.97 178.256C118.812 178.256 119.594 178.374 120.313 178.611C121.038 178.848 121.679 179.193 122.238 179.648C122.797 180.098 123.251 180.649 123.602 181.303C123.957 181.956 124.184 182.704 124.284 183.547ZM131.361 193.213C130.258 193.213 129.304 192.979 128.499 192.51C127.699 192.036 127.081 191.378 126.645 190.536C126.209 189.688 125.992 188.705 125.992 187.588C125.992 186.461 126.209 185.476 126.645 184.634C127.081 183.786 127.699 183.128 128.499 182.659C129.304 182.186 130.258 181.949 131.361 181.949C132.464 181.949 133.416 182.186 134.216 182.659C135.021 183.128 135.641 183.786 136.077 184.634C136.512 185.476 136.73 186.461 136.73 187.588C136.73 188.705 136.512 189.688 136.077 190.536C135.641 191.378 135.021 192.036 134.216 192.51C133.416 192.979 132.464 193.213 131.361 193.213ZM131.375 190.869C131.877 190.869 132.296 190.727 132.632 190.443C132.968 190.154 133.222 189.761 133.392 189.264C133.567 188.767 133.655 188.201 133.655 187.567C133.655 186.932 133.567 186.366 133.392 185.869C133.222 185.372 132.968 184.979 132.632 184.69C132.296 184.402 131.877 184.257 131.375 184.257C130.869 184.257 130.442 184.402 130.097 184.69C129.756 184.979 129.498 185.372 129.323 185.869C129.152 186.366 129.067 186.932 129.067 187.567C129.067 188.201 129.152 188.767 129.323 189.264C129.498 189.761 129.756 190.154 130.097 190.443C130.442 190.727 130.869 190.869 131.375 190.869ZM141.723 186.693V193H138.698V182.091H141.581V184.016H141.709C141.95 183.381 142.355 182.879 142.923 182.51C143.492 182.136 144.181 181.949 144.99 181.949C145.748 181.949 146.408 182.115 146.972 182.446C147.535 182.777 147.973 183.251 148.286 183.866C148.598 184.477 148.754 185.206 148.754 186.054V193H145.729V186.594C145.734 185.926 145.563 185.405 145.218 185.031C144.872 184.652 144.396 184.463 143.79 184.463C143.383 184.463 143.023 184.551 142.71 184.726C142.403 184.901 142.161 185.157 141.986 185.493C141.816 185.824 141.728 186.224 141.723 186.693ZM160.216 185.202L157.446 185.372C157.398 185.135 157.297 184.922 157.14 184.733C156.984 184.539 156.778 184.385 156.523 184.271C156.272 184.153 155.971 184.094 155.621 184.094C155.152 184.094 154.756 184.193 154.434 184.392C154.113 184.586 153.952 184.847 153.952 185.173C153.952 185.434 154.056 185.654 154.264 185.834C154.472 186.014 154.83 186.158 155.336 186.267L157.311 186.665C158.372 186.883 159.162 187.233 159.683 187.716C160.204 188.199 160.464 188.833 160.464 189.619C160.464 190.334 160.254 190.962 159.832 191.501C159.416 192.041 158.843 192.463 158.113 192.766C157.389 193.064 156.553 193.213 155.606 193.213C154.162 193.213 153.012 192.912 152.155 192.311C151.302 191.705 150.803 190.881 150.656 189.839L153.632 189.683C153.722 190.124 153.94 190.46 154.285 190.692C154.631 190.919 155.074 191.033 155.613 191.033C156.144 191.033 156.57 190.931 156.892 190.727C157.219 190.519 157.384 190.251 157.389 189.925C157.384 189.65 157.268 189.425 157.041 189.25C156.814 189.07 156.463 188.933 155.99 188.838L154.101 188.462C153.035 188.249 152.242 187.879 151.721 187.354C151.205 186.828 150.947 186.158 150.947 185.344C150.947 184.643 151.137 184.039 151.515 183.533C151.899 183.026 152.436 182.635 153.128 182.361C153.824 182.086 154.638 181.949 155.571 181.949C156.949 181.949 158.033 182.24 158.824 182.822C159.619 183.405 160.083 184.198 160.216 185.202ZM169.365 188.355V182.091H172.391V193H169.486V191.018H169.372C169.126 191.658 168.717 192.171 168.144 192.56C167.575 192.948 166.882 193.142 166.063 193.142C165.334 193.142 164.692 192.976 164.138 192.645C163.584 192.313 163.151 191.842 162.838 191.232C162.53 190.621 162.374 189.889 162.369 189.037V182.091H165.395V188.497C165.4 189.141 165.573 189.65 165.914 190.024C166.254 190.398 166.711 190.585 167.284 190.585C167.649 190.585 167.99 190.502 168.307 190.337C168.624 190.166 168.88 189.915 169.074 189.584C169.273 189.252 169.37 188.843 169.365 188.355ZM177.836 178.455V193H174.811V178.455H177.836ZM186.063 182.091V184.364H179.493V182.091H186.063ZM180.985 179.477H184.01V189.648C184.01 189.927 184.053 190.145 184.138 190.301C184.223 190.453 184.342 190.559 184.493 190.621C184.649 190.682 184.829 190.713 185.033 190.713C185.175 190.713 185.317 190.701 185.459 190.678C185.601 190.649 185.71 190.628 185.786 190.614L186.262 192.865C186.11 192.912 185.897 192.967 185.622 193.028C185.348 193.095 185.014 193.135 184.621 193.149C183.892 193.178 183.253 193.08 182.703 192.858C182.159 192.635 181.735 192.29 181.432 191.821C181.129 191.352 180.98 190.76 180.985 190.045V179.477ZM188.034 193V182.091H191.059V193H188.034ZM189.553 180.685C189.104 180.685 188.718 180.536 188.396 180.237C188.079 179.934 187.92 179.572 187.92 179.151C187.92 178.734 188.079 178.376 188.396 178.078C188.718 177.775 189.104 177.624 189.553 177.624C190.003 177.624 190.387 177.775 190.704 178.078C191.026 178.376 191.187 178.734 191.187 179.151C191.187 179.572 191.026 179.934 190.704 180.237C190.387 180.536 190.003 180.685 189.553 180.685ZM196.508 186.693V193H193.483V182.091H196.366V184.016H196.494C196.736 183.381 197.14 182.879 197.709 182.51C198.277 182.136 198.966 181.949 199.775 181.949C200.533 181.949 201.193 182.115 201.757 182.446C202.32 182.777 202.758 183.251 203.071 183.866C203.383 184.477 203.54 185.206 203.54 186.054V193H200.514V186.594C200.519 185.926 200.348 185.405 200.003 185.031C199.657 184.652 199.181 184.463 198.575 184.463C198.168 184.463 197.808 184.551 197.496 184.726C197.188 184.901 196.946 185.157 196.771 185.493C196.601 185.824 196.513 186.224 196.508 186.693ZM210.839 197.318C209.859 197.318 209.018 197.183 208.318 196.913C207.622 196.648 207.068 196.286 206.656 195.827C206.244 195.367 205.976 194.851 205.853 194.278L208.651 193.902C208.737 194.12 208.872 194.323 209.056 194.513C209.241 194.702 209.485 194.854 209.788 194.967C210.096 195.086 210.47 195.145 210.91 195.145C211.568 195.145 212.11 194.984 212.536 194.662C212.967 194.345 213.183 193.812 213.183 193.064V191.068H213.055C212.922 191.371 212.723 191.658 212.458 191.928C212.193 192.197 211.852 192.418 211.436 192.588C211.019 192.759 210.522 192.844 209.944 192.844C209.125 192.844 208.379 192.654 207.707 192.276C207.039 191.892 206.507 191.307 206.109 190.521C205.716 189.731 205.519 188.732 205.519 187.524C205.519 186.288 205.721 185.256 206.123 184.428C206.526 183.599 207.061 182.979 207.728 182.567C208.401 182.155 209.137 181.949 209.937 181.949C210.548 181.949 211.059 182.053 211.471 182.261C211.883 182.465 212.214 182.721 212.465 183.028C212.721 183.331 212.918 183.63 213.055 183.923H213.169V182.091H216.173V193.107C216.173 194.035 215.945 194.811 215.491 195.436C215.036 196.061 214.407 196.53 213.602 196.842C212.802 197.16 211.881 197.318 210.839 197.318ZM210.903 190.571C211.391 190.571 211.802 190.45 212.139 190.209C212.48 189.963 212.74 189.612 212.92 189.158C213.105 188.698 213.197 188.149 213.197 187.51C213.197 186.871 213.107 186.317 212.927 185.848C212.747 185.375 212.487 185.008 212.146 184.747C211.805 184.487 211.391 184.357 210.903 184.357C210.406 184.357 209.987 184.491 209.646 184.761C209.305 185.027 209.047 185.396 208.872 185.869C208.696 186.343 208.609 186.89 208.609 187.51C208.609 188.14 208.696 188.684 208.872 189.143C209.052 189.598 209.31 189.951 209.646 190.202C209.987 190.448 210.406 190.571 210.903 190.571Z" fill="#043C3C"/>
  <path d="M71.5663 228C71.4257 227.57 71.2403 227.184 71.0102 226.843C70.7844 226.498 70.5138 226.204 70.1984 225.961C69.8873 225.718 69.5336 225.533 69.1373 225.405C68.741 225.277 68.3064 225.213 67.8334 225.213C67.0578 225.213 66.3525 225.413 65.7176 225.814C65.0827 226.214 64.5777 226.805 64.2027 227.585C63.8277 228.364 63.6402 229.321 63.6402 230.455C63.6402 231.588 63.8298 232.545 64.2091 233.325C64.5883 234.104 65.1018 234.695 65.7496 235.095C66.3973 235.496 67.126 235.696 67.9356 235.696C68.6856 235.696 69.3461 235.536 69.9172 235.217C70.4925 234.893 70.9399 234.437 71.2595 233.849C71.5834 233.256 71.7453 232.56 71.7453 231.759L72.2311 231.861H68.2936V230.455H73.2794V231.861C73.2794 232.939 73.0493 233.876 72.589 234.673C72.1331 235.47 71.5024 236.088 70.697 236.527C69.8959 236.962 68.9754 237.179 67.9356 237.179C66.7765 237.179 65.7581 236.906 64.8802 236.361C64.0067 235.815 63.3248 235.04 62.8348 234.034C62.349 233.028 62.1061 231.835 62.1061 230.455C62.1061 229.419 62.2446 228.488 62.5216 227.661C62.8028 226.83 63.1991 226.123 63.7105 225.539C64.2219 224.955 64.827 224.508 65.5258 224.197C66.2247 223.886 66.9939 223.73 67.8334 223.73C68.5237 223.73 69.1672 223.835 69.7638 224.043C70.3646 224.248 70.8994 224.54 71.3682 224.919C71.8412 225.294 72.2354 225.744 72.5507 226.268C72.866 226.788 73.0834 227.365 73.2027 228H71.5663ZM75.7899 237V227.182H77.2472V228.665H77.3495C77.5285 228.179 77.8524 227.785 78.3211 227.482C78.7899 227.18 79.3183 227.028 79.9063 227.028C80.0171 227.028 80.1556 227.031 80.3218 227.035C80.488 227.039 80.6137 227.045 80.699 227.054V228.588C80.6478 228.575 80.5306 228.556 80.3474 228.531C80.1684 228.501 79.9788 228.486 79.7785 228.486C79.3012 228.486 78.8751 228.586 78.5001 228.786C78.1294 228.982 77.8353 229.255 77.618 229.604C77.4049 229.95 77.2984 230.344 77.2984 230.787V237H75.7899ZM86.1769 237.205C85.2906 237.205 84.5129 236.994 83.8438 236.572C83.1791 236.15 82.6592 235.56 82.2842 234.801C81.9134 234.043 81.7281 233.156 81.7281 232.142C81.7281 231.119 81.9134 230.227 82.2842 229.464C82.6592 228.701 83.1791 228.109 83.8438 227.687C84.5129 227.265 85.2906 227.054 86.1769 227.054C87.0633 227.054 87.8389 227.265 88.5036 227.687C89.1727 228.109 89.6926 228.701 90.0633 229.464C90.4383 230.227 90.6258 231.119 90.6258 232.142C90.6258 233.156 90.4383 234.043 90.0633 234.801C89.6926 235.56 89.1727 236.15 88.5036 236.572C87.8389 236.994 87.0633 237.205 86.1769 237.205ZM86.1769 235.849C86.8502 235.849 87.4042 235.677 87.8389 235.332C88.2735 234.987 88.5953 234.533 88.8041 233.97C89.0129 233.408 89.1173 232.798 89.1173 232.142C89.1173 231.486 89.0129 230.874 88.8041 230.308C88.5953 229.741 88.2735 229.283 87.8389 228.933C87.4042 228.584 86.8502 228.409 86.1769 228.409C85.5036 228.409 84.9497 228.584 84.515 228.933C84.0803 229.283 83.7586 229.741 83.5498 230.308C83.341 230.874 83.2366 231.486 83.2366 232.142C83.2366 232.798 83.341 233.408 83.5498 233.97C83.7586 234.533 84.0803 234.987 84.515 235.332C84.9497 235.677 85.5036 235.849 86.1769 235.849ZM94.819 237L91.8275 227.182H93.4127L95.5349 234.699H95.6372L97.7338 227.182H99.3445L101.416 234.673H101.518L103.64 227.182H105.225L102.234 237H100.751L98.6031 229.457H98.4497L96.3019 237H94.819ZM111.489 227.182V228.46H106.401V227.182H111.489ZM107.884 224.83H109.393V234.188C109.393 234.614 109.455 234.933 109.578 235.146C109.706 235.355 109.868 235.496 110.064 235.568C110.264 235.636 110.475 235.67 110.697 235.67C110.863 235.67 110.999 235.662 111.106 235.645C111.212 235.624 111.298 235.607 111.362 235.594L111.668 236.949C111.566 236.987 111.423 237.026 111.24 237.064C111.057 237.107 110.825 237.128 110.543 237.128C110.117 237.128 109.7 237.036 109.291 236.853C108.886 236.67 108.549 236.391 108.281 236.016C108.016 235.641 107.884 235.168 107.884 234.597V224.83ZM115.478 231.094V237H113.97V223.909H115.478V228.716H115.606C115.836 228.209 116.181 227.806 116.641 227.508C117.106 227.205 117.724 227.054 118.495 227.054C119.164 227.054 119.75 227.188 120.253 227.457C120.756 227.721 121.146 228.128 121.423 228.678C121.704 229.223 121.845 229.918 121.845 230.761V237H120.336V230.864C120.336 230.084 120.134 229.481 119.729 229.055C119.328 228.624 118.772 228.409 118.06 228.409C117.566 228.409 117.123 228.513 116.731 228.722C116.343 228.931 116.036 229.236 115.81 229.636C115.589 230.037 115.478 230.523 115.478 231.094ZM136.621 229.381L135.266 229.764C135.181 229.538 135.055 229.319 134.889 229.106C134.727 228.888 134.506 228.71 134.224 228.569C133.943 228.428 133.583 228.358 133.144 228.358C132.543 228.358 132.043 228.496 131.642 228.773C131.246 229.046 131.047 229.393 131.047 229.815C131.047 230.19 131.184 230.487 131.457 230.704C131.729 230.921 132.155 231.102 132.735 231.247L134.192 231.605C135.07 231.818 135.724 232.144 136.155 232.583C136.585 233.018 136.8 233.578 136.8 234.264C136.8 234.827 136.638 235.33 136.315 235.773C135.995 236.216 135.547 236.565 134.972 236.821C134.397 237.077 133.728 237.205 132.965 237.205C131.964 237.205 131.135 236.987 130.479 236.553C129.822 236.118 129.407 235.483 129.232 234.648L130.664 234.29C130.8 234.818 131.058 235.214 131.437 235.479C131.821 235.743 132.322 235.875 132.94 235.875C133.643 235.875 134.201 235.726 134.614 235.428C135.032 235.125 135.241 234.763 135.241 234.341C135.241 234 135.121 233.714 134.883 233.484C134.644 233.25 134.278 233.075 133.783 232.96L132.147 232.577C131.248 232.364 130.587 232.033 130.165 231.586C129.748 231.134 129.539 230.57 129.539 229.892C129.539 229.338 129.695 228.848 130.006 228.422C130.321 227.996 130.749 227.661 131.29 227.418C131.836 227.175 132.454 227.054 133.144 227.054C134.116 227.054 134.878 227.267 135.432 227.693C135.991 228.119 136.387 228.682 136.621 229.381ZM143.341 227.182V228.46H138.253V227.182H143.341ZM139.736 224.83H141.244V234.188C141.244 234.614 141.306 234.933 141.43 235.146C141.558 235.355 141.72 235.496 141.916 235.568C142.116 235.636 142.327 235.67 142.548 235.67C142.715 235.67 142.851 235.662 142.957 235.645C143.064 235.624 143.149 235.607 143.213 235.594L143.52 236.949C143.418 236.987 143.275 237.026 143.092 237.064C142.908 237.107 142.676 237.128 142.395 237.128C141.969 237.128 141.551 237.036 141.142 236.853C140.737 236.67 140.401 236.391 140.132 236.016C139.868 235.641 139.736 235.168 139.736 234.597V224.83ZM145.61 237V227.182H147.068V228.665H147.17C147.349 228.179 147.673 227.785 148.141 227.482C148.61 227.18 149.139 227.028 149.727 227.028C149.837 227.028 149.976 227.031 150.142 227.035C150.308 227.039 150.434 227.045 150.519 227.054V228.588C150.468 228.575 150.351 228.556 150.168 228.531C149.989 228.501 149.799 228.486 149.599 228.486C149.122 228.486 148.695 228.586 148.32 228.786C147.95 228.982 147.656 229.255 147.438 229.604C147.225 229.95 147.119 230.344 147.119 230.787V237H145.61ZM155.197 237.23C154.574 237.23 154.01 237.113 153.503 236.879C152.996 236.64 152.593 236.297 152.295 235.849C151.996 235.398 151.847 234.852 151.847 234.213C151.847 233.651 151.958 233.195 152.18 232.845C152.401 232.491 152.697 232.214 153.068 232.014C153.439 231.814 153.848 231.665 154.295 231.567C154.747 231.464 155.201 231.384 155.657 231.324C156.253 231.247 156.737 231.19 157.108 231.151C157.483 231.109 157.756 231.038 157.926 230.94C158.101 230.842 158.188 230.672 158.188 230.429V230.378C158.188 229.747 158.016 229.257 157.67 228.908C157.329 228.558 156.812 228.384 156.117 228.384C155.397 228.384 154.832 228.541 154.423 228.857C154.014 229.172 153.726 229.509 153.56 229.866L152.128 229.355C152.384 228.759 152.725 228.294 153.151 227.962C153.582 227.625 154.05 227.391 154.557 227.259C155.069 227.122 155.572 227.054 156.066 227.054C156.381 227.054 156.744 227.092 157.153 227.169C157.566 227.241 157.964 227.393 158.348 227.623C158.736 227.853 159.057 228.2 159.313 228.665C159.569 229.129 159.697 229.751 159.697 230.531V237H158.188V235.67H158.111C158.009 235.884 157.839 236.112 157.6 236.354C157.361 236.597 157.044 236.804 156.648 236.974C156.251 237.145 155.768 237.23 155.197 237.23ZM155.427 235.875C156.023 235.875 156.526 235.758 156.935 235.523C157.349 235.289 157.66 234.987 157.869 234.616C158.082 234.245 158.188 233.855 158.188 233.446V232.065C158.124 232.142 157.984 232.212 157.766 232.276C157.553 232.336 157.306 232.389 157.025 232.436C156.748 232.479 156.477 232.517 156.213 232.551C155.953 232.581 155.742 232.607 155.58 232.628C155.188 232.679 154.822 232.762 154.481 232.877C154.144 232.988 153.871 233.156 153.663 233.382C153.458 233.604 153.356 233.906 153.356 234.29C153.356 234.814 153.55 235.21 153.937 235.479C154.329 235.743 154.826 235.875 155.427 235.875ZM166.72 227.182V228.46H161.632V227.182H166.72ZM163.115 224.83H164.623V234.188C164.623 234.614 164.685 234.933 164.809 235.146C164.937 235.355 165.098 235.496 165.294 235.568C165.495 235.636 165.706 235.67 165.927 235.67C166.093 235.67 166.23 235.662 166.336 235.645C166.443 235.624 166.528 235.607 166.592 235.594L166.899 236.949C166.797 236.987 166.654 237.026 166.471 237.064C166.287 237.107 166.055 237.128 165.774 237.128C165.348 237.128 164.93 237.036 164.521 236.853C164.116 236.67 163.78 236.391 163.511 236.016C163.247 235.641 163.115 235.168 163.115 234.597V224.83ZM173 237.205C172.054 237.205 171.238 236.996 170.552 236.578C169.87 236.156 169.344 235.568 168.973 234.814C168.607 234.055 168.423 233.173 168.423 232.168C168.423 231.162 168.607 230.276 168.973 229.509C169.344 228.737 169.859 228.136 170.52 227.706C171.185 227.271 171.96 227.054 172.847 227.054C173.358 227.054 173.863 227.139 174.362 227.31C174.86 227.48 175.314 227.757 175.723 228.141C176.132 228.52 176.458 229.023 176.701 229.649C176.944 230.276 177.065 231.047 177.065 231.963V232.602H169.497V231.298H175.531C175.531 230.744 175.421 230.25 175.199 229.815C174.982 229.381 174.671 229.038 174.266 228.786C173.865 228.535 173.392 228.409 172.847 228.409C172.246 228.409 171.726 228.558 171.287 228.857C170.852 229.151 170.518 229.534 170.283 230.007C170.049 230.48 169.932 230.987 169.932 231.528V232.398C169.932 233.139 170.06 233.768 170.315 234.283C170.575 234.795 170.935 235.185 171.396 235.453C171.856 235.717 172.391 235.849 173 235.849C173.396 235.849 173.754 235.794 174.074 235.683C174.398 235.568 174.677 235.398 174.911 235.172C175.146 234.942 175.327 234.656 175.455 234.315L176.912 234.724C176.759 235.219 176.501 235.653 176.139 236.028C175.776 236.399 175.329 236.689 174.796 236.898C174.264 237.102 173.665 237.205 173 237.205ZM183.323 240.886C182.595 240.886 181.968 240.793 181.444 240.605C180.92 240.422 180.483 240.179 180.134 239.876C179.788 239.578 179.514 239.259 179.309 238.918L180.511 238.074C180.647 238.253 180.82 238.457 181.028 238.688C181.237 238.922 181.523 239.124 181.885 239.295C182.252 239.469 182.731 239.557 183.323 239.557C184.116 239.557 184.77 239.365 185.286 238.982C185.801 238.598 186.059 237.997 186.059 237.179V235.185H185.931C185.82 235.364 185.663 235.585 185.458 235.849C185.258 236.109 184.968 236.342 184.589 236.546C184.214 236.746 183.707 236.847 183.068 236.847C182.275 236.847 181.563 236.659 180.933 236.284C180.306 235.909 179.81 235.364 179.443 234.648C179.081 233.932 178.9 233.062 178.9 232.04C178.9 231.034 179.077 230.158 179.43 229.413C179.784 228.663 180.276 228.083 180.907 227.674C181.538 227.261 182.266 227.054 183.093 227.054C183.732 227.054 184.239 227.161 184.614 227.374C184.994 227.582 185.283 227.821 185.484 228.089C185.688 228.354 185.846 228.571 185.957 228.741H186.11V227.182H187.568V237.281C187.568 238.125 187.376 238.811 186.992 239.339C186.613 239.872 186.102 240.262 185.458 240.509C184.819 240.761 184.107 240.886 183.323 240.886ZM183.272 235.491C183.877 235.491 184.389 235.353 184.806 235.076C185.224 234.799 185.541 234.401 185.759 233.881C185.976 233.361 186.085 232.739 186.085 232.014C186.085 231.307 185.978 230.683 185.765 230.141C185.552 229.6 185.237 229.176 184.819 228.869C184.401 228.562 183.886 228.409 183.272 228.409C182.633 228.409 182.1 228.571 181.674 228.895C181.252 229.219 180.935 229.653 180.722 230.199C180.513 230.744 180.408 231.349 180.408 232.014C180.408 232.696 180.515 233.299 180.728 233.823C180.945 234.343 181.265 234.752 181.687 235.05C182.113 235.344 182.641 235.491 183.272 235.491ZM191.301 240.682C191.045 240.682 190.817 240.661 190.617 240.618C190.416 240.58 190.278 240.541 190.201 240.503L190.585 239.173C190.951 239.267 191.275 239.301 191.556 239.276C191.837 239.25 192.087 239.124 192.304 238.898C192.526 238.677 192.728 238.317 192.911 237.818L193.193 237.051L189.562 227.182H191.198L193.908 235.006H194.011L196.721 227.182H198.357L194.19 238.432C194.002 238.939 193.77 239.359 193.493 239.691C193.216 240.028 192.894 240.277 192.528 240.439C192.166 240.601 191.756 240.682 191.301 240.682ZM58.8797 258.455C58.8797 259.835 58.6304 261.028 58.1318 262.034C57.6333 263.04 56.9493 263.815 56.08 264.361C55.2107 264.906 54.2178 265.179 53.1013 265.179C51.9848 265.179 50.9919 264.906 50.1226 264.361C49.2533 263.815 48.5693 263.04 48.0708 262.034C47.5722 261.028 47.3229 259.835 47.3229 258.455C47.3229 257.074 47.5722 255.881 48.0708 254.875C48.5693 253.869 49.2533 253.094 50.1226 252.548C50.9919 252.003 51.9848 251.73 53.1013 251.73C54.2178 251.73 55.2107 252.003 56.08 252.548C56.9493 253.094 57.6333 253.869 58.1318 254.875C58.6304 255.881 58.8797 257.074 58.8797 258.455ZM57.3456 258.455C57.3456 257.321 57.156 256.364 56.7767 255.585C56.4017 254.805 55.8925 254.214 55.249 253.814C54.6098 253.413 53.8939 253.213 53.1013 253.213C52.3087 253.213 51.5906 253.413 50.9472 253.814C50.308 254.214 49.7987 254.805 49.4195 255.585C49.0445 256.364 48.857 257.321 48.857 258.455C48.857 259.588 49.0445 260.545 49.4195 261.325C49.7987 262.104 50.308 262.695 50.9472 263.095C51.5906 263.496 52.3087 263.696 53.1013 263.696C53.8939 263.696 54.6098 263.496 55.249 263.095C55.8925 262.695 56.4017 262.104 56.7767 261.325C57.156 260.545 57.3456 259.588 57.3456 258.455ZM61.3406 265V255.182H62.798V256.716H62.9259C63.1304 256.192 63.4607 255.785 63.9166 255.495C64.3726 255.201 64.9202 255.054 65.5594 255.054C66.2071 255.054 66.7462 255.201 67.1766 255.495C67.6112 255.785 67.95 256.192 68.1929 256.716H68.2952C68.5466 256.209 68.9237 255.806 69.4266 255.508C69.9294 255.205 70.5324 255.054 71.2355 255.054C72.1134 255.054 72.8314 255.329 73.3896 255.879C73.9479 256.424 74.227 257.274 74.227 258.429V265H72.7185V258.429C72.7185 257.705 72.5203 257.187 72.124 256.876C71.7277 256.565 71.2611 256.409 70.7242 256.409C70.0338 256.409 69.499 256.618 69.1198 257.036C68.7405 257.449 68.5509 257.973 68.5509 258.608V265H67.0168V258.276C67.0168 257.717 66.8357 257.268 66.4735 256.927C66.1112 256.582 65.6446 256.409 65.0736 256.409C64.6816 256.409 64.3151 256.513 63.9742 256.722C63.6375 256.931 63.3648 257.221 63.156 257.592C62.9514 257.958 62.8492 258.382 62.8492 258.864V265H61.3406ZM78.4937 259.094V265H76.9852V255.182H78.4426V256.716H78.5704C78.8005 256.217 79.1499 255.817 79.6187 255.514C80.0874 255.207 80.6926 255.054 81.434 255.054C82.0988 255.054 82.6805 255.19 83.1791 255.463C83.6776 255.732 84.0654 256.141 84.3424 256.69C84.6194 257.236 84.7579 257.926 84.7579 258.761V265H83.2494V258.864C83.2494 258.092 83.0491 257.491 82.6485 257.061C82.248 256.626 81.6982 256.409 80.9994 256.409C80.5178 256.409 80.0874 256.513 79.7082 256.722C79.3332 256.931 79.037 257.236 78.8197 257.636C78.6024 258.037 78.4937 258.523 78.4937 259.094ZM87.5145 265V255.182H89.023V265H87.5145ZM88.2815 253.545C87.9875 253.545 87.7339 253.445 87.5209 253.245C87.3121 253.045 87.2077 252.804 87.2077 252.523C87.2077 252.241 87.3121 252.001 87.5209 251.8C87.7339 251.6 87.9875 251.5 88.2815 251.5C88.5756 251.5 88.827 251.6 89.0358 251.8C89.2488 252.001 89.3554 252.241 89.3554 252.523C89.3554 252.804 89.2488 253.045 89.0358 253.245C88.827 253.445 88.5756 253.545 88.2815 253.545ZM97.411 258.685V260.091H91.6837V258.685H97.411ZM104.054 265.205C103.133 265.205 102.341 264.987 101.676 264.553C101.011 264.118 100.5 263.519 100.142 262.756C99.784 261.994 99.605 261.122 99.605 260.142C99.605 259.145 99.7883 258.265 100.155 257.502C100.525 256.735 101.041 256.136 101.702 255.706C102.366 255.271 103.142 255.054 104.028 255.054C104.719 255.054 105.341 255.182 105.895 255.438C106.449 255.693 106.903 256.051 107.256 256.511C107.61 256.972 107.829 257.509 107.915 258.122H106.406C106.291 257.675 106.035 257.278 105.639 256.933C105.247 256.584 104.719 256.409 104.054 256.409C103.466 256.409 102.95 256.562 102.507 256.869C102.068 257.172 101.725 257.6 101.478 258.154C101.235 258.704 101.114 259.349 101.114 260.091C101.114 260.849 101.233 261.51 101.472 262.072C101.714 262.635 102.055 263.072 102.494 263.383C102.937 263.694 103.457 263.849 104.054 263.849C104.446 263.849 104.802 263.781 105.121 263.645C105.441 263.509 105.712 263.312 105.933 263.057C106.155 262.801 106.312 262.494 106.406 262.136H107.915C107.829 262.716 107.619 263.238 107.282 263.702C106.949 264.163 106.508 264.529 105.959 264.802C105.413 265.07 104.778 265.205 104.054 265.205ZM111.628 259.094V265H110.12V251.909H111.628V256.716H111.756C111.986 256.209 112.332 255.806 112.792 255.508C113.256 255.205 113.874 255.054 114.646 255.054C115.315 255.054 115.9 255.188 116.403 255.457C116.906 255.721 117.296 256.128 117.573 256.678C117.854 257.223 117.995 257.918 117.995 258.761V265H116.486V258.864C116.486 258.084 116.284 257.481 115.879 257.055C115.479 256.624 114.922 256.409 114.211 256.409C113.717 256.409 113.273 256.513 112.881 256.722C112.494 256.931 112.187 257.236 111.961 257.636C111.739 258.037 111.628 258.523 111.628 259.094ZM123.644 265.23C123.022 265.23 122.457 265.113 121.95 264.879C121.443 264.64 121.04 264.297 120.742 263.849C120.444 263.398 120.294 262.852 120.294 262.213C120.294 261.651 120.405 261.195 120.627 260.845C120.848 260.491 121.145 260.214 121.515 260.014C121.886 259.814 122.295 259.665 122.743 259.567C123.194 259.464 123.648 259.384 124.104 259.324C124.701 259.247 125.184 259.19 125.555 259.151C125.93 259.109 126.203 259.038 126.373 258.94C126.548 258.842 126.635 258.672 126.635 258.429V258.378C126.635 257.747 126.463 257.257 126.118 256.908C125.777 256.558 125.259 256.384 124.564 256.384C123.844 256.384 123.28 256.541 122.87 256.857C122.461 257.172 122.174 257.509 122.008 257.866L120.576 257.355C120.831 256.759 121.172 256.294 121.598 255.962C122.029 255.625 122.498 255.391 123.005 255.259C123.516 255.122 124.019 255.054 124.513 255.054C124.829 255.054 125.191 255.092 125.6 255.169C126.013 255.241 126.412 255.393 126.795 255.623C127.183 255.853 127.505 256.2 127.76 256.665C128.016 257.129 128.144 257.751 128.144 258.531V265H126.635V263.67H126.559C126.456 263.884 126.286 264.112 126.047 264.354C125.809 264.597 125.491 264.804 125.095 264.974C124.699 265.145 124.215 265.23 123.644 265.23ZM123.874 263.875C124.471 263.875 124.973 263.758 125.383 263.523C125.796 263.289 126.107 262.987 126.316 262.616C126.529 262.245 126.635 261.855 126.635 261.446V260.065C126.571 260.142 126.431 260.212 126.214 260.276C126 260.336 125.753 260.389 125.472 260.436C125.195 260.479 124.924 260.517 124.66 260.551C124.4 260.581 124.189 260.607 124.027 260.628C123.635 260.679 123.269 260.762 122.928 260.877C122.591 260.988 122.319 261.156 122.11 261.382C121.905 261.604 121.803 261.906 121.803 262.29C121.803 262.814 121.997 263.21 122.385 263.479C122.777 263.743 123.273 263.875 123.874 263.875ZM132.406 259.094V265H130.897V255.182H132.355V256.716H132.483C132.713 256.217 133.062 255.817 133.531 255.514C134 255.207 134.605 255.054 135.346 255.054C136.011 255.054 136.593 255.19 137.091 255.463C137.59 255.732 137.978 256.141 138.255 256.69C138.532 257.236 138.67 257.926 138.67 258.761V265H137.161V258.864C137.161 258.092 136.961 257.491 136.561 257.061C136.16 256.626 135.61 256.409 134.911 256.409C134.43 256.409 134 256.513 133.62 256.722C133.245 256.931 132.949 257.236 132.732 257.636C132.514 258.037 132.406 258.523 132.406 259.094ZM142.935 259.094V265H141.427V255.182H142.884V256.716H143.012C143.242 256.217 143.591 255.817 144.06 255.514C144.529 255.207 145.134 255.054 145.875 255.054C146.54 255.054 147.122 255.19 147.62 255.463C148.119 255.732 148.507 256.141 148.784 256.69C149.061 257.236 149.199 257.926 149.199 258.761V265H147.691V258.864C147.691 258.092 147.491 257.491 147.09 257.061C146.689 256.626 146.14 256.409 145.441 256.409C144.959 256.409 144.529 256.513 144.15 256.722C143.775 256.931 143.478 257.236 143.261 257.636C143.044 258.037 142.935 258.523 142.935 259.094ZM156.072 265.205C155.126 265.205 154.31 264.996 153.624 264.578C152.942 264.156 152.416 263.568 152.045 262.814C151.679 262.055 151.496 261.173 151.496 260.168C151.496 259.162 151.679 258.276 152.045 257.509C152.416 256.737 152.932 256.136 153.592 255.706C154.257 255.271 155.033 255.054 155.919 255.054C156.43 255.054 156.935 255.139 157.434 255.31C157.932 255.48 158.386 255.757 158.795 256.141C159.204 256.52 159.53 257.023 159.773 257.649C160.016 258.276 160.138 259.047 160.138 259.963V260.602H152.57V259.298H158.604C158.604 258.744 158.493 258.25 158.271 257.815C158.054 257.381 157.743 257.038 157.338 256.786C156.937 256.535 156.464 256.409 155.919 256.409C155.318 256.409 154.798 256.558 154.359 256.857C153.925 257.151 153.59 257.534 153.356 258.007C153.121 258.48 153.004 258.987 153.004 259.528V260.398C153.004 261.139 153.132 261.768 153.388 262.283C153.648 262.795 154.008 263.185 154.468 263.453C154.928 263.717 155.463 263.849 156.072 263.849C156.469 263.849 156.827 263.794 157.146 263.683C157.47 263.568 157.749 263.398 157.984 263.172C158.218 262.942 158.399 262.656 158.527 262.315L159.984 262.724C159.831 263.219 159.573 263.653 159.211 264.028C158.849 264.399 158.401 264.689 157.869 264.898C157.336 265.102 156.737 265.205 156.072 265.205ZM163.941 251.909V265H162.432V251.909H163.941ZM168.954 263.21L168.852 263.901C168.779 264.386 168.668 264.906 168.519 265.46C168.374 266.014 168.223 266.536 168.065 267.026C167.908 267.516 167.778 267.906 167.676 268.196H166.525C166.58 267.923 166.653 267.563 166.742 267.116C166.832 266.668 166.921 266.168 167.011 265.614C167.104 265.064 167.181 264.501 167.241 263.926L167.318 263.21H168.954ZM188.061 258.455C188.061 259.835 187.812 261.028 187.313 262.034C186.815 263.04 186.131 263.815 185.262 264.361C184.392 264.906 183.399 265.179 182.283 265.179C181.166 265.179 180.174 264.906 179.304 264.361C178.435 263.815 177.751 263.04 177.252 262.034C176.754 261.028 176.505 259.835 176.505 258.455C176.505 257.074 176.754 255.881 177.252 254.875C177.751 253.869 178.435 253.094 179.304 252.548C180.174 252.003 181.166 251.73 182.283 251.73C183.399 251.73 184.392 252.003 185.262 252.548C186.131 253.094 186.815 253.869 187.313 254.875C187.812 255.881 188.061 257.074 188.061 258.455ZM186.527 258.455C186.527 257.321 186.338 256.364 185.958 255.585C185.583 254.805 185.074 254.214 184.431 253.814C183.791 253.413 183.076 253.213 182.283 253.213C181.49 253.213 180.772 253.413 180.129 253.814C179.49 254.214 178.98 254.805 178.601 255.585C178.226 256.364 178.039 257.321 178.039 258.455C178.039 259.588 178.226 260.545 178.601 261.325C178.98 262.104 179.49 262.695 180.129 263.095C180.772 263.496 181.49 263.696 182.283 263.696C183.076 263.696 183.791 263.496 184.431 263.095C185.074 262.695 185.583 262.104 185.958 261.325C186.338 260.545 186.527 259.588 186.527 258.455ZM190.497 265V263.849L194.818 259.119C195.325 258.565 195.742 258.084 196.071 257.675C196.399 257.261 196.642 256.874 196.799 256.511C196.961 256.145 197.042 255.761 197.042 255.361C197.042 254.901 196.931 254.502 196.71 254.165C196.492 253.829 196.194 253.569 195.815 253.386C195.436 253.202 195.009 253.111 194.536 253.111C194.034 253.111 193.595 253.215 193.22 253.424C192.849 253.629 192.561 253.916 192.357 254.287C192.157 254.658 192.056 255.092 192.056 255.591H190.548C190.548 254.824 190.725 254.151 191.078 253.571C191.432 252.991 191.914 252.54 192.523 252.216C193.137 251.892 193.825 251.73 194.588 251.73C195.355 251.73 196.034 251.892 196.627 252.216C197.219 252.54 197.684 252.977 198.02 253.526C198.357 254.076 198.525 254.688 198.525 255.361C198.525 255.842 198.438 256.313 198.263 256.773C198.093 257.229 197.794 257.739 197.368 258.301C196.946 258.859 196.36 259.541 195.61 260.347L192.67 263.491V263.594H198.755V265H190.497ZM212.671 258.455C212.671 259.835 212.421 261.028 211.923 262.034C211.424 263.04 210.74 263.815 209.871 264.361C209.002 264.906 208.009 265.179 206.892 265.179C205.776 265.179 204.783 264.906 203.914 264.361C203.044 263.815 202.36 263.04 201.862 262.034C201.363 261.028 201.114 259.835 201.114 258.455C201.114 257.074 201.363 255.881 201.862 254.875C202.36 253.869 203.044 253.094 203.914 252.548C204.783 252.003 205.776 251.73 206.892 251.73C208.009 251.73 209.002 252.003 209.871 252.548C210.74 253.094 211.424 253.869 211.923 254.875C212.421 255.881 212.671 257.074 212.671 258.455ZM211.137 258.455C211.137 257.321 210.947 256.364 210.568 255.585C210.193 254.805 209.684 254.214 209.04 253.814C208.401 253.413 207.685 253.213 206.892 253.213C206.1 253.213 205.382 253.413 204.738 253.814C204.099 254.214 203.59 254.805 203.21 255.585C202.835 256.364 202.648 257.321 202.648 258.455C202.648 259.588 202.835 260.545 203.21 261.325C203.59 262.104 204.099 262.695 204.738 263.095C205.382 263.496 206.1 263.696 206.892 263.696C207.685 263.696 208.401 263.496 209.04 263.095C209.684 262.695 210.193 262.104 210.568 261.325C210.947 260.545 211.137 259.588 211.137 258.455Z" fill="#272A30"/>
  <defs>
    <clipPath id="clip0_1475_2177">
      <rect width="120" height="120" fill="white" transform="translate(70 18)"/>
    </clipPath>
    <clipPath id="clip1_1475_2177">
      <rect width="100" height="114.37" fill="white" transform="translate(80 26.7185)"/>
    </clipPath>
    <clipPath id="clip2_1475_2177">
      <rect width="43.9977" height="41.2902" fill="white" transform="translate(130.09 92.3766)"/>
    </clipPath>
  </defs>
</svg>
